<svg xmlns="http://www.w3.org/2000/svg" width="1001" height="772" fill="none" viewBox="0 0 1001 772"><path fill="#FDF2E8" d="M910.438 160.817v-46.4s0-56.8-53.5-56.8h-476.9s-53.5 0-53.5 56.8v46.4s0 1.4.2 3.7v9.8c.6 19.2-17.6 38.8-35.1 40.4 4.7 1.8 9.8 2.9 15.2 2.9 13 0 25.8-6 35-15.5 7.9 8.8 19.9 15.5 38.2 15.5h476.9c.1-.1 53.5-.1 53.5-56.8"></path><path fill="#FF6900" d="M391.338 99.817q3.6 4.05 3.6 12c0 5.2-1.2 9.2-3.6 11.9s-5.9 4.1-10.5 4.1c-3 0-5.7-.8-7.9-2.5s-3.5-3.7-3.8-6.3q-.15-.75.3-1.2c.4-.5 1-.7 1.7-.7.6 0 1.2.1 1.6.4s.7.7.7 1.2c.8 3.2 3.2 4.8 7.3 4.8 1.8 0 3.3-.3 4.5-.8 1.2-.6 2.2-1.3 2.8-2.4s1.1-2.1 1.3-3.3c.3-1.1.4-2.4.5-3.9h-11.5c-1.3 0-1.9-.7-1.9-2s.6-2 1.9-2h11.4c-.1-1.3-.3-2.4-.7-3.4s-.8-2-1.4-2.9q-.9-1.35-2.7-2.1c-1.2-.5-2.6-.7-4.2-.7-1 0-2 .1-3 .4s-1.9.8-2.7 1.6-1.4 1.7-1.6 2.8-1 1.6-2.3 1.6c-.8-.1-1.4-.3-1.8-.7-.3-.3-.3-.8-.3-1.2.4-2.8 1.7-5 4-6.5s4.9-2.3 7.7-2.3c4.7 0 8.2 1.4 10.6 4.1M416.738 103.817c1.4 0 2.2.6 2.2 1.8v20.4c0 1.2-.7 1.8-2.2 1.8s-2.2-.6-2.2-1.8v-15.1c-.5.9-1 1.6-1.4 2.2l-9.6 13.9c-.4.6-1.1.8-2 .8-1.4 0-2.2-.6-2.2-1.8v-20.4c0-1.2.7-1.8 2.2-1.8 1.4 0 2.2.6 2.2 1.8v15.2c.6-1 4.3-6.4 11-16.3.5-.4 1.1-.7 2-.7m-1.7-7.5c.8.4 1 1 .6 1.9-.5 1-1.4 1.8-2.6 2.4s-2.5.8-3.8.8c-1.6 0-2.9-.3-4-1s-1.9-1.4-2.3-2.2q-.45-1.35.9-2.1c.7-.2 1.3 0 1.8.7 1 1 2.3 1.6 3.6 1.6 1.5 0 2.7-.5 3.6-1.6.7-.7 1.4-.8 2.2-.5M424.538 132.717c-.3-.3-.4-.7-.3-1.1l1.3-7.6q.45-1.95 3-1.8c.9.1 1.5.4 1.9.9s.4 1.2.1 2l-3 7c-.2.5-.4.8-.7 1s-.7.2-1.3.2c-.4-.2-.7-.3-1-.6M463.238 104.317c1.1 0 1.6.6 1.6 1.7s-.5 1.7-1.6 1.7h-5.2v18.4q0 1.8-2.1 1.8c-1.4 0-2.2-.6-2.2-1.8v-18.5h-5.1c-1.1 0-1.7-.6-1.7-1.7s.5-1.7 1.7-1.7h14.6zM477.938 129.417q-.6 1.35-.9 2.1c-.2.5-.6 1.1-1.1 1.8q-.75 1.05-1.8 1.5c-.7.3-1.6.5-2.5.5-.6 0-1.2-.1-1.8-.2-.4-.1-.8-.3-1.1-.7s-.4-.9-.4-1.5c.1-1.3.9-1.7 2.4-1.3.8.1 1.5 0 1.9-.3s.8-1 1.1-1.8l1.1-3c-.9-2.3-2.3-5.7-4.1-10.2s-3.2-8-4.1-10.2c-.3-.6-.2-1.1.2-1.4s1-.5 1.8-.5c1.2 0 2 .6 2.5 1.7l5.3 13.5c.1.3.3.9.6 1.6.2-.6.4-1.2.6-1.7l5-13.4c.4-1.1 1.2-1.7 2.5-1.7.8 0 1.4.2 1.9.5s.6.8.3 1.4zM505.038 104.317c1.1 0 1.6.6 1.6 1.7s-.5 1.7-1.6 1.7h-5.2v18.4q0 1.8-2.1 1.8c-1.4 0-2.2-.6-2.2-1.8v-18.5h-5.1c-1.1 0-1.7-.6-1.7-1.7s.6-1.7 1.7-1.7h14.6zM527.638 113.617h9.9v-8c0-1.2.7-1.8 2.2-1.8 1.4 0 2.2.6 2.2 1.8v20.4c0 1.2-.7 1.8-2.2 1.8-1.4 0-2.2-.6-2.2-1.8v-9.1h-9.9v9.1c0 1.2-.7 1.8-2.2 1.8-1.4 0-2.2-.6-2.2-1.8v-20.4c0-1.2.7-1.8 2.2-1.8 1.4 0 2.2.6 2.2 1.8zM562.438 124.117q-2.7 3.9-8.1 3.9c-2.3 0-4.3-.6-5.8-1.9-1.5-1.2-2.3-3-2.3-5.3 0-5.4 4.4-8.1 13.3-8.1h2.9c0-1.4-.1-2.6-.4-3.5-.6-1.6-2.4-2.4-5.3-2.4-2 0-3.7.5-5.1 1.6-.4.3-.9.5-1.3.5s-1-.2-1.5-.5-.7-.7-.7-1.2.3-1 1-1.5c1.9-1.4 4.6-2.1 8.3-2.1 3.4 0 5.8.8 7.2 2.3 1.5 1.5 2.2 3.9 2.2 7.1v9.6c0 1.1.1 2.1.2 2.8.1 1.2-.4 1.9-1.6 2-1.5.1-2.3-.4-2.6-1.5-.3-1-.4-1.6-.4-1.8m0-8.1c-1.3-.1-2.4-.1-3.1-.1-1 0-2 .1-2.9.2s-1.8.4-2.7.7-1.6.9-2.1 1.6-.8 1.6-.8 2.5q0 1.8 1.2 2.7c.8.6 1.8 1 3 1 2.2 0 4-.7 5.3-2.2 1.6-1.5 2.3-3.7 2.1-6.4M588.938 126.017q0 1.8-2.1 1.8c-1.4 0-2.2-.6-2.2-1.8v-7.9c-1.4 1-3.2 1.6-5.6 1.6-5.2 0-7.9-2.2-7.9-6.7v-7.4c0-1.2.7-1.8 2.2-1.8s2.2.6 2.2 1.8v6.3c0 1.7.3 2.9.8 3.6.6.7 1.6 1 3 1 1.7 0 3-.4 3.9-1.1s1.3-1.6 1.3-2.6v-7.2c0-1.2.7-1.8 2.2-1.8q2.1 0 2.1 1.8v20.4zM614.538 126.017c0 1.2-.7 1.8-2.2 1.8s-2.2-.6-2.2-1.8v-15c-.3.4-.6.9-1 1.5l-.5.8-9.5 13.7c-.4.6-1.1.8-2 .8-1.4 0-2.2-.6-2.2-1.8v-20.4c0-1.2.7-1.8 2.2-1.8s2.2.6 2.2 1.8v15.2c.1-.1.6-1 1.7-2.6l9.3-13.5c.3-.5 1-.7 1.9-.7 1.4 0 2.2.6 2.2 1.8v20.2zM625.038 113.617h9.9v-8c0-1.2.7-1.8 2.2-1.8 1.4 0 2.2.6 2.2 1.8v20.4c0 1.2-.7 1.8-2.2 1.8-1.4 0-2.2-.6-2.2-1.8v-9.1h-9.9v9.1c0 1.2-.7 1.8-2.2 1.8-1.4 0-2.2-.6-2.2-1.8v-20.4c0-1.2.7-1.8 2.2-1.8 1.4 0 2.2.6 2.2 1.8zM659.838 124.117q-2.7 3.9-8.1 3.9c-2.3 0-4.3-.6-5.8-1.9-1.5-1.2-2.3-3-2.3-5.3 0-5.4 4.4-8.1 13.3-8.1h2.9c0-1.4-.1-2.6-.4-3.5-.6-1.6-2.4-2.4-5.3-2.4-2 0-3.7.5-5.1 1.6-.4.3-.9.5-1.3.5s-1-.2-1.5-.5-.7-.7-.7-1.2.3-1 1-1.5c1.9-1.4 4.6-2.1 8.3-2.1 3.4 0 5.8.8 7.2 2.3 1.5 1.5 2.2 3.9 2.2 7.1v9.6c0 1.1.1 2.1.2 2.8.1 1.2-.4 1.9-1.6 2-1.5.1-2.3-.4-2.6-1.5-.3-1-.4-1.6-.4-1.8m0-8.1c-1.3-.1-2.4-.1-3.1-.1-1 0-2 .1-2.9.2s-1.8.4-2.7.7-1.6.9-2.1 1.6-.8 1.6-.8 2.5q0 1.8 1.2 2.7c.8.6 1.8 1 3 1 2.2 0 4-.7 5.3-2.2 1.6-1.5 2.3-3.7 2.1-6.4M674.338 113.217h5c.4-2.9 1.5-5.2 3.2-6.9 1.8-1.7 4.3-2.5 7.6-2.5 7.2 0 10.9 4 10.9 12s-3.6 11.9-10.9 11.9c-6.8 0-10.4-3.7-10.9-11.2h-4.9v9.4c0 1.2-.7 1.8-2.2 1.8-1.4 0-2.2-.6-2.2-1.8v-20.3c0-1.2.7-1.8 2.2-1.8 1.4 0 2.2.6 2.2 1.8zm9.7 5.6c.2.9.5 1.9.9 2.8.4 1 1.1 1.7 2 2.3s1.9.8 3.2.8c1.2 0 2.3-.3 3.2-.8s1.5-1.3 2-2.2c.4-.9.7-1.9.9-2.8s.3-2 .3-3.1-.1-2.2-.3-3.1-.5-1.9-.9-2.8-1.1-1.7-2-2.2-1.9-.8-3.2-.8c-1.2 0-2.2.3-3.1.8s-1.5 1.3-2 2.2c-.4.9-.8 1.9-1 2.8-.2 1-.3 2-.3 3.1.1 1.1.2 2 .3 3M718.738 104.317c1.1 0 1.6.6 1.6 1.7s-.5 1.7-1.6 1.7h-5.2v18.4q0 1.8-2.1 1.8c-1.4 0-2.2-.6-2.2-1.8v-18.5h-5.1c-1.1 0-1.7-.6-1.7-1.7s.6-1.7 1.7-1.7h14.6zM753.338 126.017q0 1.8-2.1 1.8c-1.4 0-2.2-.6-2.2-1.8v-7.9c-1.4 1-3.2 1.6-5.6 1.6-5.2 0-7.9-2.2-7.9-6.7v-7.4c0-1.2.7-1.8 2.2-1.8s2.2.6 2.2 1.8v6.3c0 1.7.3 2.9.8 3.6.6.7 1.6 1 3 1 1.7 0 3-.4 3.9-1.1s1.3-1.6 1.3-2.6v-7.2c0-1.2.7-1.8 2.2-1.8q2.1 0 2.1 1.8v20.4zM773.438 104.317c1.1 0 1.6.6 1.6 1.7s-.5 1.7-1.6 1.7h-5.2v18.4q0 1.8-2.1 1.8c-1.4 0-2.2-.6-2.2-1.8v-18.5h-5.1c-1.1 0-1.7-.6-1.7-1.7s.5-1.7 1.7-1.7h14.6zM798.338 115.817c0 8-3.6 12-10.9 12s-10.9-4-10.9-12 3.6-12.1 10.9-12.1c7.2 0 10.9 4 10.9 12.1m-6.1-6.2c-1-1.3-2.6-2-4.8-2s-3.8.7-4.8 2-1.5 3.4-1.5 6.1.5 4.8 1.5 6.1 2.6 2 4.8 2 3.8-.7 4.8-2 1.6-3.4 1.6-6.1-.5-4.8-1.6-6.1M803.938 117.317q-1.8 0-1.8-1.8c0-1.2.6-1.9 1.8-1.9h9.1c1.2 0 1.8.6 1.8 1.9q0 1.8-1.8 1.8zM833.838 104.317c1.1 0 1.6.6 1.6 1.7s-.5 1.7-1.6 1.7h-5.2v18.4q0 1.8-2.1 1.8c-1.4 0-2.2-.6-2.2-1.8v-18.5h-5.1c-1.1 0-1.7-.6-1.7-1.7s.5-1.7 1.7-1.7h14.6zM858.738 115.817c0 8-3.6 12-10.9 12s-10.9-4-10.9-12 3.6-12.1 10.9-12.1c7.2 0 10.9 4 10.9 12.1m-6.1-6.2c-1-1.3-2.6-2-4.8-2s-3.8.7-4.8 2-1.5 3.4-1.5 6.1.5 4.8 1.5 6.1 2.6 2 4.8 2 3.8-.7 4.8-2 1.6-3.4 1.6-6.1-.5-4.8-1.6-6.1M374.738 160.617c1.9-2.3 4.3-3.4 7.3-3.4 6.4 0 9.6 4 9.6 12.1 0 1.7-.2 3.3-.5 4.7-.4 1.4-.9 2.7-1.7 3.8s-1.8 2-3.2 2.7c-1.3.6-2.9 1-4.7 1q-3.9 0-6.6-3v8.7c0 1.2-.7 1.8-2.2 1.8-1.4 0-2.2-.6-2.2-1.8v-28.1q0-1.8 2.1-1.8c1.4 0 2 .6 2 1.8v1.5zm1.9 14.8c1.1 1.6 2.7 2.4 4.7 2.4 3.7 0 5.6-2.8 5.6-8.5s-1.9-8.5-5.6-8.5c-2 0-3.6.7-4.7 2.1s-1.7 3.1-1.7 5v2.1c.1 2 .6 3.8 1.7 5.4M410.738 177.617q-2.7 3.9-8.1 3.9c-2.3 0-4.3-.6-5.8-1.9-1.5-1.2-2.3-3-2.3-5.3 0-5.4 4.4-8.1 13.3-8.1h2.9c0-1.4-.1-2.6-.4-3.5-.6-1.6-2.4-2.4-5.3-2.4-2 0-3.7.5-5.1 1.6-.4.3-.9.5-1.3.5s-1-.2-1.5-.5-.7-.7-.7-1.2.3-1 1-1.5c1.9-1.4 4.6-2.1 8.3-2.1 3.4 0 5.8.8 7.2 2.3 1.5 1.5 2.2 3.9 2.2 7.1v9.6c0 1.1.1 2.1.2 2.8.1 1.2-.4 1.9-1.6 2-1.5.1-2.3-.4-2.6-1.5s-.4-1.7-.4-1.8m0-8.1c-1.3-.1-2.4-.1-3.1-.1-1 0-2 .1-2.9.2s-1.8.4-2.7.7-1.6.9-2.1 1.6-.8 1.6-.8 2.5q0 1.8 1.2 2.7c.8.6 1.8 1 3 1 2.2 0 4-.7 5.3-2.2 1.6-1.6 2.3-3.7 2.1-6.4M438.338 175.017c.3.3.3.8.3 1.6-.3 1.1-1.1 2.1-2.6 3.1s-3.4 1.5-5.6 1.5c-7.2 0-10.9-4-10.9-12s3.6-12.1 10.9-12.1c2.1 0 4 .5 5.6 1.5s2.5 2.2 2.8 3.5c.1.7.1 1.2-.2 1.5-.2.3-.7.6-1.4.7h-.2c-1.2 0-2-.5-2.3-1.4-.7-1.7-2.1-2.5-4.3-2.5q-6.3 0-6.3 8.7t6.3 8.7c1.9 0 3.3-.7 4.1-2.2.6-1 1.4-1.5 2.4-1.3.6.1 1.1.3 1.4.7M461.538 175.017c.3.3.3.8.3 1.6-.3 1.1-1.1 2.1-2.6 3.1s-3.4 1.5-5.6 1.5c-7.2 0-10.9-4-10.9-12s3.6-12.1 10.9-12.1c2.1 0 4 .5 5.6 1.5s2.5 2.2 2.8 3.5c.1.7.1 1.2-.2 1.5-.2.3-.7.6-1.4.7h-.2c-1.2 0-2-.5-2.3-1.4-.7-1.7-2.1-2.5-4.3-2.5q-6.3 0-6.3 8.7t6.3 8.7c1.9 0 3.3-.7 4.1-2.2.6-1 1.4-1.5 2.4-1.3.7.1 1.1.3 1.4.7M471.738 166.718c1.5-.2 2.7-.6 3.5-1.2.9-.6 1.7-1.5 2.4-2.6l1.1-1.9c.7-1.2 1.3-2.2 1.8-2.8.7-.7 1.5-1 2.5-.9 1.7.1 2.1.9 1.3 2.2-.6 1-1.1 1.7-1.4 2.2-.1.2-.3.4-.5.8-.2.3-.4.7-.6.9s-.3.5-.5.8c-1.1 1.5-2.3 2.7-3.8 3.6 2.3.6 4 2.6 5.3 5.9.6 1.5 1.1 2.9 1.8 4.2l.7 1.5c.5 1 .1 1.6-1.2 1.9q-1.8.3-2.4-.6c-.6-.7-1.4-2-2.2-4l-.5-1.3c-.8-2-1.7-3.5-2.6-4.3q-1.5-1.35-4.8-1.2v9.6c0 1.2-.7 1.8-2.2 1.8s-2.2-.6-2.2-1.8v-20.4c0-1.2.7-1.8 2.2-1.8s2.2.6 2.2 1.8v7.6zM503.738 177.617q-2.7 3.9-8.1 3.9c-2.3 0-4.3-.6-5.8-1.9-1.5-1.2-2.3-3-2.3-5.3 0-5.4 4.4-8.1 13.3-8.1h2.9c0-1.4-.1-2.6-.4-3.5-.6-1.6-2.4-2.4-5.3-2.4-2 0-3.7.5-5.1 1.6-.4.3-.9.5-1.3.5s-1-.2-1.5-.5-.7-.7-.7-1.2.3-1 1-1.5c1.9-1.4 4.6-2.1 8.3-2.1 3.4 0 5.8.8 7.2 2.3 1.5 1.5 2.2 3.9 2.2 7.1v9.6c0 1.1.1 2.1.2 2.8.1 1.2-.4 1.9-1.6 2-1.5.1-2.3-.4-2.6-1.5s-.4-1.7-.4-1.8m0-8.1c-1.3-.1-2.4-.1-3.1-.1-1 0-2 .1-2.9.2s-1.8.4-2.7.7-1.6.9-2.1 1.6-.8 1.6-.8 2.5q0 1.8 1.2 2.7c.8.6 1.8 1 3 1 2.2 0 4-.7 5.3-2.2 1.7-1.6 2.4-3.7 2.1-6.4M530.938 174.017c0 2.2-.8 4-2.5 5.3s-3.9 2-6.7 2a16 16 0 0 1-3.9-.5c-1.2-.4-2.4-1-3.5-1.9s-1.7-2.1-2-3.5c-.1-.6.1-1 .3-1.3.3-.4.9-.7 1.8-.7 1.3 0 2 .5 2.1 1.6.1.6.3 1.1.7 1.5s.9.8 1.4 1c.6.2 1.1.4 1.5.5.5.1.9.1 1.3.1 1.5 0 2.7-.4 3.6-1.1.9-.8 1.3-1.8 1.3-3.1 0-1-.4-1.8-1.1-2.4s-1.4-1-2.1-1.1-1.4-.2-2.2-.2h-.7c-1.1 0-1.7-.6-1.7-1.7s.7-1.6 2-1.6c3.5 0 5.3-1.2 5.3-3.5 0-1-.4-1.8-1.1-2.4q-1.2-.9-3-.9c-3.1 0-4.7.9-4.9 2.8-.1.8-.7 1.3-1.8 1.3-.9 0-1.5-.2-1.9-.7-.2-.3-.3-.6-.3-1 .2-1.9 1.2-3.3 3-4.3 1.8-.9 3.8-1.4 5.9-1.4 1.4 0 2.8.2 4 .6s2.3 1.1 3.2 2.1 1.4 2.2 1.4 3.7c0 2.3-1.3 4-3.9 5.2 3 1 4.5 2.9 4.5 5.6M540.038 166.417h6.7c2.5 0 4.4.7 5.8 2s2.1 3 2.1 5.2c0 2.1-.8 3.9-2.3 5.2q-2.25 2.1-5.7 2.1h-6.9c-.9 0-1.7-.1-2.3-.3s-1-.6-1.2-1.1-.4-.9-.4-1.3-.1-.9-.1-1.6v-17.4c0-1.2.7-1.8 2.2-1.8q2.1 0 2.1 1.8zm0 10.3c0 .3.1.6.2.7.2.1.4.1.8.1h5c1.3 0 2.2-.3 2.9-1s1-1.6 1-2.8q0-3.9-3.9-3.9h-6zm20.9 2.8c0 1.2-.7 1.8-2.2 1.8q-2.1 0-2.1-1.8v-20.4q0-1.8 2.1-1.8c1.4 0 2.2.6 2.2 1.8zM578.338 157.717q3.75 0 5.7 1.5c1.3 1 2 2.4 2 4.2 0 2.3-1 4-3 5 1.3.6 2.3 1.3 3 2.4s1 2.2 1 3.4c0 1.9-.7 3.4-2.2 4.7-1.4 1.2-3.2 1.9-5.4 1.9h-8.2c-.8 0-1.4-.1-2-.3q-.75-.3-1.2-.6c-.3-.2-.5-.6-.6-1s-.2-.8-.2-1.1v-17c0-.3.1-.7.2-1.1s.3-.8.6-1q.45-.3 1.2-.6c.5-.2 1.2-.3 2-.3h7.1zm-6.8 9.3h6.7c.9 0 1.7-.3 2.3-.8s.9-1.3.9-2.3c0-1.9-1.1-2.9-3.3-2.9h-5.8c-.4 0-.6.1-.8.2-.1.1-.2.3-.2.6v5.2zm0 9.6c0 .3.1.5.2.6s.4.2.8.2h5.8c2.6 0 3.9-1.2 3.9-3.5q0-3.6-3.9-3.6h-6.7v6.3zM605.938 177.617q-2.7 3.9-8.1 3.9c-2.3 0-4.3-.6-5.8-1.9-1.5-1.2-2.3-3-2.3-5.3 0-5.4 4.4-8.1 13.3-8.1h2.9c0-1.4-.1-2.6-.4-3.5-.6-1.6-2.4-2.4-5.3-2.4-2 0-3.7.5-5.1 1.6-.4.3-.9.5-1.3.5s-1-.2-1.5-.5-.7-.7-.7-1.2.3-1 1-1.5c1.9-1.4 4.6-2.1 8.3-2.1 3.4 0 5.8.8 7.2 2.3 1.5 1.5 2.2 3.9 2.2 7.1v9.6c0 1.1.1 2.1.2 2.8.1 1.2-.4 1.9-1.6 2-1.5.1-2.3-.4-2.6-1.5s-.4-1.7-.4-1.8m0-8.1c-1.3-.1-2.4-.1-3.1-.1-1 0-2 .1-2.9.2s-1.8.4-2.7.7-1.6.9-2.1 1.6-.8 1.6-.8 2.5q0 1.8 1.2 2.7c.8.6 1.8 1 3 1 2.2 0 4-.7 5.3-2.2 1.7-1.6 2.3-3.7 2.1-6.4M628.738 157.717c1.1 0 1.6.6 1.6 1.7s-.5 1.7-1.6 1.7h-5.2v18.4q0 1.8-2.1 1.8c-1.4 0-2.2-.6-2.2-1.8v-18.4h-5.1c-1.1 0-1.7-.6-1.7-1.7s.6-1.7 1.7-1.7zM638.438 166.417h6.7c2.4 0 4.4.7 5.8 2s2.1 3 2.1 5.2c0 2.1-.8 3.9-2.3 5.2q-2.25 2.1-5.7 2.1h-6.9c-.8 0-1.4-.1-2-.3s-.9-.4-1.2-.6-.5-.6-.6-1c-.1-.5-.2-.8-.2-1.1v-18.7c0-1.2.7-1.8 2.2-1.8s2.2.6 2.2 1.8v7.2zm0 10.2c0 .6.3.8 1 .8h5c2.6 0 3.9-1.3 3.9-3.8 0-2.6-1.3-4-3.9-4h-6z"></path></svg>