<svg xmlns="http://www.w3.org/2000/svg" xml:space="preserve" id="ed2b63d9-d09d-4833-bd0a-741dfcd68ab7Layer_1_1_" x="0" y="0" viewBox="0 0 2409.8 1427"><style>.st3{fill:#fff}.st4{fill:#ff6900}.st5{fill:#211f1f}.st21{fill:#282b31}.st22{fill:none;stroke:#211f1f;stroke-width:1.7;stroke-linecap:round;stroke-linejoin:round;stroke-miterlimit:10}.st26{fill:#211c1d}.st27{stroke-linecap:round;stroke-linejoin:round}.st27,.st28,.st29{fill:none;stroke:#211c1d;stroke-width:2.1028;stroke-miterlimit:10}.st29{stroke-width:2.4182}</style><path d="M1478.8 1232.1c-7.4 4-26.1-25.8-19.3-34.5 1.6-2 6.4-3.1 6.4-3.1s-4-11.8 9.7-10.5c0 0-3.2-9.8 10.4-7.3 4.3.8 10.8 5.4 10.8 5.4-4.5-27.4-1.9-53.2 4.7-53 6.6.3 2.7 48.9 13.5 73.9 9.6 22.2 16.7 48.5 16.7 48.5" class="st3"></path><path d="M1478.8 1232.1c-7.4 4-26.1-25.8-19.3-34.5 1.6-2 6.4-3.1 6.4-3.1s-4-11.8 9.7-10.5c0 0-3.2-9.8 10.4-7.3 4.3.8 10.8 5.4 10.8 5.4-4.5-27.4-1.9-53.2 4.7-53 6.3.3 3.7 45.9 15 65.6.9 1.6 1.5 3.4 1.7 5.3 3.7 28.3 13.4 51.5 13.4 51.5" style="fill:none;stroke:#221e1f;stroke-width:2.1028;stroke-miterlimit:10"></path><path d="M1687.4 1124.7c78.3-35.8 59.4-17.3 150.7 62.3 27.7 24.2 126.8 66.5 126.8 66.5s-87.3 3.5-103 59c-15.8 55.5 25.1 60.6 25.1 60.6l6.6.3s-7.5 14.8-19.8 13.4-120.8-39.8-166.9-73.6-44.6-41-44.6-41 5 69.3-15.2 78.6c-20.3 9.4-81.9 8-140.2-63.6 0 0-11-28.6 30.1-28.3 0 0 51.1 36.2 69.1 36.3 18.1.1-24.1-90.1-9.6-137.2 10.7-35 49.3-22.4 90.9-33.3" class="st4"></path><path d="M1710.6 1111.5s-12.4-12.1-7.4-23.5c6.6-14.7 49.3-31.1 59.3-77.3s-27.7-64.9-50-69.4c-23.9-4.8-96.3 28.2-102.5 106.9-4.9 63 28.9 61.5 38.2 58.1.1 3.7 4.2 14.8 7.7 20.1" style="fill:#fff;stroke:#211c1d;stroke-width:2.1028;stroke-miterlimit:10"></path><path d="M1773.5 1046.2s3.5 2.6 6.8 11.1c51-75.4-40.4-129.9-87.5-126.4-25 1.9-44.6.6-44.6 38 8.4 10 15.4 10.6 25.4 19.7 0 0 8.3 4.5-10.8 24.6l14.2 4c6.9-6.8 12.2-9.2 17.9-3 8.9 9.7-14.3 35.4-26.3 35.7 0 0-5.8 40.3 33.1 47.4 0 .1 72.8-23.9 71.8-51.1" class="st26"></path><path d="M1673.1 1122c69.1-22 81.9-23.5 164.9 65 27.4 29.2 145.8 66.1 145.8 66.1s-106.1-.9-121.9 56.8c-15.9 57.7 25 62.9 25 62.9l6.6.3s-7 9.5-19.3 8.1-123.1-42-169.2-77c-46.1-35.1-46-38.6-46-38.6s8.3 74.7-12 84.5c-20.3 9.7-76.2 13.2-135.2-65.8 0 0 9.4-42.5 27.8-33 15.6 8 42.1 36.3 60.1 36.3 18.1 0-38.8-104.8-1.5-142 25-24.9 32.4-9.8 74.9-23.6" class="st27"></path><path d="M1465.2 1209.6c3.3-.3 7.6 6.3 10.7 13s10.1 42.1 39.2 50.7" class="st28"></path><path d="M2066.9 1181.8c-2-4.1-6-6.8-10.6-7-52.9-2.2-56.9 25.6-56.6 31.6.1 2.5.8 31.1 6.6 19.5 5.4 13.7 13.1 50.8 13.1 50.8l-38.1-23.7c-16.6.3-104.9 4.6-119.3 56.8-15.9 57.7 25 62.9 25 62.9l6.6.3s188.2 65.8 219.6 49c46.4-24.9-14.5-170.8-39.5-225.7 10.5.3-5.2-10.9-6.8-14.5" class="st27"></path><path d="M2265.2 1197.7c.7 3.6 9.7 14.7 8.9 18.7 0 0-13.3 33.2-20.6 16.9-32.6 30.1-95 146.7-108 157.9-7.6 6.6-16.8 6.1-16.8 6.1M2111.2 1291c55.3-103.5 110.8-121.8 110.8-121.8 6.6-1.7 9.4-4.6 18.5-1.9" class="st27"></path><path d="M2249.8 1170.8c-12.2-6.3-19.1-8.3-27.9-6.2 0 0-34 11.6-21.6 18.1-19.5 15.2-56.2 43-88.7 100.6l-1.8 3.2c11.6 34.4 20.8 70.2 20.3 96.9 2.2 0 9.7-.5 16.1-5.7 13-10.5 69.3-116.1 101.8-144.3 17.5-15.3 24.1-24.3 24.1-24.3" class="st26"></path><path d="M2061.4 1181.6c-1.9-4.1-5.9-6.8-10.3-7-51.5-2.1-55 25.7-54.7 31.7.1 2.4 2.9 38.4 11.8 24.7 6.1 15.6 11.2 45.7 11.2 45.7l-48.7-23.5c-16.2.4-94.7 4.4-108.7 56.6-15.5 57.7 24.3 62.8 24.3 62.8l6.4.3s183 65.5 213.6 48.7c49.9-27.7-28.3-204-44.9-240m-88.8 127.6c-10.7-6-21.5-22.3-21.5-22.3s58.5 38 81.3 44.6l3.8 10.5c.1 0-52.9-26.9-63.6-32.8" class="st26"></path><path d="M2013.9 1273.9s31.3 97.6 39.6 115.7M1648.3 1106.4c4.4-2 8.4-3.9 8.4-3.9" class="st28"></path><path d="M1958.6 1154.3c.4-10.6 12.4-7.2 33.6-18.2 15.7-8.1 28-41.9 51.9-58.4 20.7-14.2 55.9-35.1 73.8-24.7 13 11.1-20.4 39.1-26.8 52.9-5.5 11.8-5.2 27.4-15.6 31.7-12.3 5.1.9 40.2-8.6 35.9-12.5-5.7-31.4-17.9-51.2-12.5-24.2 6.7-14.3 36.2-25.4 33.1s-32.2-29.3-31.7-39.8" class="st4"></path><path d="M2045 1172.3c1.4 5.2 3 9.8 3 9.8M2005.5 1200s-7.4-22.4-8.8-28.5" class="st29"></path><path d="M1999.9 1182.7c-5.8 15.3-18.9 9.8-31.7-8.2-12.7-17.9-12.5-22.5-12.5-22.5-12.7-2.1-15.3-11.3-15-18.1s21.1-27.7 38.5-33.4c26.6-8.7 83.7-61 127.9-56 15 1.7 14.9 7.1 10.8 8.3s-25-4.4-28.6-7.6" class="st29"></path><path d="M2118 1052.9c9 14.5-21.4 30.7-32.6 52.7-5.8 11.4-6.6 35-18.3 45.1 1.7 14.2 5.2 19.5-.2 22.8-9.3 5.7-32.2-4.2-36.7-9.1l-4.5-4.9" class="st29"></path><path d="M2043.8 1144.9c-2.8 14.5-6.6 15.6-28.1 16.2-11.8.9-23.9 4.8-19.9 29.1M2090.7 1094.5c-18.6-2.2-39.5 34.5-43.2 42.4M1955.8 1152c3.2-23 23.6-13 31.7-18.6s27.8-42.1 45.3-54.5c17.5-12.5 39-21.1 39-21.1" class="st29"></path><path d="M2202.2 1198s35.1-32 38-34.6c2.9-2.7 12.4 8 17 19.5 4.5 11.5 9.9 15.5 2.2 20.9-14.6 10.2-23.6 21.2-27.5 23.5-2.5 1.5-26.8-16.5-29.7-29.3" class="st3"></path><path d="M2269.9 1097.4c13.3 10.8 25.3 13 31.7 20.4s19.4 46.9 32 63.6 33.1 45.3 49.7 52.1c-5.2 3.4-17.6-6.8-24.5-10.4-12.3-6.4-23.9-16.2-35-13.9-11.1 2.4-10.6 26.9-56 2.1-5.1-8.5 19-25.9 19-25.9s-21.9 3.7-32.6-21.5c-3.7-7.7-4.6 2-10.1 1.7s-6.6-22.5 19.4-49.6c1.9-8.6 6.4-18.6 6.4-18.6" class="st4"></path><path d="M2283 1080.6c20.7 0 37.2 12.8 44.7 19 7.4 6.2 35.2 32.6 47.6 47.2s29.4 45.9 28.8 61.8-12.3 26.8-20.8 24.9c-3.7-.8-6.9-11.9-12.7-18.1-11.3-12-26.7-23.7-35.2-34.5-12.9-16.4-21.7-52.7-32.5-64.3-10.7-11.6-62.3-35.9-19.9-36z" class="st29"></path><path d="M2266.2 1085.8c-4.3 10.3-4.7 19.5-4.7 19.5s10.9 6 15.1 14.9c4.1 8.9 2.1 16.7 8.5 19.2 6.3 2.5 27.4 23.9 35.4 32.9 14.8 16.5 23.6 30.3 45.7 39.2" class="st29"></path><path d="M2261.6 1105.3c-12.3 15.1-26.7 30.3-25.6 50.9 1.2 20.6 13.1-20.1 19.2 4.6 4.1 16.6 15.5 18.6 23.8 16.9M2383.2 1233.5c-8.6 2.6-22.1-18.6-41.3-24.8-8.1-.2-17.9-2.7-21.8-1.9-3 3.5-4.8 6.5-10.5 8.2-8.9 2.8-46.1.8-48.3-14.5-1.3-8.7 17.8-22.8 17.8-22.8" class="st29"></path><path d="M2320.1 1206.8c-17.3-4.2-39-18.6-39-18.6" class="st29"></path><path d="M1874.2 1381.1c-16.8-3.4-21.3-37.4-12.4-68.7" class="st27"></path><path d="m882.4 1209.6 27.3-13.9c14.2-3.3 665.6-339.1 686.8-341.8 33.1-4.1-60.3-51-60.3-51l-698.8 264.4 4.7 83.5z" class="st4"></path><path d="m1574.9 746.8-8.6 2.8-8.7 2.4-8.6 2.7-8.4 3.3-8.6 2.7-8.7 2.6-8.6 2.8-8.5 3-8.6 2.8-8.6 2.7-8.8 2.2 23.4 10.8-8.5 3-8.5 3.1-8.5 3.1-8.6 2.7-8.7 2.6-8.5 3.2-8.6 2.8-8.7 2.6-8.4 3.4-8.5 3.1-8.6 2.7-8.6 2.7-8.5 3.1-8.4 3.3-8.6 2.8-8.4 3.2-8.5 3-8.4 3.2-8.5 3-8.4 3.4-8.7 2.5-8.3 3.7-8.6 2.8-8.4 3.4-8.4 3.4-8.4 3.3-8.4 3.4-8.6 2.7-8.2 3.8-8.4 3.3-8.4 3.4-8.6 2.7-8.4 3.3-8.2 3.9-8.3 3.6-8.6 3-8.2 3.9-8.5 3.1-8.2 3.8-8.3 3.5-8.4 3.4-8.2 3.8-8.2 3.8-8.2 3.9-8.5 3.3-8 4.3-8.2 3.9-8.3 3.6-8.3 3.6-8.1 4-8 4.3-8.2 3.7-7.8 4.6-8 4.1-8.3 3.7-7.9 4.4-8.1 4.1-7.7 4.7-7.9 4.4-7.9 4.4-7.5 5.1-8.1 4.2-7.6 4.8-7.4 5.1-7.4 5.2-7.8 4.7-7.3 5.4-7.3 5.3-6.8 6-7 5.7-6.9 5.8-6.9 5.9-6.2 6.6-6 6.7-5.7 7-4.5 7.8-4.5 8.1-9-2.7-9.1-1-9.1.5-8.6 3-7.5 5.3-5 7.7-2.5 8.8-1.4 9-.8 9.2 1.2 9.1-5.1 8.6 56.8 40.5c.4-.3.7-.6 1.1-.9 11.4-8.1 23.2-15.8 35.6-22.3 10.7-5.6 23.5-12 36.1-13.3 8-5.2 16-10.2 24.4-14.6 21-10.9 42.5-20.9 63.6-31.8s42.3-21.4 63.7-31.5c20.9-9.9 41.9-19.7 62.3-30.7 21.1-11.5 41.7-23.8 62.5-35.9 19.3-11.2 38.7-22.2 59.2-31 9.4-4 18.8-7.8 28.3-11.4 6.9-5.1 13.8-10.2 21.1-14.7 10.3-6.4 22.1-12.4 34.3-13.9.4-.3.9-.7 1.3-1 5.4-4.4 10.8-8.7 16.5-12.7 11.8-8.3 25.8-13.5 38.6-19.9 15.2-7.7 30.2-15.6 45.5-23.2 2.7-1.4 5.5-2.1 8.3-2.2l1.3-.7 8.3-3.6 8-4.1 8.1-4.1 8-4.1 8.3-3.5 8.1-4 8.1-3.9 8.1-3.9 7.8-4.3.2-9.2 1.3-9.2 1.1-9.2 1.4-9.1 1.2-9.2 1.7-9.1 2-9 2.6-8.9 1.9-9.1 2.3-8.9 3.1-9z" class="st3"></path><path d="M36.5 511.9C83.1 492.5 638.3 25.3 648.2 16.5c9.6-8.6 20.6-6.3 29.2-1.2 123.9 73.6 800 502.2 818.3 513.2 12.7 7.6 25.3 18.1 0 40.8-22.9 20.6-553.4 486.7-603.2 523.6 11.6 37.9-.5 70.6-2.6 99.6-1.1 14.1-13.9 11.1-13.9 11.1C692.6 1084.1 58.4 636.1 28.1 618.4c3.9-47.1 2.6-79.2 8.4-106.5" class="st4"></path><path d="M1515.7 678.6c38.8-49 21.2-96.9 21.2-97l.2-1.3-1.3.2-2.4.3c-4.7.5-16.1 1.4-30.9 1.4-19.7 0-13.6 6.3-37.9-.6l-.5 1.8c24.6 6.9 18.5.6 38.4.6 16.4 0 28.6-1.2 32.3-1.6-.1 7.5 13.2 51.1-20.9 95l-.3-.2c-.3.5-.7 1.1-1.1 1.5l.2.1c-5 6.2-10.9 12.4-17.9 18.5-82.4 71.4-233.2 170-363.3 250.8-65.1 40.4-125 76.3-168.6 102.1-21.8 12.9-39.6 23.3-51.9 30.5-6.1 3.6-10.9 6.4-14.2 8.2-3.2 1.9-5 2.9-5 2.9l.9 1.7 701.7-364zM1132.6 950c130.1-80.8 280.9-179.4 363.5-251 7.2-6.2 13.3-12.5 18.4-18.9l76.2 49.4L927 1073.9c42.3-24.7 119.4-70.4 205.6-123.9" class="st5"></path><path d="m896.2 1186.6 669.5-345.2v-5.1c0-16.1 2-72.4 27.8-106.1l-1.5-1.1c-26.3 34.4-28.2 90.9-28.2 107.2 0 2.9.1 4.5.1 4.5h.9l-.4-.8-669 345M28.6 617.6c-.5-.3-1-.6-1.4-1-.2.6-.4 1.2-.7 1.8.4.2.7.5 1.1.7 10.1 6.7 219.9 153 430 297.6 210.2 144.6 424.8 292.6 424.8 292.6l1.1-1.5c-1.3-1.1-15.1-10.3-16.9-11.9-93.6-64.3-819-565.7-838-578.3M1507.1 535.2l-.1-.1L677.8 14.5c-5.3-3-10.1-4.2-14.4-4.2-5.8 0-10.7 2.2-15.2 5.3s-8.6 7-12.8 10.6c-5.8 4.9-148.1 119.4-292.6 236.1-72.3 58.3-145.2 117.2-201.9 163.2-56 45.4-96.2 78.2-104.6 85.5h-.1c-.2.5-.5.9-.8 1.4 0 .1.1.3.1.4.3 0 .6.1.8.1l.4.1.3-.3c7.6-6.7 48.2-39.8 104.9-85.7C312.1 289 627.7 35.1 636.5 27.7c4.3-3.6 8.4-7.5 12.7-10.5s8.9-5 14.2-5c4 0 8.4 1.1 13.5 4l828.9 520.3c.3.4 1.4 2 1.4 4.6 0 3-1.5 7.3-7.9 12.8-13.1 11-596.1 517.5-612.2 531.4-.2 0-.4-.1-.6-.1l1.2 2.1.3-.3s2.3-2 6.7-5.8c65.9-57.2 593.4-515.4 605.8-525.8 6.7-5.6 8.5-10.6 8.5-14.2.1-3.8-1.8-5.9-1.9-6" class="st5"></path><path d="M837.8 1051.8s-2-1.3-5.7-3.8c-25.8-17.1-135-89.9-233.9-157.1l-1.1 1.6c113 76.8 239.6 160.9 239.6 160.9zM569.5 871.4 51.4 520.9l-1.1 1.5L568.5 873" class="st5"></path><path d="m331 754.5 5.9 4 .3 8.4 13 8.8-.3-8.4 5.9 4 .5 14.3-1.8-1.3q-1.8 2.7-3 7.2c-.7 3-1.2 6.4-1.3 10.3l-14.8-10.1-.7-20.9-3-2.1zm9.6 20.5.5 15 4 2.7c.2-5 1.2-9.2 2.9-12.7zM307 759.6q-.15-6.75 2.4-8.4c1.8-1.1 4.4-.5 8 1.9q5.25 3.6 8.1 9c1.9 3.6 3 7.7 3.1 12.2q.15 6.75-2.4 8.4c-1.8 1.1-4.4.5-8-1.9-3.5-2.4-6.3-5.4-8.2-9s-2.9-7.7-3-12.2m15.3 10.4c-.2-5.2-1.7-8.8-4.7-10.8-1.5-1-2.6-1.2-3.3-.4s-1 2.5-.9 5.2.5 4.9 1.3 6.7 1.9 3.2 3.4 4.2c2.9 1.9 4.4.3 4.2-4.9M278.9 719.2l5.9 4 .3 8.4 13 8.8-.3-8.4 5.9 4 .5 14.3-1.8-1.3q-1.8 2.7-3 7.2c-.7 3-1.2 6.4-1.3 10.3l-14.8-10.1-.7-20.9-3-2.1zm9.6 20.5.5 15 4 2.7c.2-5 1.2-9.2 2.9-12.7zM254.9 724.2q-.15-6.75 2.4-8.4c1.8-1.1 4.4-.5 8 1.9q5.25 3.6 8.1 9c1.9 3.6 3 7.7 3.1 12.2q.15 6.75-2.4 8.4c-1.8 1.1-4.4.5-8-1.9-3.5-2.4-6.3-5.4-8.2-9s-2.9-7.6-3-12.2m15.3 10.4c-.2-5.2-1.7-8.8-4.7-10.8-1.5-1-2.6-1.2-3.3-.4s-1 2.5-.9 5.2.5 4.9 1.3 6.7 1.9 3.2 3.4 4.2c3 2 4.4.4 4.2-4.9M221 688l6.8 4.6 7 18.1-.4-13.6 6 4.1.9 26.9-6-4.1-.4-13-5.9 8.7-6.6-4.5 6.5-8.2zM198.8 672.9l6 4.1.4 11 7 4.7-.4-11 6 4.1.9 26.9-6-4.1-.3-10-7-4.7.3 10-6-4.1zM193.9 695.9l-5.4-3.6-.4-11.5v-7.2l-.1-.1-8.3 12.9-7.4-5-.9-26.9 5.3 3.6.4 11.3c.1 1.7 0 4.2 0 7.5l.1.1 8.3-12.8 7.4 5zM151.8 667.3l-.2-5.9 8.8 6-.7-21 6 4.1.9 26.9zM133.1 628.3l1.3 5.8 7.2 4.9 1-4.3 6.6 4.5-6.4 22.1-8-5.4-8.2-32zm2.7 12.6 1.1 5.1c.3 1.1.6 2.6.9 4.4.4 1.8.6 3 .7 3.8.1-.6.2-1.5.4-2.7.2-1.3.7-3.7 1.5-7.3z" class="st3"></path><path d="M125.4 500.5 663.8 60.6l762.8 486.1-539.5 462.6z" style="fill:#fffdf3"></path><path d="M399 436.7c6.9-5.2 13.9-10.4 20.7-15.6 2-1.6 3.4-1.6 5.6-.1 15.6 10 31.4 19.8 47 29.8 2.6 1.7 4.1 1.6 6.4-.2 5.9-4.5 6-4.5 12.4-.4 8 5.1 15.9 10.1 23.9 15.1 1.9 1.2 2.4 2.1.4 3.5-3.9 2.7-7.7 5.6-11.4 8.5-1.8 1.4-3.2 1.5-5.2.2-3.9-2.5-8-4.9-11.9-7.4-1.7-1.1-3-1.2-4.6 0-11.1 8.3-22.3 16.6-33.5 24.8-1.6 1.2-1.4 1.9.2 3 4.1 2.6 8.1 5.3 12.3 7.9 1.7 1.1 2.1 1.9.3 3.2-4.1 3-8.1 6-12.1 9-1.4 1.1-2.7 1-4.2.1-9.4-6.1-18.9-12.2-28.3-18.2-1.3-.8-2.1-1.8-.4-2.6 6.3-3.1 3.9-6.6 1.2-10.2-5-6.6-11.4-12.5-19.3-17.6-6.7-4.3-13.3-8.7-20.1-13-2.2-1.4-2.3-2.4-.2-4 7.1-5.3 13.9-10.6 20.8-15.8m41.9 16.1c-.1.1-.3.2-.4.3-5.2-3.4-10.5-6.8-15.7-10.3-1.8-1.2-3.2-1.2-4.9.1-3.8 2.9-7.7 5.8-11.6 8.6-1.5 1.1-1.6 2 .1 3 2.3 1.4 4.6 3 6.8 4.5 8.6 5.9 16.8 12 21.4 20 1.1 1.8 2.2 1.1 3.5.1 5.5-4.1 10.9-8.3 16.5-12.4 2.2-1.6 1.7-2.7-.4-4-5-3.1-10.1-6.5-15.3-9.9M641.9 348.4c4.5 2.9 8.9 5.9 13.4 8.8 1.9 1.2 2.3 2.2.4 3.6-3.9 2.9-7.6 5.8-11.3 8.9-1.6 1.3-2.8 1.3-4.5.1-3.9-2.6-7.9-5-11.7-7.6-1.9-1.3-3.2-1.4-5.1 0-10.6 8.3-21.3 16.6-31.9 24.8-1.5 1.2-1.4 2.1.2 3.1 4 2.5 8 5.1 12.1 7.6 2 1.2 2.3 2.2.5 3.6-3.9 3-7.8 6-11.7 8.9-1.5 1.1-2.8.8-4.2-.1-9.4-6-18.8-12-28.1-18-1.7-1.1-1.8-2.3.1-3.3 4-2.2 3.8-4.6 1.8-7.7-4.5-6.9-10.7-12.8-18.4-18-7.4-5-15-9.9-22.6-14.7-2.4-1.5-2.4-2.6-.3-4.2 13.6-10.5 27.2-21.1 40.6-31.7 1.9-1.5 3.1-1 4.8.1l45.6 29.1c.8.5 1.6.9 2.3 1.5 1.8 1.4 3.2 1.2 5-.2 6.2-5 6.3-4.9 13.2-.5 3.1 2 6.3 4.1 9.4 6.1.2 0 .3-.1.4-.2m-62.9-5.6c-.1.1-.3.2-.4.3-4.1-2.6-8.2-5.2-12.1-8-2.1-1.5-3.5-1.3-5.3.2-2.7 2.2-5.6 4.3-8.4 6.4-5.2 4-5.1 3.3.5 7 10.1 6.6 20.1 13.4 25.6 22.6.8 1.4 1.9 1.4 3.3.3 5.1-4.1 10.3-8 15.4-12.1 3-2.5 2.9-2.8-.6-5-6.1-3.8-12.1-7.8-18-11.7M680 412.8c10.4 6.8 20.7 13.6 31.2 20.3 2.1 1.3 2 2.3.3 3.6-3.3 2.6-6.8 5.1-10 7.7-1.9 1.5-3.3 1.5-5.4.2-9.7-6.4-19.5-12.6-29.3-19-2.7-1.8-5.8-3.2-8.2-5.2-.8-.6-2-1.6-3.6-.8-1.7.8-.9 1.9-.3 2.8 7.3 12 14.5 24.1 21.9 36.1 1.3 2.1 1.9 3.8-1 5.8-5.5 3.8-10.5 7.9-15.6 12-1.8 1.4-3 1.2-4.8.1-21-13.4-42.1-26.8-63.2-40.1-2.4-1.5-2.5-2.6-.3-4.1 3.4-2.4 6.7-4.9 9.8-7.5 1.7-1.4 3-1.5 5.1-.2 12.2 7.9 24.6 15.7 36.9 23.5.2.1.3.2.5.3 1.3.6 2.1 2.1 4 1.3 1.9-.9.7-2.2 0-3.3-7.4-12.4-14.7-24.7-22.2-37-1.1-1.7-.9-2.9 1-4.3 5.5-4 10.8-8.2 16.1-12.4 1.6-1.3 2.8-1.5 4.8-.2 10.5 6.9 21.1 13.8 31.6 20.7.3 0 .5-.2.7-.3M677.6 320.6c-11.2 8.8-25 12.7-41.8 10-11.4-1.8-20.4-6.6-28.2-12.6-8.7-6.8-13.3-14.6-13-23.8.2-5.3 3.2-9.9 7.1-14.2 7.5-8 17.3-14 31.1-16.2 9.9-1.6 19.3-.5 28.2 2.6 11.1 3.9 20 9.6 25.8 17.4 8.8 11.8 6.3 22.9-4.8 33.4-1.2 1.2-2.9 2.3-4.4 3.4M630.1 309c3.7 2.2 9.1 5.2 16.4 5.6 12.5.7 23.7-7.3 21.6-15.9-2.1-8.9-11-14.1-22-17.7-7.3-2.4-14.4-1.6-20.6 2.3-6.3 4-9.4 8.8-6.9 14.8 1.9 3.9 5.6 7.2 11.5 10.9M610.7 466.2c10.2 6.7 20.4 13.4 30.7 20 2.5 1.6 2.6 2.6.3 4.3-3.8 2.7-7.3 5.6-10.8 8.5-1.8 1.5-3.3 1.5-5.4.1-6.6-4.4-13.4-8.7-20.1-13-3.9-2.5-4.3-2.5-7.8.1-5.8 4.3-11.5 8.6-17.3 12.9-1.6 1.2-1.6 2.1.2 3.2 7.1 4.5 14.1 9.1 21.2 13.6 3.6 2.3 3.6 2.3.2 4.9-3.6 2.7-7.3 5.4-10.8 8.2-1.8 1.4-3 1.4-5 .1-11.6-7.4-23.3-14.8-34.9-22.2-9.4-6-18.8-11.9-28.2-17.9-3.4-2.2-3.4-2.3-.3-4.6 3.5-2.6 7.1-5.1 10.3-7.8 2.3-1.9 4.2-1.9 6.6-.3 6.4 4.1 12.9 8.1 19.2 12.3 2.3 1.6 3.8 1.5 5.9-.1 5.7-4.4 11.5-8.8 17.4-13.1 2.3-1.7 2.3-2.8-.2-4.3-6.6-4.1-12.9-8.3-19.4-12.4-2.2-1.4-2.2-2.4-.3-3.8 3.9-2.9 7.8-5.7 11.6-8.7 1.8-1.4 3.2-1.3 5.2-.1 10.2 6.8 20.5 13.8 31.7 20.1M535 382.8c6.8 3.9 11.7 8.8 14.9 14.6 4.6 8.3 3.6 16.3-2.4 23.8-8 9.8-19.3 16.9-35.9 18.6-10.7 1.1-20.6-.9-29.7-4.8-9.9-4.3-18-9.9-23.1-17.3-5.8-8.4-5.8-16.9.1-25.1 5.8-8.2 14.6-14.6 26.7-18.1 15.5-4.6 29.9-2.2 43.2 4.5 2.4 1 4.2 2.5 6.2 3.8m-46.3 33.8c7 4.6 12.1 6.4 19.3 6.8 12.6.7 25.5-9.6 20.1-18.8-3.1-5.3-8.5-9.1-14.9-12.4-11.5-6-24.2-4.6-32.2 3.7-3 3.1-3.2 6.4-2.2 9.9 1.1 4.6 5.3 7.8 9.9 10.8M492.1 562.7c-12-7.8-24-15.7-36-23.5-3.3-2.1-3.3-2.3-.3-4.6 3.7-2.8 7.4-5.5 11-8.4 1.8-1.4 3.2-1.4 5.1-.1 6.6 4.3 13.4 8.4 20 12.7 2.2 1.4 3.7 1.5 5.7-.1 2.5-2.1 5.2-4.1 8-6.1 1.7-1.2 2-2.3 1-3.9-4-6.4-7.7-13-11.6-19.4-1.2-2-1.3-3.5 1.2-5.1 3.9-2.6 7.4-5.5 11.1-8.3 2.5-1.9 2.9-1.9 4.4.5 5.6 9.2 11.4 18.4 16.7 27.7 1.3 2.4 4.1 2.5 6.5 3.1 13.9 3.2 27.9 6.2 41.8 9.3 3.4.7 3.5.9 1.1 2.7-3.9 3-8 5.8-11.8 8.9-1.8 1.5-3.6 1.7-6.1 1.2-10.7-2.4-21.5-4.8-32.2-7.3-2.5-.6-4.3-.4-6.1 1.1-2.5 2.1-5.2 4.1-8 6-2 1.4-1.7 2.3.3 3.5 7.3 4.6 14.4 9.3 21.8 13.9 2.5 1.5 2.7 2.5.3 4.2-4.1 2.8-8 5.8-11.8 8.9-1.5 1.2-2.6 1.2-4.3.1-8.9-5.9-17.9-11.7-26.8-17.6-.4.2-.7.4-1 .6M732.5 321.4c3.5-2.6 7-5.1 10.3-7.8 1.5-1.2 2.8-1.4 4.8-.7 12.7 4.3 25.4 8.5 38.1 12.7 13.2 4.4 26.4 8.8 39.6 13.3 1.1.4 2.3.8 3.4 1.2 4.1 1.4 4.1 1.4 1.1 3.7-3.9 3-7.7 6-11.5 9.1-1.3 1.1-2.6 1.3-4.5.6-5.2-1.9-10.6-3.6-15.8-5.5-2.8-1-4.8-1.2-7.1.8-5.1 4.3-10.4 8.4-15.8 12.5-1.8 1.4-1 2.5.1 3.7 3.1 3.5 6.2 7 9.5 10.4 1.5 1.6 1.6 2.7-.5 4.2-4 2.9-7.7 6-11.5 9-1.6 1.3-2.7 1.1-3.9-.3-7.8-9.3-15.5-18.5-23.4-27.7-7.4-8.7-14.8-17.3-22.4-25.9-2-2.2-2.4-3.9.6-5.9 3.4-2.2 6.3-4.7 9.5-7-.2-.2-.4-.3-.6-.4m36.7 24.4c-.1 0-.1-.1-.2-.1 1.8-1.4 3.6-2.7 5.4-4.1.7-.6 1.4-1.2-.1-1.8-7.1-2.6-14.3-5.2-21.4-7.7-1.4-.5-2.4.1-3.2.8-1 .8-1.6 1.6-.7 2.6 4 4.6 8.2 9.2 12.2 13.7 1 1.1 2 1.2 3.2.2 1.5-1.2 3.2-2.4 4.8-3.6M692.2 402.8c-10.2-6.7-20.4-13.4-30.7-20-2.4-1.5-2.8-2.6-.5-4.3 6.9-5.2 13.5-10.6 20.2-15.9 6.9-5.4 13.8-10.9 20.5-16.4 2-1.6 3.4-1.8 5.5-.3 3.4 2.3 6.8 4.6 10.4 6.7 2.2 1.3 2.1 2.4.3 3.8-7.6 5.9-15.1 11.8-22.6 17.7-.8.6-1.5 1.3-2.3 1.8-2.3 1.5-2.1 2.6.3 4.1 15.8 10 31.3 20.1 47.1 30.1 2.2 1.4 2.1 2.3.2 3.7-3.9 3-8 5.8-11.5 9-1.4 1.3-2.8 1.5-4.8.2-10.5-7-21.1-13.8-31.6-20.7zM717.2 494.7c6-4.5 12-9.1 18-13.6 1.6-1.2 3.3-2.3 4.3-3.8 3.9-1.9 6.4-4.7 9.4-7.2 1.3-.5 2.4-1.2 2.9-2.2 3.5-2.2 6.7-4.6 9.5-7.3 1.7-1 3.2-2 4.3-3.3 2.3-1.3 4.3-2.9 6.1-4.6 1.5-1.2 3.1-2.3 4.6-3.5 2-1.6 4.8-2.7 5.6-5 2.1-.7 3.4-1.8 4.2-3.3 2.6-1.1 4.6-2.7 6-4.6q3.75-1.65 5.7-4.5c2.4-1.3 4.4-2.8 6.1-4.6 1.6-.8 2.8-1.9 3.9-3 6-4.1 11.5-8.5 17-13 9.5-7.4 19-14.9 28.5-22.3.7-.5 1.4-1.1 2-1.7 1.7-1.7 3.3-1.8 5.7-.3 2.4 1.4 2.1 2.5.2 4-10.3 7.9-20.5 15.9-30.7 23.9-3.9 2.3-6.9 5.1-10.1 7.8-1.7 1.4-4.1 2.4-4.6 4.4-2.3 1.1-4 2.5-5.6 4.1-6.7 4.1-12 9.1-17.9 13.7-5.2 4-11 7.6-15.3 12.2-2.4 1.2-4.3 2.8-6 4.5-1.3.9-2.9 1.7-3.6 3-1.5 0-2 .9-3 1.5-1.8 1-2.2 2.9-3.9 3.8-3 1.6-5.2 3.5-7.1 5.7-.6.5-1.2.9-1.8 1.4-2.3 1.2-4.2 2.7-5.9 4.4-4.5 3-8.6 6.4-12.8 9.7-2.2 1.4-4.3 2.9-6 4.6-1.6 1.2-3.3 2.5-4.9 3.7-2.2 1.5-4.5 2.8-5.9 4.8-1.8.9-3.2 2.2-4.5 3.4-2.6 1-4.2 2.8-6.1 4.3-1.2 1.1-2.9 1.9-3.8 3.2-2 1.4-4.3 2.7-5.6 4.6-2 .6-3.3 1.7-4.1 3.1-2.5 1.2-4.4 2.7-5.9 4.5-5.4 3.8-10.8 7.6-15.4 11.9-2.3 1.3-4.2 2.9-6 4.6-.9.6-1.7 1.3-2.6 1.9-2.3 1.4-4.4 2.9-6.1 4.6-1.7 1.3-3.4 2.5-5.1 3.8-2 1.6-4.1 3.1-6.1 4.7-6.2 4.7-12.3 9.3-18.5 14-2.1 1.6-4.3 3.2-6.4 4.8-9.9 7.5-19.7 15.1-29.6 22.6-1.4 1.1-2.7 2.6-5.3.8-2.9-2-3.1-2.1-.3-4.2l27.6-21c1.1-.8 2.3-1.6 2.6-2.8 3.2-.9 5.2-2.8 6.7-4.9.9-1.3 2.1-2.1 3.9-2.8 2.7-1.1 5.2-2.6 6.1-4.9 1.3-.3 2.1-1 2.2-1.9 4.1-2.6 8.5-5 11.3-8.5 3.9-2.8 7.8-5.5 11.7-8.3 1-.7 1.9-1.4 2.3-2.3 2.7-1.2 4.3-3.1 6.3-4.8 2-.8 3.4-2 4.4-3.4 2.4-1.3 4.3-2.9 6.1-4.6 1.7-.9 3.2-2 4.3-3.3 2.2-1.3 4.1-2.7 5.7-4.3 1.6-.9 3-2 4.1-3.1 2.1-1.3 4.1-2.7 5.8-4.3 1.4-1 2.7-2.1 4.1-3.1 2.1-1.3 4.1-2.8 5.8-4.4 1.4-1.2 3.7-2 4-3.7 3.4-1.5 5.4-3.6 7.5-5.6" class="st4"></path><path d="M772.7 667.5c2.4-1.8 4.8-3.5 7-5.3 1.5-1.3 2.6-1.1 4.1-.1 5.2 3.5 10.5 6.8 15.7 10.2 1.6 1.1 3 1.8 4.6.1 1-1 1.9-.8 3.1 0 3 2 6.1 4 9.2 5.9 1.4.9 1.7 1.6.2 2.6-.3.2-.5.4-.7.5-3.6 2.9-3.7 3-7.7.3-1.9-1.3-3.2-1.4-5 .1-3.2 2.7-6.6 5.4-10.1 8-1.5 1.1-1.2 1.8.2 2.8 4.8 3.4 4.7 3.4-.2 6.7-1.1.7-1.8.8-2.9.1-3.2-2.1-6.4-4.2-9.7-6.3-1-.6-1.6-1.2-.3-2 1.6-1 .9-2 .2-3.1-2.7-4.3-7.5-7.3-12.3-10.4-4.7-3-4.7-3-.4-6.3 1.6-1.3 3.3-2.5 4.9-3.7.3 0 .2-.1.1-.1m16.4 6.6c-.9-.5-1.7-1.1-2.6-1.6-5.4-3.3-3.8-3.9-9.5.6-1.3 1-.8 1.6.3 2.4 2.2 1.5 4.2 3.2 6.5 4.7 1.9 1.3 2.2 4.3 4.8 4.1 2.1-.2 3.7-2.7 5.6-4 1.4-1 1.6-1.8-.1-2.8-1.7-1.1-3.3-2.3-5-3.4M920.6 504.2c1.9-1.4 3.9-2.8 5.6-4.3 1.6-1.4 3-1.6 4.9-.2 3 2.1 6.3 4 9.4 6.1 1.4 1 2.5 1.3 3.9 0 1-1 2.1-.6 3.1.1 1.6 1.1 3.3 2.1 4.9 3.1 4.4 2.7 4.2 3.7-.6 6.3-1.7.9-2.4-.1-3-.7-2.3-1.9-4.1-1.7-6.2.3-1.8 1.7-4.1 3.3-6.3 4.8-2.1 1.4-2.1 2.4.2 3.7.9.5 3 1 1.9 2.2-1.2 1.3-2.8 2.6-4.8 3.4-.6.2-10.3-6-10.3-6.5v-.2c4.1-3-.6-4.4-2.4-6.1s-4.2-3-6.5-4.3c-1.5-.9-1.4-1.6-.1-2.6 2.2-1.5 4.3-3.2 6.4-4.8 0-.3-.1-.3-.1-.3m12 4.9s-.1.1 0 0c-1.2-.7-2.2-1.5-3.4-2.1-2.1-1.1-2.8.5-3.8 1.2-.9.6-2.4 1.2-.7 2.3 1.9 1.3 3.5 2.8 5.3 4.1.5.4 1 1 1.9.5 1.6-1 3.4-1.9 4-3.3.4-1.1-1.7-1.5-2.6-2.3-.2-.1-.5-.2-.7-.4M868.7 513.5c-3.6 2.7-7.3 5.4-10.8 8.2-1.4 1.1-2.5 1.3-4.2.2-4.9-3.3-10-6.5-15.1-9.7-1.7-1.1-1.8-1.9-.1-2.9.7-.4 1.3-.9 1.8-1.4 1.2-1.2 2.3-1.2 3.9-.2 3.2 2.2 6.7 4.2 9.9 6.4 1.7 1.2 2.8.9 4.2-.3 1.2-1 2.1-1.8.1-2.9-3.4-2-6.4-4.2-9.8-6.2-2.1-1.2-2-2.1-.1-3.2.3-.2.5-.3.7-.5 1.8-1.9 3.5-2 5.8-.3 2.8 2.1 6.1 3.9 9.1 5.9 1.8 1.2 2.7.4 3.9-.5 1.1-.9 2.3-1.5.4-2.7-3.3-2-6.4-4.2-9.8-6.2-2.3-1.3-2.1-2.2-.1-3.4.7-.4 1.3-.9 1.9-1.4 1-.9 1.8-.9 3.1-.1 5.4 3.4 10.8 6.9 16.2 10.2 1.5.9 1.1 1.5 0 2.4-3.8 2.8-7.5 5.7-11.3 8.5.1.1.2.1.3.1M899.1 587.7c3.6 2.4 7.2 4.8 10.9 7.1 1.8 1.1 2 1.8.3 3.1-5.2 3.8-3.6 3.6-8.7.4-4.6-2.9-9.3-5.8-13.8-8.8-1.6-1.1-2.6-1.1-4.2.1-6.9 5-7 5 .3 9.7 3.7 2.4 7.5 4.8 11.3 7.1 1.8 1.1 2.1 1.8.3 3.1-5.5 4-3.6 3.7-9 .3-6.7-4.2-13.3-8.5-20-12.8-1.4-.9-2-1.5-.4-2.7q8.85-6.6 17.4-13.5c1.7-1.3 2.8-1.1 4.4 0 3.5 2.4 7.2 4.8 10.9 7.1.1-.1.2-.1.3-.2M882.5 650.8c2-1.5 4-2.9 5.9-4.5 1.3-1.1 2.4-1.2 3.9-.1 3.2 2.2 6.7 4.2 10 6.4 1.4.9 2.5 1.4 3.9.1.9-.9 1.9-.6 2.9 0 2.5 1.6 4.9 3.2 7.5 4.7 1.4.8 1.5 1.5.2 2.4q-1.05.6-1.8 1.5c-1.4 1.3-2.7 1.6-4.3.2-2.1-1.8-3.9-1.7-5.9.2s-4.3 3.6-6.7 5.2c-2 1.3-1.5 2.2.3 3.3 1 .6 3.3 1.1 2.3 2.3-1 1.3-2.8 2.4-4.4 3.4-.6.4-1.4-.3-2-.7-2-1.2-3.9-2.5-5.9-3.7-1.7-1.1-4-1.9-1.2-3.7 1.1-.7-.2-1.5-.8-2.1-2.5-2.7-5.8-4.8-9.2-6.9-1.8-1.1-2-1.9-.3-3.1 2.1-1.5 4.1-3.1 6.2-4.6-.4-.2-.5-.2-.6-.3m11.7 5.1c-.9-.5-1.8-1-2.5-1.6-1.3-1-2.5-1-3.6.1-.9 1-3.6 1.7-1.2 3.3 1.8 1.2 3.4 2.6 5 4 .6.5 1.2.9 2.3.4 3.8-1.7 4.1-3.6.7-5.7-.2-.2-.4-.4-.7-.5M853.5 734.3c1.7-1.3 3.7-2.5 5.1-3.9 2.1-2.1 3.7-1.7 5.9-.1 2.8 2 5.9 3.8 8.8 5.8 1.3.9 2.5 1.4 3.9.1 1-1 2.1-.6 3.1.1 2.4 1.6 4.7 3.1 7.2 4.6 1.7 1 1.6 1.8.1 2.8-.6.4-1.1.8-1.6 1.3-1.3 1.3-2.6 1.5-4.4.2-3.2-2.2-3.3-2.1-6.3.3-2.2 1.8-4.3 3.6-6.6 5.3-1.4 1.1-1.8 1.8 0 2.9 3.2 2 2.6 4.2-1.3 5.9-1.1.5-1.7.1-2.4-.4-2-1.3-4.1-2.6-6.1-3.9-1.6-1.1-4-1.9-1.2-3.8 1-.7-.2-1.5-.8-2.1-2.5-2.7-6-4.9-9.5-7-1.7-1-1.9-1.8-.3-3 2.2-1.5 4.3-3.2 6.4-4.8.1-.2 0-.3 0-.3m11.7 4.9c-.8-.5-1.6-.9-2.3-1.5-1.4-1.1-2.7-1.2-3.9.1-1 1-3.7 1.8-1 3.5 1.8 1.1 3.1 2.6 4.7 3.9.6.5.9 1.1 2.2.6 3.9-1.4 4.5-3.8 1.3-5.9-.3-.2-.6-.4-1-.7M857.4 639.6l1.8 1.2c3.4 2.1 3.2 2 .5 4.5-2.1 1.9-3.7 1.7-5.6.1-1.6-1.4-2.9-1.2-4.4.1-2.3 2-4.8 4-7.4 5.8-1.9 1.3-1.7 2.2.3 3.3 1 .6 3 1.1 2.3 2.2-.9 1.4-2.7 2.6-4.5 3.6-.6.3-1.3-.2-1.8-.5-2.6-1.6-5.1-3.3-7.7-4.9-1-.6-1.5-1.3-.3-2 1.7-1 .9-1.9-.1-2.9-2.6-2.6-5.9-4.8-9.3-6.8-1.7-1-1.9-1.7-.3-2.9 4.1-3.1 8.1-6.2 12-9.4 1.3-1 2.2-1.1 3.6-.1 3.3 2.2 6.8 4.4 10.2 6.6.7.5 1.8 1.3 2.6.6 2.6-2.4 4.2-.5 5.9.6.8 0 1.4.5 2.2.9q-.15 0 0 0m-18.6.7c-.9-.6-1.9-1.2-2.8-1.8-1.4-1-2.4-.7-3.7.2-2.1 1.4-2.8 2.5-.1 4.1 1.6.9 2.7 2.2 4 3.3.5.4 1.1 1.1 1.8.6 1.5-1.1 3.2-2.2 4-3.5.6-.9-1.5-1.4-2.3-2.1-.2-.4-.6-.5-.9-.8M1131.6 602.8c2.6 1.7 4.8 3.2 7.1 4.6 1.5.9 1.5 1.5.3 2.6-4.2 3.6-4.1 3.7-9 .5-6.8-4.3-13.6-8.8-20.6-13-2.1-1.3-2-2.2-.1-3.3 1.6-.9 2.2-3 5.4-2.2.6.1.7-.9.8-1.4 1.3-4.5 7.2-7 13.5-5.6 5.2 1.1 9.1 3.5 11.4 7 3.4 4.7.2 8.7-8.8 10.8m-8.7-5.1c2.9 1.9 6.1 2.1 8.2.5 2.2-1.6 1.7-3.8-1.3-5.7-2.8-1.8-6.1-2-8-.6-2.2 1.6-1.7 4 1.1 5.8M1066.4 600.2c4.8 3 4.8 3.7-.4 6.7-1.1.6-1.7.5-2.6-.1-8.1-5.2-16.3-10.3-24.5-15.4-1-.6-1.5-1.3-.2-2 2-1 2.5-3.4 6-3 1.1.1.7-.8.9-1.3 1.6-4.7 7.3-7.1 13.9-5.6 5.2 1.2 9 3.7 11.3 7.1 2.7 4.1 0 8.6-5.9 9.8-3.7.7-2.2 1.5-.6 2.5.7.4 1.4.8 2.1 1.3M1053 592c3.1 2 6.2 2.2 8.5.5 2-1.5 1.6-3.5-1.1-5.3-3-2-6.4-2.4-8.6-.9-2.2 1.6-1.7 3.7 1.2 5.7M934.1 743.6c3.3 2.2 5.8 3.9 8.5 5.5 1.8 1.1 1.9 1.8.3 3.1-3.8 2.9-3.7 3-7.9.3-4.5-2.9-9-5.8-13.6-8.6-1.5-.9-1.7-1.6-.3-2.8 5.3-4.5 5.2-4.5 13.2-2.7 1.1.3 2.5 1 3.5.3 1-.8-.4-1.6-.7-2.4-.1-.2-.2-.3-.3-.5-3.2-5.2-3.2-5.2 2.3-9.3 1.3-1 2.3-1.3 3.9-.2 5.2 3.4 10.5 6.8 15.8 10.2 1.6 1 1.6 1.8.1 2.8-.6.4-1.1.8-1.6 1.3-1.5 1.6-3 1.6-4.9.2-2.4-1.8-5.1-3.4-8.2-5.4-.6 3.1 3.8 4.8.5 7.6-3.2 2.8-6.3.1-10.6.6M695.3 593.5c.1.1.2.1.3.2 4.2 2.7 4 4.1-.7 6.5-1.2.6-1.9.2-2.7-.3-7.8-5-15.6-10.1-23.5-15.1-1.2-.8-1.3-1.5-.1-2.2 1.8-1 2.3-3.3 5.8-2.8.9.1.7-.7.8-1.1 1.7-5.5 8.2-7.7 15.4-5.3 4 1.3 7.1 3.4 9 6.1 3 4.3.2 9-6.3 10.2-2.3.4-2.5.9-.8 1.9 1 .6 1.9 1.2 2.8 1.9m-5.7-13.2c-3.1-2-6-2.3-8.2-.7s-1.8 3.9.9 5.7c2.9 2 6.2 2.1 8.5.4 2.1-1.4 1.6-3.5-1.2-5.4M1083.5 627.3c-.7 2.7 3.1 4.6-.5 7.3s-6.6-.5-10.2.4c2.8 1.8 5.3 3.6 8 5.2 1.8 1.1 2.4 2.1.3 3.3-.9.5-1.6 1.2-2.3 1.8-.9.7-1.8.8-2.9.1-5.6-3.6-11.3-7.2-16.9-10.8-1-.6-1-1.2-.1-1.8 1.7-1.3 3.5-2.6 5.1-3.9 1-.8 2-.6 3.1-.4 2.4.6 4.8 1.1 7.2 1.7 2 .5 2.7 0 1.9-1.4-.9-1.5-1.8-3-2.9-4.4-1-1.3-.6-2.1.7-3.2 5.8-4.4 5.7-4.4 12-.4 3.9 2.5 7.8 5 11.8 7.5 1.4.8 1.3 1.4.2 2.4-4 3.5-4 3.5-8.8.5-1.9-1.4-3.8-2.6-5.7-3.9M962.5 540.3c-1.1-.7-2.3-1.4-3.3-2.2-1.1-.9-3.8-1.4-3-2.6.9-1.5 3-2.6 4.7-3.8 1.1-.7 1.8.3 2.5.7 3.5 2.1 6.9 4.3 10.4 6.5.9.5 1.9 1.3 2.9.4 2-1.8 3.4-.7 4.9.4 1.9 1.3 3.9 2.5 6 3.7 1.6.9 1.9 1.7.2 2.7-.6.4-1.2.8-1.7 1.2-1.5 1.5-2.9 1.6-4.6.2-2.1-1.8-3.9-1.5-6 .2-3.2 2.7-6.9 5.2-10.2 7.9-1.3 1-2.2 1.4-3.9.2-5.2-3.4-10.5-6.8-15.9-10.1-1.3-.8-1.4-1.5-.1-2.4 5.4-3.9 3.4-3.7 9.1-.4 2.6 1.5 5 3.1 7.5 4.7 1.4.9 2.4 1.1 3.9 0 3.8-2.9 3.9-2.8-.3-5.5-1-.7-2-1.3-3-2 0 .1-.1.2-.1.2M929.7 569.2c-2.5-1.7-5-3.4-7.6-4.9-1.7-1-1.6-1.7-.2-2.7 5.1-3.7 3.4-3.3 8.2-.4 2.6 1.6 5.2 3.2 7.7 4.9 1.6 1.1 2.6 1.1 4.2-.1 3.6-2.8 3.7-2.7-.4-5.3-2.8-1.7-5.4-3.5-8.2-5.2-1.5-.9-1.6-1.5-.3-2.6 4.2-3.4 4.1-3.5 8.7-.5 2.6 1.7 5.3 3.3 7.9 5.1 1.2.8 2.3 1 3.4 0s2.1-1 3.4-.1c2.3 1.6 4.7 3.1 7.1 4.6 1.5.9 1.5 1.7.1 2.6-.6.4-1.2.8-1.6 1.2-1.5 1.5-3 1.6-4.6.1-2-1.8-3.7-1.5-5.7.2-3.3 2.8-7 5.4-10.4 8.1-1.2 1-2.2 1.1-3.7.1-2.5-1.8-5.2-3.4-7.8-5.1-.1-.1-.1-.1-.2 0M807.3 488.9c-.9 2.6 2.9 4.4-.5 7-3.5 2.6-6.4-.2-10.1.5 2.6 1.7 4.7 3.3 7.2 4.7 3 1.6 2.7 2.8.1 4.3-.4.2-.8.6-1.2.9-1 .9-2 1.1-3.4.2-5.3-3.4-10.6-6.7-15.9-10.1-.6-.4-1.6-.8-1-1.4 1.9-1.7 3.9-3.4 6.1-4.9 1.6-1 3.2.2 4.8.4 2.2.3 4.9 2 6.3.9 1.5-1.1-1.2-2.8-1.8-4.3-.4-1.1-2.4-2.2-1.2-3.4 1.8-1.8 4.1-3.3 6.3-4.8.7-.5 1.5.1 2.1.5 5.4 3.4 10.7 6.9 16.1 10.3 1.4.9 1.3 1.6.1 2.4-.7.4-1.3.9-1.9 1.4-1.6 1.5-3 1.6-4.9.2-2.3-1.7-4.8-3.2-7.2-4.8M866.1 558.3c-.5 3.1 3.9 4.9.3 7.6s-6.6-.5-10.3.5c3 2 5.7 3.8 8.5 5.5 1.6 1 1.7 1.8.2 2.8-.9.5-1.6 1.1-2.4 1.8-1 .9-2 .9-3.2.1-5.4-3.5-10.9-7-16.4-10.4-1-.6-1.1-1.2-.2-1.8 1.7-1.3 3.5-2.6 5.1-3.9 1-.8 2-.5 3.1-.3 2.4.6 4.8 1.1 7.2 1.7 1.8.4 2.4-.1 1.7-1.3-.9-1.6-1.9-3.1-3-4.6-.9-1.2-.7-2 .6-3 5.6-4.4 5.5-4.4 11.8-.4 3.6 2.3 7.1 4.6 10.8 6.8 2.2 1.3 2.2 2.2.1 3.4l-1.2.9c-1.5 1.6-2.9 1.6-4.8.2-2.1-2-4.7-3.5-7.9-5.6M915.5 759.9c2.4 1.6 4.8 3.3 7.4 4.8 1.8 1 2.2 1.9.4 3.1-.6.4-1.1.9-1.5 1.3-1.4 1.4-2.8 1.7-4.6.2-1.2-1-2.7-1.8-4.1-2.6-.7-.4-1.4-1.4-2.5-.9-1 .4-.3 1.4-.2 2 .5 2.3 1.1 4.6 1.6 6.9.3 1.4-2.4 4.6-4.2 5.1-.8.2-1.3-.1-1.8-.4-5.6-3.6-11.2-7.2-16.9-10.8-.9-.6-1.2-1.1-.2-1.8.3-.2.6-.5.9-.8 3.5-3 3.5-2.9 7.5-.4 1.6 1 3.5 3 5 2.4 1.8-.7 0-2.8-.2-4.2q-.45-2.4-1.2-4.8c-.3-1 0-1.8 1-2.6 4.7-3.5 3.3-3.1 7.7-.3 2 1.2 3.9 2.5 5.8 3.8 0 .1.1.1.1 0M1107.4 610.8c-.3 3.4.9 6 1.5 8.7.5 2.2-1.3 4.8-4 5.8-1.1.4-1.7 0-2.4-.5-5.5-3.5-11-7.1-16.6-10.6-1.1-.7-1-1.2-.1-2 4.1-3.6 4-3.7 9-.6 1.4.8 2.8 1.6 5.1 2.9-.7-3.3-.9-6-1.9-8.5-1.2-2.9 1.5-4.3 3.7-6 1-.8 1.8-.2 2.6.3 5.5 3.5 10.9 7 16.4 10.4 1.6 1 1.2 1.6 0 2.6-4.1 3.2-4 3.3-8.6.5-1.4-.8-2.8-1.8-4.7-3M993.7 697.5c2.5 1.7 5 3.4 7.6 4.9 1.5.9 1.8 1.6.3 2.7-5 3.9-3.5 3.5-8.5.6-1.1-.6-1.9-2.1-3.6-1.4-1.9.8-3.4 2.2-4.5 3.6-.3.4.3.7.7 1 .6.5 1.3.9 2 1.4 4.1 2.7 3.8 4.3-.9 6.6-1.2.6-1.9.1-2.7-.4-5.5-3.5-10.9-7-16.4-10.5-1.1-.7-1.5-1.4-.3-2.2.4-.3.7-.6 1.1-.9 4.1-3.3 3.2-2.7 7-.4 3 1.9 7.1.9 8.2-2 .2-.4 0-.8-.4-1.1-.6-.4-1.2-.8-1.7-1.2-1.1-.9-3.6-1.5-3.2-2.6.5-1.6 2.8-2.7 4.5-3.9 1.1-.8 1.8.1 2.6.5 1.4.9 2.7 1.7 4.1 2.6s2.7 1.8 4.1 2.6c-.1.2 0 .1 0 .1M877.2 729.2c-2.4-1.6-4.8-3.2-7.4-4.8-1.5-.9-1.9-1.6-.4-2.7 3.2-2.4 6.1-5 9.4-7.4 2-1.5 4.4-2.7 7.6-2 2.9.7 4.5 2.1 4.5 4.4 0 1 .6 1.2 2 .9 3.4-.8 5.8.3 7.7 2.2s1.3 4-.5 5.6c-3.6 3.2-7.5 6.3-11.3 9.4-1.2 1-2.2.4-3.1-.2-2.9-1.8-5.7-3.6-8.5-5.4m13.8-2.4c1.3-1.2 3.8-2.4 1.3-4-2.3-1.4-3.6.4-5 1.3-1.5 1-2.6 1.8-.3 3.2 1.9 1.3 2.9.6 4-.5m-11.1-7.3c-.8.9-2.7 1.5-.7 2.8 1.6 1.1 2.6.6 3.6-.3 1.1-1 3.1-1.9 1.1-3.3-1.8-1.1-2.9.1-4 .8M919.6 577.6c.8 3.5 1.5 6.3 2.1 9.1.4 1.7-1.9 4.7-4 5.4-1 .3-1.5-.2-2.1-.5-5.4-3.4-10.8-6.9-16.2-10.3-1.1-.7-1.4-1.3-.3-2.2 3.8-3.4 4-3.5 8.6-.6.5.3 1 .7 1.5 1 1 .5 1.8 1.8 2.9 1.4 1.5-.5.5-1.8.1-2.6-1-2.3-1-4.6-1.5-6.9-.4-2.1 2.3-3.1 4.2-4.1 1.5-.8 2.6.7 3.6 1.3 4.8 2.9 9.3 6.1 14.2 8.9 2.1 1.2 1.9 2.1.1 3.3-.6.4-1.1.8-1.6 1.3-1.2 1.1-2.3 1.2-3.9.2-2.2-1.7-4.2-3.2-7.7-4.7M898.6 712.7c-2.6-1.7-5.2-3.5-7.9-5.1-1.4-.9-1.7-1.5-.3-2.6 5-3.8 3-3.7 8.3-.5 1.4.9 2.9 2.8 4.4 2.2 1.6-.6.1-2.5-.1-3.8-.3-1.8-.8-3.5-1.3-5.3-.3-.9-.2-1.7.8-2.4 4.6-3.5 3.3-3.2 7.7-.4 4.5 2.9 8.9 5.9 13.5 8.7 1.8 1.1 2 2 .1 3.1-.6.4-1.2.8-1.6 1.3-1.4 1.4-2.7 1.4-4.3.1-1.3-1-2.8-1.9-4.3-2.8-.6-.4-1.2-1.3-2.2-.8-.9.4-.4 1.2-.2 1.8.6 2.5 1.2 4.9 1.8 7.4.3 1.2-2.6 4.5-4.2 4.9-1.1.3-1.7-.4-2.3-.8-2.6-1.6-5.2-3.4-7.9-5 0-.1 0 0 0 0M723.5 613.5c.7 2.9 1.3 5.9 2 8.8.3 1.5-2.1 4.6-4 5.2-1 .3-1.5-.1-2.1-.5-5.5-3.5-10.9-7-16.3-10.5-.9-.6-1.1-1.1-.3-1.9 3.4-3.6 4.2-3.7 8.7-.9 1.4.9 3 2.8 4.4 2.2 1.8-.7.1-2.6 0-4-.2-1.7-.8-3.4-1.2-5-.2-.8 0-1.5.8-2.2 3.5-3.2 3.5-3.2 7.8-.5 4.4 2.8 8.8 5.7 13.3 8.5 1.9 1.1 2 2 .1 3.1-.7.4-1.3.9-1.9 1.4-1.3 1.3-2.4 1.1-3.9.1-2-1.4-4.2-2.8-6.2-4.1q-.75.15-1.2.3M772.1 517.6c.7 2.9 1.4 5.8 2.1 8.8.3 1.3-2.7 4.7-4.4 5-.8.2-1.3-.3-1.8-.6-5.5-3.5-10.9-7-16.4-10.4-1-.6-1-1-.3-1.8 3.7-3.7 4.2-3.8 8.9-.8 1.3.9 2.6 1.7 4.7 3.1.1-3.7-1.1-6.5-1.7-9.4-.3-1.5 2.2-4.8 4.1-5.3 1.1-.3 1.7.4 2.3.8 5.2 3.3 10.4 6.6 15.7 9.9 1.5.9 1.4 1.5.1 2.6-3.9 3.2-3.9 3.2-8.3.4-1.4-.9-2.8-1.8-4.2-2.8-.1.2-.4.4-.8.5M957.2 491.4c-1.6 1.2-3.1 2.4-4.7 3.5-1.7 1.2-.8 1.8 1 2.2 2.5.5 5.6-.8 5.9-2.8.3-2.5 3.4-3.5 5.2-5.2.7-.6 1.4-.2 1.9.3.8.9 1.3 1.9 1.3 3 .2 4.3-3.4 7.1-8 9.3-4.4 2-9.1 1.8-13.4-.2-5-2.3-8.4-5.3-7.4-9.9.9-3.8 6.7-7.8 12.3-8.7 2.5-.4 9.2 1.7 10.9 3.2.8.8.2 1.2-.4 1.6-1.6 1.3-3.2 2.4-4.6 3.7q-.15-.15 0 0m-5-2.4c-3.4-.3-5.7.7-5.9 2.5 0 .4.1 1.1.5 1.3.7.4 1.2-.2 1.6-.5 1.3-1 2.9-1.9 3.8-3.3M654.2 607.1c-2.5-1.7-5-3.4-7.6-4.9-1.5-.9-1.4-1.6-.1-2.6 4.8-3.6 9.5-7.2 14.2-10.9 1.3-1 2.2-1.1 3.7-.2 5.1 3.4 10.3 6.7 15.6 10 1.6 1 1.6 1.7.1 2.7-5 3.6-3.4 3.4-8.3.4-2.6-1.6-5.2-3.2-7.6-4.9-1.6-1.1-2.7-1.1-4.2.1-4.2 3.5-4.3 2.5.2 5.5 2.6 1.7 5.2 3.5 7.9 5.1 1.8 1 1.7 1.8.1 2.9-5 3.7-3.4 3.3-8.2.3-1.9-1.2-3.7-2.4-5.6-3.6-.1 0-.1 0-.2.1M1002.5 572.2c2.6 1.7 5.2 3.5 7.9 5.1 1.3.8 1.5 1.5.2 2.4-.5.3-1 .7-1.4 1.1-2 2-4 2.3-6.4.3-.9-.7-1.9-1.8-3.7-.8-1.6.9-2 1.9-.7 3.1.2.2.3.4.5.7 2.1 2.9 1.2 5-2.7 6.7-1.1.5-1.4.1-1.8-.4-.5-.6-1-1.3-1.4-2-1.2-2-2.6-3.3-6.4-3.5-6.1-.5-9.1-5.6-5.8-9.4 2.8-3.3 7-5.8 10.6-8.6 1.1-.9 2-.3 2.9.3 2.7 1.8 5.4 3.5 8.1 5.3-.1-.1 0-.2.1-.3m-13 3.3c-1 1.1-3.4 2.1-1 3.6 2 1.2 3.3 0 4.6-.9 1.4-1 2.4-1.8.3-3.1-1.8-1.1-2.8-.7-3.9.4M957.3 670c1.1.7 2.3 1.4 3.3 2.2 1.1.9 3.7 1.5 2.9 2.6-1.1 1.4-2.3 3.4-5.5 3.4-2.1 0-1.2 1.3-1.5 2-1.2 2.7-3.6 4.5-7.4 5.2-3.3.6-6.1-.2-8.4-2-2.8-2.2-3-5.4-.3-8.1 1.2-1.2 2.6-2.3 3.9-3.4.5-.5 1.6-.9.6-1.6-.8-.6-1.9-.5-2.9-.1-1.1.5-2.2 1.2-2.1 2.1.3 2.6-2.8 3.7-4.7 5.3-.8.7-1.9.6-2.4-.4-.4-.8-.7-1.7-.8-2.5-.4-4 5.9-9.6 11.5-10.3 2.5-.3 4.8.2 6.8 1.3 2.4 1.4 4.7 2.9 7 4.3.1 0 0 0 0 0m-9.6 4.9c-1.5 1.3-3.2 2.5-1.1 4 1.5 1.1 3.2.6 4.5-.4 1.7-1.4 1.8-2.9-.1-4.3-1.8-1.3-2.4.2-3.3.7M1043.9 599.6c6.1 4 6.3 9.2.7 13.5-6.1 4.6-13.9 4.8-20.4.5-6.1-4-6.3-9.4-.4-13.7 5.9-4.4 13.6-4.5 20.1-.3m-6.2 4.7c-3.2-2.1-6.2-2.4-8.4-.7-2.3 1.7-1.8 3.6 1.2 5.7 3 2 6 2.2 8.2.6 2.2-1.5 1.7-3.8-1-5.6M856.2 451.2c2.5 1.7 5 3.4 7.6 4.9 1.7 1 1.5 1.7.1 2.7-4.1 3.2-4 3.2-8.7.4-.9-.6-1.8-1.9-3.3-1.2-1.9 1-3.6 2.2-4.7 3.8-.1.2.5.7.9.9.7.5 1.6 1 2.3 1.5 1 .8 3.3 1.4 2.8 2.5-.7 1.6-2.9 2.7-4.7 3.8-.9.6-1.7-.2-2.3-.6-5.2-3.2-10.2-6.6-15.5-9.7-1.9-1.1-2-2-.1-3.1.1 0 .2-.1.2-.2 3.7-2.9 3.9-3 7.7-.2 2.9 2.2 4.1.5 5.8-.7 1.8-1.3 3-2.2.2-3.8-4.4-2.6-4.2-2.7-.3-5.7 1.4-1.1 2.5-1.5 4.1-.2 1.2.9 2.6 1.6 3.9 2.4s2.5 1.7 3.8 2.5c.2.1.2.1.2 0M924.8 635.4c1.2.8 2.5 1.5 3.5 2.3 1.1.9 3.8 1.5 2.8 2.7-1.2 1.4-2.3 3.4-5.6 3.4-1.8 0-1.2 1-1.4 1.6-1 3.1-4.6 5.6-8.6 5.8-3.4.1-6.1-.8-8-2.7-2-2.1-1.7-4.3-.3-6.5 1.1-1.6 3-2.9 4.6-4.2.6-.5 1.9-1 .6-1.8-.9-.5-2-.4-2.9.1-1 .5-2.1 1.1-1.9 1.9.5 2.6-2.8 3.5-4.4 5.1-.7.7-1.6.5-2.2-.2-.2-.2-.3-.4-.5-.6-2.1-3 .1-7 5.7-10.3 3.9-2.3 8.1-2.5 12-.4 2.3 1.2 4.2 2.7 6.4 4.1.1-.2.2-.2.2-.3m-9.4 5c-1.2 1.2-3.3 2.4-1 4.1 1.5 1.1 3.1.5 4.4-.5 1.9-1.4 1.7-2.9-.1-4.3-1.5-1.2-2.3 0-3.3.7M823.4 666.7c-5.7 4.2-13.2 4.4-19.2.5-6.2-4-6.4-9.8-.5-14.2 5.7-4.2 13.2-4.4 19.3-.4 6.3 4.2 6.5 9.5.4 14.1m-13.2-4.1c3 1.9 6 2.1 8.2.3 2.1-1.7 1.5-3.9-1.4-5.8-3-2-6-2.1-8.2-.5-2.3 1.8-1.7 4 1.4 6M877.3 435.3c2.4 1.6 4.8 3.3 7.4 4.8 1.7 1 1.7 1.8.2 2.7-.3.2-.6.5-.9.7-3.2 2.5-3.2 2.5-6.8.4-.9-.5-1.7-1.7-3.4-.6-1.4.9-2.3 1.8-.9 3.1.2.2.3.4.4.7 2 2.8.9 5.2-2.8 6.8-1.1.5-1.4.1-1.8-.5-.5-.6-.9-1.3-1.4-2-1.3-1.8-2.3-3.2-6.1-3.4-6-.3-9-5.1-6.2-8.9 2.7-3.6 7.3-6.2 11-9.3 1.2-1 2.1-.1 2.9.4 2.7 1.7 5.4 3.5 8.1 5.3.1-.1.2-.1.3-.2m-9 5.5c1.2-.7 1.7-1.5-.2-2.6-1.7-1.1-2.8-.8-3.9.3s-3.2 2.1-1.1 3.5c2 1.4 3.5.1 5.2-1.2M973.8 728c-4.6 3.4-9.9 4.2-15.1 2.5-6.3-2.1-10.1-6.6-9.2-10.7.9-4 6.4-8.1 11.7-8.6 1.9-.2 3.7 0 5.4.4 6.3 1.6 6.9 2.9 2.6 6.4-2.1 1.7-4.2 3.4-6.4 5.1-1.8 1.4-.6 2 1.3 2.2 2.9.4 5.1-.8 5.4-2.6.5-2.3 2.7-3.4 4.5-5 1.4-1.2 2.3-.7 3 .4 2 3 1.1 5.8-1.6 8.4-.6.7-1.2 1.2-1.6 1.5m-13.5-8.4c.4-1 3.1-1.5 1.5-2.7-1.1-.8-2.8.1-3.8.9s-2 2-.8 2.8c1.7 1.1 1.9-.8 3.1-1M735.9 661.3c-2.5-1.7-5-3.4-7.6-4.9-1.7-1-1.6-1.8-.1-2.7.1-.1.2-.1.2-.2 3.7-3 3.7-3 7.9-.4 1 .6 1.8 1.9 3.7.9 1.5-.8 2.2-1.8 1.2-3.2-.3-.4-.5-.9-.7-1.4-2.3-4.2-2.2-4.2 2.4-7.2 1.2-.8 1.8-.8 2.4.3 1 1.9 2.2 3.8 3 5.7.7 1.5 1.7 2.4 4.1 2.8 3.3.5 6.4 1.2 9.7 1.9.8.2 1.9.2 1 1.2-2.4 3-5.2 3.8-10 2.9-1.4-.3-2.9-.5-4.3-.8-1.8-.4-2.5.6-3.3 1.3-1.1 1 .2 1.4 1 2 1 .7 2 1.4 3.1 2 1.9 1 1.9 1.8.2 3.1-4 3-3.9 3.1-8.2.3zM915.7 521.8c2.4 1.5 4.6 3.2 7.1 4.6 1.9 1.1 2.3 1.9.3 3.3-4 2.8-3.8 2.9-8 .4-1.1-.6-2.1-2.1-3.6-1.4-1.9.8-3.3 2.2-4.7 3.5-.5.4.3.9.8 1.2.8.6 1.7 1.1 2.5 1.7 3.4 2.2 3.2 2.1.2 4.6-2.1 1.8-3.6 1.9-6 .2-4.5-3.1-9.3-6.1-14-9-1.8-1.1-2.1-2-.1-3 .2-.1.3-.2.5-.4 3.6-2.7 2.5-3.1 7.1-.3 1 .6 1.9 2.1 3.6 1.4 1.9-.8 3.4-2.1 4.6-3.5.4-.5-.4-.9-.9-1.2-.9-.6-1.8-1.3-2.8-1.8-2.1-1-2.1-2-.4-3.3 4.6-3.4 3.5-3.1 7.8-.4 2 1.2 3.9 2.5 5.8 3.8.1-.3.1-.3.2-.4M1014.1 681.4c2.5 1.7 5 3.4 7.6 4.9 1.8 1 1.8 1.9.1 2.9-.4.3-.9.6-1.2.9-2 2.2-3.9 1.9-6.1.1-.8-.6-1.7-2-3.6-.8-1.4.9-2.3 1.8-.9 3.1.3.3.5.7.8 1.1 1.7 2.4.4 5.1-2.9 6.4-1.1.4-1.5 0-1.9-.5-.6-.7-1.2-1.4-1.6-2.1-1.1-1.8-2.4-3-5.9-3.2-6.3-.4-9.5-5.6-6.2-9.5 2.7-3.3 7-5.8 10.5-8.6 1.1-.9 2-.4 2.9.2 2.7 1.8 5.4 3.5 8.1 5.3.2-.1.2-.2.3-.2m-12.2 2.7c-1.6 1.5-3.8 2.6-1.5 4 1.9 1.2 3.3 0 4.6-.9s2.4-1.7.3-2.9c-1.5-.9-2.6-1.1-3.4-.2M776.1 633.4c1.9 1.2 3.6 2.5 5.6 3.6 1.4.8 1.5 1.6.1 2.4-1.7.9-2.1 2.9-5.3 2.5-1.1-.1-.7 1.2-.9 1.8-1.9 5-9.5 7.1-14.8 4.1-3.4-2-4.1-5.1-2-7.7 1.3-1.7 3.2-3 4.9-4.4.5-.4 1.6-.9.6-1.6-.7-.5-1.7-.6-2.6-.2-1.4.5-2.7 1.2-2.6 2.4.4 2.6-3 3.5-4.6 5.1-.6.7-1.4.4-1.9-.2-.2-.2-.4-.4-.5-.6-2.1-2.8.1-7.1 5.3-10.2 4.3-2.6 8.4-2.9 12.5-.7 2.2 1.2 4.1 2.6 6.1 3.9 0-.1 0-.1.1-.2m-9.2 5.1c-1.2 1.1-3.4 2.3-1.2 4 1.5 1.2 3.2.7 4.5-.3 1.8-1.4 2-2.9.2-4.3-1.6-1.2-2.4-.2-3.5.6M801.3 552.3c2.4 1.6 4.8 3.3 7.4 4.8 1.6.9 1.4 1.5.2 2.5-4 3.3-3.9 3.3-8.5.5-1-.6-1.9-1.9-3.3-1.3-2.1.8-3.8 2.2-4.7 3.7-.5.9 1.3 1.4 2.2 2 4.7 3.2 4.7 3.1-.1 6.3-1 .7-1.7.9-2.9.1-5.4-3.5-10.9-7-16.4-10.5-1.1-.7-1.2-1.3-.2-2 .5-.3.9-.7 1.4-1.1 3-2.4 3-2.4 6.6-.2 1.1.6 2 2.1 3.5 1.6 2.2-.7 3.7-2.2 4.9-3.7.7-.9-.9-1.3-1.7-1.8-4.2-2.8-4.1-4 .6-6.5 1.4-.7 2.1-.1 2.9.4 2.7 1.8 5.4 3.5 8.1 5.3-.1 0 0-.1 0-.1M895.9 540.3c1.3.9 2.8 1.7 4 2.7 1 .8 3.4 1.2 2.4 2.5-1.1 1.3-2.6 3.2-4.8 3.2-2.4-.1-1.9.8-2.2 1.6-1.2 3.9-7 6.5-11.9 5.3-5.1-1.2-8.4-5.2-4.4-9.4 1.3-1.3 2.9-2.5 4.4-3.7.5-.4 1.4-.8.7-1.4-.6-.6-1.6-.7-2.5-.4-1.4.4-2.9 1.1-2.7 2.3.3 2.6-3.1 3.4-4.6 5.1-.6.6-1.4.4-1.9-.2-.2-.3-.5-.6-.7-.9-1.9-3 .6-7.1 5.9-10 4.4-2.4 8.2-2.5 12.3-.3 2.1 1.2 3.9 2.5 5.8 3.8 0-.1.1-.1.2-.2m-9.3 5.1c-1.4 1.2-3.4 2.4-1 4 1.4 1 3 .4 4.2-.4 1.9-1.3 1.9-3.1.2-4.3-1.7-1.1-2.4 0-3.4.7M848.1 588.2c-5.8 4.2-13.4 4.3-19.6.2-5.9-4-5.9-9.5 0-13.7 5.8-4.2 13.4-4.2 19.6 0 5.8 3.8 5.8 9.3 0 13.5m-6.5-9.4c-3.1-2-6-2.1-8.1-.4-2.1 1.6-1.5 3.9 1.4 5.7 3 1.8 6.2 2 8.3.4 1.9-1.6 1.4-3.8-1.6-5.7M868.6 617c6.3 4.2 6.3 9.6 0 14.1-5.4 3.9-13.3 3.9-19.1 0-6.1-4.1-6.2-9.6-.2-14 5.7-4.1 13.2-4.2 19.3-.1m-13.2 9.5c3.1 2.1 6 2.3 8.2.8 2.3-1.6 1.9-3.9-.9-5.7-3-2-6.2-2.3-8.3-.8-2.2 1.6-1.9 3.8 1 5.7M697.4 559.6c5.8-4.3 13.6-4.5 19.6-.5 6.1 4.1 6.3 9.4.6 13.7-5.8 4.3-13.5 4.5-19.6.5-6-3.9-6.3-9.4-.6-13.7m13.6 4.1c-3-2-6-2.2-8.2-.6-2.2 1.7-1.8 3.8 1.1 5.7 2.8 1.9 6.1 2 8.2.3 2.3-1.5 1.8-3.4-1.1-5.4M823.8 537.9c1.2.8 2.5 1.5 3.5 2.3 1.1.9 3.8 1.5 2.8 2.6-1.2 1.4-2.2 3.4-5.6 3.2-1.6-.1-1.1 1-1.3 1.6-1.3 4.3-7.6 6.8-12.8 5.1-5.4-1.7-6.8-5.9-3.1-9.6 1.2-1.2 2.7-2.2 4.1-3.3.5-.4 1.3-.9.6-1.5-.6-.5-1.6-.6-2.5-.3-1.5.5-2.9 1.3-2.7 2.6.3 2.6-3.2 3.3-4.8 4.9-.4.4-1.1.1-1.4-.2s-.7-.7-.9-1c-1.9-3 .5-7 6.2-10.2 3.9-2.2 8.1-2.3 12-.1 2.1 1.2 3.9 2.5 5.8 3.8 0 .2 0 .1.1.1m-9.1 4.8c-1.3 1.2-3.4 2.4-1.3 4.1 1.5 1.2 3.2.6 4.5-.3 1.7-1.2 1.6-3.2-.1-4.3-1.5-1.1-2.2-.2-3.1.5M815.8 468.2c5.4-4 11.5-4.4 17.5-1.2 1.9 1 2.3 1.7.5 3-2.9 2.1-5.6 4.3-8.4 6.4-.5.4-1.4.8-1.1 1.4.3.7 1.4.8 2.3.9 2.5.3 5.2-.9 5.4-2.9.3-2.4 3.3-3.4 5.1-5 .9-.8 1.6 0 2 .5 1 1.4 1.4 2.9 1.1 4.5-.9 3.8-5.9 7.6-11.4 8.5-6.1 1-10.5-1-14.1-4.2-4.5-3.7-3.9-8.2 1.1-11.9m9.1 2.4c-3.3-.3-5.6.8-5.7 2.6 0 .4.1.9.5 1.1.5.3 1-.1 1.4-.4 1.3-1 2.9-1.9 3.8-3.3M924.4 617.5c5.3-4 11.8-4.4 17.5-1.2 1.7 1 2.3 1.7.5 3.1-2.9 2.1-5.5 4.3-8.4 6.5-2 1.5-.9 2.1 1.3 2.3 3.1.3 5.1-.9 5.5-2.8.5-2.3 3-3.3 4.8-4.9 1-.9 1.8-.2 2.3.5.9 1.3 1.6 2.7 1.1 4.2-1.3 4.2-4.9 7.2-10.7 8.5-5.9 1.3-10.6-.6-14.4-3.6-4.8-4-4.5-8.8.5-12.6m7.5 4.7c-.2-1 2.7-1.2 1.3-2.3-1.3-1-3-.1-4.1.8-1 .8-2.1 2-.7 2.8 1.7 1 1.9-1.1 3.5-1.3M844.1 532.9c-4.4 3.4-9.4 4.4-14.9 2.8-5.6-1.6-9.8-5.8-9.6-9.6.3-3.7 4.8-7.8 10.2-9 4.7-1 8.6.1 12.1 2.2 1.4.9.8 1.5-.2 2.2-2.9 2.2-5.8 4.4-8.6 6.7-.5.4-1.6.9-.9 1.6.5.6 1.5.7 2.4.8 2.6.2 4.7-.9 4.9-2.4.4-2.2 2.5-3.3 4.2-4.8 1.8-1.6 2.7-.8 3.5.6 1.9 2.8.7 6-3.1 8.9m-16.2-6.1c1.1-.9 2.2-1.5 3-2.3.7-.6 2.6-1.3 1.6-2-1.3-.9-3-.2-4.2.7-1.3 1-1.8 2-.4 3.6M821.2 603.9c.6.7 3.2 1.2 2.5 2.3-1 1.5-3 2.6-4.8 3.7-.7.4-1.4-.3-2-.6-5.3-3.4-10.6-6.7-16-10.1-1.3-.8-1.5-1.5-.2-2.4.2-.2.5-.4.7-.5 3.5-2.8 3.5-2.8 7.8-.2 2.4 1.5 4 1.4 5.1-.3.4-.6.1-1.1-.2-1.6-.4-.8-.9-1.7-1.3-2.5-1.4-2.7-.2-5.1 3.3-6.6 1.4-.6 1.6.1 1.9.7 1.1 2 2.3 3.9 3.2 5.9.6 1.4 1.6 2.1 3.7 2.5 3.2.5 6.2 1.2 9.3 1.8.7.1 1.7.1 1.8.9.1 1.1-5.6 4.3-7.2 4-2-.4-4-.7-6-1.2-2.1-.6-3.6-.1-4.7 1.1-1.2 1.4 1 1.7 1.8 2.5.3 0 .7.2 1.3.6M876.1 494c-2.5-1.7-5-3.4-7.6-4.9-1.7-1-1.6-1.8-.1-2.7.7-.4 1.3-.9 1.9-1.4 1.5-1.5 3.1-1.7 4.8-.1 1.9 1.8 3.6 1.5 5.3-.2 1-1 2.3-1.8 3.7-2.6 4-2.1 8.3-1.9 11.9.4 3.7 2.4 4.4 5.3 1.7 8.3-2.9 3.2-7.1 5.7-10.7 8.6-1 .8-1.8.3-2.6-.2-2.7-1.8-5.4-3.5-8.1-5.3 0-.1-.1 0-.2.1m12.4-3.4c1-1.1 3.4-2.1 1.2-3.7-2.1-1.4-3.4-.1-4.8.9-1.5 1-2.4 1.8-.2 3.1 1.6 1 2.6.9 3.8-.3M993.2 652l-1.2.9c-4.5 3.5-4.5 3.5-9.4.4-4.2-2.7-8.2-5.4-12.5-8-2-1.2-2-2.1-.1-3.3.3-.2.7-.5.9-.7 1.8-2 3.7-2.2 5.8-.3 1.7 1.4 3.1 1.4 4.6-.1.7-.7 1.7-1.3 2.6-1.9 4.2-2.8 8.8-3 12.9-.6 4.5 2.6 5.1 6 1.5 9.4-1.5 1.4-3.3 2.8-5.1 4.2.1 0 0 0 0 0m-3.1-5.4c1.1-1 3.1-2.1 1.1-3.4-2.2-1.5-3.6-.1-5.1.9-1.4 1-2 1.7-.1 2.9 1.8 1.1 2.9.8 4.1-.4M883.5 689.3c-3.1 2.4-3.6 2.5-4.8-.4-2.2-5.2-7.1-7.7-14.3-8.6-4-.6-7.9-1.7-11.9-2.5-2.5-.5-2.2-1.1-.8-2.2 3.6-3.1 3.6-3.1 9.1-1.9 2.1.5 4.2.9 6.3 1.4.7.1 1.6.5 2.2-.1.5-.5 0-.9-.3-1.4-1.2-1.9-2.5-3.8-3.8-5.7-1-1.6 1.5-5.5 3.8-5.9 1.1-.2 1.3.4 1.7.9 5 7.7 9.9 15.5 14.9 23.2 1.2 1.7-1.5 2.1-2.1 3.2M977.6 532.6c-2.6-1.7-5.2-3.5-7.9-5.1-1.5-.9-1.6-1.6-.1-2.5l1.2-.9c2-2.1 4.1-2.6 6.6-.3 1.3 1.2 2.5.9 3.8-.2 1.1-.9 2.3-1.8 3.7-2.5 4.8-2.5 9.4-2.2 13.3.7 3.5 2.7 3.6 5.9 0 8.9-2.9 2.4-6.1 4.6-9.1 7-1.1.9-2 .8-3.1 0-2.6-1.8-5.4-3.5-8.1-5.3-.1.1-.2.1-.3.2m8.3-5.7c-1.1.6-1.8 1.3 0 2.4 1.4.8 2.5 1.4 3.9.1 1.1-1.1 3.2-2.1 1.3-3.5s-3.4-.2-5.2 1M735.1 589.6c1.2-2 3.4-1.9 6.1-1.1 2.6.7 5.3 1.2 7.9 1.7 2.3.5 2.5-.2 1.7-1.4-1.2-1.9-2.6-3.8-3.8-5.7-1-1.6 1.7-5.5 4-5.8 1-.1 1.1.4 1.4.8 4.9 7.7 9.9 15.3 14.7 23 .6.9-3.5 5-4.9 5-.5 0-.8-.2-1-.5s-.5-.6-.6-.9c-1.9-6-7.9-8.6-16-9.6-3.3-.4-6.4-1.4-9.6-2-2.7-.5-3.8-1.1-1.2-2.6.4-.3.7-.5 1.3-.9M786.4 608.4c1.3 2.3 2.6 4.3 3.4 6.3.9 2.2 2.7 3.3 5.9 3.7 2.6.3 5.1 1 7.7 1.4 1.9.3 2.2.8.8 2-3.9 3.4-3.9 3.4-10.4 2.1-1.9-.4-4-1.5-6 .2-1.2 1-1.1 1.6.2 2.4 1 .6 1.8 1.3 2.8 1.8 2.7 1.2 2.3 2.3.3 3.8-3.5 2.6-3.3 2.6-7.1.2-4.5-2.9-8.9-5.9-13.5-8.7-1.9-1.1-1.9-2-.1-3.1.5-.3 1-.7 1.4-1.1 1.6-1.8 3.3-1.7 5.1-.1q.75.6 1.8 1.2c.9.5 1.7 1.6 3.2.6 1.1-.7 2.3-1.5 1.5-2.7-.2-.4-.4-.8-.6-1.1-2.6-4.9-2.6-4.9 3.6-8.9M1069.5 579.5c-2.6-1.7-5.2-3.5-7.9-5.1-1.3-.8-1.5-1.5-.2-2.4.6-.4 1.2-.8 1.7-1.2 1.9-1.9 3.8-2.3 6.1-.2 1.4 1.3 2.7 1.2 4.1 0 1.1-.9 2.3-1.8 3.7-2.5 4.3-2.3 9.5-2.1 13.1.6 3.7 2.7 3.9 6.1.2 9.2-2.8 2.3-5.9 4.5-8.8 6.8-1.3 1-2.3 1.1-3.7.1-2.6-1.8-5.4-3.5-8.1-5.3 0-.2-.1-.1-.2 0m9.2-6c-1.2.9-2.8 1.5-.6 2.7 1.4.7 2.5 1.5 3.9.1 1.1-1.1 3.2-2.1 1.2-3.5-1.7-1.2-3.3-.3-4.5.7M1053.1 665c-2 1.1-3.2 3.7-5.7 3.7-2.5.1-4.3-2.2-6.3-3.5-3.7-2.3-7.3-4.7-11.1-6.9-2-1.2-2.1-2.1-.1-3.3.6-.4 1.2-.8 1.6-1.3 1.5-1.4 2.9-1.7 4.6-.2 2.2 2 4 1.5 5.8-.3 1.1-1.1 2.6-2.1 4.3-2.8 3.9-1.6 7.8-1.2 11.3 1.2 3.3 2.2 4 5 2 7.7-1.6 2.3-4.1 3.8-6.4 5.7m-6.2-8.5c-1.9 1.3-3.3 2.1-1.2 3.4 1.7 1.1 2.9 1.1 4.1-.2 1-1.1 3.1-2 1.2-3.5-2-1.4-3.4-.1-4.1.3M780.7 582c-3.1 2.2-6.6 4.3-12 3.1-2.7-.6-3.1-1.4-1-2.8 1.6-1.1 2.8-2.6 5.5-2.5.6 0 1.2-.4 1.7-.8 1.3-1 3.9-2.1 2-3.5-1.7-1.3-3.2.5-4.3 1.4-1.5 1.1-2.5 1-4 0s-1.8-1.7-.2-2.8c.6-.4 1-.9 1.4-1.4.5-.5.6-1.1-.1-1.5s-1.5-.4-2.2 0c-1.3.7-2.9 1.4-2.8 2.6.1 1.8-1.7 2.7-3 3.9-1.8 1.7-2.9 1.3-4-.4-1.1-1.9-.8-3.7.3-5.4 1.8-2.8 4.8-5 8.7-6.3 4.6-1.6 8.8-.1 9.9 3.4.2.8.4 1.1 1.7 1.1 6 .2 8.7 3 7 7-.8 1.9-2.5 3.2-4.6 4.9M976 587.9c-1.5 1.1-2.5 2.4-4.9 2.1q-.45 0-.9.3c-2.1.8-2.8 2.1-2.1 3.7 1 2.3 5.5 4.5 8.2 4 2.3-.4 3.8-1.4 3.4-3.3-.2-1 3.4-4.6 4.8-4.9.9-.2 1.3.2 1.7.6 1.1 1.1 1.6 2.3 1.7 3.6.3 3.8-3.7 7.8-9.2 9.4-5.2 1.4-11.6 0-15.7-3.6-6.4-5.5-2.3-13.8 7.6-15.3.9-.1 1.8-.2 2.7-.2 1.9 0 4.1.2 4.9 1.3.6.9-1.7 1.5-2.2 2.3M736.7 543.8c2.6 1.7 5.2 3.5 7.9 5.1 1.3.8 1.3 1.4.2 2.2l-1.2.9c-3.9 2.9-3 2.8-6.7.2-2.3-1.6-3.6-1.6-5.1.4-.7.8-1.7 1.5-2.6 2.2-4.2 3-7.8 3.1-12.3.3-.9-.5-1.7-1.1-2.5-1.6-4.6-2.9-4.5-2.9-.2-6 1.4-1 2.3-1.1 3.7-.1.9.7 1.8 1.3 2.8 1.8 2.7 1.7 3.8 1.5 6.3-.3 1.7-1.3 1.8-2.3-.3-3.4-.8-.4-1.5-1-2.3-1.4-2.7-1.3-3-2.4-.5-4.1 3.3-2.2 3.1-2.4 6.5-.2 2.1 1.4 4.2 2.8 6.3 4.1-.1 0-.1-.1 0-.1M696.1 519.5c1.3-1.9 3.5-3.2 5.6-4.6 1.5 1.2 2.6 1.9 4.8.2 2.4-1.8.8-2.5-1-3.4 1.9-1.5 3.5-3.3 6.1-4.3 1 .7 2 1.3 3 2 5 3.2 5 3.2.3 6.8-6.3 4.8-12.6 9.6-18.8 14.5-1.5 1.2-2.5 1.3-4.1.1-1.8-1.3-3.9-2.5-5.9-3.7 1.5-1.8 3.4-3.3 5.9-4.5 1.3 1.1 2.4 1.9 4.4.4 1.7-1.4 2.1-2.4-.3-3.5M956 652.7c2.3-1.7 4.6-3.4 6.8-5.2 1.5-1.3 2.7-.9 3.9.1 1.1 1 4.1 1.4 1.7 3.4-3.8 3.2-3.7 3.2.8 6.1 2.4 1.5 4.7 3.1 7.2 4.5 1.8 1 2 1.8.3 3.1-4 3.1-3.9 3.1-8.3.3-2.6-1.7-5.3-3.3-7.9-5.1-1.4-.9-2.5-1.1-3.7.1-.3.3-.6.5-.9.7-2.7 2.1-5.6 1.8-7.6-.8-.6-.8.1-1.2.7-1.7 2.4-1.8 4.9-3.7 7.3-5.5-.1.1-.2 0-.3 0M738.7 528.4c2.3-1.7 4.6-3.4 6.8-5.2 1.9-1.5 3-.4 4.1.5 1.1.8 3.4 1.3 1.2 3-3.9 3-3.7 3.1.7 6 2.4 1.5 4.7 3.1 7.2 4.6 1.7 1 2 1.7.4 2.9-3.9 3.1-3.9 3.2-8.3.4-2.5-1.6-5.1-3.1-7.4-4.7-1.9-1.3-3.2-1.2-4.6.2-.2.2-.5.4-.7.5-2.4 1.8-6 1.2-7.2-1.1-.4-.8.4-1.2 1-1.7 2.3-1.8 4.7-3.6 7-5.3-.1-.1-.2-.1-.2-.1M1015.7 665.8c2.4-1.8 4.8-3.5 7-5.3 1.9-1.5 3-.4 4.2.5 1.1.8 3.4 1.3 1.4 3.1-3.8 3.3-3.7 3.4.8 6.3 2.3 1.5 4.5 3 7 4.4 2 1.1 2.3 2 .3 3.3-4.4 3-2.9 3.4-8.1.2-2.7-1.7-5.4-3.3-8-5-1.5-1-2.7-1.1-3.9.1-.4.4-1 .7-1.4 1.1-2.2 2.4-3.8.8-5.7-.3-2.4-1.3-1.5-2.2.1-3.3 2.2-1.5 4.3-3.2 6.4-4.8.1-.2 0-.2-.1-.3M1007.1 626.9c-2.6-1.7-5.2-3.5-7.9-5.1-1.3-.8-1.4-1.5-.1-2.4 3.9-2.9 7.9-5.9 11.7-8.9 2.2-1.8 3.3-.2 4.7.6 1.5.8 2.9 1.6.8 3-1.9 1.3-3.5 2.8-5.4 4.1-1.6 1.1-1.3 1.8.3 2.7 3.3 2 6.4 4.2 9.8 6.2 2.2 1.3 2 2.2.1 3.5-4.4 3.1-3.3 2.9-7.6.2-2.1-1.3-4.1-2.6-6.1-4-.2 0-.2.1-.3.1M920.5 694.9c-2.5-1.7-5-3.4-7.6-5-1.5-.9-1.9-1.6-.4-2.8 3.9-3 7.7-6 11.4-9.1 1.2-1 2.3-1.1 3.3 0s4.7 1.4 2.4 3.5c-1.7 1.5-3.6 2.9-5.5 4.3-1.6 1.1-1.5 1.9.2 3 3.3 2 6.4 4.2 9.7 6.2 1.8 1.1 2.3 1.9.4 3.3-4.7 3.4-3.3 3.3-8 .3-1.9-1.2-3.8-2.5-5.9-3.7.1-.1.1 0 0 0M944.1 602.9c2.3-1.7 4.6-3.4 6.8-5.1 2.1-1.7 3.1-.1 4.4.6 1.3.8 2.8 1.4 1 2.9-3.8 3.1-3.7 3.2.7 6 2.5 1.6 4.9 3.2 7.4 4.7 1.6 1 1.8 1.8.2 2.7-.2.1-.3.2-.5.4-3.4 2.8-3.4 2.8-7.3.4-2.8-1.8-5.8-3.5-8.5-5.3-1.6-1.1-2.7-1-3.9.2-.3.3-.8.6-1.1.9-1.5 1.5-2.8 1.9-5.1.4-2.2-1.4-2.6-2.4-.4-3.9 2.3-1.5 4.3-3.2 6.4-4.8 0-.1 0-.1-.1-.1M1003.6 513.1c2.5 1.7 5 3.3 7.6 4.9 1.5.9 1.8 1.6.3 2.7-4.3 3.3-4.3 3.4-9 .4-4.4-2.8-8.7-5.5-13.1-8.2-1.6-1-1.6-1.6-.2-2.7 4.1-3.3 4.1-3.4 8.7-.5 1.9 1.2 3.7 2.4 5.6 3.6 0-.1 0-.2.1-.2M656 550.1c1.7-1.7 3.9-3.2 6.1-4.6 5.2 3.5 5.6 6.5 1.1 10.4-2.7 2.3-5.8 4.4-8.6 6.7-1.4 1.1-2.3.9-3.7 0-2-1.4-4.1-2.6-6.2-3.9 2-1.6 4.1-3.1 6.1-4.7 1.4.9 2.6 2.1 4.5.3 1.7-1.5 3.8-2.6.7-4.2M1096 560.2l7.8 5.1c1.2.7 1.3 1.3.2 2.2-5.8 4.1-3.7 4.1-9.5.6-4.4-2.7-8.6-5.6-13-8.3-1.6-1-1.7-1.6-.2-2.7 5.3-3.7 3.5-3.7 9.1-.4 1.9 1.2 3.7 2.4 5.6 3.6-.1 0 0-.1 0-.1M716 504c1.4-2 3.7-3.3 5.9-4.8 1.3.9 2.4 2.4 4.4.6 1.6-1.4 3.7-2.7.5-4.3 1.7-1.7 3.8-3.2 6-4.6 5.5 3.8 5.7 6.8.6 10.9-2.4 1.9-5.1 3.8-7.4 5.7-1.6 1.4-2.8 1.3-4.4.1-1.7-1.3-3.7-2.4-5.6-3.6M815.7 427c.6-2 3-3 4.6-4.4 3.3-2.7 6.3-5.5 10.1-7.8 2.1 1.4 4.1 2.8 6.4 4.1 1.5.9 1.7 1.6.3 2.5-.6.4-1.1.8-1.6 1.3-1.8 1.9-3.5 2.1-5.8.3-.8-.6-1.7-2.2-3.8-1-1.7 1-1.8 2-.7 3.3 3 3.9 2.9 3.9-3.4 7.6l-3.3-4.5c-.7-.6-1.1-1.5-2.8-1.4M620 577.4c2.1-1.6 4.3-3.2 6.4-4.8 4.7 1.6 7.5.5 7.4-3 0-.9 3.9-4.4 5-4.6s1.4.4 1.8.9c1.7 2.1 1.8 4.3.6 6.6-3.3 6.2-12.6 8.4-21.2 4.9M792.3 444.8c5.9-4.6 11.2-9.6 17.9-13.7 2 1.3 4 2.7 6.1 3.9 1.3.8 1.6 1.5.2 2.4-.1.1-.2.1-.2.2-4 3.4-4 3.4-8.7.5-.9-.6-1.7-1.9-3.3-1.2-2 .9-3.6 2.3-4.7 3.8-.3.4.4.7.8 1 .7.4 1.4.8 2 1.3 1.1.9 3.7 1.6 3.2 2.6-.8 1.5-2.9 2.6-4.6 3.8-.9.7-1.7-.1-2.3-.5-2.2-1.3-4.3-2.7-6.4-4.1M755.1 693.8c.3 2.1.5 4 .7 5.8.4 3.7.4 3.7 5.8 3.6h7.2c.2 0 .3.2.5.3-4 4.6-8.5 6-15.8 4.8-2.1-.4-3.9-1.4-4.2-3.1-.2-.9-.2-1.8-.3-2.7-.4-4.6 0-5.3 6.1-8.7M1008.4 497.2c4.5-4.9 9.7-6.4 16.8-5.2 1.2.2 2 .8 2.8 1.4 2.3 1.6 2.5 8.3.3 9.9-1.4 1.1-2.9 2.2-5 3.8-.4-3.1-.7-5.4-.9-7.8-.1-1.5-1-2.1-3.2-2.1-3.5.1-7 0-10.8 0" class="st21"></path><path d="M1013.6 513.7c-.3-2-.5-3.9-.7-5.8-.4-3.5-.4-3.5-5.5-3.5-2.5 0-5.1 0-7.6.1-.2 0-.4-.1-1.3-.3 3.2-2.2 5-5.3 10.6-4.8 1.8.2 3.7-.1 5.5-.1 3 .1 4.6 2 5.3 4.6 1.2 4.3-.5 7.5-6.3 9.8M764.6 686.1c.3 2.5.5 4.4.8 6.4.4 3.5.4 3.5 5.5 3.4h7.2c.2 0 .4.1 1.3.3-3 2.1-4.5 5.1-9.8 4.8-1.8-.1-3.7.1-5.5.1-2.9-.1-4.6-1.3-5.1-3.2-.5-2-.1-4-.9-6-.2-.4 0-.8.5-1.1 1.7-1.5 3.6-2.9 6-4.7M664.7 543.5c1.8-1.7 3.6-3.3 6-4.6 4.1 1.1 6.9.2 7.6-2.7.6-2.2 3.3-3.2 5.1-4.7.8-.7 1.4.1 1.8.6 1.2 1.6 1.6 3.4.9 5.2-2.3 6.9-12.8 9.9-21.4 6.2M770.9 461.5c1.7-1.7 3.6-3.3 6-4.5 4.2 1.1 6.8.2 7.6-2.8.6-2.2 3.3-3.2 5.1-4.7.7-.6 1.3-.1 1.6.4 1 1.5 2 3 1.3 4.8-1.9 4.7-6.2 7.7-12.9 8.7-3.2.5-6.1-.6-8.7-1.9M824.8 411.3c-5.5 4.5-11 8.9-17 13-3.1-3.1-1.6-5.9 1.2-8.5 2.7-2.5 6-4.7 8.9-7.1 1-.8 1.8-.8 2.8-.1 1.3 1 2.8 1.8 4.1 2.7M631.6 560.2c-1 2.3-3.4 3.8-6.1 4.9-1.8.7-2.9 1.6-3.9 2.8-1.5 2.1-3.4 3.9-6.7 4.9-2.4-3.9-.9-7.3 3-10.2 3.8-2.7 8.2-4 13.7-2.4M771.7 452.7c-1.8 1.7-3.8 3.3-6.1 4.6-2.8-4-1.3-7.4 2.8-10.4 3.7-2.8 8.1-4.2 13.6-2.7-.8 2.3-3.7 3.4-5.6 5-3.5.1-4.6 1-4.7 3.5M665.4 534.4c-1.9 1.7-3.5 3.6-6.3 4.8-2.3-3.7-1.2-7 2.5-9.9 3.6-2.8 7.9-4.4 13.5-3.2.3.1.5.2.8.3-1.8 1.7-3.7 3.3-6.1 4.6-2.8.3-4.4 1.3-4.4 3.4M912 488.6c-.7-2.1-1.1-3.4-1.7-4.7-.3-.7-1-1.6-2.1-.7-1.8 1.4-2.9.5-4.2-.3-.8-.6-1.7-1.1-2.6-1.6-1.3-.7-1.3-1.4-.2-2.2 6.1-4.5 3.7-4.3 10-.7 3.2 1.8 3.5 4.2 4.1 6.7.3 1.4-2 1.9-3.3 3.5M753.3 475.4c1.9-2.2 4.1-4.1 7.1-5.7 1.7-.9 2.2-2.7 3.9-3.8.9-.6 1.5-1.5 3-1.5 2 1.3 3.8 2.6 5.9 3.7 1.6.9 1.7 1.6.3 2.7-3.9 3.1-3.8 3.2-8.2.3-.3-.2-.6-.5-1-.6-1.2-.5-1.9-2-3.6-1.4-1.9.7-.2 1.8 0 2.8.7 2.4-3.7 4.4-7.4 3.5M645 549.8c-2.8 3.5-7.2 5.9-11.3 8.5-5.3-3-5.3-3-.8-6.6.3-.2.6-.5.9-.7 1.7-1.3 3.2-3.1 5.3-3.7 2.5-.6 3.6 2 5.9 2.5M761.3 460.6c-2.8 2.6-6 5.1-9.5 7.3-3.6-5.5-3.6-5.6 2.8-9.7 1.1-.7 1.9-.7 2.9 0 1.2.8 2.5 1.6 3.8 2.4M748.9 470.1c-3 2.5-5.4 5.3-9.4 7.2l-4.2-2.4c-1.1-.6-.9-1.1-.1-1.8 1.7-1.3 3.5-2.6 5.1-3.9 1.1-1 2.4-.7 3.7-.4 1.6.5 3.3.9 4.9 1.3M745.6 481.2c1.6-1.7 3.5-3.2 5.9-4.4 1.9 1.3 3.8 2.6 5.9 3.8 1.7 1 1.6 1.7.1 2.7-5 3.6-3.3 3.2-8 .4-1.3-.8-2.6-1.6-3.9-2.5M717.2 494.7c-2.1 2-4.1 4.1-7.5 5.3-.5-.3-1-.7-1.5-1-3.6-2.3-3.5-2.2-.2-4.9 2-1.7 3.5-1.9 5.6-.2.9.8 1.9 1.9 3.6.8M792.1 436.4c-1.4 1.9-3.4 3.5-6 4.6-.3-.2-.7-.4-1-.6-4.6-3.1-4.9-1.9-.3-5.8 1.6-1.3 2.7-1.4 4.3-.1.9.6 2 1.2 3 1.9M686 518.8c-1.7 1.6-3.6 3.1-5.7 4.3-.6-.4-1.2-.7-1.8-1.1-3.7-2.3-3.5-2.2-.6-4.7 2-1.7 3.6-1.8 5.6-.1.6.6 1.6 1.1 2.5 1.6M705.8 503.8c-1.7 1.6-3.7 3.1-5.8 4.4-1-.7-1.9-1.4-3.1-1.9-2.4-1.1-2-2.1-.2-3.4 3.5-2.5 3.4-2.6 7.2-.2.7.3 1.3.7 1.9 1.1M695.9 511.3c-1.7 1.6-3.6 3-5.8 4.3-.6-.4-1.2-.8-1.8-1.1-4.2-2.7-3.8-2-.6-4.8 2.1-1.8 3.7-1.8 5.7-.1.7.7 1.6 1.2 2.5 1.7M803.9 427.3c-1.6 1.8-3.6 3.3-6.1 4.6-.7-.4-1.2-1-2-1.3-3.7-1.3-2.9-2.6-.4-4.2 4-2.8 2.2-3.1 8.5.9" class="st21"></path><path d="M675.1 526.1" class="st4"></path><path d="m901.7 1102.3 354.5-167.5M1264.1 930.8 1406 864M889.9 1192.5c5.2-30.7 10.7-72.5 2.2-98.8 0 0 609.1-528 614.4-534.7s5.7-15.4 1.1-21.6M1600.1 846.2c2.4 2.7-8 2.9-12.7 5.8s-28.4 13.3-28.4 13.3M1553.5 867.8l-14.9 6.8M888 1087l-42-28.6" class="st22"></path><path d="M36.2 510.9c-5.5 24-4.1 58.9-8.2 102.5" style="fill:none;stroke:#211f1f;stroke-width:1.7;stroke-miterlimit:10"></path><path d="M883 1208.6c1.6.9 3.1-.9 9.1-3.9S1530 880.1 1530 880.1" class="st22"></path></svg>