<svg xmlns="http://www.w3.org/2000/svg" width="1001" height="928" fill="none" viewBox="0 0 1001 928"><path fill="#FDF2E8" d="M488.138 249.918s-56.8 0-56.8 56.8v45.1s0 56.8 56.8 56.8h415.8s56.8 0 56.8-56.8v-45.1s0-56.8-56.8-56.8z"></path><path fill="#FDF2E8" d="M961.338 365.318c-.3-10.5-.3-10.5-3.2-10.5 0-8.9 0-8.901-27.2 6.199.3 26.3 25.4 47.6 51.6 47.6 5.7 0 11.1-1 16.1-2.9-18.7-1.7-38-21.299-37.3-40.399"></path><path fill="#FF6900" d="M497.938 297.317c0 5.1-1.2 9-3.7 11.8s-5.9 4.2-10.4 4.2-7.9-1.4-10.4-4.2-3.7-6.7-3.7-11.8c0-4.9 1.1-8.8 3.4-11.6 2.4-3 6-4.5 10.7-4.5s8.3 1.5 10.7 4.5c2.3 2.8 3.4 6.6 3.4 11.6m-7.2-8.9c-1.5-1.9-3.8-2.9-6.9-2.9s-5.4 1-6.9 2.9-2.2 4.9-2.2 8.9.7 6.9 2.2 8.8 3.8 2.9 6.9 2.9 5.4-1 6.9-2.9 2.2-4.8 2.2-8.8c.1-4-.7-7-2.2-8.9M519.438 292.018c1.9-1.9 4.1-2.8 6.6-2.8 3.8 0 6.5 1 8.1 3.1s2.4 5 2.4 8.9c0 8-3.6 12-10.9 12-2 0-3.8-.3-5.2-1s-2.6-1.7-3.4-2.9-1.4-2.5-1.7-3.9q-.6-2.1-.6-4.5c-.1-2 0-3.8.3-5.5.2-1.7.7-3.5 1.4-5.3s1.8-3.5 3.2-4.9c1.5-1.4 3.3-2.6 5.5-3.5.6-.3 1.3-.5 2.1-.8 2.2-.7 3.7-1.4 4.4-2 .4-.3.8-.4 1.2-.4q1.05 0 1.8 1.2c.6 1.2.2 2.1-1.1 2.9-.7.4-2.5 1.1-5.5 2l-1.3.4c-3.7 1.3-6.2 3.6-7.3 7m12.2 6.2c-.2-.9-.5-1.9-.9-2.8s-1.1-1.6-2-2.1-1.9-.8-3.2-.8q-6.3 0-6.3 8.7t6.3 8.7c1.2 0 2.3-.3 3.2-.8s1.5-1.2 2-2.1.7-1.8.9-2.8q.3-1.35.3-3t-.3-3M561.038 301.217c0 8-3.6 12-10.9 12s-10.9-4-10.9-12 3.6-12.1 10.9-12.1 10.9 4 10.9 12.1m-6-6.2c-1-1.3-2.6-2-4.8-2s-3.8.7-4.8 2-1.5 3.4-1.5 6.1.5 4.8 1.5 6.1 2.6 2 4.8 2 3.8-.7 4.8-2 1.6-3.4 1.6-6.1-.5-4.8-1.6-6.1M580.038 298.518c2.1-.4 3.9-1.9 5.3-4.3l.2-.4c.1-.2.2-.4.2-.5.7-1.5 1.4-2.6 1.9-3.3.6-.7 1.4-1 2.5-.9.8.1 1.3.3 1.6.7s.2.9-.2 1.7c-.5.8-1 1.5-1.3 2.3l-.9 1.8c-1.1 2-2.4 3.4-4 4.2 2.4.8 4.1 2.7 5.2 5.9.7 2.3 1.3 4.2 2 5.7.5 1 .1 1.6-1.1 1.9-1.2.1-2 0-2.5-.5-.7-.8-1.3-2.3-1.9-4.3l-.3-1.1c-.6-1.9-1.4-3.4-2.3-4.3s-2.4-1.3-4.4-1.3v9.6q0 1.8-2.1 1.8t-2.1-1.8v-9.6c-1.9 0-3.4.4-4.4 1.4s-1.8 2.3-2.3 4.1l-.2.9c-.6 2.2-1.3 3.7-2 4.5-.4.6-1.2.7-2.4.6-1.3-.2-1.7-.9-1.2-1.9q.9-1.95 2.1-5.7c1-3.2 2.8-5.2 5.2-5.9-1.6-.8-2.9-2.2-4-4.2l-.7-1.4q-1.5-2.55-1.5-2.7c-.4-.7-.5-1.3-.3-1.6.3-.4.8-.6 1.6-.7 1.2-.1 2.1.2 2.6.9.5.8 1.1 1.8 1.7 3l.6 1.2c1.3 2.4 3 3.9 5.2 4.3v-7.5q0-1.8 2.1-1.8t2.1 1.8zM616.138 300.817c-.6.6-1.7.9-3.4.9h-12.4c0 .9.1 1.8.3 2.6s.5 1.7 1 2.6q.6 1.35 2.1 2.1c.9.5 2.1.8 3.4.8.8 0 1.7-.2 2.7-.5.9-.3 1.7-.9 2.2-1.6.6-.9 1.4-1.3 2.5-1.2.8.1 1.3.4 1.5.8s.3.8.1 1.3c-.5 1.5-1.7 2.7-3.4 3.5-1.8.8-3.6 1.2-5.6 1.2s-3.8-.4-5.3-1.1-2.7-1.7-3.5-2.9c-.9-1.2-1.5-2.5-1.9-3.9s-.6-2.8-.6-4.3c0-1.6.2-3 .6-4.5.4-1.4 1-2.7 1.9-3.9s2-2.2 3.5-2.9 3.2-1.1 5.2-1.1c3.2 0 5.8 1 7.6 2.9 1.7 1.7 2.5 3.9 2.5 6.6-.1 1.3-.4 2.1-1 2.6m-4-2.3c.5 0 .7-.3.7-.7-.1-1.8-.6-3.1-1.6-4.1s-2.4-1.5-4.1-1.5c-1.8 0-3.3.6-4.5 1.9s-1.9 2.8-2 4.4zM621.338 318.019c-.3-.3-.4-.7-.3-1.1l1.3-7.6q.45-1.95 3-1.8c.9.1 1.5.4 1.9.9s.4 1.2.1 2l-3 7c-.2.5-.399.8-.699 1s-.701.2-1.301.2c-.4-.1-.7-.3-1-.6M650.438 292.517c1.9-2.3 4.3-3.4 7.3-3.4 6.4 0 9.6 4 9.6 12.1 0 1.7-.2 3.3-.5 4.7-.4 1.4-.9 2.7-1.7 3.8s-1.8 2-3.2 2.7c-1.3.6-2.9 1-4.7 1q-3.9 0-6.6-3v8.7c0 1.2-.7 1.8-2.2 1.8-1.4 0-2.2-.6-2.2-1.8v-28.1q0-1.8 2.1-1.8c1.4 0 2 .6 2 1.8v1.5zm1.8 14.8c1.1 1.6 2.7 2.4 4.7 2.4 3.7 0 5.6-2.8 5.6-8.5s-1.9-8.5-5.6-8.5c-2 0-3.6.7-4.7 2.1s-1.7 3.1-1.7 5v2.1c.1 2 .6 3.8 1.7 5.4M692.438 301.217c0 8-3.6 12-10.9 12s-10.9-4-10.9-12 3.6-12.1 10.9-12.1 10.9 4 10.9 12.1m-6-6.2c-1-1.3-2.6-2-4.8-2s-3.8.7-4.8 2-1.5 3.4-1.5 6.1.5 4.8 1.5 6.1 2.6 2 4.8 2 3.8-.7 4.8-2 1.6-3.4 1.6-6.1-.6-4.8-1.6-6.1M708.238 289.617q3.75 0 5.7 1.5c1.3 1 2 2.4 2 4.2 0 2.3-1 4-3 5q1.95.75 3 2.4c.7 1 1 2.2 1 3.4 0 1.9-.7 3.4-2.2 4.7-1.4 1.2-3.2 1.9-5.4 1.9h-8.2c-.8 0-1.4-.1-2-.3s-.9-.4-1.2-.6-.5-.6-.6-1c-.1-.5-.2-.8-.2-1.1v-17c0-.3.1-.7.2-1.1.1-.5.3-.8.6-1q.45-.3 1.2-.6c.5-.2 1.2-.3 2-.3h7.1zm-6.7 9.4h6.7c.9 0 1.7-.3 2.3-.8s.9-1.3.9-2.3c0-1.9-1.1-2.9-3.3-2.9h-5.8c-.4 0-.6.1-.8.2s-.2.3-.2.6v5.2zm0 9.6c0 .3.1.5.2.6s.4.2.8.2h5.8c2.6 0 3.9-1.2 3.9-3.5q0-3.6-3.9-3.6h-6.7v6.3zM726.038 298.917h9.9v-7.9c0-1.2.7-1.8 2.2-1.8 1.4 0 2.2.6 2.2 1.8v20.4c0 1.2-.7 1.8-2.2 1.8-1.4 0-2.2-.6-2.2-1.8v-9.1h-9.9v9.1c0 1.2-.7 1.8-2.2 1.8-1.4 0-2.2-.6-2.2-1.8v-20.4c0-1.2.7-1.8 2.2-1.8 1.4 0 2.2.6 2.2 1.8zM766.838 301.217c0 8-3.6 12-10.9 12s-10.9-4-10.9-12 3.6-12.1 10.9-12.1 10.9 4 10.9 12.1m-6-6.2c-1-1.3-2.6-2-4.8-2s-3.8.7-4.8 2-1.5 3.4-1.5 6.1.5 4.8 1.5 6.1 2.6 2 4.8 2 3.8-.7 4.8-2 1.6-3.4 1.6-6.1-.6-4.8-1.6-6.1M802.938 301.217c0 8-3.6 12-10.9 12-2.2 0-4.1-.5-5.6-1.5s-2.4-2-2.6-3.1c-.1-.7 0-1.3.2-1.6.3-.3.7-.5 1.4-.6 1-.1 1.8.3 2.4 1.3.9 1.5 2.3 2.2 4.1 2.2 3.8 0 5.9-2.5 6.3-7.4h-7.8c-1.1 0-1.7-.6-1.7-1.7s.5-1.7 1.7-1.7h7.7c-.5-4.5-2.6-6.7-6.2-6.7-2.1 0-3.5.8-4.3 2.5-.3.9-1 1.4-2.3 1.4h-.2c-.7-.1-1.2-.3-1.4-.7-.3-.3-.3-.9-.2-1.5.3-1.3 1.2-2.5 2.8-3.5s3.4-1.5 5.6-1.5c7.4 0 11 4 11 12.1M820.638 289.617c1.1 0 1.6.6 1.6 1.7s-.5 1.7-1.6 1.7h-5.2v18.4q0 1.8-2.1 1.8c-1.4 0-2.2-.6-2.2-1.8v-18.4h-5.1c-1.1 0-1.7-.6-1.7-1.7s.6-1.7 1.7-1.7zM845.538 301.217c0 8-3.6 12-10.9 12s-10.9-4-10.9-12 3.6-12.1 10.9-12.1 10.9 4 10.9 12.1m-6-6.2c-1-1.3-2.6-2-4.8-2s-3.8.7-4.8 2-1.5 3.4-1.5 6.1.5 4.8 1.5 6.1 2.6 2 4.8 2 3.8-.7 4.8-2 1.6-3.4 1.6-6.1-.6-4.8-1.6-6.1M877.038 289.617c1.1 0 1.6.6 1.6 1.7s-.5 1.7-1.6 1.7h-5.2v18.4q0 1.8-2.1 1.8c-1.4 0-2.2-.6-2.2-1.8v-18.4h-5.1c-1.1 0-1.7-.6-1.7-1.7s.5-1.7 1.7-1.7zM886.638 298.317h6.7c2.5 0 4.4.7 5.8 2s2.1 3 2.1 5.2c0 2.1-.8 3.9-2.3 5.2q-2.25 2.1-5.7 2.1h-6.9c-.9 0-1.7-.1-2.3-.3s-1-.6-1.2-1.1-.4-.9-.4-1.3-.1-.9-.1-1.6v-17.4c0-1.2.7-1.8 2.2-1.8q2.1 0 2.1 1.8zm0 10.3c0 .3.1.6.2.7.2.1.4.1.8.1h5c1.3 0 2.2-.3 2.9-1s1-1.6 1-2.8q0-3.9-3.9-3.9h-6zm21 2.8c0 1.2-.7 1.8-2.2 1.8q-2.1 0-2.1-1.8v-20.4q0-1.8 2.1-1.8c1.4 0 2.2.6 2.2 1.8zM490.538 364.817c0 1.2-.7 1.8-2.2 1.8-1.4 0-2.2-.6-2.2-1.8v-15c-.3.4-.6.9-1 1.5l-.5.8-9.5 13.7c-.4.5-1.1.8-2 .8-1.4 0-2.2-.6-2.2-1.8v-20.4c0-1.2.7-1.8 2.2-1.8s2.2.6 2.2 1.8v15.2c.1-.1.6-1 1.7-2.6l9.3-13.5c.3-.5 1-.7 1.9-.7 1.4 0 2.2.6 2.2 1.8v20.2zM530.038 354.618c0 8-3.6 12-10.9 12s-10.9-4-10.9-12 3.6-12.1 10.9-12.1c7.2 0 10.9 4.1 10.9 12.1m-6.1-6.1c-1-1.3-2.6-2-4.8-2s-3.8.7-4.8 2-1.5 3.4-1.5 6.1.5 4.8 1.5 6.1 2.6 2 4.8 2 3.8-.7 4.8-2 1.6-3.4 1.6-6.1-.5-4.8-1.6-6.1M538.638 345.418c1.9-1.9 4.1-2.8 6.6-2.8 3.8 0 6.5 1 8.1 3.1s2.4 5 2.4 8.9c0 8-3.6 12-10.9 12-2 0-3.8-.3-5.2-1-1.5-.7-2.6-1.7-3.4-2.9s-1.4-2.5-1.7-3.9q-.6-2.1-.6-4.5c-.1-2 0-3.8.3-5.5.2-1.7.7-3.5 1.4-5.3s1.8-3.5 3.2-4.9c1.5-1.4 3.3-2.6 5.5-3.5.6-.3 1.3-.5 2.1-.8 2.2-.7 3.7-1.4 4.4-2 .4-.3.8-.4 1.2-.4q1.05 0 1.8 1.2c.6 1.2.2 2.1-1.1 2.9-.7.4-2.5 1.1-5.5 2l-1.3.4c-3.8 1.4-6.2 3.7-7.3 7m12.2 6.2c-.2-.9-.5-1.9-.9-2.8s-1.1-1.6-2-2.1-1.9-.8-3.2-.8q-6.3 0-6.3 8.7t6.3 8.7c1.2 0 2.3-.3 3.2-.8s1.5-1.2 2-2.1c.4-.9.7-1.8.9-2.8s.3-1.9.3-3q0-1.5-.3-3M580.238 354.618c0 8-3.6 12-10.9 12s-10.9-4-10.9-12 3.6-12.1 10.9-12.1 10.9 4.1 10.9 12.1m-6-6.1c-1-1.3-2.6-2-4.8-2s-3.8.7-4.8 2-1.5 3.4-1.5 6.1.5 4.8 1.5 6.1 2.6 2 4.8 2 3.8-.7 4.8-2 1.6-3.4 1.6-6.1-.6-4.8-1.6-6.1M606.938 358.618l-2.2-3.6-2.2-3.6-.6-1.2v14.7c0 1.2-.7 1.8-2 1.8s-2-.6-2-1.8v-20.3q0-1.8 2.4-1.8c1 0 1.9.5 2.6 1.6l6.4 10.8 6.4-10.8c.7-1.1 1.5-1.6 2.6-1.6 1.5 0 2.3.6 2.3 1.8v20.3c0 1.2-.7 1.8-2 1.8s-2-.6-2-1.8v-14.7l-.7 1.3-4.4 7.3c-.7 1.1-1.4 1.6-2.3 1.6-.8-.2-1.6-.7-2.3-1.8M631.238 352.419h9.9v-7.9c0-1.2.7-1.8 2.2-1.8s2.2.6 2.2 1.8v20.4c0 1.2-.7 1.8-2.2 1.8s-2.2-.6-2.2-1.8v-9.1h-9.9v9.1c0 1.2-.7 1.8-2.2 1.8s-2.2-.6-2.2-1.8v-20.4c0-1.2.7-1.8 2.2-1.8s2.2.6 2.2 1.8zM670.738 354.319c-.6.6-1.7.9-3.4.9h-12.4c0 .9.1 1.8.3 2.6s.5 1.7 1 2.6q.6 1.35 2.1 2.1c.9.5 2.1.8 3.4.8.8 0 1.7-.2 2.7-.5.9-.3 1.7-.9 2.1-1.6.6-.9 1.4-1.3 2.5-1.2.8.1 1.3.4 1.5.8s.3.8.1 1.3c-.5 1.5-1.7 2.7-3.4 3.5s-3.6 1.2-5.6 1.2-3.7-.4-5.3-1.1c-1.5-.7-2.7-1.7-3.5-2.9-.9-1.2-1.5-2.5-1.9-3.9s-.6-2.8-.6-4.3c0-1.6.2-3 .6-4.5.4-1.4 1-2.7 1.9-3.9s2-2.2 3.5-2.9 3.2-1.1 5.2-1.1c3.2 0 5.8 1 7.6 2.9 1.7 1.7 2.5 3.9 2.5 6.6 0 1.2-.3 2-.9 2.6m-4-2.3c.5 0 .7-.3.7-.7-.1-1.8-.6-3.1-1.6-4.1s-2.4-1.5-4.1-1.5c-1.8 0-3.3.6-4.5 1.9s-1.9 2.8-2 4.4zM702.538 343.117c1.1 0 1.6.6 1.6 1.7s-.5 1.7-1.6 1.7h-7.8c-.6 0-1 .3-1 .8v17.6c0 1.2-.7 1.8-2.2 1.8-1.4 0-2.2-.6-2.2-1.8v-18.7c0-.3.1-.7.2-1.1.1-.5.3-.8.6-1q.45-.3 1.2-.6c.5-.2 1.2-.3 2-.3h9.2zM726.839 354.618c0 8-3.6 12-10.9 12s-10.9-4-10.9-12 3.6-12.1 10.9-12.1 10.9 4.1 10.9 12.1m-6.1-6.1c-1-1.3-2.6-2-4.8-2s-3.8.7-4.8 2-1.5 3.4-1.5 6.1.5 4.8 1.5 6.1 2.6 2 4.8 2 3.8-.7 4.8-2 1.6-3.4 1.6-6.1-.5-4.8-1.6-6.1M742.639 343.117q3.75 0 5.7 1.5c1.3 1 2 2.4 2 4.2 0 2.3-1 4-3 5q1.95.75 3 2.4c.7 1 1 2.2 1 3.4 0 1.9-.7 3.4-2.2 4.7-1.4 1.2-3.2 1.9-5.4 1.9h-8.2c-.8 0-1.4-.1-2-.3q-.75-.3-1.2-.6c-.3-.2-.5-.6-.6-1-.1-.5-.2-.8-.2-1.1v-17c0-.3.1-.7.2-1.1.1-.5.3-.8.6-1q.45-.3 1.2-.6c.5-.2 1.2-.3 2-.3h7.1zm-6.7 9.3h6.7c.9 0 1.7-.3 2.3-.8s.9-1.3.9-2.3c0-1.9-1.1-2.9-3.3-2.9h-5.8c-.4 0-.6.1-.8.2-.1.1-.2.3-.2.6v5.2zm0 9.6c0 .3.1.5.2.6s.4.2.8.2h5.8c2.6 0 3.9-1.2 3.9-3.5q0-3.6-3.9-3.6h-6.7v6.3zM776.439 354.618c0 8-3.6 12-10.9 12s-10.9-4-10.9-12 3.6-12.1 10.9-12.1c7.2 0 10.9 4.1 10.9 12.1m-6.1-6.1c-1-1.3-2.6-2-4.8-2s-3.8.7-4.8 2-1.5 3.4-1.5 6.1.5 4.8 1.5 6.1 2.6 2 4.8 2 3.8-.7 4.8-2 1.6-3.4 1.6-6.1-.5-4.8-1.6-6.1M785.339 346.017c1.9-2.3 4.3-3.4 7.3-3.4 6.4 0 9.6 4 9.6 12.1 0 1.7-.2 3.3-.5 4.7-.4 1.4-.9 2.7-1.7 3.8s-1.8 2-3.2 2.7c-1.3.6-2.9 1-4.7 1q-3.9 0-6.6-3v8.7c0 1.2-.7 1.8-2.2 1.8-1.4 0-2.2-.6-2.2-1.8v-28.1q0-1.8 2.1-1.8c1.4 0 2 .6 2 1.8v1.5zm1.9 14.7c1.1 1.6 2.7 2.4 4.7 2.4 3.7 0 5.6-2.8 5.6-8.5s-1.9-8.5-5.6-8.5c-2 0-3.6.7-4.7 2.1s-1.7 3.1-1.7 5v2.1c0 2.1.5 3.8 1.7 5.4M826.338 364.817c0 1.2-.7 1.8-2.2 1.8s-2.2-.6-2.2-1.8v-15c-.3.4-.6.9-1 1.5l-.5.8-9.5 13.7c-.4.5-1.1.8-2 .8-1.4 0-2.2-.6-2.2-1.8v-20.4c0-1.2.7-1.8 2.2-1.8s2.2.6 2.2 1.8v15.2c.1-.1.6-1 1.7-2.6l9.3-13.5c.3-.5 1-.7 1.9-.7 1.4 0 2.2.6 2.2 1.8v20.2zM845.838 343.118c.8 0 1.4.1 1.9.3q.75.3 1.2.6c.3.2.5.6.6 1 .1.5.2.8.2 1.1v18.7c0 1.2-.7 1.8-2.2 1.8q-2.1 0-2.1-1.8v-17.6c0-.5-.3-.8-1-.8h-4.6c-.8 0-1.2.3-1.2 1l-.2 2.3c-.4 5.2-.7 8.6-.9 10.3-.3 2.2-.9 3.9-1.8 5s-2.4 1.6-4.2 1.5c-.7 0-1.3-.2-1.6-.5s-.5-.7-.5-1.2c.1-1.2.6-1.8 1.6-1.8.9 0 1.5-.3 1.7-.7.3-.5.5-1.2.6-2.3v-.4c.2-1.2.5-3.9.8-8.3.1-1.7.2-2.9.3-3.3 0-.6.1-1 .1-1.4 0-.3.2-.8.3-1.3.2-.5.4-.9.7-1.2s.7-.5 1.2-.8c.5-.2 1.2-.3 1.9-.3h7.2zM861.539 361.518c.4.5.7 1.2.7 2.1 0 1-.2 1.7-.7 2.2-.4.5-1.2.8-2.4.8s-2-.3-2.4-.8-.6-1.3-.6-2.2c0-1 .2-1.7.7-2.1.4-.5 1.2-.7 2.4-.7 1 0 1.8.2 2.3.7M873.738 361.518c.4.5.7 1.2.7 2.1 0 1-.2 1.7-.7 2.2-.4.5-1.2.8-2.4.8s-2-.3-2.4-.8-.6-1.3-.6-2.2c0-1 .2-1.7.7-2.1.4-.5 1.2-.7 2.4-.7 1.1 0 1.9.2 2.3.7M886.039 361.518c.4.5.7 1.2.7 2.1 0 1-.2 1.7-.7 2.2-.4.5-1.2.8-2.4.8s-2-.3-2.4-.8-.6-1.3-.6-2.2c0-1 .2-1.7.7-2.1.4-.5 1.2-.7 2.4-.7 1.1 0 1.9.2 2.3.7"></path></svg>