<svg xmlns="http://www.w3.org/2000/svg" xml:space="preserve" id="6116cc0d-9c9b-4acb-ba0f-70aec07afb57Layer_1_1_" x="0" y="0" viewBox="0 0 1000 927"><style>.st4{fill:#ff6900}.st5{fill:#211f1f}.st30,.st31{fill:none;stroke:#231f20;stroke-width:3.34;stroke-linecap:round;stroke-linejoin:round}.st31{stroke:#211f1f;stroke-miterlimit:10}</style><path d="m1.7 920 2.1.1M60.8 920.1l180 .3M12 920l30.7.2M995.7 921.4l2.6.1M965.3 921.3l16.8.2M267.3 920.4l675.5 1" class="st30"></path><path d="M797.1 647.1c5.8-5.3 10.7-11 13.3-17.4 9.4-23.6 11.6-33.2 11.6-33.2s30.8-22 24.8-32c-6-10.1-17.1-1.7-17.1-1.7s-63.4-34-73.7-36.9-18.8 9.6-18.8 9.6-11.5-10.5-7.7 0c-9 0-5.9-11.9-5.9-11.9 12-25.2 86-67.2 128.7-42.8 42.6 24.3 38.6 92.5 23.7 143.8-2.4 8.3-6 14.6-10.5 19.6-13.2 14.6-34.3 17.4-57.1 23.7-2.3.6-4.7 1.3-7 2-5.4 1.7-10.9 3.7-16.4 6.1-9.9 4.4-19.6 10.4-28.8 19.1l.6-2.7c.2-1 .5-1.9.8-2.8 6.2-18.5 25.6-29.8 39.5-42.5" class="st5"></path><path d="M764.3 816.8c-7 .2-11.7.5-11.7.5s-4.9-91.3 4.2-124.9l-.6 2.7c9.2-8.7 19-14.7 28.8-19.1 25.1 15.3 50.8 76 50.8 238.2-6.3 2.7-12.3 5-16.9 6.6h-8.3c2.2-28 3.4-86.2 2.9-101-10.6-3.4-34.7-3.4-49.2-3" style="fill:#fff"></path><path d="M714.7 848.2c5.6 10.4-16.1 57.7-23.2 72.6h-55.2c4.9-18.5 23.3-90 26-134.4 1.5-25-10.7-66.2-27.1-100.2.3.3 3.4 3.5 23.3 30.4 30.8 41.7 34.6 66.7 37.6 72.6 2.9 5.9 6.5 36.7 18.6 59" class="st4"></path><path d="M438.3 710.9c14.3-10.3 40.3-29.1 50.7-37.8 18.7-14.5 107.2-8.3 107.2-8.3 25.6 14.7 38.9 21.4 38.9 21.4 16.4 34 28.6 75.2 27.1 100.2-2.6 44.3-21 115.9-26 134.4H390.8c2.5-9.2 6.1-24 8.2-38.7 5.7-40.3 3.1-98.1 14.4-130.3 5.2-20.8 15-33.9 15-33.9s2.9-2.1 7.5-5.3c.8-.5 1.6-1.1 2.4-1.7" class="st4"></path><path d="m571.5 655.2 24.7 9.7s-88.5-6.3-107.2 8.3q3.75-3.15 7.5-5.7c35.9-24.5 75-12.3 75-12.3" class="st5"></path><path d="M968.6 776.6c11.1 29.5 27.5 79.1 25.5 106.3-.7 9.8-12.7 37.1-12.7 37.1M757.3 811.8c1 19.2 5.5 81.3.4 108.2m-7-233.6c-10.2 31-5 127.4-5 127.4s45.1-2.6 60.8 2.6c.7 19.2.4 99.2-3.1 103.7m69.7-270.2c24.2 11.5 25.5 5.8 47.7 25.6s53 96.6 53 96.6L945 796.4s11.1 93 7.8 110.9M858.5 641c10.1 8.9 14.7 8.9 14.7 8.9s-35.6 23.8-71.7 14.8m-18.4-28.6 8.8 9.9m-69.2-113.4c-2.6 29.3 4.7 27.2 4.7 37.2s3.4 38.9 20.9 60.6c17.5 21.8 43.6 0 43.6 0m-75.1-109.6c12-25.2 85.9-67 128.4-42.7s38.5 92.2 23.6 143.4-74.3 27.4-119.6 70.3c5.3-30.1 44.7-41.8 54.2-65.3 9.4-23.5 11.6-33.1 11.6-33.1s30.8-21.9 24.8-32c-6-10-17.1-1.7-17.1-1.7s-63.2-33.9-73.5-36.8-18.8 9.6-18.8 9.6-11.5-10.5-7.7 0c-9 .1-5.9-11.7-5.9-11.7m-98 75.4c-25.4 28.4-82.8 33.5-82.8 33.5m92.4 53.3c16.4 33.9 28.6 75 27.1 100-3 51.1-27.1 138.5-27.1 138.5M429.7 709.3c3.7-9.4 50.7 23.2 55.4 38.5m1.4 51c-.8 32.3-7.1 73.5-26.2 121.2m129.2-258.3c25.5 14.7 38.8 21.3 38.8 21.3s2.1 1.7 23.3 30.3c30.8 41.6 34.5 66.5 37.5 72.4s6.6 36.6 18.6 58.9c6.7 12.4-25.3 76.9-25.3 76.9M569.5 653.9c24.6 9.6 20.1 7.8 20.1 7.8s-88.3-6.3-107 8.3m71.5-42.9c3.4 11.4 17.6 28.2 17.6 28.2s-51.5-17.2-89.2 14.7c-14.6 12.3-60.4 44.6-60.4 44.6s-9.8 13.1-15 33.8c-11.3 32.2-8.7 89.8-14.4 130-3.4 24.1-7 34.9-9 41.6m105.4-257c-1.6-9.8-9.5-34-9.5-34s-12.7-2.6-19-7.8c-8.5-10.9 5.3-71.8 5.3-71.8l6.9-4.1c6.9-4.1 9-17.6 9-23.3s9.5-11.4 25.6-28.4m90.3-10.2c-42-18.8-87-18.5-90.5 10 14.7 15.2 14.4 24.3 47 51.4 30.8 25.7 15.9 43.2-6.3 43.2-26 0 12.8 41.2 12.8 41.2 35.9-9.7 92.3-42.4 87.4-88.7-3.1-29.4-34.9-50.1-50.4-57.1" class="st31"></path><path d="M657 541.3c-3.1-29.5-34.9-50.4-50.4-57.3-29.1-13-59.6-16.9-76.8-8.6-9 3.5-15 10-16.2 19.7 15.9 30.6 105.2 87 36.4 92.7-26 2.1 9.2 46.5 10.6 41.3 16.2-4.4 37.9-13 56.4-25.5 1.1 3.3 2 6.6 2.7 10 11.2-9.4 42.2-26 37.3-72.3" class="st5"></path><path d="M536.1 562.5c12.4-9.4 25.1-10.9 28-2s-13.8 26.2-34.1 28" class="st31"></path><path d="M785.1 676c27.2 39.6 74.3 187.5 76.9 213.9-11.3 11.1-43 31-43 31l132.1-.3s-29.9-17.9-37.3-34.1c9.9-46-3.2-223-3.2-223l-13.9-7.4s4.1 145.2-4.5 226.5c0 2.3-6.6.7-6.6.7s-49.6-171.1-84-213.4z" class="st4"></path></svg>