<svg xmlns="http://www.w3.org/2000/svg" width="1001" height="928" fill="none" viewBox="0 0 1001 928"><path fill="#FEF3E9" d="M960.438 330.667v-9.3c.1-1.7.3-3.2.3-5v-49.1s0-60.1-60.1-60.1h-477s-60.1 0-60.1 60.1v49.1s0 60.1 60.1 60.1h477s25.1-.1 42.9-16.4c10.3 10.1 24.6 16.4 39.3 16.4 6 0 11.7-1.1 17.1-3-19.8-1.7-40.2-22.5-39.5-42.8"></path><path fill="#FF6900" d="M432.238 273.767c.5 1.4-.1 2.1-1.9 2.1-1.7 0-2.8-.6-3.2-1.9l-2.8-7.9h-11.9c-.3.9-.8 2.2-1.4 3.9-.6 1.8-1.1 3.1-1.4 3.9-.2.7-.6 1.2-1.1 1.5s-1.2.4-2.1.4c-1.7 0-2.4-.7-1.8-2.1l10.8-29.3c.6-1.3 1.6-2 3-2 1.5 0 2.5.7 3.1 2zm-9.1-11.3-3.3-9.4c-.3-.7-.7-2.3-1.4-4.6-.5 1.9-.9 3.4-1.3 4.6-.8 2.2-1.9 5.3-3.3 9.4zM450.638 251.067c1.2 0 1.7.6 1.7 1.7 0 1.2-.6 1.8-1.7 1.8h-8.3c-.7 0-1 .3-1 .8v18.6c0 1.3-.8 1.9-2.3 1.9s-2.3-.6-2.3-1.9v-19.799999999999997q0-.45.3-1.2c.2-.5.4-.9.6-1.1q.45-.3 1.2-.6c.6-.2 1.2-.3 2.1-.3h9.7zM469.938 272.067c-1.9 2.7-4.7 4.1-8.5 4.1-2.5 0-4.5-.7-6.1-2s-2.4-3.2-2.4-5.6c0-5.7 4.7-8.6 14.1-8.6h3c0-1.5-.1-2.7-.4-3.7-.6-1.7-2.5-2.5-5.7-2.5-2.1 0-3.9.6-5.4 1.7-.4.3-.9.5-1.4.5s-1.1-.2-1.6-.6c-.5-.3-.7-.8-.7-1.3s.3-1.1 1-1.6c2-1.5 4.9-2.3 8.8-2.3 3.6 0 6.1.8 7.7 2.5s2.3 4.2 2.3 7.6v10.1c0 1.2.1 2.2.2 2.9.2 1.3-.4 2-1.7 2.2-1.6.2-2.5-.4-2.7-1.6-.4-1-.5-1.7-.5-1.8m0-8.6c-1.4-.1-2.5-.1-3.3-.1-1.1 0-2.1.1-3 .2-.9.2-1.9.4-2.8.8s-1.7.9-2.2 1.7c-.6.8-.8 1.6-.8 2.7 0 1.3.4 2.2 1.2 2.9s1.9 1 3.2 1c2.3 0 4.2-.8 5.7-2.3 1.5-1.8 2.2-4 2-6.9M480.138 281.067q-.45-.45-.3-1.2l1.4-8.1c.3-1.3 1.3-2 3.2-1.9.9.1 1.6.4 2 1s.4 1.2.1 2.1l-3.2 7.4c-.2.5-.4.8-.7 1s-.7.3-1.4.2c-.4 0-.8-.2-1.1-.5M511.038 260.867h10.5v-8.4c0-1.3.8-1.9 2.3-1.9s2.3.6 2.3 1.9v21.5c0 1.3-.8 1.9-2.3 1.9s-2.3-.6-2.3-1.9v-9.6h-10.5v9.6c0 1.3-.8 1.9-2.3 1.9s-2.3-.6-2.3-1.9v-21.5c0-1.3.8-1.9 2.3-1.9s2.3.6 2.3 1.9zM554.238 263.267c0 8.5-3.8 12.7-11.5 12.7s-11.5-4.2-11.5-12.7 3.8-12.8 11.5-12.8 11.5 4.2 11.5 12.8m-6.3-6.5q-1.65-2.1-5.1-2.1t-5.1 2.1c-1.1 1.4-1.6 3.6-1.6 6.5s.5 5.1 1.6 6.5q1.65 2.1 5.1 2.1t5.1-2.1c1.1-1.4 1.7-3.6 1.7-6.5s-.6-5.2-1.7-6.5M587.138 251.067q1.2 0 2.1.3c.6.2 1 .4 1.3.6s.5.6.6 1.1.2.9.2 1.2v17.799999999999997q1.35.15 2.1.9c.5.5.7 1.2.7 2v4.2c0 1.3-.7 1.9-2.1 1.9s-2.1-.6-2.1-1.9v-3.2c0-.2-.2-.4-.5-.4h-15.2c-.3 0-.5.1-.5.4v3.2c0 1.3-.7 1.9-2.1 1.9s-2.1-.6-2.1-1.9v-4.2q0-1.35.6-2.1c.4-.4 1-.9 1.8-1.3s1.4-1.7 1.8-4c.2-1.7.5-4.6.7-8.8 0-.8.1-1.9.2-3.1q.3-4.5 4.2-4.5h8.3zm-.3 20.9v-16.5c0-.3-.1-.5-.2-.7-.1-.1-.4-.2-.8-.2h-5.7c-.6 0-1 .3-1.1 1l-.1 2.6c-.2 4.4-.5 7.6-.8 9.5-.2 1.8-.7 3.3-1.4 4.3zM613.138 272.067c-1.9 2.7-4.7 4.1-8.5 4.1-2.5 0-4.5-.7-6.1-2s-2.4-3.2-2.4-5.6c0-5.7 4.7-8.6 14.1-8.6h3c0-1.5-.1-2.7-.4-3.7-.6-1.7-2.5-2.5-5.7-2.5-2.1 0-3.9.6-5.4 1.7-.4.3-.9.5-1.4.5s-1.1-.2-1.6-.6c-.5-.3-.7-.8-.7-1.3s.3-1.1 1-1.6c2-1.5 4.9-2.3 8.8-2.3 3.6 0 6.1.8 7.6 2.5s2.3 4.2 2.3 7.6v10.1c0 1.2.1 2.2.2 2.9.2 1.3-.4 2-1.7 2.2-1.6.2-2.5-.4-2.7-1.6-.3-1-.4-1.7-.4-1.8m0-8.6c-1.4-.1-2.5-.1-3.3-.1-1.1 0-2.1.1-3 .2-.9.2-1.9.4-2.8.8s-1.7.9-2.2 1.7c-.6.8-.8 1.6-.8 2.7 0 1.3.4 2.2 1.2 2.9s1.9 1 3.2 1c2.3 0 4.2-.8 5.7-2.3 1.5-1.8 2.2-4 2-6.9M635.638 251.067c2.7 0 4.7.5 6.1 1.6s2.1 2.5 2.1 4.5c0 2.5-1.1 4.2-3.2 5.3 1.4.6 2.4 1.4 3.1 2.5s1.1 2.3 1.1 3.6c0 2-.8 3.6-2.3 5-1.5 1.3-3.4 2-5.7 2h-8.7q-1.2 0-2.1-.3t-1.2-.6c-.3-.2-.5-.6-.6-1.1q-.15-.75-.3-1.2v-18.099999999999998q0-.45.3-1.2c.2-.5.4-.9.6-1.1s.7-.4 1.2-.6c.6-.2 1.2-.3 2.1-.3zm-7.1 9.9h7.1c1 0 1.8-.3 2.5-.8.7-.6 1-1.4 1-2.5 0-2-1.1-3-3.4-3h-6.1c-.4 0-.7.1-.8.2s-.2.3-.2.6v5.5zm0 10.1c0 .3.1.5.2.7.1.1.4.2.8.2h6.1c2.8 0 4.1-1.2 4.1-3.7 0-2.6-1.4-3.9-4.1-3.9h-7.1zM664.938 272.067c-1.9 2.7-4.7 4.1-8.5 4.1-2.5 0-4.5-.7-6.1-2s-2.4-3.2-2.4-5.6c0-5.7 4.7-8.6 14.1-8.6h3c0-1.5-.1-2.7-.4-3.7-.6-1.7-2.5-2.5-5.7-2.5-2.1 0-3.9.6-5.4 1.7-.4.3-.9.5-1.4.5s-1.1-.2-1.6-.6c-.5-.3-.7-.8-.7-1.3s.3-1.1 1-1.6c2-1.5 4.9-2.3 8.8-2.3 3.6 0 6.1.8 7.6 2.5s2.3 4.2 2.3 7.6v10.1c0 1.2.1 2.2.2 2.9.2 1.3-.4 2-1.7 2.2-1.6.2-2.5-.4-2.7-1.6-.3-1-.4-1.7-.4-1.8m0-8.6c-1.4-.1-2.5-.1-3.3-.1-1.1 0-2.1.1-3 .2-.9.2-1.9.4-2.8.8s-1.7.9-2.2 1.7c-.6.8-.8 1.6-.8 2.7 0 1.3.4 2.2 1.2 2.9s1.9 1 3.2 1c2.3 0 4.2-.8 5.7-2.3 1.5-1.8 2.2-4 2-6.9M693.938 250.567c1.5 0 2.3.6 2.3 1.9v21.5c0 1.3-.8 1.9-2.3 1.9s-2.3-.6-2.3-1.9v-15.9c-.5.9-1 1.7-1.5 2.3l-10.1 14.7c-.5.6-1.1.9-2.1.9-1.5 0-2.3-.6-2.3-1.9v-21.5c0-1.3.8-1.9 2.3-1.9s2.3.6 2.3 1.9v16.1c.6-1.1 4.5-6.8 11.7-17.2.4-.6 1-.9 2-.9m-1.8-8c.9.4 1.1 1.1.6 2-.6 1.1-1.5 1.9-2.7 2.5-1.3.6-2.6.9-4 .9-1.7 0-3.1-.3-4.3-1s-2-1.5-2.5-2.4c-.4-.9 0-1.7 1-2.2.7-.2 1.3 0 1.9.7 1.1 1.1 2.4 1.7 3.9 1.7 1.6 0 2.8-.6 3.8-1.7.6-.6 1.4-.8 2.3-.5M703.638 264.867c-1.3 0-1.9-.6-1.9-1.9s.6-2 1.9-2h9.6c1.3 0 1.9.7 1.9 2s-.6 1.9-1.9 1.9zM725.238 260.467c1.6-.2 2.8-.6 3.7-1.3s1.8-1.6 2.6-2.8l1.2-2c.8-1.3 1.4-2.3 1.9-2.9.7-.7 1.6-1.1 2.7-1 1.7.2 2.2.9 1.4 2.3-.7 1-1.2 1.8-1.5 2.3-.1.2-.3.5-.5.8-.2.4-.4.7-.6 1s-.4.6-.6.8c-1.1 1.6-2.5 2.9-4 3.8 2.4.7 4.2 2.8 5.6 6.2.6 1.6 1.2 3.1 1.9 4.4l.8 1.6c.5 1.1.1 1.7-1.2 2-1.3.2-2.1 0-2.6-.6-.7-.7-1.4-2.1-2.3-4.3l-.5-1.3c-.8-2.1-1.8-3.7-2.8-4.6s-2.7-1.3-5.1-1.3v10.1c0 1.3-.8 1.9-2.3 1.9s-2.3-.6-2.3-1.9v-21.5c0-1.3.8-1.9 2.3-1.9s2.3.6 2.3 1.9v8.3zM759.138 272.067c-1.9 2.7-4.7 4.1-8.5 4.1-2.5 0-4.5-.7-6.1-2s-2.4-3.2-2.4-5.6c0-5.7 4.7-8.6 14.1-8.6h3c0-1.5-.1-2.7-.4-3.7-.6-1.7-2.5-2.5-5.7-2.5-2.1 0-3.9.6-5.4 1.7-.4.3-.9.5-1.4.5s-1.1-.2-1.6-.6c-.5-.3-.7-.8-.7-1.3s.3-1.1 1-1.6c2-1.5 4.9-2.3 8.8-2.3 3.6 0 6.1.8 7.6 2.5s2.3 4.2 2.3 7.6v10.1c0 1.2.1 2.2.2 2.9.2 1.3-.4 2-1.7 2.2-1.6.2-2.5-.4-2.7-1.6-.3-1-.4-1.7-.4-1.8m0-8.6c-1.4-.1-2.5-.1-3.3-.1-1.1 0-2.1.1-3 .2-1 .2-1.9.4-2.8.8s-1.7.9-2.2 1.7c-.6.8-.8 1.6-.8 2.7 0 1.3.4 2.2 1.2 2.9s1.9 1 3.2 1c2.3 0 4.2-.8 5.7-2.3 1.5-1.8 2.2-4 2-6.9M797.638 251.067c.8 0 1.5.1 2 .3.6.2 1 .4 1.2.7.3.2.5.6.6 1.1s.2.9.2 1.2v19.799999999999997c0 1.3-.8 1.9-2.3 1.9s-2.3-.6-2.3-1.9v-18.6c0-.6-.3-.8-1-.8h-4.9c-.8 0-1.2.4-1.3 1.1l-.2 2.4c-.4 5.5-.7 9.1-1 10.9-.3 2.3-1 4.1-2 5.3s-2.5 1.7-4.5 1.6c-.8 0-1.3-.2-1.7-.6s-.5-.8-.5-1.2c.1-1.3.6-1.9 1.7-1.9 1 0 1.6-.3 1.8-.8.3-.5.5-1.3.6-2.5v-.4c.2-1.2.5-4.1.8-8.7.1-1.8.2-3 .3-3.5 0-.6.1-1.1.1-1.4 0-.4.2-.8.3-1.3s.4-1 .7-1.3.7-.6 1.3-.8 1.2-.3 2-.3h8.1zM818.238 277.567c-.4.9-.7 1.7-1 2.2s-.7 1.1-1.2 1.9c-.5.7-1.2 1.2-2 1.6s-1.7.5-2.7.5c-.7 0-1.3-.1-1.9-.2-.5-.1-.8-.4-1.2-.8s-.5-1-.4-1.6c.2-1.3 1-1.8 2.5-1.4.9.2 1.6 0 2-.4.5-.4.9-1 1.2-1.9l1.1-3.2c-1-2.4-2.4-6-4.4-10.8-1.9-4.8-3.4-8.4-4.3-10.8-.3-.7-.2-1.2.2-1.5s1.1-.5 1.9-.5c1.3 0 2.2.6 2.6 1.7l5.7 14.2c.2.3.4.9.6 1.7.2-.6.4-1.2.6-1.7l5.3-14.2q.6-1.8 2.7-1.8c.8 0 1.5.2 2 .5s.6.8.4 1.5zM849.538 274.067c0 1.3-.8 1.9-2.3 1.9s-2.3-.6-2.3-1.9v-8.4c-1.4 1.1-3.4 1.7-5.9 1.7-5.5 0-8.3-2.4-8.3-7.1v-7.7c0-1.3.8-1.9 2.3-1.9s2.3.6 2.3 1.9v6.6c0 1.8.3 3 .9 3.8s1.7 1.1 3.2 1.1c1.8 0 3.2-.4 4.2-1.1s1.4-1.7 1.4-2.8v-7.5c0-1.3.8-1.9 2.3-1.9s2.3.6 2.3 1.9v21.4zM874.138 271.967h7.9c.4 0 .7-.1.8-.2s.2-.4.2-.7v-18.6c0-1.3.8-1.9 2.3-1.9s2.3.6 2.3 1.9v18.4c0 .8 0 1.3-.1 1.7 0 .4-.2.8-.4 1.4-.2.5-.7.9-1.3 1.1q-.9.3-2.4.3h-23.2q-1.2 0-2.1-.3t-1.2-.6c-.3-.2-.5-.6-.6-1.1-.2-.5-.2-.9-.3-1.2v-19.799999999999997c0-1.3.8-1.9 2.3-1.9s2.3.6 2.3 1.9v18.6c0 .6.4.9 1.1.9h7.9v-19.5c0-1.3.8-1.9 2.3-1.9s2.3.6 2.3 1.9v19.6zM914.438 262.867q-.9.9-3.6.9h-13.1c0 1 .1 1.9.3 2.8s.5 1.8 1 2.7 1.2 1.7 2.2 2.2c1 .6 2.2.8 3.6.8.9 0 1.8-.2 2.8-.5 1-.4 1.8-.9 2.3-1.7.6-.9 1.5-1.3 2.6-1.2.8.1 1.3.4 1.6.9.2.4.3.9.1 1.4-.6 1.6-1.8 2.8-3.6 3.7-1.9.9-3.9 1.3-6 1.3s-4-.4-5.6-1.1c-1.6-.8-2.8-1.8-3.7-3.1s-1.6-2.6-2-4.1q-.6-2.25-.6-4.5c0-1.7.2-3.2.6-4.7s1.1-2.9 2-4.1c.9-1.3 2.1-2.3 3.7-3 1.6-.8 3.4-1.1 5.5-1.1q5.1 0 8.1 3c1.8 1.8 2.7 4.2 2.6 7 .1 1-.2 1.8-.8 2.4m-4.3-2.4c.5 0 .8-.3.7-.8-.1-1.9-.6-3.3-1.7-4.4-1.1-1-2.5-1.6-4.4-1.6s-3.5.7-4.8 2-2 2.9-2.1 4.7h12.3zM425.238 324.867c0 2.4-.9 4.2-2.7 5.7-1.8 1.4-4.2 2.1-7.1 2.1-1.4 0-2.8-.2-4.1-.6s-2.5-1.1-3.7-2c-1.1-1-1.8-2.2-2.1-3.7-.1-.6.1-1 .4-1.3.4-.5 1-.7 1.9-.7 1.3 0 2.1.6 2.2 1.7.1.6.4 1.1.8 1.6s.9.8 1.5 1 1.1.4 1.6.5 1 .1 1.4.1c1.6 0 2.9-.4 3.8-1.2s1.4-1.9 1.4-3.3c0-1.1-.4-1.9-1.1-2.5s-1.5-1-2.3-1.1c-.7-.1-1.5-.2-2.3-.2h-.7q-1.8 0-1.8-1.8c0-1.1.7-1.7 2.1-1.7 3.7 0 5.6-1.2 5.6-3.7 0-1.1-.4-1.9-1.2-2.6-.8-.6-1.9-1-3.2-1-3.3 0-5 1-5.2 2.9-.2.9-.8 1.4-1.9 1.4-.9 0-1.6-.2-2-.7-.2-.3-.4-.6-.3-1 .2-2 1.3-3.5 3.2-4.5q2.85-1.5 6.3-1.5c1.5 0 3 .2 4.3.6s2.5 1.1 3.4 2.2 1.4 2.4 1.4 3.9c0 2.4-1.4 4.2-4.1 5.5 2.9 1 4.5 3 4.5 5.9M445.438 328.567c-1.9 2.7-4.7 4.1-8.5 4.1-2.5 0-4.5-.7-6.1-2s-2.4-3.2-2.4-5.6c0-5.7 4.7-8.6 14.1-8.6h3c0-1.5-.1-2.7-.4-3.7-.6-1.7-2.5-2.5-5.7-2.5-2.1 0-3.9.6-5.4 1.7-.4.3-.9.5-1.4.5s-1.1-.2-1.6-.6c-.5-.3-.7-.8-.7-1.3s.3-1.1 1-1.6c2-1.5 4.9-2.3 8.8-2.3 3.6 0 6.1.8 7.6 2.5s2.3 4.2 2.3 7.6v10.1c0 1.2.1 2.2.2 2.9.2 1.3-.4 2-1.7 2.2-1.6.2-2.5-.4-2.7-1.6-.3-1-.4-1.6-.4-1.8m0-8.5c-1.4-.1-2.5-.1-3.3-.1-1.1 0-2.1.1-3 .2-1 .2-1.9.4-2.8.8s-1.7.9-2.2 1.7c-.6.8-.8 1.6-.8 2.7 0 1.3.4 2.2 1.2 2.9s1.9 1 3.2 1c2.3 0 4.2-.8 5.7-2.3 1.5-1.8 2.2-4.1 2-6.9M460.838 317.067c1.6-.2 2.8-.6 3.7-1.3s1.8-1.6 2.5-2.8l1.2-2c.8-1.3 1.4-2.3 1.9-2.9.7-.7 1.6-1.1 2.7-1 1.7.2 2.2.9 1.4 2.3-.7 1-1.2 1.8-1.5 2.3-.1.2-.3.5-.5.8-.2.4-.4.7-.6 1s-.4.6-.6.8c-1.1 1.6-2.5 2.9-4 3.8 2.4.7 4.2 2.8 5.6 6.2.6 1.6 1.2 3.1 1.9 4.4l.8 1.6c.5 1.1.1 1.7-1.2 2-1.3.2-2.1 0-2.6-.6-.7-.7-1.4-2.1-2.3-4.3l-.5-1.3c-.8-2.1-1.8-3.7-2.8-4.6s-2.7-1.3-5.1-1.3v10.1c0 1.3-.8 1.9-2.3 1.9s-2.3-.6-2.3-1.9v-21.5c0-1.3.8-1.9 2.3-1.9s2.3.6 2.3 1.9zM494.738 328.567c-1.9 2.7-4.7 4.1-8.5 4.1-2.5 0-4.5-.7-6.1-2s-2.4-3.2-2.4-5.6c0-5.7 4.7-8.6 14.1-8.6h3c0-1.5-.1-2.7-.4-3.7-.6-1.7-2.5-2.5-5.7-2.5-2.1 0-3.9.6-5.4 1.7-.4.3-.9.5-1.4.5s-1.1-.2-1.6-.6c-.5-.3-.7-.8-.7-1.3s.3-1.1 1-1.6c2-1.5 4.9-2.3 8.8-2.3 3.6 0 6.1.8 7.6 2.5s2.3 4.2 2.3 7.6v10.1c0 1.2.1 2.2.2 2.9.2 1.3-.4 2-1.7 2.2-1.6.2-2.5-.4-2.7-1.6-.3-1-.4-1.6-.4-1.8m0-8.5c-1.4-.1-2.5-.1-3.3-.1-1.1 0-2.1.1-3 .2-1 .2-1.9.4-2.8.8s-1.7.9-2.2 1.7c-.6.8-.8 1.6-.8 2.7 0 1.3.4 2.2 1.2 2.9s1.9 1 3.2 1c2.3 0 4.2-.8 5.7-2.3 1.5-1.8 2.2-4.1 2-6.9M521.438 316.967c2.2-.5 4.1-2 5.6-4.5 0 0 .1-.2.3-.4l.3-.6c.8-1.6 1.4-2.7 2-3.4.6-.8 1.5-1.1 2.7-1 .9.1 1.4.3 1.7.7s.2 1-.2 1.7c-.6.8-1 1.6-1.4 2.5l-1 1.9c-1.2 2.1-2.6 3.6-4.2 4.4 2.5.8 4.4 2.9 5.5 6.2.7 2.4 1.4 4.4 2.2 6 .5 1.1.1 1.7-1.2 2-1.2.2-2.1 0-2.6-.6-.7-.9-1.4-2.4-2-4.6l-.3-1.1q-.9-3.15-2.4-4.5c-1-1-2.5-1.4-4.7-1.3v10.2c0 1.3-.8 1.9-2.3 1.9s-2.3-.6-2.3-1.9v-10.2c-2.1 0-3.6.5-4.6 1.5s-1.9 2.5-2.4 4.3l-.2.9q-.9 3.6-2.1 4.8c-.5.6-1.3.8-2.6.6s-1.8-.9-1.2-2c.7-1.4 1.4-3.4 2.2-6 1.1-3.4 2.9-5.5 5.5-6.2-1.7-.9-3.1-2.3-4.2-4.4l-.8-1.5c-1-1.8-1.6-2.8-1.6-2.8-.5-.8-.6-1.3-.3-1.7s.8-.6 1.7-.7c1.3-.1 2.2.2 2.8 1 .6.9 1.2 1.9 1.8 3.1l.6 1.3c1.3 2.6 3.2 4.1 5.5 4.5v-7.9c0-1.3.8-1.9 2.3-1.9s2.3.6 2.3 1.9v7.8zM559.638 319.467q-.9.9-3.6.9h-13.1c0 1 .1 1.9.3 2.8s.5 1.8 1 2.7 1.2 1.7 2.2 2.2c1 .6 2.2.8 3.6.8.9 0 1.8-.2 2.8-.5s1.8-.9 2.3-1.7c.6-.9 1.5-1.3 2.6-1.2.8.1 1.3.4 1.6.9.2.4.3.9.1 1.4-.6 1.6-1.8 2.8-3.6 3.7-1.9.9-3.9 1.3-6 1.3s-4-.4-5.6-1.1c-1.6-.8-2.8-1.8-3.7-3.1s-1.6-2.6-2-4.1q-.6-2.25-.6-4.5c0-1.7.2-3.2.6-4.7s1.1-2.9 2-4.1c.9-1.3 2.1-2.3 3.7-3 1.6-.8 3.4-1.1 5.5-1.1q5.1 0 8.1 3c1.8 1.8 2.7 4.2 2.6 7 .1.9-.2 1.8-.8 2.4m-4.3-2.5c.5 0 .8-.3.7-.8-.1-1.9-.6-3.3-1.7-4.4-1.1-1-2.6-1.6-4.4-1.6-1.9 0-3.5.7-4.8 2s-2 2.9-2.1 4.7h12.3zM575.338 324.067l-2.3-3.9-2.3-3.9c-.2-.4-.5-.8-.6-1.2v15.5c0 1.3-.7 1.9-2.2 1.9-1.4 0-2.1-.6-2.1-1.9v-21.5c0-1.3.8-1.9 2.5-1.9 1.1 0 2 .6 2.8 1.7l6.8 11.4 6.8-11.4c.7-1.1 1.6-1.7 2.8-1.7 1.6 0 2.4.6 2.4 1.9v21.5c0 1.3-.7 1.9-2.1 1.9s-2.1-.6-2.1-1.9v-15.6l-.7 1.3-4.7 7.7c-.7 1.1-1.5 1.7-2.4 1.7-1.1.1-1.9-.5-2.6-1.6M602.138 327.067c.5.5.7 1.3.7 2.3s-.2 1.8-.7 2.4c-.5.5-1.3.8-2.6.8s-2.1-.3-2.6-.8c-.4-.5-.7-1.3-.7-2.4 0-1 .2-1.8.7-2.3s1.3-.8 2.5-.8c1.4 0 2.3.3 2.7.8"></path></svg>