<svg xmlns="http://www.w3.org/2000/svg" width="1001" height="928" fill="none" viewBox="0 0 1001 928"><path fill="#FDF2E8" d="M973.838 170.258v-97s0-56.7-56.7-56.7h-636.2s-56.7 0-56.7 56.7v96.9s0 1.3.2 3.4v25.8c.7 19.1-18.6 38.7-37.2 40.3 5 1.8 10.4 2.9 16.1 2.9 17.9 0 35.3-10 44.6-24.7 8 5.4 18.6 9 32.9 9h636.2c.1 0 56.8 0 56.8-56.6"></path><path fill="#FF6900" d="M284.538 72.258q.45.45.3 1.2c-.3 2.5-1.6 4.6-3.8 6.2s-4.8 2.5-7.8 2.5c-4.6 0-8.1-1.4-10.5-4.1s-3.6-6.7-3.6-11.9c0-5.3 1.2-9.2 3.6-12 2.4-2.7 5.9-4.1 10.5-4.1 2.8 0 5.4.8 7.7 2.3s3.7 3.7 4 6.5q.15.75-.3 1.2c-.3.4-.9.6-1.8.7-1.4 0-2.2-.5-2.3-1.6-.2-1.1-.8-2.1-1.6-2.8-.8-.8-1.7-1.3-2.7-1.6s-2-.4-3-.4c-1.6 0-2.9.2-4.1.7s-2 1.1-2.7 1.8-1.1 1.7-1.5 2.8-.6 2.1-.7 3.1-.2 2.1-.2 3.3c0 1.3.1 2.4.2 3.4s.4 2 .7 3.1q.6 1.65 1.5 2.7c.6.7 1.5 1.3 2.7 1.7 1.1.5 2.5.7 4.1.7 4 0 6.5-1.6 7.3-4.8.1-.5.3-.9.7-1.1s1-.4 1.6-.4c.7.2 1.3.5 1.7.9M303.238 58.758c1.1 0 1.6.5 1.6 1.6s-.5 1.7-1.6 1.7h-5.2v18.3q0 1.8-2.1 1.8c-1.4 0-2.2-.6-2.2-1.8v-18.3h-5.1c-1.1 0-1.6-.6-1.6-1.7s.5-1.6 1.6-1.6zM312.838 61.557c1.8-2.3 4.3-3.4 7.3-3.4 6.4 0 9.6 4 9.6 12.1 0 1.7-.2 3.3-.5 4.7-.4 1.4-.9 2.7-1.7 3.8s-1.8 2-3.2 2.7c-1.3.6-2.9 1-4.7 1-2.6 0-4.8-1-6.5-2.9v8.7c0 1.2-.7 1.8-2.2 1.8-1.4 0-2.2-.6-2.2-1.8v-28q0-1.8 2.1-1.8c1.4 0 2 .6 2 1.8zm1.8 14.8c1.1 1.6 2.7 2.4 4.7 2.4 3.7 0 5.6-2.8 5.6-8.5s-1.9-8.5-5.6-8.5c-2 0-3.6.7-4.7 2.1s-1.7 3.1-1.7 5v2.1c.1 2 .6 3.8 1.7 5.4M348.638 78.557q-2.7 3.9-8.1 3.9c-2.3 0-4.3-.6-5.8-1.9s-2.3-3-2.3-5.2c0-5.4 4.4-8.1 13.3-8.1h2.8c0-1.4-.1-2.6-.4-3.5-.6-1.6-2.4-2.4-5.3-2.4-2 0-3.7.5-5.1 1.6-.4.3-.9.5-1.3.5-.5 0-1-.2-1.5-.5s-.7-.7-.7-1.2.3-1 1-1.5c1.8-1.4 4.6-2.1 8.3-2.1 3.3 0 5.8.8 7.2 2.3s2.2 3.9 2.2 7.1v9.5c0 1.1.1 2.1.2 2.8.1 1.2-.4 1.9-1.6 2-1.5.1-2.3-.4-2.6-1.5q-.3-1.65-.3-1.8m0-8.1c-1.3-.1-2.4-.1-3.1-.1-1 0-2 .1-2.9.2s-1.8.4-2.7.7-1.6.9-2.1 1.6-.8 1.6-.8 2.5q0 1.8 1.2 2.7c.8.6 1.8 1 3 1 2.2 0 3.9-.7 5.3-2.2 1.7-1.6 2.3-3.7 2.1-6.4M363.138 67.958h9.9v-7.9c0-1.2.7-1.8 2.2-1.8s2.2.6 2.2 1.8v20.3c0 1.2-.7 1.8-2.2 1.8s-2.2-.6-2.2-1.8v-9.1h-9.9v9.1c0 1.2-.7 1.8-2.2 1.8s-2.2-.6-2.2-1.8v-20.3c0-1.2.7-1.8 2.2-1.8s2.2.6 2.2 1.8zM387.938 67.958h9.9v-7.9c0-1.2.7-1.8 2.2-1.8 1.4 0 2.2.6 2.2 1.8v20.3c0 1.2-.7 1.8-2.2 1.8-1.4 0-2.2-.6-2.2-1.8v-9.1h-9.9v9.1c0 1.2-.7 1.8-2.2 1.8s-2.2-.6-2.2-1.8v-20.3c0-1.2.7-1.8 2.2-1.8s2.2.6 2.2 1.8zM428.738 70.157q0 12-10.8 12c-7.2 0-10.9-4-10.9-12s3.6-12 10.9-12q10.8 0 10.8 12m-6-6.1c-1-1.3-2.6-2-4.8-2s-3.8.7-4.8 2-1.5 3.4-1.5 6.1.5 4.8 1.5 6.1 2.6 2 4.8 2 3.8-.7 4.8-2 1.6-3.4 1.6-6.1-.6-4.8-1.6-6.1M432.838 87.058c-.3-.3-.4-.7-.3-1.1l1.3-7.6q.45-1.95 3-1.8c.9.1 1.5.4 1.9.9s.4 1.2.1 1.9l-3 7c-.2.5-.4.8-.7 1s-.7.2-1.3.2c-.3-.1-.7-.2-1-.5M474.038 80.358q0 1.8-2.1 1.8c-1.4 0-2.2-.6-2.2-1.8v-7.9c-1.4 1-3.2 1.6-5.6 1.6-5.2 0-7.8-2.2-7.8-6.7v-7.3c0-1.2.7-1.8 2.2-1.8 1.4 0 2.2.6 2.2 1.8v6.2c0 1.7.3 2.9.8 3.6s1.6 1 3 1c1.7 0 3-.4 3.9-1.1s1.3-1.6 1.3-2.6v-7.1c0-1.2.7-1.8 2.2-1.8q2.1 0 2.1 1.8zM494.038 58.758c1.1 0 1.6.5 1.6 1.6s-.5 1.7-1.6 1.7h-5.2v18.3q0 1.8-2.1 1.8c-1.4 0-2.2-.6-2.2-1.8v-18.3h-5.1c-1.1 0-1.6-.6-1.6-1.7s.5-1.6 1.6-1.6zM518.838 70.157q0 12-10.8 12c-7.2 0-10.9-4-10.9-12s3.6-12 10.9-12q10.8 0 10.8 12m-6-6.1c-1-1.3-2.6-2-4.8-2s-3.8.7-4.8 2-1.5 3.4-1.5 6.1.5 4.8 1.5 6.1 2.6 2 4.8 2 3.8-.7 4.8-2 1.6-3.4 1.6-6.1-.6-4.8-1.6-6.1M556.738 70.157q0 12-10.8 12c-7.2 0-10.9-4-10.9-12s3.6-12 10.9-12q10.8 0 10.8 12m-6-6.1c-1-1.3-2.6-2-4.8-2s-3.8.7-4.8 2-1.5 3.4-1.5 6.1.5 4.8 1.5 6.1 2.6 2 4.8 2 3.8-.7 4.8-2 1.6-3.4 1.6-6.1-.6-4.8-1.6-6.1M565.838 67.958h9.9v-7.9c0-1.2.7-1.8 2.2-1.8 1.4 0 2.2.6 2.2 1.8v20.3c0 1.2-.7 1.8-2.2 1.8-1.4 0-2.2-.6-2.2-1.8v-9.1h-9.9v9.1c0 1.2-.7 1.8-2.2 1.8s-2.2-.6-2.2-1.8v-20.3c0-1.2.7-1.8 2.2-1.8s2.2.6 2.2 1.8zM605.638 80.358c0 1.2-.7 1.8-2.2 1.8-1.4 0-2.2-.6-2.2-1.8v-14.9c-.3.4-.6.9-1 1.5l-.5.8-9.4 13.6c-.4.5-1.1.8-1.9.8-1.4 0-2.2-.6-2.2-1.8v-20.3c0-1.2.7-1.8 2.2-1.8s2.2.6 2.2 1.8v15.1c.1-.1.6-1 1.6-2.6l9.3-13.5c.3-.5 1-.7 1.9-.7 1.4 0 2.2.6 2.2 1.8zM628.938 67.958h9.9v-7.9c0-1.2.7-1.8 2.2-1.8 1.4 0 2.2.6 2.2 1.8v20.3c0 1.2-.7 1.8-2.2 1.8-1.4 0-2.2-.6-2.2-1.8v-9.1h-9.9v9.1c0 1.2-.7 1.8-2.2 1.8s-2.2-.6-2.2-1.8v-20.3c0-1.2.7-1.8 2.2-1.8s2.2.6 2.2 1.8zM668.438 69.857c-.6.6-1.7.9-3.4.9h-12.4c0 .9.1 1.8.3 2.6s.5 1.7 1 2.6q.6 1.35 2.1 2.1c.9.5 2.1.8 3.4.8.8 0 1.7-.2 2.7-.5.9-.3 1.7-.9 2.1-1.6.6-.9 1.4-1.3 2.5-1.2.8.1 1.3.4 1.5.8s.3.8.1 1.3c-.5 1.5-1.7 2.7-3.4 3.5s-3.6 1.2-5.6 1.2-3.7-.4-5.2-1.1-2.7-1.7-3.5-2.9c-.9-1.2-1.5-2.5-1.9-3.9s-.6-2.8-.6-4.3c0-1.6.2-3 .6-4.4s1-2.7 1.9-3.9 2-2.2 3.5-2.9 3.2-1.1 5.2-1.1c3.2 0 5.8 1 7.6 2.9 1.7 1.7 2.5 3.9 2.5 6.6-.1 1.2-.4 2-1 2.5m-4-2.3c.5 0 .7-.3.7-.7-.1-1.8-.6-3.1-1.6-4.1s-2.4-1.5-4.1-1.5c-1.8 0-3.3.6-4.5 1.9s-1.9 2.7-2 4.4zM700.438 58.758c.8 0 1.4.1 2 .3q.75.3 1.2.6c.3.2.5.6.6 1 .1.5.2.8.2 1.1v16.7c.8.1 1.5.4 1.9.8.5.5.7 1.1.7 1.8v4c0 1.2-.6 1.8-1.9 1.8s-1.9-.6-1.9-1.8v-3c0-.2-.1-.3-.4-.3h-14.5c-.3 0-.4.1-.4.3v3c0 1.2-.6 1.8-2 1.8-1.3 0-1.9-.6-1.9-1.8v-4c0-.9.2-1.5.5-1.9s.9-.8 1.7-1.3c.7-.4 1.3-1.6 1.7-3.8.2-1.6.4-4.3.6-8.3 0-.8.1-1.7.2-2.9.2-2.9 1.5-4.3 3.9-4.3h7.8zm-.3 19.7v-15.6c0-.3-.1-.5-.2-.6s-.4-.2-.8-.2h-5.3c-.6 0-.9.3-1 1l-.1 2.4c-.2 4.2-.5 7.1-.8 9-.2 1.7-.7 3.1-1.3 4.1h9.5zM729.738 69.857c-.6.6-1.7.9-3.4.9h-12.4c0 .9.1 1.8.3 2.6s.5 1.7 1 2.6 1.1 1.6 2.1 2.1c.9.5 2 .8 3.4.8.8 0 1.7-.2 2.7-.5s1.7-.9 2.1-1.6c.6-.9 1.4-1.3 2.5-1.2.8.1 1.3.4 1.5.8s.3.8.1 1.3c-.5 1.5-1.7 2.7-3.4 3.5s-3.6 1.2-5.6 1.2-3.7-.4-5.2-1.1-2.7-1.7-3.5-2.9c-.9-1.2-1.5-2.5-1.9-3.9s-.6-2.8-.6-4.3c0-1.6.2-3 .6-4.4s1-2.7 1.9-3.9 2-2.2 3.5-2.9 3.2-1.1 5.2-1.1c3.2 0 5.8 1 7.6 2.9 1.7 1.7 2.5 3.9 2.5 6.6-.2 1.2-.5 2-1 2.5m-4.1-2.3c.5 0 .7-.3.7-.7-.1-1.8-.6-3.1-1.6-4.1s-2.4-1.5-4.1-1.5c-1.8 0-3.3.6-4.5 1.9s-1.9 2.7-2 4.4zM739.638 61.557c1.8-2.3 4.3-3.4 7.3-3.4 6.4 0 9.6 4 9.6 12.1 0 1.7-.2 3.3-.5 4.7-.4 1.4-.9 2.7-1.7 3.8s-1.8 2-3.2 2.7c-1.3.6-2.9 1-4.7 1-2.6 0-4.8-1-6.5-2.9v8.7c0 1.2-.7 1.8-2.2 1.8-1.4 0-2.2-.6-2.2-1.8v-28q0-1.8 2.1-1.8c1.4 0 2 .6 2 1.8zm1.9 14.8c1.1 1.6 2.7 2.4 4.7 2.4 3.7 0 5.6-2.8 5.6-8.5s-1.9-8.5-5.6-8.5c-2 0-3.6.7-4.7 2.1s-1.7 3.1-1.7 5v2.1c0 2 .5 3.8 1.7 5.4M775.438 67.558c2.1-.4 3.9-1.9 5.2-4.3l.2-.4c.1-.2.2-.4.2-.5.7-1.5 1.4-2.6 1.9-3.2.5-.7 1.4-1 2.5-.9.8.1 1.3.3 1.6.6.3.4.2.9-.2 1.6-.5.8-1 1.5-1.3 2.3l-.9 1.8q-1.65 3-3.9 4.2c2.4.8 4.1 2.7 5.2 5.9.7 2.3 1.3 4.2 2 5.7.5 1 .1 1.6-1.1 1.9-1.2.1-2 0-2.5-.5-.7-.8-1.3-2.3-1.9-4.3l-.3-1.1c-.6-1.9-1.4-3.4-2.3-4.2-.9-.9-2.4-1.3-4.4-1.3v9.6q0 1.8-2.1 1.8t-2.1-1.8v-9.6c-1.9 0-3.4.4-4.4 1.4s-1.7 2.3-2.3 4.1l-.2.9c-.6 2.2-1.3 3.7-2 4.5q-.6.75-2.4.6c-1.3-.2-1.7-.9-1.2-1.9q.9-1.95 2.1-5.7c1-3.2 2.8-5.1 5.2-5.9q-2.4-1.2-3.9-4.2l-.7-1.4q-1.5-2.55-1.5-2.7c-.4-.7-.5-1.3-.3-1.6s.8-.6 1.6-.7c1.2-.1 2.1.2 2.6.9.5.8 1.1 1.8 1.7 2.9l.6 1.2c1.3 2.4 3 3.9 5.2 4.3v-7.5q0-1.8 2.1-1.8t2.1 1.8v7.5zM806.638 78.557q-2.7 3.9-8.1 3.9c-2.3 0-4.3-.6-5.8-1.9s-2.3-3-2.3-5.2c0-5.4 4.4-8.1 13.3-8.1h2.8c0-1.4-.1-2.6-.4-3.5-.6-1.6-2.4-2.4-5.3-2.4-2 0-3.7.5-5.1 1.6-.4.3-.9.5-1.3.5s-1-.2-1.5-.5-.7-.7-.7-1.2.3-1 1-1.5c1.8-1.4 4.6-2.1 8.3-2.1 3.4 0 5.8.8 7.2 2.3s2.2 3.9 2.2 7.1v9.5c0 1.1.1 2.1.2 2.8.1 1.2-.4 1.9-1.6 2-1.5.1-2.3-.4-2.6-1.5q-.3-1.65-.3-1.8m0-8.1c-1.3-.1-2.4-.1-3.1-.1-1 0-2 .1-2.9.2s-1.8.4-2.7.7-1.6.9-2.1 1.6-.8 1.6-.8 2.5q0 1.8 1.2 2.7c.8.6 1.8 1 3 1 2.2 0 3.9-.7 5.3-2.2 1.6-1.6 2.3-3.7 2.1-6.4M829.338 58.758c1.1 0 1.6.5 1.6 1.6s-.5 1.7-1.6 1.7h-5.1v18.3q0 1.8-2.1 1.8c-1.4 0-2.2-.6-2.2-1.8v-18.3h-5.1c-1.1 0-1.6-.6-1.6-1.7s.5-1.6 1.6-1.6zM271.638 112.058q3.75 0 5.7 1.5c1.3 1 1.9 2.4 1.9 4.2 0 2.3-1 4-3 5 1.3.5 2.3 1.3 2.9 2.4s1 2.2 1 3.4c0 1.9-.7 3.4-2.2 4.7s-3.2 1.9-5.4 1.9h-8.2c-.8 0-1.4-.1-1.9-.3q-.75-.3-1.2-.6c-.3-.2-.5-.6-.6-1-.1-.5-.2-.8-.2-1.1v-17c0-.3.1-.7.2-1.1.1-.5.3-.8.6-1s.6-.4 1.2-.6c.5-.2 1.2-.3 1.9-.3h7.3zm-6.7 9.3h6.7c.9 0 1.7-.3 2.3-.8s.9-1.3.9-2.3c0-1.9-1.1-2.9-3.2-2.9h-5.8c-.4 0-.6.1-.8.2s-.2.3-.2.6v5.2zm0 9.6c0 .3.1.5.2.6s.4.2.8.2h5.8c2.6 0 3.9-1.2 3.9-3.5q0-3.6-3.9-3.6h-6.7v6.3zm58.2-1.7c.3.3.3.8.3 1.6-.3 1.1-1.1 2.1-2.6 3.1s-3.3 1.5-5.6 1.5q-10.8 0-10.8-12t10.8-12c2.1 0 4 .5 5.5 1.5s2.5 2.2 2.8 3.5c.1.7.1 1.2-.2 1.5-.2.3-.7.6-1.4.6h-.2c-1.2 0-2-.5-2.3-1.4-.7-1.7-2.1-2.5-4.2-2.5q-6.3 0-6.3 8.7t6.3 8.7c1.9 0 3.2-.7 4.1-2.2.6-1 1.4-1.5 2.4-1.3.7.2 1.2.4 1.4.7m24.9-6c-.6.6-1.7.9-3.4.9h-12.4c0 .9.1 1.8.3 2.6s.5 1.7 1 2.6 1.1 1.6 2.1 2.1 2.1.8 3.4.8c.8 0 1.7-.2 2.7-.5.9-.3 1.7-.9 2.1-1.6.6-.9 1.4-1.3 2.5-1.2.8.1 1.3.4 1.5.8s.3.8.1 1.3c-.5 1.5-1.7 2.7-3.4 3.5s-3.6 1.2-5.6 1.2-3.7-.4-5.2-1.1-2.7-1.7-3.5-2.9c-.9-1.2-1.5-2.5-1.9-3.9s-.6-2.8-.6-4.3c0-1.6.2-3 .6-4.4s1-2.7 1.9-3.9 2-2.2 3.5-2.9 3.2-1.1 5.2-1.1c3.2 0 5.8 1 7.6 2.9 1.7 1.7 2.5 3.9 2.5 6.6-.1 1.1-.4 1.9-1 2.5m-4-2.4c.5 0 .7-.3.7-.7-.1-1.8-.6-3.1-1.6-4.1s-2.4-1.5-4.1-1.5c-1.8 0-3.3.6-4.5 1.9s-1.9 2.7-2 4.4zm14.1.1c1.5-.2 2.7-.6 3.5-1.2s1.7-1.5 2.4-2.6l1.1-1.9c.7-1.2 1.3-2.2 1.8-2.8.7-.7 1.5-1 2.5-.9 1.6.1 2.1.9 1.3 2.2-.6 1-1.1 1.7-1.4 2.2-.1.2-.3.4-.5.8q-.3.6-.6.9c-.2.3-.3.5-.5.8-1.1 1.5-2.3 2.7-3.8 3.6 2.3.6 4 2.6 5.2 5.9q.75 2.25 1.8 4.2l.7 1.5c.5 1 .1 1.6-1.2 1.9q-1.8.3-2.4-.6c-.6-.7-1.4-2-2.2-4l-.5-1.3c-.8-2-1.7-3.5-2.6-4.3s-2.6-1.2-4.8-1.2v9.5c0 1.2-.7 1.8-2.2 1.8s-2.2-.6-2.2-1.8v-20.3c0-1.2.7-1.8 2.2-1.8s2.2.6 2.2 1.8v7.6zm22.2-6c1.8-2.3 4.3-3.4 7.3-3.4 6.4 0 9.6 4 9.6 12.1 0 1.7-.2 3.3-.5 4.7-.4 1.4-.9 2.7-1.7 3.8s-1.8 2-3.2 2.7c-1.3.6-2.9 1-4.7 1-2.6 0-4.8-1-6.5-2.9v8.7c0 1.2-.7 1.8-2.2 1.8-1.4 0-2.2-.6-2.2-1.8v-28q0-1.8 2.1-1.8c1.4 0 2 .6 2 1.8zm1.9 14.7c1.1 1.6 2.7 2.4 4.7 2.4 3.7 0 5.6-2.8 5.6-8.5s-1.9-8.5-5.6-8.5c-2 0-3.6.7-4.7 2.1s-1.7 3.1-1.7 5v2.1c.1 2 .6 3.8 1.7 5.4m38.8-6.4c-.6.6-1.7.9-3.4.9h-12.4c0 .9.1 1.8.3 2.6s.5 1.7 1 2.6 1.1 1.6 2.1 2.1c.9.5 2.1.8 3.4.8.8 0 1.7-.2 2.7-.5.9-.3 1.7-.9 2.1-1.6.6-.9 1.4-1.3 2.5-1.2.8.1 1.3.4 1.5.8s.3.8.1 1.3c-.5 1.5-1.7 2.7-3.4 3.5s-3.6 1.2-5.6 1.2-3.7-.4-5.2-1.1-2.7-1.7-3.5-2.9c-.9-1.2-1.5-2.5-1.9-3.9s-.6-2.8-.6-4.3c0-1.6.2-3 .6-4.4s1-2.7 1.9-3.9 2-2.2 3.5-2.9 3.2-1.1 5.2-1.1c3.2 0 5.8 1 7.6 2.9 1.7 1.7 2.5 3.9 2.5 6.6-.1 1.1-.4 1.9-1 2.5m-4-2.4c.5 0 .7-.3.7-.7-.1-1.8-.6-3.1-1.6-4.1s-2.4-1.5-4.1-1.5c-1.8 0-3.3.6-4.5 1.9s-1.9 2.7-2 4.4zm23.6-8.8c1.1 0 1.6.5 1.6 1.6s-.5 1.7-1.6 1.7h-5.2v18.3q0 1.8-2.1 1.8c-1.4 0-2.2-.6-2.2-1.8v-18.3h-5.1c-1.1 0-1.6-.6-1.6-1.7s.5-1.6 1.6-1.6zm24.4 11.2c-.6.6-1.7.9-3.4.9h-12.4c0 .9.1 1.8.3 2.6s.5 1.7 1 2.6 1.1 1.6 2.1 2.1 2.1.8 3.4.8c.8 0 1.7-.2 2.7-.5.9-.3 1.7-.9 2.1-1.6.6-.9 1.4-1.3 2.5-1.2.8.1 1.3.4 1.5.8s.3.8.1 1.3c-.5 1.5-1.7 2.7-3.4 3.5s-3.6 1.2-5.6 1.2-3.7-.4-5.2-1.1-2.7-1.7-3.5-2.9c-.9-1.2-1.5-2.5-1.9-3.9s-.6-2.8-.6-4.3c0-1.6.2-3 .6-4.4s1-2.7 1.9-3.9 2-2.2 3.5-2.9 3.2-1.1 5.2-1.1c3.2 0 5.8 1 7.6 2.9 1.7 1.7 2.5 3.9 2.5 6.6-.2 1.1-.5 1.9-1 2.5m-4.1-2.4c.5 0 .7-.3.7-.7-.1-1.8-.6-3.1-1.6-4.1s-2.4-1.5-4.1-1.5c-1.8 0-3.3.6-4.5 1.9s-1.9 2.7-2 4.4zm33.8-8.8q3.75 0 5.7 1.5c1.3 1 1.9 2.4 1.9 4.2 0 2.3-1 4-3 5 1.3.5 2.3 1.3 2.9 2.4.7 1 1 2.2 1 3.4 0 1.9-.7 3.4-2.2 4.7-1.4 1.2-3.2 1.9-5.4 1.9h-8.2c-.8 0-1.4-.1-1.9-.3q-.75-.3-1.2-.6c-.3-.2-.5-.6-.6-1-.1-.5-.2-.8-.2-1.1v-17c0-.3.1-.7.2-1.1.1-.5.3-.8.6-1s.6-.4 1.2-.6c.5-.2 1.2-.3 1.9-.3h7.3zm-6.7 9.3h6.7c.9 0 1.7-.3 2.3-.8s.9-1.3.9-2.3c0-1.9-1.1-2.9-3.2-2.9h-5.8c-.4 0-.6.1-.8.2s-.2.3-.2.6v5.2zm0 9.6c0 .3.1.5.2.6s.4.2.8.2h5.8c2.6 0 3.9-1.2 3.9-3.5q0-3.6-3.9-3.6h-6.7v6.3zm37.3-1.7c.3.3.3.8.3 1.6-.299 1.1-1.1 2.1-2.6 3.1s-3.3 1.5-5.6 1.5q-10.8 0-10.8-12t10.8-12c2.1 0 4 .5 5.5 1.5s2.5 2.2 2.8 3.5c.1.7.1 1.2-.2 1.5-.2.3-.699.6-1.4.6h-.2c-1.2 0-2-.5-2.3-1.4-.7-1.7-2.1-2.5-4.2-2.5q-6.3 0-6.3 8.7t6.3 8.7c1.9 0 3.2-.7 4.1-2.2.6-1 1.4-1.5 2.4-1.3.7.2 1.2.4 1.4.7m24.9-6c-.6.6-1.7.9-3.4.9h-12.4c0 .9.1 1.8.3 2.6s.5 1.7 1 2.6 1.1 1.6 2.1 2.1 2.1.8 3.4.8c.8 0 1.7-.2 2.7-.5.9-.3 1.7-.9 2.1-1.6.6-.9 1.4-1.3 2.5-1.2.8.1 1.3.4 1.5.8s.301.8.1 1.3c-.5 1.5-1.7 2.7-3.4 3.5-1.8.8-3.6 1.2-5.6 1.2s-3.7-.4-5.2-1.1-2.7-1.7-3.5-2.9c-.9-1.2-1.5-2.5-1.9-3.9s-.6-2.8-.6-4.3c0-1.6.2-3 .6-4.4s1-2.7 1.9-3.9 2-2.2 3.5-2.9 3.2-1.1 5.2-1.1c3.201 0 5.8 1 7.6 2.9 1.7 1.7 2.5 3.9 2.5 6.6-.1 1.1-.4 1.9-1 2.5m-4-2.4c.5 0 .7-.3.7-.7-.1-1.8-.6-3.1-1.6-4.1s-2.4-1.5-4.1-1.5c-1.8 0-3.3.6-4.5 1.9s-1.9 2.7-2 4.4zm40 8.4c.3.3.3.8.3 1.6-.3 1.1-1.1 2.1-2.6 3.1s-3.3 1.5-5.6 1.5q-10.8 0-10.8-12t10.8-12c2.1 0 4 .5 5.5 1.5s2.501 2.2 2.8 3.5c.1.7.1 1.2-.2 1.5-.2.3-.7.6-1.4.6h-.2c-1.2 0-2-.5-2.3-1.4-.7-1.7-2.1-2.5-4.2-2.5q-6.3 0-6.3 8.7t6.3 8.7c1.9 0 3.2-.7 4.1-2.2.6-1 1.4-1.5 2.4-1.3.7.2 1.1.4 1.4.7m16.9-17.2q3.75 0 5.7 1.5c1.3 1 1.9 2.4 1.9 4.2 0 2.3-1 4-3 5 1.3.5 2.3 1.3 2.9 2.4s1 2.2 1 3.4c0 1.9-.7 3.4-2.2 4.7s-3.2 1.9-5.4 1.9h-8.2c-.8 0-1.4-.1-1.9-.3q-.75-.3-1.2-.6c-.3-.2-.5-.6-.6-1-.1-.5-.2-.8-.2-1.1v-17c0-.3.1-.7.2-1.1.1-.5.3-.8.6-1s.6-.4 1.2-.6c.5-.2 1.2-.3 1.9-.3h7.3zm-6.7 9.3h6.7c.9 0 1.7-.3 2.3-.8s.9-1.3.9-2.3c0-1.9-1.1-2.9-3.2-2.9h-5.8c-.4 0-.6.1-.8.2-.1.1-.2.3-.2.6v5.2zm0 9.6c0 .3.1.5.2.6s.4.2.8.2h5.8c2.6 0 3.9-1.2 3.9-3.5q0-3.6-3.9-3.6h-6.7v6.3zm40.4-7.4q0 12-10.8 12c-7.2 0-10.9-4-10.9-12s3.6-12 10.9-12q10.8-.15 10.8 12m-6-6.2c-1-1.3-2.6-2-4.8-2s-3.8.7-4.8 2-1.5 3.4-1.5 6.1c0 2.8.5 4.8 1.5 6.1s2.6 2 4.8 2 3.8-.7 4.8-2 1.6-3.4 1.6-6.1c-.1-2.7-.6-4.7-1.6-6.1m30.1 16.4c0 1.2-.7 1.8-2.2 1.8-1.4 0-2.2-.6-2.2-1.8v-14.9c-.3.4-.6.9-1 1.5l-.5.8-9.4 13.6c-.4.5-1.1.8-1.9.8-1.4 0-2.2-.6-2.2-1.8v-20.3c0-1.2.7-1.8 2.2-1.8s2.2.6 2.2 1.8v15.1c.1-.1.6-1 1.6-2.6l9.3-13.5c.3-.5 1-.7 1.9-.7 1.4 0 2.2.6 2.2 1.8zm5.6 6.6c-.3-.3-.4-.7-.3-1.1l1.3-7.6q.45-1.95 3-1.8c.9.1 1.5.4 1.9.9s.4 1.2.1 1.9l-3 7c-.2.5-.4.8-.7 1s-.7.2-1.3.2c-.4 0-.8-.2-1-.5m29.1-19h9.9v-7.9c0-1.2.7-1.8 2.2-1.8s2.2.6 2.2 1.8v20.3c0 1.2-.7 1.8-2.2 1.8s-2.2-.6-2.2-1.8v-9.1h-9.9v9.1c0 1.2-.7 1.8-2.2 1.8s-2.2-.6-2.2-1.8v-20.3c0-1.2.7-1.8 2.2-1.8s2.2.6 2.2 1.8zm29.7 15.7q-.6 1.35-.9 2.1c-.2.5-.6 1.1-1.1 1.8q-.75 1.05-1.8 1.5c-.7.3-1.6.5-2.5.5-.6 0-1.2-.1-1.8-.2-.4-.1-.8-.3-1.1-.7-.299-.4-.4-.9-.4-1.5.1-1.3.9-1.7 2.4-1.3.8.1 1.5 0 1.9-.3.4-.4.801-1 1.1-1.8l1.1-3c-.9-2.3-2.3-5.7-4.1-10.2s-3.2-7.9-4.1-10.2c-.3-.6-.2-1.1.2-1.4s1-.5 1.8-.5c1.2 0 2 .5 2.5 1.6l5.3 13.4c.1.3.3.9.6 1.6.2-.6.4-1.2.6-1.6l5-13.4c.4-1.1 1.2-1.7 2.5-1.7.8 0 1.4.2 1.9.5s.6.8.3 1.4zm8.3 3.3c-.299-.3-.4-.7-.3-1.1l1.3-7.6q.45-1.95 3-1.8c.9.1 1.5.4 1.9.9s.4 1.2.1 1.9l-3 7c-.2.5-.4.8-.7 1s-.7.2-1.3.2c-.4 0-.7-.2-1-.5m42.1-11.1c.3.3.3.8.3 1.6-.3 1.1-1.1 2.1-2.6 3.1s-3.3 1.5-5.6 1.5q-10.8 0-10.8-12t10.8-12c2.1 0 4 .5 5.5 1.5s2.501 2.2 2.8 3.5c.1.7.1 1.2-.2 1.5-.2.3-.7.6-1.4.6h-.2c-1.2 0-2-.5-2.3-1.4-.7-1.7-2.1-2.5-4.2-2.5q-6.3 0-6.3 8.7t6.3 8.7c1.9 0 3.2-.7 4.1-2.2.6-1 1.4-1.5 2.4-1.3.7.2 1.2.4 1.4.7m24.9-6c-.599.6-1.7.9-3.4.9h-12.4c0 .9.1 1.8.3 2.6.201.8.5 1.7 1 2.6q.6 1.35 2.1 2.1c.9.5 2.101.8 3.4.8.8 0 1.7-.2 2.7-.5.9-.3 1.7-.9 2.1-1.6.6-.9 1.401-1.3 2.5-1.2.8.1 1.3.4 1.5.8s.3.8.1 1.3c-.5 1.5-1.699 2.7-3.4 3.5-1.799.8-3.6 1.2-5.6 1.2s-3.7-.4-5.2-1.1-2.7-1.7-3.5-2.9c-.9-1.2-1.499-2.5-1.9-3.9s-.6-2.8-.6-4.3c0-1.6.2-3 .6-4.4.401-1.4 1-2.7 1.9-3.9s2-2.2 3.5-2.9 3.2-1.1 5.2-1.1c3.2 0 5.801 1 7.6 2.9 1.701 1.7 2.5 3.9 2.5 6.6-.099 1.1-.4 1.9-1 2.5m-4-2.4c.5 0 .7-.3.7-.7-.1-1.8-.6-3.1-1.6-4.1s-2.399-1.5-4.1-1.5c-1.799 0-3.299.6-4.5 1.9-1.2 1.3-1.9 2.7-2 4.4zm14.1.1c1.5-.2 2.7-.6 3.5-1.2.9-.6 1.7-1.5 2.4-2.6l1.1-1.9c.7-1.2 1.3-2.2 1.8-2.8.7-.7 1.5-1 2.5-.9 1.6.1 2.1.9 1.3 2.2-.6 1-1.1 1.7-1.4 2.2-.099.2-.3.4-.5.8-.2.3-.4.7-.6.9-.2.3-.3.5-.5.8-1.1 1.5-2.3 2.7-3.8 3.6 2.3.6 4 2.6 5.2 5.9q.75 2.25 1.8 4.2l.7 1.5c.5 1 .1 1.6-1.2 1.9q-1.8.3-2.4-.6c-.599-.7-1.4-2-2.2-4l-.5-1.3c-.8-2-1.7-3.5-2.6-4.3s-2.6-1.2-4.8-1.2v9.5c0 1.2-.7 1.8-2.2 1.8-1.4 0-2.2-.6-2.2-1.8v-20.3c0-1.2.7-1.8 2.2-1.8 1.4 0 2.2.6 2.2 1.8v7.6zm22.3-6c1.8-2.3 4.3-3.4 7.3-3.4 6.4 0 9.6 4 9.6 12.1 0 1.7-.2 3.3-.5 4.7-.4 1.4-.9 2.7-1.7 3.8s-1.8 2-3.2 2.7c-1.3.6-2.9 1-4.7 1-2.6 0-4.8-1-6.5-2.9v8.7c0 1.2-.7 1.8-2.2 1.8-1.4 0-2.2-.6-2.2-1.8v-28q0-1.8 2.1-1.8c1.4 0 2 .6 2 1.8zm1.9 14.7c1.1 1.6 2.7 2.4 4.7 2.4 3.701 0 5.6-2.8 5.6-8.5s-1.899-8.5-5.6-8.5c-2 0-3.6.7-4.7 2.1-1.099 1.4-1.7 3.1-1.7 5v2.1c0 2 .601 3.8 1.7 5.4m38.7-6.4c-.599.6-1.7.9-3.4.9h-12.4c0 .9.1 1.8.3 2.6.201.8.5 1.7 1 2.6q.6 1.35 2.1 2.1c1 .5 2.101.8 3.4.8.8 0 1.7-.2 2.7-.5.9-.3 1.7-.9 2.1-1.6.6-.9 1.401-1.3 2.5-1.2.8.1 1.3.4 1.5.8s.3.8.1 1.3c-.5 1.5-1.699 2.7-3.4 3.5-1.799.8-3.6 1.2-5.6 1.2s-3.7-.4-5.2-1.1-2.7-1.7-3.5-2.9c-.9-1.2-1.499-2.5-1.9-3.9s-.6-2.8-.6-4.3c0-1.6.2-3 .6-4.4.401-1.4 1-2.7 1.9-3.9s2-2.2 3.5-2.9 3.2-1.1 5.2-1.1c3.2 0 5.801 1 7.6 2.9 1.701 1.7 2.5 3.9 2.5 6.6-.099 1.1-.4 1.9-1 2.5m-4-2.4c.5 0 .7-.3.7-.7-.1-1.8-.6-3.1-1.6-4.1s-2.399-1.5-4.1-1.5c-1.799 0-3.299.6-4.5 1.9-1.2 1.3-1.9 2.7-2 4.4zm23.6-8.8c1.1 0 1.6.5 1.6 1.6s-.5 1.7-1.6 1.7h-5.2v18.3q0 1.8-2.1 1.8c-1.4 0-2.2-.6-2.2-1.8v-18.3h-5.1c-1.099 0-1.6-.6-1.6-1.7s.501-1.6 1.6-1.6zm9.7 8.6h6.7c2.5 0 4.4.7 5.8 2 1.401 1.3 2.1 3 2.1 5.2 0 2.1-.8 3.8-2.3 5.2q-2.25 2.1-5.7 2.1h-6.9c-.9 0-1.7-.1-2.3-.3s-.999-.6-1.2-1.1-.4-.9-.4-1.3-.1-.9-.1-1.6v-17.3c0-1.2.7-1.8 2.2-1.8q2.1 0 2.1 1.8zm0 10.3c0 .3.101.6.2.6.201.1.4.1.8.1h5c1.3 0 2.2-.3 2.9-1s1-1.6 1-2.8q0-3.9-3.9-3.9h-6zm20.9 2.8c0 1.2-.7 1.8-2.2 1.8q-2.1 0-2.1-1.8v-20.3q0-1.8 2.1-1.8c1.401 0 2.2.6 2.2 1.8zm5.6 6.6c-.3-.3-.399-.7-.3-1.1l1.3-7.6q.45-1.95 3-1.8c.901.1 1.5.4 1.9.9s.4 1.2.1 1.9l-3 7c-.2.5-.4.8-.7 1s-.7.2-1.3.2c-.4 0-.7-.2-1-.5M271.638 165.357q3.75 0 5.7 1.5c1.3 1 1.9 2.4 1.9 4.2 0 2.3-1 4-3 5 1.3.5 2.3 1.3 2.9 2.4.7 1 1 2.2 1 3.4 0 1.9-.7 3.4-2.2 4.7s-3.2 1.9-5.4 1.9h-8.2c-.8 0-1.4-.1-1.9-.3q-.75-.3-1.2-.6c-.3-.2-.5-.6-.6-1-.1-.5-.2-.8-.2-1.1v-17c0-.3.1-.7.2-1.1.1-.5.3-.8.6-1q.45-.3 1.2-.6c.5-.2 1.2-.3 1.9-.3h7.3zm-6.7 9.3h6.7c.9 0 1.7-.3 2.3-.8s.9-1.3.9-2.3c0-1.9-1.1-2.9-3.2-2.9h-5.8c-.4 0-.6.1-.8.2-.1.1-.2.3-.2.6v5.2zm0 9.6c0 .3.1.5.2.6s.4.2.8.2h5.8c2.6 0 3.9-1.2 3.9-3.5q0-3.6-3.9-3.6h-6.7v6.3zM304.038 176.558c-.6.6-1.7.9-3.4.9h-12.4c0 .9.1 1.8.3 2.6s.5 1.7 1 2.6 1.1 1.6 2.1 2.1c.9.5 2 .8 3.4.8.8 0 1.7-.2 2.7-.5s1.7-.9 2.1-1.6c.6-.9 1.4-1.3 2.5-1.2.8.1 1.3.4 1.5.8s.3.8.1 1.3c-.5 1.5-1.7 2.7-3.4 3.5s-3.6 1.2-5.6 1.2-3.7-.4-5.2-1.1-2.7-1.7-3.5-2.9c-.9-1.2-1.5-2.5-1.9-3.9s-.6-2.8-.6-4.3c0-1.6.2-3 .6-4.4s1-2.7 1.9-3.9 2-2.2 3.5-2.9 3.2-1.1 5.2-1.1c3.2 0 5.8 1 7.6 2.9 1.7 1.7 2.5 3.9 2.5 6.6-.1 1.1-.4 1.9-1 2.5m-4-2.3c.5 0 .7-.3.7-.7-.1-1.8-.6-3.1-1.6-4.1s-2.4-1.5-4.1-1.5c-1.8 0-3.3.6-4.5 1.9s-1.9 2.7-2 4.4zM323.238 165.357c.8 0 1.4.1 2 .3q.75.3 1.2.6c.3.2.5.6.6 1 .1.5.2.8.2 1.1v16.7c.8.1 1.5.4 1.9.8.5.5.7 1.1.7 1.8v4c0 1.2-.7 1.8-2 1.8s-1.9-.6-1.9-1.8v-3c0-.2-.1-.3-.4-.3h-14.5c-.3 0-.4.1-.4.3v3c0 1.2-.7 1.8-1.9 1.8-1.3 0-1.9-.6-1.9-1.8v-4c0-.9.2-1.5.5-1.9s.9-.8 1.7-1.3c.7-.4 1.3-1.6 1.7-3.8.2-1.6.4-4.3.7-8.3 0-.8.1-1.7.2-2.9.2-2.9 1.5-4.3 3.9-4.3h7.7zm-.3 19.8v-15.6c0-.3-.1-.5-.2-.6s-.4-.2-.8-.2h-5.3c-.6 0-.9.3-1 1l-.1 2.4c-.2 4.2-.5 7.1-.8 9-.2 1.7-.7 3.1-1.3 4.1h9.5zM337.739 173.958h6.7c2.4 0 4.4.7 5.8 2s2.1 3 2.1 5.2c0 2.1-.8 3.8-2.3 5.2q-2.25 2.1-5.7 2.1h-6.9c-.8 0-1.4-.1-1.9-.3q-.75-.3-1.2-.6c-.3-.2-.5-.6-.6-1-.1-.5-.2-.8-.2-1.1v-18.7c0-1.2.7-1.8 2.2-1.8s2.2.6 2.2 1.8v7.2zm0 10.3c0 .5.3.8 1 .8h5c2.6 0 3.9-1.3 3.9-3.8q0-3.9-3.9-3.9h-6zM373.538 174.258c1.5-.2 2.6-.6 3.5-1.2s1.7-1.5 2.4-2.6l1.1-1.9c.7-1.2 1.3-2.2 1.8-2.8.7-.7 1.5-1 2.5-.9 1.6.1 2.1.9 1.3 2.2-.6 1-1.1 1.7-1.4 2.2-.1.2-.3.4-.5.8-.2.3-.4.7-.6.9-.2.3-.3.5-.5.8-1.1 1.5-2.3 2.7-3.8 3.6 2.3.6 4 2.6 5.2 5.9q.75 2.25 1.8 4.2l.7 1.5c.5 1 .1 1.6-1.2 1.9q-1.8.3-2.4-.6c-.6-.7-1.4-2-2.2-4l-.5-1.3c-.8-2-1.7-3.5-2.6-4.3-1-.9-2.6-1.2-4.8-1.2v9.5c0 1.2-.7 1.8-2.2 1.8s-2.2-.6-2.2-1.8v-20.3c0-1.2.7-1.8 2.2-1.8s2.2.6 2.2 1.8v7.6zM405.538 165.357c1.1 0 1.6.5 1.6 1.6s-.5 1.7-1.6 1.7h-5.2v18.3q0 1.8-2.1 1.8c-1.4 0-2.2-.6-2.2-1.8v-18.3h-5.1c-1.1 0-1.6-.6-1.6-1.7s.5-1.6 1.6-1.6zM430.339 176.857q0 12-10.8 12c-7.2 0-10.9-4-10.9-12s3.6-12 10.9-12q10.8 0 10.8 12m-6-6.1c-1-1.3-2.6-2-4.8-2s-3.8.7-4.8 2-1.5 3.4-1.5 6.1.5 4.8 1.5 6.1 2.6 2 4.8 2 3.8-.7 4.8-2 1.6-3.4 1.6-6.1-.5-4.8-1.6-6.1M435.939 178.357q-1.8 0-1.8-1.8c0-1.2.6-1.9 1.8-1.9h9.1c1.2 0 1.8.6 1.8 1.9q0 1.8-1.8 1.8zM465.839 165.357c1.1 0 1.6.5 1.6 1.6s-.5 1.7-1.6 1.7h-5.2v18.3q0 1.8-2.1 1.8c-1.4 0-2.2-.6-2.2-1.8v-18.3h-5.1c-1.1 0-1.6-.6-1.6-1.7s.5-1.6 1.6-1.6zM490.638 176.857q0 12-10.8 12c-7.2 0-10.9-4-10.9-12s3.6-12 10.9-12q10.8 0 10.8 12m-6-6.1c-1-1.3-2.6-2-4.8-2s-3.8.7-4.8 2-1.5 3.4-1.5 6.1.5 4.8 1.5 6.1 2.6 2 4.8 2 3.8-.7 4.8-2 1.6-3.4 1.6-6.1-.6-4.8-1.6-6.1M517.238 180.858l-2.2-3.6-2.2-3.6-.6-1.2v14.6c0 1.2-.7 1.8-2 1.8s-2-.6-2-1.8v-20.3q0-1.8 2.4-1.8c1 0 1.9.5 2.6 1.6l6.4 10.7 6.4-10.7c.7-1.1 1.5-1.6 2.6-1.6 1.5 0 2.3.6 2.3 1.8v20.3c0 1.2-.7 1.8-2 1.8s-2-.6-2-1.8v-14.7l-.7 1.3-4.4 7.3c-.7 1.1-1.4 1.6-2.3 1.6-.8-.1-1.6-.6-2.3-1.7M557.438 176.857q0 12-10.8 12c-7.2 0-10.9-4-10.9-12s3.6-12 10.9-12q10.8 0 10.8 12m-6-6.1c-1-1.3-2.6-2-4.8-2s-3.8.7-4.8 2-1.5 3.4-1.5 6.1.5 4.8 1.5 6.1 2.6 2 4.8 2 3.8-.7 4.8-2 1.6-3.4 1.6-6.1-.6-4.8-1.6-6.1M576.338 174.257c2.1-.4 3.9-1.9 5.2-4.3l.2-.4c.1-.2.201-.4.201-.5.7-1.5 1.399-2.6 1.899-3.2.5-.7 1.4-1 2.5-.9.8.1 1.301.3 1.601.6s.199.9-.201 1.6c-.5.8-.999 1.5-1.299 2.3l-.901 1.8q-1.65 3-3.899 4.2c2.4.8 4.099 2.7 5.199 5.9.7 2.3 1.3 4.2 2 5.7.5 1 .1 1.6-1.1 1.9-1.2.1-2 0-2.5-.5-.7-.8-1.3-2.3-1.9-4.3l-.3-1.1c-.6-1.9-1.4-3.4-2.3-4.2-.9-.9-2.4-1.3-4.4-1.3v9.6q0 1.8-2.1 1.8t-2.099-1.8v-9.6c-1.9 0-3.401.4-4.401 1.4s-1.699 2.3-2.299 4.1l-.201.9c-.6 2.2-1.3 3.7-2 4.5q-.6.75-2.4.6c-1.3-.2-1.699-.9-1.199-1.9q.9-1.95 2.099-5.7c1-3.2 2.801-5.1 5.201-5.9q-2.4-1.2-3.901-4.2l-.7-1.4q-1.5-2.55-1.5-2.7c-.4-.7-.5-1.3-.3-1.6s.801-.6 1.601-.7c1.2-.1 2.099.2 2.599.9.5.8 1.101 1.8 1.701 2.9l.599 1.2c1.3 2.4 3 3.9 5.2 4.3v-7.5q0-1.8 2.1-1.8t2.101 1.8v7.5zM612.339 176.558c-.6.6-1.7.9-3.4.9h-12.4c0 .9.1 1.8.3 2.6s.5 1.7 1 2.6q.6 1.35 2.1 2.1c.9.5 2 .8 3.4.8.8 0 1.7-.2 2.7-.5.9-.3 1.7-.9 2.1-1.6.6-.9 1.4-1.3 2.5-1.2.8.1 1.3.4 1.5.8s.3.8.1 1.3c-.5 1.5-1.7 2.7-3.4 3.5s-3.6 1.2-5.6 1.2-3.7-.4-5.2-1.1-2.7-1.7-3.5-2.9c-.9-1.2-1.5-2.5-1.9-3.9s-.6-2.8-.6-4.3c0-1.6.2-3 .6-4.4s1-2.7 1.9-3.9 2-2.2 3.5-2.9 3.2-1.1 5.2-1.1c3.2 0 5.8 1 7.6 2.9 1.7 1.7 2.5 3.9 2.5 6.6-.1 1.1-.4 1.9-1 2.5m-4-2.3c.5 0 .7-.3.7-.7-.1-1.8-.6-3.1-1.6-4.1s-2.4-1.5-4.1-1.5c-1.8 0-3.3.6-4.5 1.9s-1.9 2.7-2 4.4zM631.938 165.357c1.1 0 1.6.5 1.6 1.6s-.5 1.7-1.6 1.7h-5.2v18.3q0 1.8-2.1 1.8c-1.4 0-2.2-.6-2.2-1.8v-18.3h-5.1c-1.1 0-1.6-.6-1.6-1.7s.5-1.6 1.6-1.6zM659.339 190.457q-.6 1.35-.9 2.1c-.2.5-.6 1.1-1.1 1.8q-.75 1.05-1.8 1.5c-.7.3-1.6.5-2.5.5-.6 0-1.2-.1-1.8-.2-.4-.1-.8-.3-1.1-.7s-.4-.9-.4-1.5c.1-1.3.9-1.7 2.4-1.3.8.1 1.5 0 1.9-.3s.8-1 1.1-1.8l1.1-3c-.9-2.3-2.3-5.7-4.1-10.2s-3.2-7.9-4.1-10.2c-.3-.6-.2-1.1.2-1.4s1-.5 1.8-.5c1.2 0 2 .5 2.5 1.6l5.3 13.4c.1.3.3.9.6 1.6.2-.6.4-1.2.6-1.6l5-13.4c.4-1.1 1.2-1.7 2.5-1.7.8 0 1.4.2 1.9.5s.6.8.3 1.4zM689.439 181.658c0 2.2-.8 4-2.5 5.3s-3.9 2-6.7 2a16 16 0 0 1-3.9-.5c-1.2-.4-2.4-1-3.4-1.9-1.1-.9-1.7-2.1-2-3.5-.1-.5.1-1 .3-1.3q.45-.6 1.8-.6c1.3 0 2 .5 2.1 1.6.1.6.3 1.1.7 1.5s.9.8 1.4 1 1.1.4 1.5.5c.5.1.9.1 1.3.1 1.5 0 2.7-.4 3.6-1.1s1.3-1.8 1.3-3.1c0-1-.4-1.8-1.1-2.4s-1.4-1-2.1-1.1-1.4-.2-2.2-.2h-.7c-1.1 0-1.7-.6-1.7-1.7s.6-1.6 1.9-1.6c3.5 0 5.2-1.2 5.2-3.5 0-1-.4-1.8-1.1-2.4q-1.2-.9-3-.9c-3.1 0-4.7.9-4.9 2.8-.1.8-.7 1.3-1.8 1.3-.9 0-1.5-.2-1.9-.7-.2-.3-.3-.6-.3-1 .2-1.9 1.2-3.3 3-4.3s3.7-1.4 5.9-1.4c1.4 0 2.8.2 4 .6s2.3 1.1 3.2 2.1 1.4 2.2 1.4 3.7c0 2.3-1.3 4-3.9 5.2 3.1.9 4.6 2.8 4.6 5.5M698.539 174.658h9.9v-7.9c0-1.2.7-1.8 2.2-1.8 1.4 0 2.2.6 2.2 1.8v20.3c0 1.2-.7 1.8-2.2 1.8-1.4 0-2.2-.6-2.2-1.8v-9.1h-9.9v9.1c0 1.2-.7 1.8-2.2 1.8-1.4 0-2.2-.6-2.2-1.8v-20.3c0-1.2.7-1.8 2.2-1.8 1.4 0 2.2.6 2.2 1.8zM733.239 185.158q-2.7 3.9-8.1 3.9c-2.3 0-4.3-.6-5.8-1.9-1.5-1.2-2.3-3-2.3-5.2 0-5.4 4.4-8.1 13.3-8.1h2.8c0-1.4-.1-2.6-.4-3.5-.6-1.6-2.4-2.4-5.3-2.4-2 0-3.7.5-5.1 1.6-.4.3-.9.5-1.3.5-.5 0-1-.2-1.5-.5s-.7-.7-.7-1.2.3-1 1-1.5c1.8-1.4 4.6-2.1 8.3-2.1 3.3 0 5.8.8 7.2 2.3 1.5 1.5 2.2 3.9 2.2 7.1v9.5c0 1.1.1 2.1.2 2.8.1 1.2-.4 1.9-1.6 2-1.5.1-2.3-.4-2.6-1.5q-.3-1.5-.3-1.8m0-8c-1.3-.1-2.4-.1-3.1-.1-1 0-2 .1-2.9.2s-1.8.4-2.7.7-1.6.9-2.1 1.6-.8 1.6-.8 2.5q0 1.8 1.2 2.7c.8.6 1.8 1 3 1 2.2 0 3.9-.7 5.3-2.2 1.7-1.6 2.4-3.8 2.1-6.4M756.038 165.357c1.1 0 1.6.5 1.6 1.6s-.5 1.7-1.6 1.7h-5.2v18.3q0 1.8-2.1 1.8c-1.4 0-2.2-.6-2.2-1.8v-18.3h-5.1c-1.1 0-1.6-.6-1.6-1.7s.5-1.6 1.6-1.6zM765.739 173.958h6.7c2.4 0 4.4.7 5.8 2s2.1 3 2.1 5.2c0 2.1-.8 3.8-2.3 5.2q-2.25 2.1-5.7 2.1h-6.9c-.8 0-1.4-.1-1.9-.3q-.75-.3-1.2-.6c-.3-.2-.5-.6-.6-1-.1-.5-.2-.8-.2-1.1v-18.7c0-1.2.7-1.8 2.2-1.8s2.2.6 2.2 1.8v7.2zm0 10.3c0 .5.3.8 1 .8h5c2.6 0 3.9-1.3 3.9-3.8q0-3.9-3.9-3.9h-6zM816.638 187.058c0 1.2-.7 1.8-2.2 1.8-1.4 0-2.2-.6-2.2-1.8v-14.9c-.3.4-.6.9-1 1.5l-.5.8-9.4 13.6c-.4.5-1.1.8-1.9.8-1.4 0-2.2-.6-2.2-1.8v-20.3c0-1.2.7-1.8 2.2-1.8s2.2.6 2.2 1.8v15.1c.1-.1.6-1 1.6-2.6l9.3-13.5c.3-.5 1-.7 1.9-.7 1.4 0 2.2.6 2.2 1.8zM828.238 183.758q.6.75.6 2.1c0 1-.2 1.7-.6 2.2s-1.2.8-2.4.8-2-.3-2.4-.8-.6-1.2-.6-2.2q0-1.5.6-2.1c.4-.4 1.2-.7 2.4-.7 1.1 0 1.9.2 2.4.7M840.439 183.758q.6.75.6 2.1c0 1-.2 1.7-.6 2.2s-1.2.8-2.4.8-2-.3-2.4-.8-.6-1.2-.6-2.2q0-1.5.6-2.1c.4-.4 1.2-.7 2.4-.7s2 .2 2.4.7M852.738 183.758q.6.75.6 2.1c0 1-.2 1.7-.6 2.2s-1.2.8-2.4.8-2-.3-2.4-.8-.7-1.2-.7-2.2.2-1.7.7-2.1c.4-.5 1.2-.7 2.4-.7 1.1 0 2 .2 2.4.7"></path></svg>