<svg xmlns="http://www.w3.org/2000/svg" xml:space="preserve" id="949b7bde-4322-48be-8266-1f2aa8571efeLayer_1_1_" x="0" y="0" viewBox="0 0 1000 927"><style>.st3{fill:#fff}.st4{fill:#ff6900}.st5{fill:#211f1f}.st17{stroke:#211f1f;stroke-miterlimit:10}.st17,.st18,.st19{fill:none;stroke-width:3.3326;stroke-linecap:round;stroke-linejoin:round}.st18{stroke:#fff;stroke-miterlimit:10}.st19{stroke:#231f20}</style><path d="M896 746.3c-6.3-6.5-40.2-8.1-60.5 1.5 0 0 8.7-26.4 29.1-28.8 11.4-1.3 21.7 7.3 31.4 27.3" class="st4"></path><path d="M774.4 914c-4.2-40.9 17.1-123.4 34.8-150.5 0 0-55.4-120-81.9-98.5 0 0 12.2-21.3 26.5-21.5 23.8-.3 71 100.6 71 100.6l2.3-12.7s11.9-14.8 21.5-19.8c24.9-12.9 45 10.9 45 10.9l9.8 21.7s12.6-80.5-9.5-103.4c18.8 7.1 28.7 14.2 28.7 14.2 11.6 26.6-13 77.5-4.1 99 10.5 25.4 21 95.3 21 95.3 2 1.2 3.5 2.3 4.5 3.4 6.9 7.4 11.9 38.5 8.7 61.5-.2 1.7-.9 5.1-.9 5.1l-176.8.3zm159.5-67.5c-5.8-19.4-45.9-14.7-57.9-6.5-12 8.3-36.3 26.7-35.5 76.8 29.3-85.2 73-78.2 93.4-70.3M827.9 603.1c-8.8 1.6-20 1.8-30.1-3.1-16.7-8-20-11.7-33.2-24.5 29.7-14.5 38.1-41.6 28.6-46.2-9.5-4.5-15.4 7.7-15.4 7.7s-20.8-13.5-29.6-15.5c-8.8-1.9-21.9-5-31.4-7.2-30.6-7-21.7-52.3 16.2-61.9 16-4 48-25.2 84.5-18.7 35.6 5.8 63.2 37.8 67.8 63.2 11.2 24.1 10.4 18.4 9.8 29.1-1.4 22.6 19.6 33.7 19.6 33.7s-36.6 26-47.5 23.4-20 13.6-28.3 16.9c-2.9 1.2-6.7 2.3-11 3.1" class="st5"></path><path d="M951.7 919.1c3.1-23-1-59.2-7.9-66.6-1-1.1-2.5-2.3-4.5-3.4 0 0-10.5-69.8-21-95.3-8.9-21.5 15.7-72.4 4.1-99 16.8 19.8 64.4 49 71.9 203 1 24.4-8.4 48.7-17.3 61.2M868.8 650.6s-1.7-14-4.2-15.8c-14.2-.3-42.6 6.1-42.6 6.1s2.6 8.5 5.6 16.1c6.4 0 41.2-6.4 41.2-6.4m25.1-9.9c22.1 23 9.5 103.4 9.5 103.4l-9.8-21.7s-20.2-23.7-45-10.9c-9.7 5-21.5 19.8-21.5 19.8l-2.2 12.7s-47.2-100.9-71-100.6c15.8-13.5 110.8-22.9 110.8-22.9 11.3 2.7 21.1 17.1 29.2 20.2M774.9 919.4l-117-.2c-3.7-147.1 25.1-171.5 34.6-205.8 9.7-34.7 34.8-48.3 34.8-48.3 26.5-21.5 81.9 98.5 81.9 98.5-17.8 27-38.7 109.5-34.8 150.5" class="st4"></path><path d="M708.3 512.7c-3.3 12-.2 22.4 0 28.2 1.4 8.5-4.5 17.4.2 37.3 1 4.4 12.1 34.9 22.3 36.6 10.4 1.7 26.7-5.6 26.7-5.6m59.3-16.3c.8 9.5 9.4 18.1 9.4 18.1m-86.5-91.1c8.7 1.9 29.5 15.4 29.5 15.4s5.9-12.2 15.4-7.7 1.1 31.6-28.5 46.1c13.2 12.7 16.5 16.4 33.1 24.4 15 7.2 32.5 3.3 40.7 0s24.6-3.8 35.7-5.2c25.7-3.2 39.8-34.9 39.8-34.9s-20.9-11.1-19.5-33.6c.7-10.7 1.4-5-9.7-29-4.5-25.3-32.1-57.3-67.6-63-36.4-6.5-68.3 14.7-84.2 18.7-37.7 9.6-46.7 54.7-16.1 61.7 9.6 2.1 22.6 5.1 31.4 7.1m27.2 399c-7.7-37.3 14.7-128.9 33.6-157.7 0 0-55.2-119.8-81.6-98.3m194.6-10.1c11.5 26.5-13 77.3-4.1 98.7 10.5 25.4 20.9 83 20.9 83m-74.6-215.9c37.7 8.4 57.8 34.2 57.8 34.2 16.8 19.8 64.2 48.9 71.7 202.6 1.5 37.3-6.3 63.2-6.3 63.2m-329.1-2.8C645.4 765 674.6 745.7 684.2 711s34.7-48.2 34.7-48.2 12.2-21.2 26.4-21.4C769 641 816 741.8 816 741.8l2.2-12.7s11.8-14.8 21.5-19.8c24.8-12.9 44.9 10.8 44.9 10.8l9.7 21.6s12.6-81-9.7-103.5m-127.5-32c1.1 8.9 5.6 17.3 5.6 17.3s16.3-17.5 63.4-12.4l29.6 7.5S761 628 745.3 641.4l17.4-17.9" class="st17"></path><path d="m348.8 500-23.4-13c-2.3-1.6-4.8-3-7.4-4.1l-.3-.2c-5.4-2.3-11.4-3.6-17.7-3.6-23.7 0-42.9 18.1-42.9 40.3 0 22.3 19.2 40.4 42.9 40.4s42.9-18.1 42.9-40.4c0-6.7-1.8-13-4.8-18.5z" class="st5"></path><path d="m397.8 503.6-25.1-17.3c-4-2.5-7.1-4.1-11-3.8l-101.8 8.9c-6.4.6-11.5 5.6-12.1 12l-6.4 60.1c-.6 6 2.7 11.3 7.6 13.6l24.5 17 16-18.7 68.1-5.9c6.4-.6 11.5-5.6 12.1-12l4-37.4z" class="st5"></path><path d="m325.1 486.1-54.7 4.8m-28.6 72.4c-.6 5.9 2.7 11.2 7.6 13.5l24.4 16.9 15.9-18.6 67.7-5.9c6.3-.5 11.4-5.5 12.1-11.9l4-37.1" class="st18"></path><path d="M384.7 588.1 282.9 597c-8.4.7-15.4-6.4-14.5-14.8l6.4-60.1c.7-6.4 5.8-11.4 12.1-12l101.8-8.9c8.4-.7 15.4 6.4 14.5 14.8l-6.4 60.1c-.7 6.4-5.8 11.4-12.1 12" class="st5"></path><path d="m348.6 505.3 14.8-1.3m10.6-1.2 9.3-.8m-109.4 91.7c-3.4-2.7-5.5-7.1-5-11.9l6.4-59.6c.7-6.3 5.7-11.3 12.1-11.9l48.5-4.2" class="st18"></path><path d="m362.2 576.1-67.2 5.5c-4.5.4-8.3-3.5-7.8-8l3.5-32.5c.4-3.5 3.1-6.2 6.6-6.5l67.2-5.5c4.5-.4 8.3 3.5 7.8 8l-3.5 32.5c-.4 3.5-3.1 6.2-6.6 6.5" class="st3"></path><path d="m361.9 575.8-66.5 5.4c-4.5.4-8.2-3.4-7.7-7.9l3.4-32c.4-3.4 3.1-6.1 6.5-6.4l66.5-5.4c4.5-.4 8.2 3.4 7.7 7.9l-3.4 32c-.4 3.4-3.1 6.1-6.5 6.4" class="st17"></path><path d="m393.8 520.9-14.5 1.3c-1.2.1-2.2-.9-2.1-2.1l.9-8.6c.1-.9.8-1.6 1.7-1.7l14.5-1.3c1.2-.1 2.2.9 2.1 2.1l-.9 8.6c-.1.9-.8 1.6-1.7 1.7" class="st3"></path><path d="m393.4 520.5-13.8 1.2c-1.1.1-2.1-.9-2-2l.9-8c.1-.9.8-1.5 1.6-1.6l13.8-1.2c1.1-.1 2.1.9 2 2l-.9 8c0 .9-.7 1.5-1.6 1.6" class="st17"></path><path d="M435.5 520.8c1.3-26.9 20.7-77.6 90-63.6s65.5 73 53.5 105.7-60 72-65.3 74.5c-5.3 2.4 4.1 35.7 4.1 35.7l-74.1 13.1s5.6-45.1 7.2-55.6c0 0-26.1-1.8-29.9-9.1-3.9-7.3 1.4-56.9 2-70.6.3-10.3 12-21.8 12.5-30.1" class="st3"></path><path d="M452.5 673.8s-4.3-31.2-1.5-43.6c0 0-25.9-1.8-29.8-9.1-3.8-7.3 1.4-56.7 2-70.4.5-10.1 12.1-21.6 12.5-29.9 1.3-26.8 20.6-77.3 89.5-63.4 68.9 14 65.1 72.7 53.2 105.2-11.9 32.6-59.7 71.7-65 74.2-5.3 2.4 4 35.6 4 35.6" class="st17"></path><path d="M430.3 441.1c-11.3 12.8 1.1 44.1 39.4 50 0 0-6.5 40.7-8.5 48.9l6.7 3.4s17.4-31.3 28.4-26.1c15.2 7.1 4.8 49.5-32.3 59.9 0 0 13.1 48.1 49.6 60 0 0 119.6-76 85.6-130.3 37.7-7.5-19.7-66.6-66.2-69.2-49.5-2.7-77.1 3.8-102.7 3.4" class="st4"></path><path d="M424 460.7c-3-.1 10.5 33.6 51.7 34.1 0 0-11.5 36.4-13.4 44.2l6.7 3.3s10-23.3 20.2-17-9.1 48.1-25 51.8c0 0 11.3 44.4 49.3 59.7 0 0 107.7-74.8 85.1-129.8 29.9-5.9-26.1-82.9-75.4-75.5-48.6 7.3-73.8 29.7-99.2 29.2" class="st17"></path><path d="M314.5 825.6s-79.7 36-90.9 13.7c-11.7-23.4-4.7-212.1-1.1-218s-2.9-25.9-7.4-32.6c-4.5-6.6 2.5-19.1 3.5-25.4s5.4-14.5 5.4-14.5-.7-9.6-.6-14.4c.2-4.8 21.9-31 21.9-31s-4 36.9-4.5 37.8c-2.3 4 7.2 29.2 23.1 24.6 3-.9 21.6-39.2 28.5-37.1 7 2 2.4 23.8-5.3 39.4-3.1 6.2-.6 17.7-4.4 28.8-3.8 11.2-18.9 29.3-22.9 36.7-16.5 30.4 4.1 144.9 4.1 144.9 11.9 2.5 29.1-11.2 29.1-11.2" class="st3"></path><path d="M332.6 812.5s-97.5 48.6-108.6 26.3c-11.6-23.3-5.4-204.2-6.2-211.1-1.4-12.6-9.9-55.4-8.9-61.6 1-6.3 7.5-16.8 7.5-16.8s7.3-9.9 7.5-14.6c.2-4.8 24-30.9 24-30.9m-10.6 33.7c3 8.5 15.8 31.8 26.8 28.6 3-.9 21.4-39.1 28.3-37 6.9 2 2.4 23.8-5.3 39.3-3.1 6.2-.6 17.6-4.3 28.8-3.8 11.1-18.8 19.9-22.8 27.3-16.3 30.3 11 143.2 11 143.2 11.9 2.5 42.3-17.9 42.3-17.9" class="st17"></path><path d="M395 593.4c-10.3-9.3-11.3-65.4-11.3-65.4 6.7-9.3 22.5 34.7 22.5 34.7" class="st3"></path><path d="M395 590.5c-9.9-9.2-10.8-62.1-10.8-62.1 6.4-9.2 21.6 34.2 21.6 34.2" class="st17"></path><path d="M388.8 484.4c-8 .3-29 11.1-29 11.1 3.1 7.8 28.6 1.4 28.6 1.4" class="st3"></path><path d="M377.4 588.7s15.6 10.3 21.8 12.1c6.2 1.7 27.3 79.2 27.3 79.2M422 555.5s-4.4-17.6-5.3-33.6c-.9-15.9-19.9-37.3-27.8-37.1m0 .1c-7.9.3-28.6 11.1-28.6 11.1 3.1 7.8 30.6 1.4 30.6 1.4" class="st17"></path><path d="M533.3 677.4c26.1 7 43.9 21.3 58.8 39.7 21.7 27 7.6 110.5 2.9 148.8-7.4 59.1-15.2 54.2-15.2 54.2l-218.9-3.6c9.1-52 8.7-95.7 8.7-95.7l-57.2 31.6c-42.3-7.2-36.5-84.7-36.5-84.7s68.5-56 85.2-69c19.6-15.3 44.6-17.9 78.6-24.4 3.3 11.9 48.1 15.5 68.6 14.1 20.5-1.2 25-11 25-11" class="st5"></path><path d="M452.2 672.3c-7.7 3.1-20.8 7.8-20.8 7.8m111.2 2.3c-12-3.2-26.2-12.7-26.2-12.7" class="st17"></path><path d="m3.5 917.1 2.1.1M62.5 917.2l880 1.3M13.8 917.1l30.6.2M995.4 918.5l2.5.1M965 918.4l16.8.2" class="st19"></path></svg>