<svg xmlns="http://www.w3.org/2000/svg" width="1001" height="863" fill="none" viewBox="0 0 1001 863"><path fill="#FDF2E8" d="M278.355 139.157c0-33.7-.1-33.7-.1-33.7 0-8.8 30.4 29.4 30.4 29.4-.3 26.2-25.3 47.4-51.4 47.4-5.6 0-11-1-16.1-2.9 18.6-1.6 37.8-21.1 37.2-40.2"></path><path fill="#FDF2E8" d="M334.556 23.057s-56.5 0-56.5 56.5v46.1s0 56.5 56.5 56.5h559.2s56.5 0 56.5-56.5v-46.1s0-56.5-56.5-56.5z"></path><path fill="#FF6900" d="m325.156 73.456-5.7-10c-.2-.3-.4-.8-.7-1.4v21.7c0 1.3-.7 1.9-2.2 1.9-1.4 0-2.1-.6-2.1-1.9v-27.5c0-1.3.8-1.9 2.4-1.9.7 0 1.3.1 1.7.4s.8.7 1.2 1.4l8 13.9 7.9-13.9c.7-1.2 1.6-1.8 2.9-1.8 1.6 0 2.4.6 2.4 1.9v27.5c0 1.3-.7 1.9-2.1 1.9-1.5 0-2.2-.6-2.2-1.9v-21.6l-.7 1.4-5.7 10c-.7 1.2-1.5 1.7-2.4 1.7-1.2-.1-2-.7-2.7-1.8M351.356 71.657h9.9v-7.9c0-1.2.7-1.8 2.2-1.8s2.2.6 2.2 1.8v20.3c0 1.2-.7 1.8-2.2 1.8s-2.2-.6-2.2-1.8v-9h-9.9v9c0 1.2-.7 1.8-2.2 1.8s-2.2-.6-2.2-1.8v-20.3c0-1.2.7-1.8 2.2-1.8s2.2.6 2.2 1.8zM390.756 73.557q-.9.9-3.3.9h-12.4c0 .9.1 1.8.3 2.6s.5 1.7 1 2.5q.6 1.35 2.1 2.1c1 .5 2 .8 3.4.8.8 0 1.7-.2 2.7-.5.9-.3 1.6-.9 2.1-1.6.6-.9 1.4-1.3 2.5-1.2.7.1 1.3.4 1.5.8s.3.8.1 1.3c-.5 1.5-1.7 2.7-3.4 3.5-1.8.8-3.6 1.2-5.6 1.2s-3.7-.4-5.2-1.1-2.7-1.7-3.5-2.9c-.9-1.2-1.5-2.5-1.9-3.8-.4-1.4-.6-2.8-.6-4.3 0-1.6.2-3 .6-4.4s1-2.7 1.9-3.9c.8-1.2 2-2.1 3.5-2.9 1.5-.7 3.2-1.1 5.2-1.1 3.2 0 5.8 1 7.6 2.9 1.7 1.7 2.5 3.9 2.5 6.6-.3 1.1-.6 1.9-1.1 2.5m-4.1-2.3c.5 0 .7-.3.7-.7-.1-1.8-.6-3.1-1.6-4.1s-2.4-1.5-4.1-1.5c-1.8 0-3.3.6-4.5 1.9s-1.9 2.7-2 4.4zM413.556 71.657h9.9v-7.9c0-1.2.7-1.8 2.2-1.8 1.4 0 2.2.6 2.2 1.8v20.3c0 1.2-.7 1.8-2.2 1.8-1.4 0-2.2-.6-2.2-1.8v-9h-9.9v9c0 1.2-.7 1.8-2.2 1.8s-2.2-.6-2.2-1.8v-20.3c0-1.2.7-1.8 2.2-1.8s2.2.6 2.2 1.8zM452.955 73.557q-.9.9-3.3.9h-12.4c0 .9.1 1.8.3 2.6s.5 1.7 1 2.5q.6 1.35 2.1 2.1c1 .5 2 .8 3.4.8.8 0 1.7-.2 2.7-.5.9-.3 1.6-.9 2.1-1.6.6-.9 1.4-1.3 2.5-1.2.8.1 1.3.4 1.5.8s.3.8.1 1.3c-.5 1.5-1.7 2.7-3.4 3.5s-3.6 1.2-5.6 1.2-3.7-.4-5.2-1.1-2.7-1.7-3.5-2.9c-.9-1.2-1.5-2.5-1.9-3.8-.4-1.4-.6-2.8-.6-4.3 0-1.6.2-3 .6-4.4s1-2.7 1.9-3.9c.8-1.2 2-2.1 3.5-2.9 1.5-.7 3.2-1.1 5.2-1.1 3.2 0 5.8 1 7.6 2.9 1.7 1.7 2.5 3.9 2.5 6.6-.2 1.1-.5 1.9-1.1 2.5m-4-2.3c.5 0 .7-.3.7-.7-.1-1.8-.6-3.1-1.6-4.1s-2.4-1.5-4.1-1.5c-1.8 0-3.3.6-4.5 1.9s-1.9 2.7-2 4.4zM488.456 62.756c.6.2 1 .6 1.2 1.1s.4.9.4 1.3.1.9.1 1.6v17.3q0 1.8-2.1 1.8c-1.4 0-2.2-.6-2.2-1.8v-17.6c0-.5-.3-.8-1-.8h-8c-.4 0-.6.1-.8.2s-.2.3-.2.6v17.5q0 1.8-2.1 1.8c-1.4 0-2.2-.6-2.2-1.8v-17.2c0-.7 0-1.2.1-1.6 0-.4.2-.8.4-1.3s.6-.8 1.2-1.1 1.3-.3 2.2-.3h10.7c1-.1 1.8 0 2.3.3M516.656 73.856c0 8-3.6 11.9-10.8 11.9s-10.8-4-10.8-11.9q0-12 10.8-12t10.8 12m-6-6.1c-1-1.3-2.6-2-4.8-2s-3.8.7-4.8 2-1.5 3.3-1.5 6.1.5 4.8 1.5 6.1 2.6 2 4.8 2 3.8-.7 4.8-2 1.6-3.3 1.6-6.1-.6-4.8-1.6-6.1M525.656 71.257c1.5-.2 2.6-.6 3.5-1.2s1.7-1.5 2.4-2.6l1.1-1.9c.7-1.2 1.3-2.2 1.8-2.8.7-.7 1.5-1 2.5-.9 1.6.1 2.1.9 1.3 2.2-.6 1-1.1 1.7-1.4 2.2-.1.2-.3.4-.5.8q-.3.6-.6.9c-.2.3-.3.5-.5.8-1.1 1.5-2.3 2.7-3.8 3.5 2.2.6 4 2.6 5.2 5.9.5 1.5 1.1 2.9 1.8 4.1l.7 1.5c.5 1 .1 1.6-1.2 1.9q-1.8.3-2.4-.6c-.6-.7-1.4-2-2.2-4l-.5-1.3c-.8-2-1.6-3.5-2.6-4.3-1-.9-2.6-1.2-4.8-1.2v9.5c0 1.2-.7 1.8-2.2 1.8s-2.2-.6-2.2-1.8v-20c0-1.2.7-1.8 2.2-1.8s2.2.6 2.2 1.8v7.5zM557.455 82.157c-1.8 2.6-4.5 3.8-8 3.8-2.3 0-4.3-.6-5.8-1.9-1.5-1.2-2.3-3-2.3-5.2 0-5.4 4.4-8.1 13.3-8.1h2.8c0-1.4-.1-2.6-.4-3.5-.6-1.6-2.4-2.4-5.3-2.4-2 0-3.7.5-5.1 1.6-.4.3-.8.5-1.3.5s-1-.2-1.5-.5-.7-.7-.7-1.2.3-1 1-1.5c1.8-1.4 4.6-2.1 8.3-2.1 3.3 0 5.7.8 7.2 2.3s2.2 3.9 2.2 7.1v9.5c0 1.1.1 2 .2 2.8.1 1.2-.4 1.9-1.6 2-1.5.1-2.3-.4-2.5-1.5-.4-1-.5-1.6-.5-1.7m0-8.1c-1.3-.1-2.4-.1-3.1-.1-1 0-2 .1-2.9.2s-1.8.4-2.7.7-1.6.9-2.1 1.6-.8 1.5-.8 2.5q0 1.8 1.2 2.7c.8.6 1.8 1 3 1 2.2 0 3.9-.7 5.3-2.2 1.7-1.5 2.3-3.7 2.1-6.4M584.455 78.657c0 2.2-.8 4-2.5 5.3s-3.9 2-6.7 2a16 16 0 0 1-3.9-.5c-1.2-.4-2.4-1-3.4-1.9s-1.7-2.1-2-3.5c-.1-.5.1-1 .3-1.3q.45-.6 1.8-.6c1.3 0 2 .5 2.1 1.6.1.6.3 1.1.7 1.5s.9.8 1.4 1 1.1.4 1.5.5c.5.1.9.1 1.3.1 1.5 0 2.7-.4 3.6-1.1s1.3-1.8 1.3-3.1c0-1-.4-1.8-1.1-2.4s-1.4-1-2.1-1.1-1.4-.2-2.2-.2h-.7c-1.1 0-1.7-.6-1.7-1.7s.6-1.6 1.9-1.6c3.5 0 5.2-1.2 5.2-3.5 0-1-.4-1.8-1.1-2.4s-1.8-.9-3-.9c-3.1 0-4.7.9-4.9 2.8-.1.8-.7 1.3-1.8 1.3-.9 0-1.5-.2-1.9-.7-.2-.3-.3-.6-.3-1 .2-1.9 1.2-3.3 3-4.3 1.8-.9 3.7-1.4 5.9-1.4 1.4 0 2.8.2 4 .6s2.3 1.1 3.2 2.1 1.4 2.2 1.4 3.7c0 2.2-1.3 4-3.9 5.2 3.1.9 4.6 2.7 4.6 5.5M603.455 82.157c-1.8 2.6-4.5 3.8-8 3.8-2.3 0-4.3-.6-5.8-1.9-1.5-1.2-2.3-3-2.3-5.2 0-5.4 4.4-8.1 13.3-8.1h2.8c0-1.4-.1-2.6-.4-3.5-.6-1.6-2.4-2.4-5.3-2.4-2 0-3.7.5-5.1 1.6-.4.3-.8.5-1.3.5s-1-.2-1.5-.5-.7-.7-.7-1.2.3-1 1-1.5c1.8-1.4 4.6-2.1 8.3-2.1 3.3 0 5.7.8 7.2 2.3s2.2 3.9 2.2 7.1v9.5c0 1.1.1 2 .2 2.8.1 1.2-.4 1.9-1.6 2-1.5.1-2.3-.4-2.5-1.5-.4-1-.5-1.6-.5-1.7m0-8.1c-1.3-.1-2.4-.1-3.1-.1-1 0-2 .1-2.9.2s-1.8.4-2.7.7-1.6.9-2.1 1.6-.8 1.5-.8 2.5q0 1.8 1.2 2.7c.8.6 1.8 1 3 1 2.2 0 3.9-.7 5.3-2.2 1.6-1.5 2.3-3.7 2.1-6.4M626.856 62.356c.7 0 1.4.1 1.9.3q.75.3 1.2.6c.3.2.5.6.6 1 .1.5.2.8.2 1.1v18.6c0 1.2-.7 1.8-2.2 1.8q-2.1 0-2.1-1.8v-17.4c0-.5-.3-.8-1-.8h-4.6c-.7 0-1.2.3-1.2 1l-.2 2.2c-.4 5.1-.7 8.6-.9 10.3-.3 2.2-.9 3.8-1.8 4.9q-1.35 1.65-4.2 1.5c-.7 0-1.2-.2-1.6-.5-.3-.3-.5-.7-.5-1.1.1-1.2.6-1.8 1.6-1.8.9 0 1.5-.3 1.7-.7.3-.5.5-1.2.6-2.3v-.4c.2-1.2.5-3.9.8-8.2q.15-2.55.3-3.3c0-.6.1-1 .1-1.4 0-.3.2-.7.3-1.3.2-.5.4-.9.7-1.2s.7-.5 1.2-.8c.5-.2 1.2-.3 1.9-.3zM657.256 73.856c0 8-3.6 11.9-10.8 11.9s-10.8-4-10.8-11.9q0-12 10.8-12t10.8 12m-6-6.1c-1-1.3-2.6-2-4.8-2s-3.8.7-4.8 2-1.5 3.3-1.5 6.1.5 4.8 1.5 6.1 2.6 2 4.8 2 3.8-.7 4.8-2 1.6-3.3 1.6-6.1-.6-4.8-1.6-6.1M679.256 79.556c.3.3.3.8.3 1.6-.3 1.1-1.1 2.1-2.6 3.1s-3.3 1.5-5.6 1.5c-7.2 0-10.8-4-10.8-11.9q0-12 10.8-12c2.1 0 4 .5 5.5 1.5 1.6 1 2.5 2.2 2.8 3.5.1.7.1 1.2-.2 1.5-.2.3-.7.6-1.4.6h-.2c-1.2 0-2-.5-2.2-1.4-.7-1.7-2.1-2.5-4.2-2.5q-6.3 0-6.3 8.7t6.3 8.7c1.9 0 3.2-.7 4.1-2.2.6-1 1.4-1.5 2.4-1.3.6.1 1 .3 1.3.6M689.455 70.957h6.7c2.4 0 4.3.7 5.8 2 1.4 1.3 2.1 3 2.1 5.2 0 2.1-.8 3.8-2.3 5.2q-2.25 2.1-5.7 2.1h-6.9c-.8 0-1.4-.1-1.9-.3q-.75-.3-1.2-.6c-.3-.2-.5-.6-.6-1-.1-.5-.2-.8-.2-1.1v-18.7c0-1.2.7-1.8 2.2-1.8s2.2.6 2.2 1.8v7.2zm0 10.3c0 .5.3.8 1 .8h5c2.6 0 3.9-1.3 3.9-3.8q0-3.9-3.9-3.9h-6zM722.155 56.557c2 1.7 2.9 3.7 2.9 6.2 0 1.3-.5 2.7-1.4 4-1 1.4-2.1 2.5-3.3 3.5-1.2.9-2 1.7-2.3 2.5-.3.7-.5 2-.7 3.9 0 .3-.2.6-.5.8s-.7.3-1.1.3c-.5 0-.9-.1-1.3-.3s-.5-.5-.5-1c-.1-2.3.1-4 .6-5.2s1.6-2.6 3.3-4.3q.9-.9 1.5-2.1t.6-2.1c0-1.5-.4-2.8-1.2-3.7-.8-1-1.9-1.4-3.2-1.4-1.2 0-2.3.4-3.2 1.1s-1.3 1.6-1.4 2.5c0 .6-.2 1.1-.6 1.6-.3.5-.9.8-1.8.8h-.1c-.7 0-1.2-.2-1.6-.7q-.6-.6-.6-1.8c0-1.8.9-3.5 2.7-4.9s4-2.2 6.7-2.2c2.3 0 4.5.8 6.5 2.5m-4.2 24.4c.4.5.6 1.1.6 2 0 .4 0 .7-.1 1s-.2.6-.4.9-.5.5-.9.7-.9.2-1.5.2c-1.2 0-1.9-.3-2.3-.8q-.6-.75-.6-2.1c0-1.8 1-2.7 2.9-2.7 1.2 0 1.9.3 2.3.8M762.156 54.557c1.3 0 1.9.7 1.9 2s-.6 1.9-1.9 1.9h-7v25.4c0 1.3-.8 1.9-2.3 1.9-1.6 0-2.3-.6-2.3-1.9v-25.4h-7c-1.3 0-1.9-.6-1.9-1.9s.6-2 1.9-2zM768.656 70.957h6.7c2.4 0 4.4.7 5.8 2s2.1 3 2.1 5.2c0 2.1-.8 3.8-2.3 5.2q-2.25 2.1-5.7 2.1h-6.9c-.9 0-1.7-.1-2.2-.3s-1-.6-1.2-1.1-.4-.9-.4-1.3-.1-.9-.1-1.6v-17.4c0-1.2.7-1.8 2.2-1.8q2.1 0 2.1 1.8v7.2zm0 10.3c0 .3.1.6.2.6.2.1.4.1.8.1h5c1.3 0 2.2-.3 2.9-1s1-1.6 1-2.8q0-3.9-3.9-3.9h-6zm20.9 2.8c0 1.2-.7 1.8-2.2 1.8q-2.1 0-2.1-1.8v-20.3q0-1.8 2.1-1.8c1.4 0 2.2.6 2.2 1.8zM817.656 77.857l-2.2-3.6-2.2-3.6-.6-1.2v14.6c0 1.2-.7 1.8-2 1.8s-2-.6-2-1.8v-20.3q0-1.8 2.4-1.8c1 0 1.9.5 2.6 1.6l6.4 10.7 6.4-10.7c.7-1.1 1.5-1.6 2.6-1.6 1.5 0 2.3.6 2.3 1.8v20.2c0 1.2-.7 1.8-2 1.8s-2-.6-2-1.8v-14.6l-.6 1.3-4.4 7.3c-.7 1.1-1.4 1.6-2.3 1.6-1-.1-1.8-.6-2.4-1.7M856.355 73.557q-.9.9-3.3.9h-12.4c0 .9.1 1.8.3 2.6s.5 1.7 1 2.5q.6 1.35 2.1 2.1c1 .5 2 .8 3.4.8.8 0 1.7-.2 2.7-.5.9-.3 1.6-.9 2.1-1.6.6-.9 1.4-1.3 2.5-1.2.7.1 1.3.4 1.5.8s.3.8.1 1.3c-.5 1.5-1.7 2.7-3.4 3.5s-3.6 1.2-5.6 1.2-3.7-.4-5.2-1.1-2.7-1.7-3.5-2.9-1.5-2.5-1.9-3.8c-.4-1.4-.6-2.8-.6-4.3 0-1.6.2-3 .6-4.4s1-2.7 1.9-3.9c.8-1.2 2-2.1 3.5-2.9 1.5-.7 3.2-1.1 5.2-1.1 3.2 0 5.8 1 7.6 2.9 1.7 1.7 2.5 3.9 2.5 6.6-.2 1.1-.5 1.9-1.1 2.5m-4-2.3c.5 0 .7-.3.7-.7-.1-1.8-.6-3.1-1.6-4.1s-2.4-1.5-4.1-1.5c-1.8 0-3.3.6-4.5 1.9s-1.9 2.7-2 4.4zM866.456 71.657h9.9v-7.9c0-1.2.7-1.8 2.2-1.8 1.4 0 2.2.6 2.2 1.8v20.3c0 1.2-.7 1.8-2.2 1.8-1.4 0-2.2-.6-2.2-1.8v-9h-9.9v9c0 1.2-.7 1.8-2.2 1.8s-2.2-.6-2.2-1.8v-20.3c0-1.2.7-1.8 2.2-1.8s2.2.6 2.2 1.8zM897.456 76.257c-2.8 0-4.7 1.3-5.7 4-.9 2.2-1.8 3.8-2.6 4.7q-1.05 1.05-2.7.9c-.7-.1-1.1-.4-1.4-.8s-.2-.9.1-1.3c.8-1.1 1.7-2.7 2.7-4.7.9-1.8 1.8-3.1 2.8-3.7-1.4-.4-2.6-1.1-3.5-2.2s-1.4-2.3-1.4-3.6c0-2.3.8-4 2.3-5.2 1.6-1.2 3.6-1.8 6.2-1.8h6.4c1.6 0 2.6.3 3.2 1 .5.7.8 1.7.8 3.1v17.5c0 1.2-.7 1.8-2.2 1.8s-2.2-.6-2.2-1.8v-7.7h-2.8zm-5.9-9.6c-.7.6-1.1 1.6-1.1 2.8 0 1.1.5 2 1.4 2.6q1.35.9 3.3.9h5.3v-6.5c0-.3-.1-.5-.2-.6s-.4-.2-.8-.2h-4.8c-1.3.1-2.3.4-3.1 1M331.356 115.956c.6.2 1 .6 1.2 1.1s.4.9.4 1.3.1.9.1 1.6v17.3q0 1.8-2.1 1.8c-1.4 0-2.2-.6-2.2-1.8v-17.5c0-.5-.3-.8-1-.8h-8c-.4 0-.6.1-.8.2-.1.1-.2.3-.2.6v17.5q0 1.8-2.1 1.8c-1.4 0-2.2-.6-2.2-1.8v-17.3c0-.7 0-1.2.1-1.6 0-.4.2-.8.4-1.3s.6-.9 1.2-1.1 1.3-.3 2.2-.3h10.7c1-.1 1.7 0 2.3.3M359.455 127.056c0 8-3.6 11.9-10.8 11.9s-10.8-4-10.8-11.9q0-12 10.8-12t10.8 12m-6-6.1c-1-1.3-2.6-2-4.8-2s-3.8.7-4.8 2-1.5 3.3-1.5 6.1.5 4.8 1.5 6.1 2.6 2 4.8 2 3.8-.7 4.8-2 1.6-3.3 1.6-6.1-.5-4.8-1.6-6.1M377.156 115.556c1.1 0 1.6.5 1.6 1.6s-.5 1.7-1.6 1.7h-5.1v18.3q0 1.8-2.1 1.8c-1.4 0-2.2-.6-2.2-1.8v-18.3h-5.1c-1.1 0-1.6-.6-1.6-1.7s.5-1.6 1.6-1.6zM386.656 118.456c1.8-2.3 4.3-3.4 7.3-3.4 6.4 0 9.6 4 9.6 12.1 0 1.7-.2 3.2-.5 4.6-.4 1.4-.9 2.7-1.7 3.8s-1.8 2-3.2 2.7-2.9 1-4.7 1c-2.6 0-4.8-1-6.5-2.9v8.6c0 1.2-.7 1.8-2.2 1.8-1.4 0-2.2-.6-2.2-1.8v-27.9q0-1.8 2.1-1.8c1.4 0 2 .6 2 1.8zm1.9 14.7c1.1 1.6 2.7 2.4 4.7 2.4 3.7 0 5.6-2.8 5.6-8.5 0-5.6-1.9-8.5-5.6-8.5-2 0-3.6.7-4.7 2.1s-1.7 3.1-1.7 4.9v2.1c0 2.1.6 3.9 1.7 5.5M428.556 127.056c0 8-3.6 11.9-10.8 11.9s-10.8-4-10.8-11.9q0-12 10.8-12t10.8 12m-6.1-6.1c-1-1.3-2.6-2-4.8-2s-3.8.7-4.8 2-1.5 3.3-1.5 6.1.5 4.8 1.5 6.1 2.6 2 4.8 2 3.8-.7 4.8-2 1.6-3.3 1.6-6.1-.5-4.8-1.6-6.1M446.256 115.556c1.1 0 1.6.5 1.6 1.6s-.5 1.7-1.6 1.7h-7.8c-.6 0-1 .3-1 .8v17.5c0 1.2-.7 1.8-2.2 1.8s-2.2-.6-2.2-1.8v-18.6c0-.3.1-.7.2-1.1.1-.5.3-.8.6-1s.6-.4 1.2-.6c.5-.2 1.2-.3 1.9-.3zM464.355 135.356c-1.8 2.6-4.5 3.8-8 3.8-2.3 0-4.3-.6-5.8-1.9-1.5-1.2-2.3-3-2.3-5.2 0-5.4 4.4-8.1 13.3-8.1h2.8c0-1.4-.1-2.6-.4-3.5-.6-1.6-2.4-2.4-5.3-2.4-2 0-3.7.5-5.1 1.6-.4.3-.9.5-1.3.5-.5 0-1-.2-1.5-.5s-.7-.7-.7-1.2.3-1 1-1.5c1.8-1.4 4.6-2.1 8.3-2.1 3.3 0 5.7.8 7.2 2.3s2.2 3.9 2.2 7.1v9.5c0 1.1.1 2 .2 2.8.1 1.2-.4 1.9-1.6 2-1.5.1-2.3-.4-2.5-1.5-.4-1-.5-1.6-.5-1.7m0-8.1c-1.3-.1-2.4-.1-3.1-.1-1 0-2 .1-2.9.2s-1.8.4-2.7.7-1.6.9-2.1 1.6-.8 1.5-.8 2.5q0 1.8 1.2 2.7c.8.6 1.8 1 3 1 2.2 0 3.9-.7 5.3-2.2 1.7-1.6 2.3-3.7 2.1-6.4M487.755 115.557c.7 0 1.4.1 1.9.3q.75.3 1.2.6c.3.2.5.6.6 1s.2.8.2 1.1v18.6c0 1.2-.7 1.8-2.2 1.8q-2.1 0-2.1-1.8v-17.5c0-.5-.3-.8-1-.8h-4.6c-.7 0-1.2.3-1.2 1l-.2 2.2c-.4 5.1-.7 8.6-.9 10.3-.3 2.2-.9 3.8-1.8 4.9q-1.35 1.65-4.2 1.5c-.7 0-1.2-.2-1.6-.5-.3-.3-.5-.7-.5-1.1.1-1.2.6-1.8 1.6-1.8.9 0 1.5-.3 1.7-.7.3-.5.5-1.2.6-2.3v-.4c.2-1.2.5-3.9.8-8.2q.15-2.55.3-3.3c0-.6.1-1 .1-1.4 0-.3.2-.7.3-1.3.2-.5.4-.9.7-1.2s.7-.5 1.2-.8c.5-.2 1.2-.3 1.9-.3h7.2zM528.055 132.756c.3.3.3.8.3 1.6-.3 1.1-1.1 2.1-2.6 3.1s-3.3 1.5-5.6 1.5c-7.2 0-10.8-4-10.8-11.9q0-12 10.8-12c2.1 0 4 .5 5.5 1.5 1.6 1 2.5 2.2 2.8 3.5.1.7.1 1.2-.2 1.5-.2.3-.7.6-1.4.6h-.2c-1.2 0-2-.5-2.2-1.4-.7-1.7-2.1-2.5-4.2-2.5q-6.3 0-6.3 8.7t6.3 8.7c1.9 0 3.2-.7 4.1-2.2.6-1 1.4-1.5 2.4-1.3.5.1 1 .3 1.3.6M552.856 126.756q-.9.9-3.3.9h-12.4c0 .9.1 1.8.3 2.6s.5 1.7 1 2.5q.6 1.35 2.1 2.1c1 .5 2 .8 3.4.8.8 0 1.7-.2 2.7-.5.9-.3 1.6-.9 2.1-1.6.6-.9 1.4-1.3 2.5-1.2.7.1 1.3.4 1.5.8s.3.8.1 1.3c-.5 1.5-1.7 2.7-3.4 3.5s-3.6 1.2-5.6 1.2-3.7-.4-5.2-1.1-2.7-1.7-3.5-2.9-1.5-2.5-1.9-3.8c-.4-1.4-.6-2.8-.6-4.3 0-1.6.2-3 .6-4.4s1-2.7 1.9-3.9c.8-1.2 2-2.1 3.5-2.9 1.5-.7 3.2-1.1 5.2-1.1 3.2 0 5.8 1 7.6 2.9 1.7 1.7 2.5 3.9 2.5 6.6-.3 1.1-.6 1.9-1.1 2.5m-4.1-2.4c.5 0 .7-.3.7-.7-.1-1.8-.6-3.1-1.6-4.1s-2.4-1.5-4.1-1.5c-1.8 0-3.3.6-4.5 1.9s-1.9 2.7-2 4.4zM575.756 115.156c1.4 0 2.2.6 2.2 1.8v20.3c0 1.2-.7 1.8-2.2 1.8s-2.2-.6-2.2-1.8v-15c-.5.9-1 1.6-1.4 2.2l-9.5 13.8c-.4.5-1.1.8-1.9.8-1.4 0-2.2-.6-2.2-1.8v-20.3c0-1.2.7-1.8 2.2-1.8s2.2.6 2.2 1.8v15.2c.6-1 4.3-6.4 11-16.2.2-.6.8-.8 1.8-.8m-1.7-7.5c.8.4 1 1 .6 1.9-.5 1-1.4 1.8-2.5 2.4-1.2.6-2.4.8-3.8.8-1.6 0-2.9-.3-4-1-1.1-.6-1.9-1.4-2.3-2.2q-.45-1.35.9-2.1 1.05-.3 1.8.6c1 1 2.2 1.6 3.6 1.6 1.5 0 2.7-.5 3.6-1.6.5-.6 1.2-.7 2.1-.4M600.256 137.156q0 1.8-2.1 1.8c-1.4 0-2.2-.6-2.2-1.8v-7.8c-1.4 1-3.2 1.6-5.6 1.6-5.2 0-7.8-2.2-7.8-6.7v-7.3c0-1.2.7-1.8 2.2-1.8s2.2.6 2.2 1.8v6.2c0 1.7.3 2.9.8 3.5.5.7 1.6 1 3 1 1.7 0 3-.4 3.9-1.1s1.3-1.6 1.3-2.6v-7.1c0-1.2.7-1.8 2.2-1.8q2.1 0 2.1 1.8zM620.656 135.356c-1.8 2.6-4.5 3.8-8 3.8-2.3 0-4.3-.6-5.8-1.9-1.5-1.2-2.3-3-2.3-5.2 0-5.4 4.4-8.1 13.3-8.1h2.8c0-1.4-.1-2.6-.4-3.5-.6-1.6-2.4-2.4-5.3-2.4-2 0-3.7.5-5.1 1.6-.4.3-.9.5-1.3.5-.5 0-1-.2-1.5-.5s-.7-.7-.7-1.2.3-1 1-1.5c1.8-1.4 4.6-2.1 8.3-2.1 3.3 0 5.7.8 7.2 2.3s2.2 3.9 2.2 7.1v9.5c0 1.1.1 2 .2 2.8.1 1.2-.4 1.9-1.6 2-1.5.1-2.3-.4-2.5-1.5-.4-1-.5-1.6-.5-1.7m0-8.1c-1.3-.1-2.4-.1-3.1-.1-1 0-2 .1-2.9.2s-1.8.4-2.7.7-1.6.9-2.1 1.6-.8 1.5-.8 2.5q0 1.8 1.2 2.7c.8.6 1.8 1 3 1 2.2 0 3.9-.7 5.3-2.2 1.6-1.6 2.3-3.7 2.1-6.4M648.055 132.756c.3.3.3.8.3 1.6-.3 1.1-1.1 2.1-2.6 3.1s-3.3 1.5-5.6 1.5c-7.2 0-10.8-4-10.8-11.9q0-12 10.8-12c2.1 0 4 .5 5.5 1.5 1.6 1 2.5 2.2 2.8 3.5.1.7.1 1.2-.2 1.5-.2.3-.7.6-1.4.6h-.2c-1.2 0-2-.5-2.2-1.4-.7-1.7-2.1-2.5-4.2-2.5q-6.3 0-6.3 8.7t6.3 8.7c1.9 0 3.2-.7 4.1-2.2.6-1 1.4-1.5 2.4-1.3.6.1 1.1.3 1.3.6M668.056 109.756c2 1.7 2.9 3.7 2.9 6.2 0 1.3-.5 2.7-1.4 4-1 1.4-2.1 2.5-3.3 3.5-1.2.9-2 1.7-2.3 2.5-.3.7-.5 2-.7 3.9 0 .3-.2.6-.5.8s-.7.3-1.1.3c-.5 0-.9-.1-1.3-.3s-.5-.5-.5-1c-.1-2.3.1-4 .6-5.2s1.6-2.6 3.3-4.3q.9-.9 1.5-2.1t.6-2.1c0-1.5-.4-2.8-1.2-3.7-.8-1-1.9-1.4-3.2-1.4-1.2 0-2.3.4-3.2 1.1s-1.3 1.6-1.4 2.5c0 .6-.2 1.1-.6 1.6-.3.5-.9.8-1.8.8h-.1c-.7 0-1.2-.2-1.6-.7q-.6-.6-.6-1.8c0-1.8.9-3.5 2.7-4.9s4-2.2 6.7-2.2c2.4 0 4.6.8 6.5 2.5m-4.1 24.3c.4.5.6 1.1.6 2 0 .4 0 .7-.1 1s-.2.6-.4.9-.5.5-.9.7-.9.2-1.5.2c-1.2 0-1.9-.3-2.3-.8q-.6-.75-.6-2.1c0-1.8 1-2.7 2.9-2.7 1.1.1 1.9.4 2.3.8"></path></svg>