<svg xmlns="http://www.w3.org/2000/svg" width="1001" height="557" fill="none" viewBox="0 0 1001 557"><g clip-path="url(#9120cf84-367e-4e22-ae94-3bccb7f9adcca)"><path fill="#FDF2E8" d="M13.038.144s-12.8 0-12.8 12.8v530.2s0 12.8 12.8 12.8h973.8s12.8 0 12.8-12.8v-530.2s0-12.8-12.8-12.8z"></path><path fill="#FF6900" d="M359.038 46.044c0-.5-.3-.8-.9-.8s-.9.3-.9.8v10.9c0 .5.3.8.9.8s.9-.3.9-.8v-5.4c.5 0 1 .1 1.4.2s.8.4 1 .7c.3.3.5.6.7.9q.3.45.6 1.2l.2.6c.4 1.1.7 1.8 1 2.2.3.3.6.4 1.1.3.6-.1.8-.4.5-.9s-.7-1.5-1.2-2.9c-.6-1.7-1.6-2.7-2.9-3.1.9-.4 1.6-1.1 2.1-2l.2-.3c.6-1 1-1.7 1.3-2.1.2-.2.2-.4.2-.6 0-.3-.2-.4-.6-.5-.5-.1-1 .1-1.3.5-.2.3-.6.8-1 1.6-.2.3-.3.6-.5.8-.4.6-.8 1.1-1.2 1.4s-1 .5-1.7.6v-4.1zm-12.7-.1c-.1-.2-.2-.3-.2-.4-.1-.1-.1-.1-.3-.2-.1-.1-.3-.1-.5-.1-.3 0-.5.1-.7.2s-.2.3-.1.6l4.3 9.1c-.1.3-.3.5-.5.7s-.6.2-1.1.2c-.3 0-.5 0-.6.2-.1.1-.2.3-.2.5 0 .5.3.8.8.8.9.1 1.6-.1 2.1-.4.5-.4.9-1 1.3-2l3.8-9.1q.15-.45 0-.6c-.1-.1-.3-.2-.6-.2s-.5 0-.6.1c-.2.1-.3.1-.3.2s-.1.2-.2.4l-2.6 6.5-.3.9-.4-.9zm-10.8 5.3v-4c0-.3.1-.4.4-.4h2.5c.7 0 1.2.2 1.6.6s.6.9.6 1.6c0 .6-.2 1.2-.6 1.6s-1 .6-1.7.6zm0 5.7v-4.3h3c1.2 0 2.1-.3 2.9-1 .7-.7 1.1-1.6 1.1-2.6q0-1.65-1.2-2.7c-.8-.7-1.8-1-3-1h-3c-.6 0-1.1.1-1.3.4s-.4.7-.4 1.2v9.9c0 .5.3.8.9.8.7.1 1-.2 1-.7m-19.4-1.1c0 .5.1.9.4 1.2.2.3.7.5 1.3.5h5.7c.5 0 .8-.3.8-.8s-.3-.8-.8-.8h-5.1c-.3 0-.4-.1-.4-.4v-3.7h4.3c.5 0 .7-.3.7-.8s-.2-.8-.7-.8h-4.3v-3.2c0-.2.1-.4.4-.4h5.1c.5 0 .8-.3.8-.8s-.3-.8-.8-.8h-5.7c-.6 0-1.1.2-1.3.5s-.4.7-.4 1.2zm5.5-13.3c-.4 0-.7.1-.8.2s-.2.4-.2.7.1.6.2.8.4.3.8.3.7-.1.8-.3.2-.4.2-.8c0-.3-.1-.6-.2-.7s-.4-.2-.8-.2m-3 0c-.4 0-.7.1-.8.2s-.2.4-.2.7.1.6.2.8.4.3.8.3.7-.1.8-.3.2-.4.2-.8c0-.3-.1-.6-.2-.7s-.4-.2-.8-.2m-12.6 9.1h2.8c.7 0 1.3.2 1.7.6q.6.6.6 1.5c0 .6-.2 1.2-.6 1.6s-.9.6-1.6.6h-2.5c-.3 0-.4-.1-.4-.4zm0-5.7c0-.5-.3-.8-.9-.8s-.9.3-.9.8v9.9c0 .5.1 1 .4 1.2.2.3.7.4 1.3.4h3c1.2 0 2.2-.4 3-1.1q1.2-1.05 1.2-2.7c0-1.1-.4-2-1.1-2.6-.7-.7-1.7-1-2.9-1h-3v-4.1zm-12.7-.6c-.5 0-.8.3-.8.8s.3.8.8.8h2.8v10c0 .5.3.8.9.8s.9-.3.9-.8v-10h2.8c.5 0 .8-.3.8-.8s-.3-.8-.8-.8zm-13.8 6.3h2.7c.7 0 1.3.2 1.7.6q.6.6.6 1.5c0 .6-.2 1.2-.6 1.6s-.9.6-1.6.6h-2.4c-.3 0-.4-.1-.4-.4zm0-5.7c0-.5-.3-.8-.9-.8s-.9.3-.9.8v9.9c0 .5.1.9.4 1.2.2.3.7.5 1.3.5h2.9c1.2 0 2.2-.4 3-1.1q1.2-1.05 1.2-2.7c0-1.1-.4-2-1.1-2.6-.7-.7-1.7-1-2.9-1h-2.9v-4.2zm10.2.1c0-.5-.3-.8-.9-.8s-.9.3-.9.8v10.9c0 .5.3.8.9.8s.9-.3.9-.8zm-21 7.5c.4 0 .7-.2 1-.7l2.3-3.9.3-.5v8.6c0 .5.3.8.9.8.5 0 .8-.3.8-.8v-11c0-.5-.3-.8-.9-.8-.5 0-.9.2-1.1.7l-3.1 5.5-3.2-5.5c-.1-.3-.3-.4-.5-.6-.2-.1-.4-.2-.7-.2-.6 0-.9.3-.9.8v10.9c0 .5.3.8.8.8.6 0 .9-.3.9-.8v-8.6c.1.2.2.4.3.5l2.3 3.9c.1.6.4.9.8.9m-16.7-2.1c0 1.6-.3 2.7-.9 3.5s-1.5 1.1-2.7 1.1-2.1-.4-2.7-1.1c-.6-.8-.9-1.9-.9-3.5s.3-2.8.9-3.5c.6-.8 1.5-1.1 2.7-1.1s2.1.4 2.7 1.1c.6.8.9 1.9.9 3.5m.6-4.5q-1.5-1.8-4.2-1.8t-4.2 1.8c-.9 1.1-1.3 2.6-1.3 4.5 0 2 .5 3.5 1.5 4.6s2.3 1.7 4.1 1.7 3.1-.5 4.1-1.6 1.5-2.7 1.5-4.7q-.15-2.85-1.5-4.5m-19.1 4.3v-4c0-.3.1-.4.4-.4h2.5c.7 0 1.2.2 1.6.6s.6.9.6 1.6c0 .6-.2 1.2-.6 1.6s-1 .6-1.7.6zm0 5.7v-4.3h3c1.2 0 2.1-.3 2.9-1 .7-.7 1.1-1.6 1.1-2.6q0-1.65-1.2-2.7c-.8-.7-1.8-1-3-1h-3c-.6 0-1.1.1-1.3.4s-.4.7-.4 1.2v9.9c0 .5.3.8.9.8.7.1 1-.2 1-.7m-5.5-9.9c0-.5-.1-.9-.4-1.2-.2-.3-.7-.5-1.3-.5h-5.7c-.6 0-1.1.1-1.3.4s-.4.7-.4 1.2v9.9c0 .5.3.8.9.8s.9-.3.9-.8v-9.7c0-.2.1-.4.4-.4h4.6c.3 0 .4.1.4.4v9.7c0 .5.3.8.9.8s.9-.3.9-.8v-9.8zm-25.9 4.4v-1.4c0-.4.1-.8.2-1.3s.2-.9.4-1.2.4-.6.7-.8.7-.3 1.1-.3.7.1 1 .2.5.3.7.6.3.5.4.8.2.6.2 1.1c0 .4.1.8.1 1.1v2.5c0 .4-.1.8-.2 1.3s-.2.9-.4 1.2-.4.6-.7.8-.7.3-1.1.3c-.5 0-1-.1-1.3-.4s-.6-.7-.7-1.2l-.3-1.5c-.1-.6-.1-1.1-.1-1.8m6.5 0c0-4.2-1.4-6.3-4.1-6.3s-4.1 2.1-4.1 6.3c0 1.9.3 3.5 1 4.6s1.7 1.7 3.1 1.7 2.4-.6 3.1-1.7c.6-1.1 1-2.7 1-4.6m-18.1 0v-1.4c0-.4.1-.8.2-1.3s.2-.9.4-1.2.4-.6.7-.8.7-.3 1.1-.3.7.1 1 .2.5.3.7.6.3.5.4.8.2.6.2 1.1c0 .4.1.8.1 1.1v2.5c0 .4-.1.8-.2 1.3s-.2.9-.4 1.2-.4.6-.7.8-.7.3-1.1.3c-.5 0-1-.1-1.3-.4s-.6-.7-.7-1.2l-.3-1.5c-.1-.6-.1-1.1-.1-1.8m6.5 0c0-4.2-1.4-6.3-4.1-6.3s-4.1 2.1-4.1 6.3c0 1.9.3 3.5 1 4.6s1.7 1.7 3.1 1.7 2.4-.6 3.1-1.7c.6-1.1 1-2.7 1-4.6m-17 .1c.7-.2 1.3-.4 1.7-.3.6 0 1.1.2 1.4.6s.5 1 .5 1.9c0 .8-.2 1.4-.5 1.9s-.8.7-1.5.7h-.5c-.2 0-.3-.1-.4-.1s-.2-.1-.3-.2l-.2-.2c-.1-.1-.1-.1-.2-.3-.1-.1-.1-.2-.1-.3 0 0-.1-.1-.1-.3-.1-.1-.1-.2-.1-.3-.1-.2-.3-.3-.5-.4-.2 0-.4 0-.6.1-.4.2-.5.5-.3 1 .3.8.8 1.4 1.3 1.7.5.4 1.2.5 2.1.5q.9 0 1.5-.3c.5-.2.8-.4 1.1-.7s.5-.6.6-1c.2-.4.3-.7.3-1.1.1-.4.1-.7.1-1.1q0-1.05-.3-1.8c-.2-.5-.5-.9-.8-1.2s-.7-.5-1.1-.6-.8-.2-1.3-.2h-.7c-.1 0-.2 0-.3.1-.1 0-.3.1-.4.1-.2.1-.3 0-.3-.2v-2.6q0-.3.3-.3h4c.5 0 .7-.3.7-.8 0-.2-.1-.4-.2-.5s-.3-.2-.5-.2h-4.8c-.6 0-1 .3-1.1 1v4c0 .4 0 .7.2 1 .2.2.5.4.8.4.1.1.3.1.5 0m-11.8-.1v-1.4c0-.4.1-.8.2-1.3s.2-.9.4-1.2.4-.6.7-.8.7-.3 1.1-.3.7.1 1 .2.5.3.7.6.3.5.4.8.2.6.2 1.1c0 .4.1.8.1 1.1v2.5c0 .4-.1.8-.2 1.3s-.2.9-.4 1.2-.4.6-.7.8-.7.3-1.1.3c-.5 0-1-.1-1.3-.4s-.6-.7-.7-1.2l-.3-1.5c-.1-.6-.1-1.1-.1-1.8m6.5 0c0-4.2-1.4-6.3-4.1-6.3s-4.1 2.1-4.1 6.3c0 1.9.3 3.5 1 4.6s1.7 1.7 3.1 1.7 2.4-.6 3.1-1.7 1-2.7 1-4.6m-18.1 0v-1.4c0-.4.1-.8.2-1.3s.2-.9.4-1.2.4-.6.7-.8.7-.3 1.1-.3.7.1 1 .2.5.3.7.6.3.5.4.8.2.6.2 1.1c0 .4.1.8.1 1.1v2.5c0 .4-.1.8-.2 1.3s-.2.9-.4 1.2-.4.6-.7.8-.7.3-1.1.3c-.5 0-1-.1-1.3-.4s-.6-.7-.7-1.2l-.3-1.5c-.1-.6-.1-1.1-.1-1.8m6.5 0c0-4.2-1.4-6.3-4.1-6.3s-4.1 2.1-4.1 6.3c0 1.9.3 3.5 1 4.6s1.7 1.7 3.1 1.7 2.4-.6 3.1-1.7 1-2.7 1-4.6m-11.9-5.4c0-.5-.3-.7-.8-.8-.2 0-.5.1-.8.3l-2.4 1.4c-.4.2-.5.5-.5.9.1.4.3.5.6.5.1 0 .3 0 .5-.1l1-.6c.4-.2.6-.3.7-.4v9.8c0 .5.3.8.8.8s.8-.3.8-.8v-11zm-7.3 6.7q.6 0 .6-.6t-.6-.6h-3.8q-.6 0-.6.6t.6.6zm-.7-4.6c0 1.1-.4 1.7-1.2 1.7s-1.2-.6-1.2-1.7.4-1.7 1.2-1.7 1.2.5 1.2 1.7m-3.7 0c0 1.8.8 2.7 2.5 2.7q2.4 0 2.4-2.7t-2.4-2.7c-1.6-.1-2.5.8-2.5 2.7m-10.7-2.1v11c0 .4.3.6.8.6s.8-.2.8-.6v-7.5c0-.4 0-.8-.1-1.3l5.6 8.9c.3.4.7.6 1.1.6.6 0 1-.2 1-.7v-11c0-.4-.3-.6-.8-.6s-.8.2-.8.6v7.1c0 .4 0 1 .1 1.8q-4.95-7.8-5.7-9c-.3-.4-.6-.6-1.1-.6s-.9.2-.9.7m-11.4 5.4c0 1.6-.3 2.7-.9 3.5s-1.5 1.1-2.7 1.1-2.1-.4-2.7-1.1c-.6-.8-.9-1.9-.9-3.5s.3-2.8.9-3.5c.6-.8 1.5-1.1 2.7-1.1s2.1.4 2.7 1.1c.6.8.9 1.9.9 3.5m.6-4.5q-1.5-1.8-4.2-1.8t-4.2 1.8c-.9 1.1-1.3 2.6-1.3 4.5 0 2 .5 3.5 1.5 4.6s2.3 1.7 4.1 1.7 3.1-.5 4.1-1.6 1.5-2.7 1.5-4.7c-.2-1.9-.6-3.4-1.5-4.5m-12.9.1c0-.5-.1-1-.4-1.2-.2-.3-.7-.4-1.3-.4h-3.8c-.6 0-1.1.1-1.3.4s-.4.7-.5 1.3c-.1 2.4-.3 4.5-.5 6.5-.1.7-.2 1.3-.4 1.8-.1.5-.5.7-.9.6q-.3 0-.6.3c-.2.2-.3.3-.3.5 0 .4.1.6.3.7s.5.2.8.2q1.65 0 2.4-1.5c.3-.5.4-1.3.5-2.4.1-.8.2-2 .3-3.5s.2-2.5.2-2.7v-.3c0-.3.2-.4.4-.4h2.8c.1 0 .2 0 .3.1s.1.1.1.3v9.6q0 .45.3.6c.2.1.4.2.7.2.6 0 .9-.3.9-.8zm-20.4-1c0-.5-.3-.8-.9-.8s-.9.3-.9.8v10.9c0 .5.3.8.9.8.4 0 .7-.1.8-.4l5.5-8.1c.2-.3.4-.5.5-.8v8.4c0 .5.3.8.9.8s.9-.3.9-.8v-10.8c0-.5-.3-.8-.9-.8-.4 0-.6.1-.8.4l-5.3 7.9c-.2.3-.5.7-.6 1v-8.5zm-12.5 4.4v-3.3c0-.3.1-.4.4-.4h2.7c.7 0 1.2.1 1.6.4s.6.7.6 1.3c0 1.3-.9 1.9-2.7 1.9h-2.6zm3.3 5.6h-2.9c-.3 0-.4-.1-.4-.4v-3.8h3.1c.8 0 1.4.2 1.9.5.5.4.7.9.7 1.7 0 .6-.2 1.1-.7 1.5-.4.4-1 .5-1.7.5m-5.1-9v8.8c0 .5.1.9.4 1.2.2.3.7.5 1.3.5h3.5q1.8 0 3-.9c.8-.6 1.1-1.4 1.1-2.6 0-.7-.2-1.3-.6-1.9-.4-.5-.9-.9-1.6-1.2 1.3-.5 1.9-1.4 1.9-2.7 0-1-.4-1.7-1.1-2.2s-1.6-.8-2.7-.8h-3.5c-.6 0-1.1.2-1.3.5-.3.4-.4.8-.4 1.3m-9.8 5.7c.5-1.5.9-2.7 1.2-3.5.2-.4.3-1 .5-1.7.2.9.4 1.5.5 1.7l1.2 3.5zm2.9-6.7c-.2-.5-.6-.7-1.1-.7s-.9.2-1.1.7l-4 10.9c-.2.5 0 .8.7.8.3 0 .6-.1.8-.2s.3-.3.4-.6.3-.8.5-1.5.4-1.1.5-1.5h4.4l1 2.9c.2.5.6.7 1.2.7.7 0 .9-.3.7-.8zm-14 5.2v-4c0-.3.1-.4.4-.4h2.5c.7 0 1.2.2 1.6.6s.6.9.6 1.6c0 .6-.2 1.2-.6 1.6s-1 .6-1.7.6zm0 5.7v-4.3h3c1.2 0 2.1-.3 2.9-1 .7-.7 1.1-1.6 1.1-2.6q0-1.65-1.2-2.7c-.8-.7-1.8-1-3-1h-3c-.6 0-1.1.1-1.3.4s-.4.7-.4 1.2v9.9c0 .5.3.8.9.8s1-.2 1-.7m-5.6-9.9c0-.5-.1-.9-.4-1.2-.2-.3-.7-.5-1.3-.5h-5.7c-.6 0-1.1.1-1.3.4s-.4.7-.4 1.2v9.9c0 .5.3.8.9.8s.9-.3.9-.8v-9.7c0-.2.1-.4.4-.4h4.6c.3 0 .4.1.4.4v9.7c0 .5.3.8.9.8s.9-.3.9-.8v-9.8z"></path><path fill="#231F20" d="M886.838 159.743c0-.7-.4-1.1-1.3-1.1-.5 0-.9.1-1.1.4l-5.5 8c-.6 1-.9 1.5-1 1.6v-8.9c0-.7-.4-1.1-1.3-1.1s-1.3.4-1.3 1.1v12c0 .7.4 1.1 1.3 1.1.5 0 .9-.2 1.2-.5l5.6-8.1.3-.5.6-.9v8.8c0 .7.4 1.1 1.3 1.1s1.3-.4 1.3-1.1v-11.9zm-23.2-.8c-.6 0-1 .3-1 1s.3 1 1 1h3v10.8c0 .7.4 1.1 1.3 1.1.8 0 1.3-.4 1.3-1.1v-10.8h3.1c.6 0 .9-.3.9-1 0-.6-.3-1-.9-1zm-3.9 9.9c-.6-.1-1.1.2-1.4.8-.5.9-1.3 1.3-2.4 1.3-2.5 0-3.7-1.7-3.7-5.2 0-3.4 1.2-5.2 3.7-5.2 1.2 0 2.1.5 2.5 1.5.2.5.6.8 1.3.8h.1c.4-.1.7-.2.8-.4.2-.2.2-.5.1-.9-.2-.8-.7-1.5-1.6-2.1q-1.35-.9-3.3-.9c-4.3 0-6.4 2.4-6.4 7.1s2.1 7.1 6.4 7.1q1.95 0 3.3-.9c.9-.6 1.4-1.2 1.6-1.9.1-.5 0-.8-.2-.9-.1-.1-.4-.2-.8-.2m-14.8-3.1q0 2.4-.9 3.6c-.6.8-1.6 1.2-2.8 1.2s-2.2-.4-2.8-1.2q-.9-1.2-.9-3.6t.9-3.6c.6-.8 1.6-1.2 2.8-1.2s2.2.4 2.8 1.2q.9 1.2.9 3.6m-3.8-7.1c-4.3 0-6.4 2.4-6.4 7.1s2.1 7.1 6.4 7.1 6.4-2.4 6.4-7.1-2.1-7.1-6.4-7.1m-17.7 1.1c0-.7-.4-1.1-1.3-1.1s-1.3.4-1.3 1.1v12c0 .7.4 1.1 1.3 1.1s1.3-.4 1.3-1.1v-5.4h5.9v5.4c0 .7.4 1.1 1.3 1.1s1.3-.4 1.3-1.1v-12c0-.7-.4-1.1-1.3-1.1s-1.3.4-1.3 1.1v4.7h-5.9zm-5.7.1q.3-.6 0-.9c-.2-.2-.6-.3-1.1-.3-.4 0-.7 0-.9.1q-.3.15-.6.6c-.3.5-.7 1.1-1.3 2s-1 1.6-1.3 2c-.3-.5-.8-1.2-1.4-2.1s-1-1.5-1.2-1.9q-.3-.45-.6-.6c-.2-.1-.5-.1-.9-.1-.5 0-.9.1-1.1.3s-.2.5.1.9l3.7 5.4c-.9 1.3-2.3 3.4-4.3 6.2-.3.4-.3.7-.1 1 .2.2.5.3 1.1.3.4 0 .7 0 .9-.1s.4-.3.7-.6c.4-.5.9-1.4 1.6-2.5s1.3-1.9 1.6-2.5l3.2 5c.2.3.5.6.7.6s.5.1.9.1c.5 0 .9-.1 1.1-.3q.3-.3 0-.9l-4.4-6.4zm-21.6 6.4v-1.3c0-1.1.3-2.1 1-2.9s1.6-1.3 2.8-1.3c2.2 0 3.3 1.7 3.3 5s-1.1 5-3.3 5c-1.2 0-2.1-.5-2.8-1.4s-1-2-1-3.1m-.2-6.5c0-.7-.4-1.1-1.2-1.1s-1.3.4-1.3 1.1v16.6c0 .7.4 1.1 1.3 1.1s1.3-.4 1.3-1.1v-5.1c1 1.2 2.3 1.7 3.9 1.7 1.1 0 2-.2 2.8-.6s1.4-.9 1.9-1.6.8-1.4 1-2.3c.2-.8.3-1.7.3-2.8q0-7.2-5.7-7.2c-1.8 0-3.2.7-4.3 2zm-15.1 4.5c.1-1 .5-1.9 1.2-2.6.7-.8 1.6-1.1 2.7-1.1q1.5 0 2.4.9c.6.6.9 1.4 1 2.4 0 .3-.1.4-.4.4zm9.8-.1q0-2.4-1.5-3.9c-1.1-1.1-2.6-1.7-4.5-1.7-1.2 0-2.2.2-3.1.6s-1.6 1-2.1 1.7-.9 1.5-1.1 2.3-.4 1.7-.4 2.6.1 1.7.4 2.5c.2.8.6 1.6 1.1 2.3s1.2 1.3 2.1 1.7 1.9.6 3.1.6 2.3-.2 3.3-.7 1.7-1.2 2-2.1c.1-.3.1-.5-.1-.8s-.5-.4-.9-.5c-.6-.1-1.1.2-1.5.7-.3.4-.7.8-1.3 1s-1.1.3-1.6.3c-.8 0-1.5-.2-2-.5s-1-.7-1.2-1.2q-.45-.75-.6-1.5c-.1-.5-.2-1-.2-1.6h7.3c1 0 1.7-.2 2-.5.6-.2.8-.7.8-1.3m-23.7-2.7c0-.2 0-.3.1-.4s.2-.1.5-.1h3.4c1.3 0 1.9.6 1.9 1.7 0 .6-.2 1.1-.6 1.4s-.8.5-1.4.5h-4v-3.1zm0 5h4c1.5 0 2.3.7 2.3 2.2 0 1.4-.8 2.1-2.3 2.1h-3.4c-.2 0-.4 0-.5-.1s-.1-.2-.1-.4zm-.2-7.5c-.5 0-.8.1-1.2.2-.3.1-.5.2-.7.4-.2.1-.3.3-.4.6s-.1.5-.1.7v10.100000000000001c0 .2.1.4.1.7.1.3.2.5.4.6s.4.2.7.4c.3.1.7.2 1.2.2h4.8c1.3 0 2.3-.4 3.2-1.1s1.3-1.7 1.3-2.8c0-.7-.2-1.4-.6-2s-1-1.1-1.7-1.4c1.2-.6 1.8-1.6 1.8-2.9 0-1.1-.4-1.9-1.2-2.5s-1.9-.9-3.4-.9h-4.2zm-7.8 6.8q0 2.4-.9 3.6c-.6.8-1.6 1.2-2.8 1.2s-2.2-.4-2.8-1.2q-.9-1.2-.9-3.6t.9-3.6c.6-.8 1.6-1.2 2.8-1.2s2.2.4 2.8 1.2q.9 1.2.9 3.6m-3.8-7.1c-4.3 0-6.4 2.4-6.4 7.1s2.1 7.1 6.4 7.1 6.4-2.4 6.4-7.1c.1-4.7-2.1-7.1-6.4-7.1m-11.6.3h-6.3c-.5 0-1 .1-1.3.2s-.6.4-.7.6c-.1.3-.2.5-.2.8v11.200000000000001c0 .7.4 1.1 1.3 1.1.8 0 1.3-.4 1.3-1.1v-10.4c0-.2 0-.3.1-.4s.2-.1.4-.1h4.8c.4 0 .6.2.6.5v10.4c0 .7.4 1.1 1.3 1.1.8 0 1.3-.4 1.3-1.1v-11.3c0-.2-.1-.5-.2-.8s-.4-.5-.7-.6c-.7 0-1.1-.1-1.7-.1m-23.5-4.4c-.5.6-1.3.9-2.1.9s-1.5-.3-2.2-.9c-.3-.4-.7-.5-1.1-.4-.6.3-.7.7-.5 1.2.3.5.7.9 1.4 1.3q1.05.6 2.4.6c.8 0 1.6-.2 2.3-.5s1.2-.8 1.5-1.4c.3-.5.2-.9-.3-1.1-.6-.2-1.1-.1-1.4.3m1.2 4.6c-4 5.8-6.2 9-6.5 9.6v-9c0-.7-.4-1.1-1.3-1.1s-1.3.4-1.3 1.1v12c0 .7.4 1.1 1.3 1.1.5 0 .9-.2 1.2-.5l5.6-8.2c.3-.4.5-.8.8-1.3v8.9c0 .7.4 1.1 1.3 1.1s1.3-.4 1.3-1.1v-12c0-.7-.4-1.1-1.3-1.1-.6.1-.9.2-1.1.5m-14.5 6.6q0 2.4-.9 3.6c-.6.8-1.6 1.2-2.8 1.2s-2.2-.4-2.8-1.2q-.9-1.2-.9-3.6t.9-3.6c.6-.8 1.6-1.2 2.8-1.2s2.2.4 2.8 1.2q.9 1.2.9 3.6m-3.8-7.1c-4.3 0-6.4 2.4-6.4 7.1s2.1 7.1 6.4 7.1 6.4-2.4 6.4-7.1-2.1-7.1-6.4-7.1m-17.5 2.8c0-.2 0-.3.1-.4s.2-.1.4-.1h3.4c1.3 0 1.9.6 1.9 1.7 0 .6-.2 1.1-.6 1.4s-.8.5-1.4.5h-4v-3.1zm0 5h4c1.5 0 2.3.7 2.3 2.2 0 1.4-.8 2.1-2.3 2.1h-3.4c-.2 0-.4 0-.4-.1-.1-.1-.1-.2-.1-.4v-3.8zm-.2-7.5c-.5 0-.8.1-1.2.2-.3.1-.5.2-.7.4-.2.1-.3.3-.4.6s-.1.5-.1.7v10.100000000000001c0 .2.1.4.1.7.1.3.2.5.4.6s.4.2.7.4c.3.1.7.2 1.2.2h4.8c1.3 0 2.3-.4 3.2-1.1s1.3-1.7 1.3-2.8c0-.7-.2-1.4-.6-2s-1-1.1-1.7-1.4c1.2-.6 1.8-1.6 1.8-2.9 0-1.1-.4-1.9-1.2-2.5s-1.9-.9-3.4-.9h-4.2zm-15 5.3c.1-1 .5-1.9 1.2-2.6.7-.8 1.6-1.1 2.7-1.1q1.5 0 2.4.9c.6.6.9 1.4 1 2.4 0 .3-.1.4-.4.4zm9.7-.1q0-2.4-1.5-3.9c-1.1-1.1-2.6-1.7-4.5-1.7-1.2 0-2.2.2-3.1.6s-1.6 1-2.1 1.7-.9 1.5-1.1 2.3-.4 1.7-.4 2.6.1 1.7.4 2.5c.2.8.6 1.6 1.1 2.3s1.2 1.3 2.1 1.7 1.9.6 3.1.6 2.3-.2 3.3-.7 1.7-1.2 2-2.1c.1-.3.1-.5-.1-.8s-.5-.4-.9-.5c-.6-.1-1.1.2-1.5.7-.3.4-.7.8-1.3 1s-1.1.3-1.6.3c-.8 0-1.5-.2-2-.5s-1-.7-1.2-1.2-.5-1-.6-1.5-.2-1-.2-1.6h7.3c1 0 1.7-.2 2-.5.7-.2.8-.7.8-1.3m-19 6.5h-5v-10.9c0-.7-.4-1.1-1.3-1.1s-1.3.4-1.3 1.1v10.9h-4.4c-.2 0-.4 0-.4-.1-.1-.1-.1-.2-.1-.4v-10.4c0-.7-.4-1.1-1.3-1.1s-1.3.4-1.3 1.1v11.3c0 .2.1.5.2.8s.4.5.7.6.8.2 1.3.2h15.2c.2 0 .3.1.3.2v1.8c0 .7.4 1.1 1.1 1.1.8 0 1.2-.4 1.2-1.1v-2.3c0-.6-.1-1-.4-1.2-.3-.3-.7-.4-1.3-.4h-.8v-10.9c0-.7-.4-1.1-1.3-1.1s-1.3.4-1.3 1.1v10.8zm-18.8-10.9c0-.7-.4-1.1-1.3-1.1-.5 0-.9.1-1.1.4l-5.5 8c-.6 1-.9 1.5-1 1.6v-8.9c0-.7-.4-1.1-1.3-1.1s-1.3.4-1.3 1.1v12c0 .7.4 1.1 1.3 1.1.5 0 .9-.2 1.2-.5l5.6-8.1.3-.5.6-.9v8.8c0 .7.4 1.1 1.3 1.1s1.3-.4 1.3-1.1v-11.9zm-17.4-.8h-6.4c-.5 0-1 .1-1.3.2s-.6.4-.7.6-.2.5-.2.8v11.200000000000001c0 .7.4 1.1 1.3 1.1.8 0 1.3-.4 1.3-1.1v-10.4c0-.2 0-.3.1-.4s.2-.1.4-.1h4.8c.4 0 .6.2.6.5v10.4c0 .7.4 1.1 1.3 1.1.8 0 1.3-.4 1.3-1.1v-11.3c0-.2-.1-.5-.2-.8s-.4-.5-.7-.6c-.6 0-1.1-.1-1.6-.1m-21.4 5.3c.1-1 .5-1.9 1.2-2.6.7-.8 1.6-1.1 2.7-1.1q1.5 0 2.4.9c.6.6.9 1.4 1 2.4 0 .3-.1.4-.4.4zm9.8-.1q0-2.4-1.5-3.9c-1.1-1.1-2.6-1.7-4.5-1.7-1.2 0-2.2.2-3.1.6s-1.6 1-2.1 1.7-.9 1.5-1.1 2.3-.4 1.7-.4 2.6.1 1.7.4 2.5c.2.8.6 1.6 1.1 2.3s1.2 1.3 2.1 1.7 1.9.6 3.1.6 2.3-.2 3.3-.7 1.7-1.2 2-2.1c.1-.3.1-.5-.1-.8s-.5-.4-.9-.5c-.6-.1-1.1.2-1.5.7-.3.4-.7.8-1.3 1s-1.1.3-1.6.3c-.8 0-1.5-.2-2-.5s-1-.7-1.2-1.2q-.45-.75-.6-1.5c-.1-.5-.2-1-.2-1.6h7.3c1 0 1.7-.2 2-.5.6-.2.8-.7.8-1.3m-23.9-4.4c0-.7-.4-1.1-1.3-1.1s-1.3.4-1.3 1.1v12c0 .7.4 1.1 1.3 1.1s1.3-.4 1.3-1.1v-5.4h5.9v5.4c0 .7.4 1.1 1.3 1.1s1.3-.4 1.3-1.1v-12c0-.7-.4-1.1-1.3-1.1s-1.3.4-1.3 1.1v4.7h-5.9zm-19.8 1.2h2.8c.2 0 .4 0 .5.1s.1.2.1.4v3.8h-3.2c-.8 0-1.4-.2-1.9-.6s-.8-.9-.8-1.5c0-.7.2-1.3.7-1.7.4-.3 1.1-.5 1.8-.5m3.4 6.3v4.6c0 .7.4 1.1 1.3 1.1s1.3-.4 1.3-1.1v-10.4c0-.8-.2-1.5-.5-1.9s-.9-.6-1.9-.6h-3.8c-1.5 0-2.7.4-3.7 1.1s-1.4 1.8-1.4 3.1c0 .8.3 1.5.8 2.1s1.2 1.1 2.1 1.3c-.6.4-1.1 1.1-1.6 2.2-.6 1.2-1.1 2.1-1.6 2.8-.2.3-.2.5-.1.8.2.3.4.4.8.5.6.1 1.2-.1 1.6-.5.5-.5 1-1.4 1.5-2.8.6-1.6 1.7-2.4 3.4-2.4h1.8zm-12.3 1.6c-.6-.1-1.1.2-1.4.8-.5.9-1.3 1.3-2.4 1.3-2.5 0-3.7-1.7-3.7-5.2 0-3.4 1.2-5.2 3.7-5.2 1.2 0 2.1.5 2.5 1.5.2.5.6.8 1.3.8h.1c.4-.1.7-.2.8-.4.2-.2.2-.5.1-.9-.2-.8-.7-1.5-1.6-2.1q-1.35-.9-3.3-.9c-4.3 0-6.4 2.4-6.4 7.1s2.1 7.1 6.4 7.1q1.95 0 3.3-.9c.9-.6 1.4-1.2 1.6-1.9.1-.5 0-.8-.2-.9-.1-.1-.4-.2-.8-.2m-19.6-9.9c-.4 0-.8.1-1.1.2s-.6.3-.7.4c-.2.2-.3.4-.4.7s-.2.5-.2.7 0 .5-.1.8c0 .3-.1.9-.2 2-.2 2.6-.3 4.2-.5 4.9v.2c-.1.6-.2 1.1-.4 1.4s-.5.4-1 .4c-.6 0-.9.4-.9 1.1 0 .3.1.5.3.7q.3.3.9.3c1.1.1 1.9-.2 2.5-.9s.9-1.6 1.1-2.9c.1-1 .3-3.1.5-6.1l.1-1.3c0-.4.3-.6.7-.6h2.7c.4 0 .6.2.6.5v10.4c0 .7.4 1.1 1.3 1.1s1.3-.4 1.3-1.1v-11.100000000000001c0-.2-.1-.4-.1-.7q-.15-.45-.3-.6c-.2-.1-.4-.3-.7-.4s-.7-.2-1.1-.2h-4.3zm-10.7 14.8 5.5-13.9c.2-.4.1-.7-.2-.8-.3-.2-.7-.3-1.1-.3-.8 0-1.2.3-1.5 1l-2.9 7.9c-.1.3-.3.6-.4 1-.1-.4-.2-.8-.3-.9l-3.2-7.9c-.3-.6-.7-1-1.5-1-.5 0-.8.1-1.1.3s-.3.5-.1.8q.75 2.1 2.4 6 1.65 4.05 2.4 6l-.6 1.8c-.2.5-.4.8-.7 1.1-.3.2-.6.3-1.1.2-.9-.2-1.3 0-1.4.8 0 .4 0 .7.2.9s.4.4.7.4c.3.1.7.1 1.1.1q.9 0 1.5-.3c.4-.2.8-.5 1.1-.9s.5-.7.7-1c0-.3.2-.7.5-1.3m-17.6-14c0-.7-.4-1.1-1.3-1.1s-1.3.4-1.3 1.1v12c0 .7.4 1.1 1.3 1.1s1.3-.4 1.3-1.1v-5.4h5.9v5.4c0 .7.4 1.1 1.3 1.1s1.3-.4 1.3-1.1v-12c0-.7-.4-1.1-1.3-1.1s-1.3.4-1.3 1.1v4.7h-5.9zm-6.9 9.1c-.6-.1-1.1.2-1.4.8-.5.9-1.3 1.3-2.4 1.3-2.5 0-3.7-1.7-3.7-5.2 0-3.4 1.2-5.2 3.7-5.2 1.2 0 2.1.5 2.5 1.5.2.5.6.8 1.3.8h.1c.4-.1.7-.2.8-.4.2-.2.2-.5.1-.9-.2-.8-.7-1.5-1.6-2.1q-1.35-.9-3.3-.9c-4.3 0-6.4 2.4-6.4 7.1s2.1 7.1 6.4 7.1q1.95 0 3.3-.9c.9-.6 1.4-1.2 1.6-1.9.1-.5 0-.8-.2-.9-.1-.1-.4-.2-.8-.2m-14.8-3.1q0 2.4-.9 3.6c-.6.8-1.6 1.2-2.8 1.2s-2.2-.4-2.8-1.2q-.9-1.2-.9-3.6t.9-3.6c.6-.8 1.6-1.2 2.8-1.2s2.2.4 2.8 1.2q.9 1.2.9 3.6m-3.8-7.1c-4.3 0-6.4 2.4-6.4 7.1s2.1 7.1 6.4 7.1 6.4-2.4 6.4-7.1-2.1-7.1-6.4-7.1m-18.2-3.3c0-.8-.5-1.2-1.4-1.2s-1.4.4-1.4 1.2v16.4c0 .8.5 1.1 1.4 1.1s1.4-.4 1.4-1.1v-8q1.2 0 2.1.3c.6.2 1.1.5 1.6 1 .4.5.8.9 1.1 1.4s.6 1.1.8 1.8l.3.9c.6 1.6 1.1 2.7 1.6 3.3.4.4.9.5 1.6.4.9-.2 1.2-.6.8-1.3-.5-.8-1.1-2.3-1.8-4.4-.9-2.5-2.4-4.1-4.4-4.6 1.3-.6 2.4-1.6 3.1-2.9l.3-.4c.9-1.5 1.5-2.6 2-3.2.2-.3.4-.6.4-.9 0-.4-.3-.7-.9-.8-.8-.1-1.4.1-1.9.7q-.6.6-1.5 2.4c-.3.5-.5.9-.7 1.3q-.9 1.35-1.8 2.1c-.7.5-1.5.8-2.6.9v-6.4zM666.338 264.244c0-.7-.4-1.1-1.3-1.1-.8 0-1.3.4-1.3 1.1v12c0 .7.4 1.1 1.3 1.1s1.3-.4 1.3-1.1zm-12.4 0c0-.7-.4-1.1-1.3-1.1s-1.3.4-1.3 1.1v11.200000000000001c0 .2.1.5.2.8s.4.5.7.6.8.2 1.3.2h4.1c1.4 0 2.5-.4 3.4-1.2s1.4-1.8 1.4-3.1-.4-2.3-1.3-3.1c-.8-.8-2-1.2-3.4-1.2h-3.9v-4.2zm0 6.3h3.6c1.5 0 2.3.8 2.3 2.3 0 .7-.2 1.3-.6 1.7s-1 .6-1.7.6h-2.9c-.2 0-.4 0-.5-.1s-.1-.2-.1-.4v-4.1zm-14.3-7.1c-.6 0-1 .3-1 1s.3 1 1 1h3v10.8c0 .7.4 1.1 1.3 1.1.8 0 1.3-.4 1.3-1.1v-10.8h3.1c.6 0 .9-.3.9-1 0-.6-.3-1-.9-1zm-10.3.8c0-.7-.4-1.1-1.3-1.1s-1.3.4-1.3 1.1v12c0 .7.4 1.1 1.3 1.1s1.3-.4 1.3-1.1v-5.6c1.3 0 2.3.2 2.8.7.6.5 1.1 1.4 1.6 2.6l.3.7c.5 1.2.9 2 1.3 2.4.3.3.7.4 1.4.3.8-.1 1-.5.7-1.1l-.4-.9c-.4-.8-.7-1.6-1.1-2.5-.7-1.9-1.8-3.1-3.1-3.5.9-.5 1.6-1.2 2.3-2.1.1-.1.2-.3.3-.4.1-.2.2-.3.3-.6s.2-.4.3-.5c.2-.3.4-.7.8-1.3.5-.8.2-1.2-.8-1.3-.6-.1-1.1.1-1.5.5-.3.4-.6.9-1.1 1.6l-.7 1.1c-.4.7-.9 1.2-1.4 1.6s-1.2.6-2.1.7v-4.4zm-10.4 14 5.5-13.9c.2-.4.1-.7-.2-.8-.3-.2-.7-.3-1.1-.3-.8 0-1.2.3-1.5 1l-2.9 7.9c-.1.3-.3.6-.4 1-.1-.4-.2-.8-.3-.9l-3.2-7.9c-.3-.6-.7-1-1.5-1-.5 0-.8.1-1.1.3s-.3.5-.1.8q.75 2.1 2.4 6c1.1 2.6 1.9 4.7 2.4 6l-.6 1.8c-.2.5-.4.8-.7 1.1-.3.2-.6.3-1.1.2-.9-.2-1.3 0-1.4.8 0 .4 0 .7.2.9s.4.4.7.4c.3.1.7.1 1.1.1q.9 0 1.5-.3c.4-.2.8-.5 1.1-.9s.5-.7.7-1c.1-.3.3-.7.5-1.3m-16.1-14.8c-1.5 0-2.2.8-2.3 2.5-.1.7-.1 1.3-.1 1.7-.1 2.3-.2 4-.4 4.9-.2 1.3-.6 2-1 2.2-.5.3-.8.5-1 .7q-.3.3-.3 1.2v2.4c0 .7.4 1.1 1.2 1.1s1.2-.4 1.2-1.1v-1.8c0-.1.1-.2.3-.2h8.6c.2 0 .3.1.3.2v1.8c0 .7.4 1.1 1.2 1.1s1.2-.4 1.2-1.1v-2.4c0-.4-.1-.8-.4-1.1s-.7-.4-1.2-.5v-9.9c0-.2-.1-.4-.1-.7s-.2-.5-.4-.6-.4-.2-.7-.4c-.3-.1-.7-.2-1.2-.2h-4.9zm-1.2 11.7c.4-.6.6-1.4.8-2.4.2-1.1.3-2.8.5-5.3l.1-1.4q.15-.6.6-.6h3.2c.2 0 .4 0 .5.1s.1.2.1.4v9.2zm-6.8-4.9q0 2.4-.9 3.6c-.6.8-1.6 1.2-2.8 1.2-1.3 0-2.2-.4-2.8-1.2q-.9-1.2-.9-3.6t.9-3.6c.6-.8 1.6-1.2 2.8-1.2 1.3 0 2.2.4 2.8 1.2q.9 1.2.9 3.6m-3.8-7.1c-4.3 0-6.4 2.4-6.4 7.1s2.1 7.1 6.4 7.1 6.4-2.4 6.4-7.1-2.1-7.1-6.4-7.1m-18.2 7.6v-1.3c0-1.1.3-2.1 1-2.9s1.6-1.3 2.8-1.3c2.2 0 3.3 1.7 3.3 5s-1.1 5-3.3 5c-1.2 0-2.1-.5-2.8-1.4s-1-2-1-3.1m-.2-6.5c0-.7-.4-1.1-1.2-1.1s-1.3.4-1.3 1.1v16.6c0 .7.4 1.1 1.3 1.1s1.3-.4 1.3-1.1v-5.1c1 1.2 2.3 1.7 3.9 1.7 1.1 0 2-.2 2.8-.6s1.4-.9 1.9-1.6.8-1.4 1-2.3c.2-.8.3-1.7.3-2.8q0-7.2-5.7-7.2c-1.8 0-3.2.7-4.3 2zm-8.4-.8h-6.4c-.5 0-1 .1-1.3.2s-.6.4-.7.6c-.1.3-.2.5-.2.8v11.200000000000001c0 .7.4 1.1 1.3 1.1.8 0 1.3-.4 1.3-1.1v-10.4c0-.2 0-.3.1-.4s.2-.1.4-.1h4.8c.4 0 .6.2.6.5v10.4c0 .7.4 1.1 1.3 1.1.8 0 1.3-.4 1.3-1.1v-11.3c0-.3-.1-.5-.2-.8s-.4-.5-.7-.6c-.6 0-1.1-.1-1.6-.1m-26.6 0c-.4 0-.8.1-1.1.2s-.6.3-.7.4c-.2.2-.3.4-.4.7s-.2.5-.2.7 0 .5-.1.8c0 .3-.1.9-.2 2-.2 2.6-.3 4.2-.5 4.9v.2c-.1.6-.2 1.1-.4 1.4s-.5.4-1 .4c-.6 0-.9.4-.9 1.1 0 .3.1.5.3.7q.3.3.9.3c1.1.1 1.9-.2 2.5-.9s.9-1.6 1.1-2.9c.1-1 .3-3.1.5-6.1l.1-1.3c0-.4.3-.6.7-.6h2.7c.4 0 .6.2.6.5v10.4c0 .7.4 1.1 1.3 1.1s1.3-.4 1.3-1.1v-11.100000000000001c0-.2-.1-.4-.1-.7q-.15-.45-.3-.6c-.2-.1-.4-.3-.7-.4s-.7-.2-1.1-.2h-4.3zm-7.3.8c0-.7-.4-1.1-1.3-1.1-.8 0-1.3.4-1.3 1.1v12c0 .7.4 1.1 1.3 1.1s1.3-.4 1.3-1.1zm-12.4 0c0-.7-.4-1.1-1.3-1.1s-1.3.4-1.3 1.1v11.200000000000001c0 .2.1.5.2.8s.4.5.7.6.8.2 1.3.2h4.1c1.4 0 2.5-.4 3.4-1.2s1.4-1.8 1.4-3.1-.4-2.3-1.3-3.1c-.8-.8-2-1.2-3.4-1.2h-3.9v-4.2zm0 6.3h3.6c1.5 0 2.3.8 2.3 2.3 0 .7-.2 1.3-.6 1.7s-1 .6-1.7.6h-2.9c-.2 0-.4 0-.5-.1s-.1-.2-.1-.4v-4.1zm-12.9 3c.5 0 1-.3 1.4-.9l2.6-4.3.4-.7v8.7c0 .7.4 1.1 1.2 1.1s1.2-.4 1.2-1.1v-12c0-.7-.5-1.1-1.4-1.1-.6 0-1.2.3-1.6.9l-3.8 6.4-3.8-6.4q-.6-.9-1.5-.9c-.9 0-1.4.4-1.4 1.1v12c0 .7.4 1.1 1.2 1.1s1.2-.4 1.2-1.1v-8.7c.1.2.2.5.4.7l1.3 2.2 1.3 2.2c.3.5.8.8 1.3.8m-12.2-3.3q0 2.4-.9 3.6c-.6.8-1.6 1.2-2.8 1.2s-2.2-.4-2.8-1.2q-.9-1.2-.9-3.6t.9-3.6c.6-.8 1.6-1.2 2.8-1.2s2.2.4 2.8 1.2q.9 1.2.9 3.6m-3.7-7.1c-4.3 0-6.4 2.4-6.4 7.1s2.1 7.1 6.4 7.1 6.4-2.4 6.4-7.1-2.1-7.1-6.4-7.1m-9.3-1.8c0-.8-.2-1.4-.5-1.9-.4-.5-1-.7-2-.7h-8.6c-1 0-1.6.2-2 .7s-.5 1.1-.5 1.9v14.8c0 .8.5 1.2 1.4 1.2s1.4-.4 1.4-1.2v-14.5c0-.4.2-.5.6-.5h6.9c.4 0 .6.2.6.5v14.5c0 .8.5 1.2 1.4 1.2s1.4-.4 1.4-1.2v-14.8zM206.538 358.643c0-.7-.4-1.1-1.3-1.1-.5 0-.9.1-1.1.4l-5.5 8c-.6 1-.9 1.5-1 1.6v-8.9c0-.7-.4-1.1-1.3-1.1s-1.3.4-1.3 1.1v12c0 .7.4 1.1 1.3 1.1.5 0 .9-.2 1.2-.5l5.6-8.1.3-.5.6-.9v8.8c0 .7.4 1.1 1.3 1.1s1.3-.4 1.3-1.1v-11.9zm-19.9-.8c-.5 0-.8.1-1.2.2-.3.1-.5.2-.7.4-.2.1-.3.3-.4.6s-.1.5-.1.7v11.100000000000001c0 .7.4 1.1 1.3 1.1s1.3-.4 1.3-1.1v-10.4c0-.3.2-.5.6-.5h4.6c.6 0 1-.3 1-1 0-.6-.3-1-1-1h-5.4zm-13.4 7.1h3.5c1.5 0 2.3.8 2.3 2.3s-.8 2.3-2.3 2.3h-2.9c-.4 0-.6-.2-.6-.5zm0-6.3c0-.7-.4-1.1-1.3-1.1s-1.3.4-1.3 1.1v11.100000000000001c0 .2.1.4.1.7s.2.5.4.6.4.2.7.4c.3.1.7.2 1.2.2h4.1c1.4 0 2.5-.4 3.4-1.2s1.4-1.8 1.4-3.1-.4-2.3-1.3-3.1c-.8-.8-2-1.2-3.4-1.2h-4zm-14.7 0c0-.7-.4-1.1-1.3-1.1s-1.3.4-1.3 1.1v12c0 .7.4 1.1 1.3 1.1s1.3-.4 1.3-1.1v-5.4h5.9v5.4c0 .7.4 1.1 1.3 1.1s1.3-.4 1.3-1.1v-12c0-.7-.4-1.1-1.3-1.1s-1.3.4-1.3 1.1v4.7h-5.9zm-15.2 4.4c.1-1 .5-1.9 1.2-2.6.7-.8 1.6-1.1 2.7-1.1q1.5 0 2.4.9c.6.6.9 1.4 1 2.4 0 .3-.1.4-.4.4zm9.8 0q0-2.4-1.5-3.9c-1.1-1.1-2.6-1.7-4.5-1.7-1.2 0-2.2.2-3.1.6s-1.6 1-2.1 1.7-.9 1.5-1.1 2.3-.4 1.7-.4 2.6.1 1.7.4 2.5c.2.8.6 1.6 1.1 2.3s1.2 1.3 2.1 1.7 1.9.6 3.1.6 2.3-.2 3.3-.7 1.7-1.2 2-2.1c.1-.3.1-.5-.1-.8s-.5-.4-.9-.5c-.6-.1-1.1.2-1.5.7-.3.4-.7.8-1.3 1s-1.1.3-1.6.3c-.8 0-1.5-.2-2-.5s-1-.7-1.2-1.2q-.45-.75-.6-1.5c-.1-.5-.2-1-.2-1.6h7.3c1 0 1.7-.2 2-.5s.8-.7.8-1.3m-22.5-5.2c-1.5 0-2.2.8-2.3 2.5-.1.7-.1 1.3-.1 1.7-.1 2.3-.2 4-.4 4.9-.2 1.3-.6 2-1 2.2-.5.3-.8.5-1 .7q-.3.3-.3 1.2v2.4c0 .7.4 1.1 1.2 1.1s1.2-.4 1.2-1.1v-1.8c0-.1.1-.2.3-.2h8.6c.2 0 .3.1.3.2v1.8c0 .7.4 1.1 1.2 1.1s1.2-.4 1.2-1.1v-2.3c0-.4-.1-.8-.4-1.1s-.7-.4-1.2-.5v-9.9c0-.2-.1-.4-.1-.7-.1-.3-.2-.5-.4-.6s-.4-.2-.7-.4c-.3-.1-.7-.2-1.2-.2h-4.9zm-1.2 11.7c.4-.6.6-1.4.8-2.4.2-1.1.3-2.8.5-5.3l.1-1.4q.15-.6.6-.6h3.2c.2 0 .4 0 .5.1s.1.2.1.4v9.2zm-19.9-11.7c-.4 0-.8.1-1.1.2s-.6.3-.7.4-.3.4-.4.7-.2.5-.2.7 0 .5-.1.8c0 .3-.1.9-.2 2-.2 2.6-.3 4.2-.5 4.9v.2c-.1.6-.2 1.1-.4 1.4s-.5.4-1 .4c-.6 0-.9.4-.9 1.1 0 .3.1.5.3.7q.3.3.9.3c1.1.1 1.9-.2 2.5-.9s.9-1.6 1.1-2.9c.1-1 .3-3.1.5-6.1l.1-1.3c0-.4.3-.6.7-.6h2.7c.4 0 .6.2.6.5v10.4c0 .7.4 1.1 1.3 1.1s1.3-.4 1.3-1.1v-11.100000000000001c0-.2-.1-.4-.1-.7s-.2-.5-.3-.6c-.2-.1-.4-.3-.7-.4s-.7-.2-1.1-.2h-4.3zm-10.9 10.8c-.8.9-1.9 1.3-3.2 1.3q-1.05 0-1.8-.6c-.5-.4-.7-.9-.7-1.6 0-.6.2-1.1.5-1.5q.45-.6 1.2-.9c.5-.2 1-.4 1.6-.4.5-.1 1.1-.1 1.7-.1.4 0 1.1 0 1.8.1.2 1.5-.2 2.7-1.1 3.7m1.4 2c.1.7.6 1 1.5.9q1.05-.15.9-1.2c-.1-.4-.1-1-.1-1.6v-5.6c0-1.9-.4-3.3-1.3-4.2s-2.3-1.4-4.3-1.4c-2.2 0-3.8.4-4.9 1.3q-.6.45-.6.9c0 .3.1.5.4.7q.45.3.9.3c.3 0 .6-.1.8-.3q1.2-.9 3-.9c1.7 0 2.8.5 3.2 1.4.2.5.2 1.2.2 2.1h-1.7c-5.2 0-7.9 1.6-7.9 4.8 0 1.3.4 2.4 1.3 3.1s2 1.1 3.4 1.1c2.1 0 3.7-.8 4.8-2.3.2-.1.3.3.4.9m-20.2-12.8c-.6 0-1 .3-1 1s.3 1 1 1h3v10.8c0 .7.4 1.1 1.3 1.1.8 0 1.3-.4 1.3-1.1v-10.8h3.1c.6 0 .9-.3.9-1 0-.6-.3-1-.9-1zm-3.2.8c0-.7-.4-1.1-1.3-1.1-.5 0-.9.1-1.1.4l-5.5 8c-.6 1-.9 1.5-1 1.6v-8.9c0-.7-.4-1.1-1.3-1.1s-1.3.4-1.3 1.1v12c0 .7.4 1.1 1.3 1.1.5 0 .9-.2 1.2-.5l5.6-8.1.3-.5.6-.9v8.8c0 .7.4 1.1 1.3 1.1s1.3-.4 1.3-1.1v-11.9zm-15.1 0c0-.7-.4-1.1-1.3-1.1s-1.3.4-1.3 1.1v4.2c0 .6-.3 1.1-.8 1.6-.5.4-1.3.6-2.3.6q-1.35 0-1.8-.6c-.3-.4-.5-1.1-.5-2.1v-3.7c0-.7-.4-1.1-1.3-1.1s-1.3.4-1.3 1.1v4.3c0 2.6 1.5 4 4.6 4q2.1 0 3.3-.9v4.7c0 .7.4 1.1 1.3 1.1.8 0 1.3-.4 1.3-1.1v-12.1zm-13.6 6.8c-.4 0-.7.1-.9.2s-.4.4-.4.7c-.5 1.9-1.9 2.8-4.3 2.8-.9 0-1.7-.1-2.4-.4s-1.2-.6-1.6-1-.7-.9-.9-1.6c-.2-.6-.4-1.3-.4-1.8-.1-.6-.1-1.3-.1-2s0-1.4.1-2 .2-1.2.4-1.8.5-1.2.9-1.6a5 5 0 0 1 1.6-1.1c.7-.3 1.5-.4 2.4-.4q.9 0 1.8.3c.6.2 1.1.5 1.6.9s.8 1 .9 1.7c.1.6.6.9 1.4.9.5-.1.8-.2 1.1-.4.2-.2.2-.4.2-.7-.2-1.7-1-2.9-2.4-3.8s-2.9-1.3-4.5-1.3c-2.7 0-4.8.8-6.2 2.4s-2.1 4-2.1 7.1.7 5.4 2.1 7 3.5 2.4 6.2 2.4c1.8 0 3.3-.5 4.6-1.5s2.1-2.2 2.3-3.7c0-.3 0-.5-.2-.7-.4-.4-.7-.6-1.2-.6M729.238 224.844l5.5-13.9c.2-.4.1-.7-.2-.8-.3-.2-.7-.3-1.1-.3-.8 0-1.2.3-1.5 1l-2.9 7.9c-.1.3-.3.6-.4 1-.1-.4-.2-.8-.3-.9l-3.2-7.9c-.3-.6-.7-1-1.5-1-.5 0-.8.1-1.1.3s-.3.5-.1.8q.75 2.1 2.4 6 1.65 4.05 2.4 6l-.6 1.8c-.2.5-.4.8-.7 1.1s-.6.3-1.1.2c-.9-.2-1.3 0-1.4.8 0 .4 0 .7.2.9s.4.4.7.4c.3.1.7.1 1.1.1q.9 0 1.5-.3c.4-.2.8-.5 1.1-.9s.5-.7.7-1c.1-.4.3-.8.5-1.3m-16.2-14.1c0-.7-.4-1.1-1.3-1.1s-1.3.4-1.3 1.1v12c0 .7.4 1.1 1.3 1.1s1.3-.4 1.3-1.1v-5.6c1.3 0 2.3.2 2.8.7.6.5 1.1 1.4 1.6 2.6l.3.7c.5 1.2.9 2 1.3 2.4.3.3.7.4 1.4.3.8-.1 1-.5.7-1.1l-.4-.9c-.4-.8-.7-1.6-1.1-2.5-.7-1.9-1.8-3.1-3.1-3.5.9-.5 1.6-1.2 2.3-2.1.1-.1.2-.3.3-.4.1-.2.2-.3.3-.6.1-.2.2-.4.3-.5.2-.3.4-.7.8-1.3.5-.8.2-1.2-.8-1.3-.6-.1-1.1.1-1.5.5-.3.4-.6.9-1.1 1.6l-.7 1.1c-.4.7-.9 1.2-1.4 1.6s-1.2.6-2.1.7v-4.4zm-10.3 14.1 5.5-13.9c.2-.4.1-.7-.2-.8-.3-.2-.7-.3-1.1-.3-.8 0-1.2.3-1.5 1l-2.9 7.9c-.1.3-.3.6-.4 1-.1-.4-.2-.8-.3-.9l-3.2-7.9c-.3-.6-.7-1-1.5-1-.5 0-.8.1-1.1.3s-.3.5-.1.8q.75 2.1 2.4 6 1.65 4.05 2.4 6l-.6 1.8c-.2.5-.4.8-.7 1.1-.3.2-.6.3-1.1.2-.9-.2-1.3 0-1.4.8 0 .4 0 .7.2.9s.4.4.7.4c.3.1.7.1 1.1.1q.9 0 1.5-.3c.4-.2.8-.5 1.1-.9s.5-.7.7-1c0-.4.2-.8.5-1.3m-17.7-7.6v-1.3c0-1.1.3-2.1 1-2.9s1.6-1.3 2.8-1.3c2.2 0 3.3 1.7 3.3 5s-1.1 5-3.3 5c-1.2 0-2.1-.5-2.8-1.4-.6-.9-1-1.9-1-3.1m-.1-6.5c0-.7-.4-1.1-1.2-1.1s-1.3.4-1.3 1.1v16.6c0 .7.4 1.1 1.3 1.1s1.3-.4 1.3-1.1v-5.1c1 1.2 2.3 1.7 3.9 1.7 1.1 0 2-.2 2.8-.6s1.4-.9 1.9-1.6.8-1.4 1-2.3c.2-.8.3-1.7.3-2.8q0-7.2-5.7-7.2c-1.8 0-3.2.7-4.3 2zm-17.3 10c-.8.9-1.9 1.3-3.2 1.3q-1.05 0-1.8-.6c-.5-.4-.7-.9-.7-1.6 0-.6.2-1.1.5-1.5q.45-.6 1.2-.9c.5-.2 1-.4 1.6-.4.5-.1 1.1-.1 1.7-.1.4 0 1.1 0 1.8.1.2 1.5-.2 2.7-1.1 3.7m1.4 2.1c.1.7.6 1 1.5.9q1.05-.15.9-1.2c-.1-.4-.1-1-.1-1.6v-5.6c0-1.9-.4-3.3-1.3-4.2s-2.3-1.4-4.3-1.4c-2.2 0-3.8.4-4.9 1.3q-.6.45-.6.9c0 .3.1.5.4.7q.45.3.9.3c.3 0 .6-.1.8-.3q1.2-.9 3-.9c1.7 0 2.8.5 3.2 1.4.2.5.2 1.2.2 2.1h-1.7c-5.2 0-7.9 1.6-7.9 4.8 0 1.3.4 2.4 1.3 3.1s2 1.1 3.4 1.1c2.1 0 3.7-.8 4.8-2.3.2-.2.3.2.4.9m-14.1-6.5c1.5-.7 2.3-1.7 2.3-3.1 0-.9-.3-1.6-.8-2.2s-1.2-1-1.9-1.2q-1.05-.3-2.4-.3c-1.3 0-2.5.3-3.5.8-1 .6-1.6 1.4-1.8 2.5 0 .2 0 .4.2.6.2.3.6.4 1.1.4.6 0 1-.3 1.1-.8.1-1.1 1.1-1.6 2.9-1.6.8 0 1.4.2 1.8.5.4.4.7.8.7 1.4 0 1.4-1 2.1-3.1 2.1q-1.2 0-1.2.9c0 .7.3 1 1 1h.5c.4 0 .9 0 1.3.1s.8.3 1.3.6c.4.4.6.8.6 1.4 0 .8-.3 1.4-.8 1.8s-1.2.7-2.1.7c-.2 0-.5 0-.8-.1s-.6-.1-.9-.3c-.3-.1-.6-.3-.8-.6s-.4-.6-.4-.9q-.15-.9-1.2-.9c-.5 0-.8.1-1.1.4-.2.2-.2.4-.2.7q.3 1.2 1.2 2.1c.6.5 1.3.9 2 1.1s1.5.3 2.3.3c1.7 0 3-.4 4-1.2s1.5-1.8 1.5-3.2c-.1-1.3-1-2.4-2.8-3m-24.6-4.4h2.8c.2 0 .4 0 .5.1s.1.2.1.4v3.8h-3.2c-.8 0-1.4-.2-1.9-.6s-.8-.9-.8-1.5c0-.7.2-1.3.7-1.7.5-.3 1.1-.5 1.8-.5m3.4 6.3v4.6c0 .7.4 1.1 1.3 1.1s1.3-.4 1.3-1.1v-10.4c0-.8-.2-1.5-.5-1.9s-.9-.6-1.9-.6h-3.8c-1.5 0-2.7.4-3.7 1.1-.9.7-1.4 1.8-1.4 3.1 0 .8.3 1.5.8 2.1s1.2 1.1 2.1 1.3c-.6.4-1.1 1.1-1.6 2.2-.6 1.2-1.1 2.1-1.6 2.8-.2.3-.2.5-.1.8.2.3.4.4.8.5.6.1 1.2-.1 1.6-.5.5-.5 1-1.4 1.5-2.8.6-1.6 1.7-2.4 3.4-2.4h1.8zm-12.3 1.6c-.6-.1-1.1.2-1.4.8-.5.9-1.3 1.3-2.4 1.3-2.5 0-3.7-1.7-3.7-5.2s1.2-5.2 3.7-5.2c1.2 0 2.1.5 2.5 1.5.2.5.6.8 1.3.8h.1c.4-.1.7-.2.8-.4.2-.2.2-.5.1-.9-.2-.8-.7-1.5-1.6-2.1q-1.35-.9-3.3-.9c-4.3 0-6.4 2.4-6.4 7.1s2.1 7.1 6.4 7.1q1.95 0 3.3-.9c.9-.6 1.4-1.2 1.6-1.9.1-.5 0-.8-.2-.9-.1-.1-.4-.2-.8-.2m-19.6-9.9c-.4 0-.8.1-1.1.2s-.6.3-.7.4c-.2.2-.3.4-.4.7s-.2.5-.2.7 0 .5-.1.8c0 .3-.1.9-.2 2-.2 2.6-.3 4.2-.5 4.9v.2c-.1.6-.2 1.1-.4 1.4s-.5.4-1 .4c-.6 0-.9.4-.9 1.1 0 .3.1.5.3.7q.3.3.9.3c1.1.1 1.9-.2 2.5-.9s.9-1.6 1.1-2.9c.1-1 .3-3.1.5-6.1l.1-1.3c0-.4.3-.6.7-.6h2.7c.4 0 .6.2.6.5v10.4c0 .7.4 1.1 1.3 1.1s1.3-.4 1.3-1.1v-11.100000000000001c0-.2-.1-.4-.1-.7q-.15-.45-.3-.6c-.2-.1-.4-.3-.7-.4s-.7-.2-1.1-.2h-4.3zm-10.9 10.8c-.8.9-1.9 1.3-3.2 1.3q-1.05 0-1.8-.6c-.5-.4-.7-.9-.7-1.6 0-.6.2-1.1.5-1.5q.45-.6 1.2-.9c.5-.2 1-.4 1.6-.4.5-.1 1.1-.1 1.7-.1.4 0 1.1 0 1.8.1.2 1.5-.2 2.7-1.1 3.7m1.4 2.1c.1.7.6 1 1.5.9q1.05-.15.9-1.2c-.1-.4-.1-1-.1-1.6v-5.6c0-1.9-.4-3.3-1.3-4.2s-2.3-1.4-4.3-1.4c-2.2 0-3.8.4-4.9 1.3q-.6.45-.6.9c0 .3.1.5.4.7q.45.3.9.3c.3 0 .6-.1.8-.3q1.2-.9 3-.9c1.7 0 2.8.5 3.2 1.4.2.5.2 1.2.2 2.1h-1.7c-5.2 0-7.9 1.6-7.9 4.8 0 1.3.4 2.4 1.3 3.1s2 1.1 3.4 1.1c2.1 0 3.7-.8 4.8-2.3.2-.2.2.2.4.9m-20.5-10.4c0-.2 0-.3.1-.4s.2-.1.4-.1h3.4c1.3 0 1.9.6 1.9 1.7 0 .6-.2 1.1-.6 1.4s-.8.5-1.4.5h-4v-3.1zm0 5h4c1.5 0 2.3.7 2.3 2.2 0 1.4-.8 2.1-2.3 2.1h-3.4c-.2 0-.4 0-.4-.1-.1-.1-.1-.2-.1-.4v-3.8zm-.3-7.5c-.5 0-.8.1-1.2.2-.3.1-.5.2-.7.4-.2.1-.3.3-.4.6s-.1.5-.1.7v10.100000000000001c0 .2.1.4.1.7.1.3.2.5.4.6s.4.2.7.4c.3.1.7.2 1.2.2h4.8c1.3 0 2.3-.4 3.2-1.1s1.3-1.7 1.3-2.8c0-.7-.2-1.4-.6-2s-1-1.1-1.7-1.4c1.2-.6 1.8-1.6 1.8-2.9 0-1.1-.4-1.9-1.2-2.5s-1.9-.9-3.4-.9h-4.2zm-7.7 6.8q0 2.4-.9 3.6c-.6.8-1.6 1.2-2.8 1.2-1.3 0-2.2-.4-2.8-1.2q-.9-1.2-.9-3.6t.9-3.6c.6-.8 1.6-1.2 2.8-1.2 1.3 0 2.2.4 2.8 1.2.5.8.9 2 .9 3.6m-3.8-7.1c-4.3 0-6.4 2.4-6.4 7.1s2.1 7.1 6.4 7.1 6.4-2.4 6.4-7.1-2.1-7.1-6.4-7.1m-18.3 7.6v-1.3c0-1.1.3-2.1 1-2.9s1.6-1.3 2.8-1.3c2.2 0 3.3 1.7 3.3 5s-1.1 5-3.3 5c-1.2 0-2.1-.5-2.8-1.4s-1-1.9-1-3.1m-.1-6.5c0-.7-.4-1.1-1.2-1.1s-1.3.4-1.3 1.1v16.6c0 .7.4 1.1 1.3 1.1s1.3-.4 1.3-1.1v-5.1c1 1.2 2.3 1.7 3.9 1.7 1.1 0 2-.2 2.8-.6s1.4-.9 1.9-1.6.8-1.4 1-2.3c.2-.8.3-1.7.3-2.8q0-7.2-5.7-7.2c-1.8 0-3.2.7-4.3 2zm-7.9 6q0 2.4-.9 3.6c-.6.8-1.6 1.2-2.8 1.2-1.3 0-2.2-.4-2.8-1.2q-.9-1.2-.9-3.6t.9-3.6c.6-.8 1.6-1.2 2.8-1.2 1.3 0 2.2.4 2.8 1.2q.9 1.2.9 3.6m-3.8-7.1c-4.3 0-6.4 2.4-6.4 7.1s2.1 7.1 6.4 7.1 6.4-2.4 6.4-7.1-2.1-7.1-6.4-7.1m-16.2.3c-1.5 0-2.2.8-2.3 2.5-.1.7-.1 1.3-.1 1.7-.1 2.3-.2 4-.4 4.9-.2 1.3-.6 2-1 2.2-.5.3-.8.5-1 .7q-.3.3-.3 1.2v2.4c0 .7.4 1.1 1.2 1.1s1.2-.4 1.2-1.1v-1.8c0-.1.1-.2.3-.2h8.6c.2 0 .3.1.3.2v1.8c0 .7.4 1.1 1.2 1.1s1.2-.4 1.2-1.1v-2.4c0-.4-.1-.8-.4-1.1s-.7-.4-1.2-.5v-9.9c0-.2-.1-.4-.1-.7s-.2-.5-.4-.6-.4-.2-.7-.4c-.3-.1-.7-.2-1.2-.2h-4.9zm-1.3 11.7c.4-.6.6-1.4.8-2.4.2-1.1.3-2.8.5-5.3l.1-1.4q.15-.6.6-.6h3.2c.2 0 .4 0 .5.1s.1.2.1.4v9.2zm-6.8-5.3c1.5-.7 2.3-1.7 2.3-3.1 0-.9-.3-1.6-.8-2.2s-1.2-1-1.9-1.2q-1.05-.3-2.4-.3c-1.3 0-2.5.3-3.5.8-1 .6-1.6 1.4-1.8 2.5 0 .2 0 .4.2.6.2.3.6.4 1.1.4.6 0 1-.3 1.1-.8.1-1.1 1.1-1.6 2.9-1.6.8 0 1.4.2 1.8.5.4.4.7.8.7 1.4 0 1.4-1 2.1-3.1 2.1q-1.2 0-1.2.9c0 .7.3 1 1 1h.5c.4 0 .9 0 1.3.1s.8.3 1.3.6c.4.4.6.8.6 1.4 0 .8-.3 1.4-.8 1.8s-1.2.7-2.1.7c-.2 0-.5 0-.8-.1s-.6-.1-.9-.3c-.3-.1-.6-.3-.8-.6s-.4-.6-.4-.9q-.15-.9-1.2-.9c-.5 0-.8.1-1.1.4-.2.2-.2.4-.2.7q.3 1.2 1.2 2.1c.6.5 1.3.9 2 1.1s1.5.3 2.3.3c1.7 0 3-.4 4-1.2s1.5-1.8 1.5-3.2c-.1-1.3-1-2.4-2.8-3m-12.8.4q0 2.4-.9 3.6c-.6.8-1.6 1.2-2.8 1.2s-2.2-.4-2.8-1.2q-.9-1.2-.9-3.6t.9-3.6c.6-.8 1.6-1.2 2.8-1.2s2.2.4 2.8 1.2q.9 1.2.9 3.6m-3.7-7.1c-4.3 0-6.4 2.4-6.4 7.1s2.1 7.1 6.4 7.1 6.4-2.4 6.4-7.1-2.1-7.1-6.4-7.1m-9.3-1.8c0-.8-.2-1.4-.5-1.9-.4-.5-1-.7-2-.7h-8.6c-1 0-1.6.2-2 .7s-.5 1.1-.5 1.9v14.8c0 .8.5 1.2 1.4 1.2s1.4-.4 1.4-1.2v-14.5c0-.4.2-.5.6-.5h6.9c.4 0 .6.2.6.5v14.5c0 .8.5 1.2 1.4 1.2s1.4-.4 1.4-1.2v-14.8zM641.138 321.344c-.4 0-.7.1-.9.2s-.4.4-.4.7c-.5 1.9-1.9 2.8-4.3 2.8-.9 0-1.7-.1-2.4-.4s-1.2-.6-1.6-1-.7-.9-.9-1.6c-.2-.6-.4-1.3-.4-1.8-.1-.6-.1-1.3-.1-2s0-1.4.1-2 .2-1.2.4-1.8.5-1.2.9-1.6a5 5 0 0 1 1.6-1.1c.7-.3 1.5-.4 2.4-.4q.9 0 1.8.3c.6.2 1.1.5 1.6.9s.8 1 .9 1.7c.1.6.6.9 1.4.9.5-.1.8-.2 1.1-.4.2-.2.2-.4.2-.7-.2-1.7-1-2.9-2.4-3.8s-2.9-1.3-4.5-1.3c-2.7 0-4.8.8-6.2 2.4s-2.1 4-2.1 7.1.7 5.4 2.1 7 3.5 2.4 6.2 2.4c1.8 0 3.3-.5 4.6-1.5s2.1-2.2 2.3-3.7c0-.3 0-.5-.2-.7-.4-.5-.8-.6-1.2-.6m-24.6 0c.6 0 1-.3 1.4-1l3.4-5.9.4-.8v12.9c0 .8.4 1.1 1.3 1.1q1.2 0 1.2-1.2v-16.3c0-.8-.5-1.2-1.4-1.2-.8 0-1.3.4-1.7 1.1l-4.7 8.2-4.7-8.2c-.2-.4-.5-.7-.7-.8s-.6-.2-1-.2c-.9 0-1.4.4-1.4 1.2v16.3q0 1.2 1.2 1.2c.9 0 1.3-.4 1.3-1.1v-12.9l.4.8 3.4 5.9c.5.5 1 .9 1.6.9m-11.8 0c-.4 0-.7.1-.9.2-.3.2-.4.4-.4.7-.5 1.9-1.9 2.8-4.3 2.8-.9 0-1.7-.1-2.4-.4s-1.2-.6-1.6-1-.7-.9-.9-1.6c-.2-.6-.4-1.3-.4-1.8s-.1-1.3-.1-2 0-1.4.1-2 .2-1.2.4-1.8.5-1.2.9-1.6a5 5 0 0 1 1.6-1.1c.7-.3 1.5-.4 2.4-.4q.9 0 1.8.3c.6.2 1.1.5 1.6.9s.8 1 .9 1.7c.1.6.6.9 1.4.9.5-.1.8-.2 1.1-.4.2-.2.2-.4.2-.7-.2-1.7-1-2.9-2.4-3.8s-2.9-1.3-4.5-1.3c-2.7 0-4.8.8-6.2 2.4s-2.1 4-2.1 7.1.7 5.4 2.1 7 3.5 2.4 6.2 2.4c1.8 0 3.3-.5 4.6-1.5s2.1-2.2 2.3-3.7c0-.3 0-.5-.2-.7-.4-.5-.8-.6-1.2-.6m-30.9-7.6c-.4 0-.8.1-1.1.2s-.6.3-.7.4c-.2.2-.3.4-.4.7s-.2.5-.2.7 0 .5-.1.8c0 .3-.1.9-.2 2-.2 2.6-.3 4.2-.5 4.9v.2c-.1.6-.2 1.1-.4 1.4s-.5.4-1 .4c-.6 0-.9.4-.9 1.1 0 .3.1.5.3.7q.3.3.9.3c1.1.1 1.9-.2 2.5-.9s.9-1.6 1.1-2.9c.1-1 .3-3.1.5-6.1l.1-1.3c0-.4.3-.6.7-.6h2.7c.4 0 .6.2.6.5v10.4c0 .7.4 1.1 1.3 1.1s1.3-.4 1.3-1.1v-11.100000000000001c0-.2-.1-.4-.1-.7q-.15-.45-.3-.6c-.2-.1-.4-.3-.7-.4s-.7-.2-1.1-.2h-4.3zm-7.4.8c0-.7-.4-1.1-1.3-1.1-.5 0-.9.1-1.1.4l-5.5 8c-.6 1-.9 1.5-1 1.6v-8.9c0-.7-.4-1.1-1.3-1.1s-1.3.4-1.3 1.1v12c0 .7.4 1.1 1.3 1.1.5 0 .9-.2 1.2-.5l5.6-8.1.3-.5.6-.9v8.8c0 .7.4 1.1 1.3 1.1s1.3-.4 1.3-1.1v-11.9zm-23.3 1.6c0-.2 0-.3.1-.4s.2-.1.4-.1h3.4c1.3 0 1.9.6 1.9 1.7 0 .6-.2 1.1-.6 1.4s-.8.5-1.4.5h-4v-3.1zm0 5h4c1.5 0 2.3.7 2.3 2.2 0 1.4-.8 2.1-2.3 2.1h-3.4c-.2 0-.4 0-.4-.1s-.1-.2-.1-.4v-3.8zm-.2-7.4c-.5 0-.8.1-1.2.2-.3.1-.5.2-.7.4-.2.1-.3.3-.4.6s-.1.5-.1.7v10.100000000000001c0 .2.1.4.1.7.1.3.2.5.4.6s.4.2.7.4.7.2 1.2.2h4.8c1.3 0 2.3-.4 3.2-1.1s1.3-1.7 1.3-2.8c0-.7-.2-1.4-.6-2s-1-1.1-1.7-1.4c1.2-.6 1.8-1.6 1.8-2.9 0-1.1-.4-1.9-1.2-2.5s-1.9-.9-3.4-.9h-4.2zm-9.6 10.7c-.8.9-1.9 1.3-3.2 1.3q-1.05 0-1.8-.6c-.5-.4-.7-.9-.7-1.6 0-.6.2-1.1.5-1.5q.45-.6 1.2-.9c.5-.2 1-.4 1.6-.4.5-.1 1.1-.1 1.7-.1.4 0 1.1 0 1.8.1.2 1.5-.2 2.8-1.1 3.7m1.4 2.1c.1.7.6 1 1.5.9q1.05-.15.9-1.2c-.1-.4-.1-1-.1-1.6v-5.6c0-1.9-.4-3.3-1.3-4.2s-2.3-1.4-4.3-1.4c-2.2 0-3.8.4-4.9 1.3q-.6.45-.6.9c0 .3.1.5.4.7q.45.3.9.3c.3 0 .6-.1.8-.3q1.2-.9 3-.9c1.7 0 2.8.5 3.2 1.4.2.5.2 1.2.2 2.1h-1.7c-5.2 0-7.9 1.6-7.9 4.8 0 1.3.4 2.4 1.3 3.1s2 1.1 3.4 1.1c2.1 0 3.7-.8 4.8-2.3.2-.1.3.3.4.9m-21.3-5.5v-1.3c0-1.1.3-2.1 1-2.9s1.6-1.3 2.8-1.3c2.2 0 3.3 1.7 3.3 5s-1.1 5-3.3 5c-1.2 0-2.1-.5-2.8-1.4s-1-2-1-3.1m-.1-6.5c0-.7-.4-1.1-1.2-1.1s-1.3.4-1.3 1.1v16.6c0 .7.4 1.1 1.3 1.1s1.3-.4 1.3-1.1v-5.1c1 1.2 2.3 1.7 3.9 1.7 1.1 0 2-.2 2.8-.6s1.4-.9 1.9-1.6.8-1.4 1-2.3c.2-.8.3-1.7.3-2.8q0-7.2-5.7-7.2c-1.8 0-3.2.7-4.3 2zm-8.5-.8h-6.4c-.5 0-1 .1-1.3.2s-.6.4-.7.6c-.1.3-.2.5-.2.8v11.200000000000001c0 .7.4 1.1 1.3 1.1.8 0 1.3-.4 1.3-1.1v-10.4c0-.2 0-.3.1-.4s.2-.1.4-.1h4.8c.4 0 .6.2.6.5v10.4c0 .7.4 1.1 1.3 1.1.8 0 1.3-.4 1.3-1.1v-11.3c0-.2-.1-.5-.2-.8s-.4-.5-.7-.6c-.6 0-1-.1-1.6-.1m-20.5 0c-.6 0-1 .3-1 1s.3 1 1 1h3v10.8c0 .7.4 1.1 1.3 1.1.8 0 1.3-.4 1.3-1.1v-10.8h3.1c.6 0 .9-.3.9-1 0-.6-.3-1-.9-1zm-5.2 4.5c0 2.3-.4 4.1-1.3 5.2s-2.2 1.7-4.1 1.7c-1.8 0-3.2-.6-4.1-1.7s-1.3-2.9-1.3-5.2c0-2.4.4-4.1 1.3-5.3.9-1.1 2.2-1.7 4.1-1.7 1.8 0 3.2.6 4.1 1.7.8 1.2 1.3 2.9 1.3 5.3m.9-6.8q-2.1-2.7-6.3-2.7t-6.3 2.7c-1.3 1.6-2 3.9-2 6.8 0 3 .7 5.3 2.2 7s3.5 2.5 6.1 2.5 4.7-.8 6.1-2.5c1.5-1.6 2.2-4 2.2-7 0-2.9-.7-5.2-2-6.8M658.238 116.644v-1.3c0-1.1.3-2.1 1-2.9s1.6-1.3 2.8-1.3c2.2 0 3.3 1.7 3.3 5s-1.1 5-3.3 5c-1.2 0-2.1-.5-2.8-1.4-.6-.8-1-1.9-1-3.1m-.1-6.4c0-.7-.4-1.1-1.2-1.1s-1.3.4-1.3 1.1v16.6c0 .7.4 1.1 1.3 1.1s1.3-.4 1.3-1.1v-5.1c1 1.2 2.3 1.7 3.9 1.7 1.1 0 2-.2 2.8-.6s1.4-.9 1.9-1.6.8-1.4 1-2.3c.2-.8.3-1.7.3-2.8q0-7.2-5.7-7.2c-1.8 0-3.2.7-4.3 2zm-7.9 6q0 2.4-.9 3.6c-.6.8-1.6 1.2-2.8 1.2s-2.2-.4-2.8-1.2q-.9-1.2-.9-3.6t.9-3.6c.6-.8 1.6-1.2 2.8-1.2s2.2.4 2.8 1.2q.9 1.05.9 3.6m-3.7-7.1c-4.3 0-6.4 2.4-6.4 7.1s2.1 7.1 6.4 7.1 6.4-2.4 6.4-7.1c0-4.8-2.2-7.1-6.4-7.1m-9.9 10.1c-.6-.1-1.1.2-1.4.8-.5.9-1.3 1.3-2.4 1.3-2.5 0-3.7-1.7-3.7-5.2 0-3.4 1.2-5.2 3.7-5.2 1.2 0 2.1.5 2.5 1.5.2.5.6.8 1.3.8h.1c.4-.1.7-.2.8-.4.2-.2.2-.5.1-.9-.2-.8-.7-1.5-1.6-2.1q-1.35-.9-3.3-.9c-4.3 0-6.4 2.4-6.4 7.1s2.1 7.1 6.4 7.1q1.95 0 3.3-.9c.9-.6 1.4-1.2 1.6-1.9.1-.5 0-.8-.2-.9-.2 0-.5-.1-.8-.2m-17.3 5 5.5-13.9c.2-.4.1-.7-.2-.8-.3-.2-.7-.3-1.1-.3-.8 0-1.2.3-1.5 1l-2.9 7.9c-.1.3-.3.6-.4 1-.1-.4-.2-.8-.3-.9l-3.2-8.1c-.3-.6-.7-1-1.5-1-.5 0-.8.1-1.1.3s-.3.5-.1.8q.75 2.1 2.4 6 1.65 4.05 2.4 6l-.6 1.8c-.2.5-.4.8-.7 1.1-.3.2-.6.3-1.1.2-.9-.2-1.3 0-1.4.8 0 .4 0 .7.2.9s.4.4.7.4c.3.1.7.1 1.1.1q.9 0 1.5-.3c.4-.2.8-.5 1.1-.9s.5-.7.7-1c.1-.2.3-.6.5-1.1m-15.8-4.7c.5 0 1-.3 1.4-.9l2.6-4.3.4-.7v8.7c0 .7.4 1.1 1.2 1.1s1.2-.4 1.2-1.1v-12c0-.7-.5-1.1-1.4-1.1-.6 0-1.2.3-1.6.9l-3.8 6.4-3.8-6.4q-.6-.9-1.5-.9c-.9 0-1.4.4-1.4 1.1v12c0 .7.4 1.1 1.2 1.1s1.2-.4 1.2-1.1v-8.7c.1.2.2.5.4.7l1.3 2.2 1.3 2.2c.3.5.8.8 1.3.8m-24.6-10.1c-.4 0-.8.1-1.1.2s-.6.3-.7.4c-.2.2-.3.4-.4.7s-.2.5-.2.7 0 .5-.1.8c0 .3-.1.9-.2 2-.2 2.6-.3 4.2-.5 4.9v.2c-.1.6-.2 1.1-.4 1.4s-.5.4-1 .4c-.6 0-.9.4-.9 1.1 0 .3.1.5.3.7q.3.3.9.3c1.1.1 1.9-.2 2.5-.9s.9-1.6 1.1-2.9c.1-1 .3-3.1.5-6.1l.1-1.3c0-.4.3-.6.7-.6h2.7c.4 0 .6.2.6.5v10.4c0 .7.4 1.1 1.3 1.1s1.3-.4 1.3-1.1v-11.100000000000001c0-.2-.1-.4-.1-.7q-.15-.45-.3-.6c-.2-.1-.4-.3-.7-.4s-.7-.2-1.1-.2h-4.3zm-7.3.8c0-.7-.4-1.1-1.3-1.1-.5 0-.9.1-1.1.4l-5.5 8c-.6 1-.9 1.5-1 1.6v-8.9c0-.7-.4-1.1-1.3-1.1s-1.3.4-1.3 1.1v12c0 .7.4 1.1 1.3 1.1.5 0 .9-.2 1.2-.5l5.6-8.1.3-.5.6-.9v8.8c0 .7.4 1.1 1.3 1.1s1.3-.4 1.3-1.1v-11.9zm-15.7 9c-.6-.1-1.1.2-1.4.8-.5.9-1.3 1.3-2.4 1.3-2.5 0-3.7-1.7-3.7-5.2 0-3.4 1.2-5.2 3.7-5.2 1.2 0 2.1.5 2.5 1.5.2.5.6.8 1.3.8h.1c.4-.1.7-.2.8-.4.2-.2.2-.5.1-.9-.2-.8-.7-1.5-1.6-2.1q-1.35-.9-3.3-.9c-4.3 0-6.4 2.4-6.4 7.1s2.1 7.1 6.4 7.1q1.95 0 3.3-.9c.9-.6 1.4-1.2 1.6-1.9.1-.5 0-.8-.2-.9-.1 0-.4-.1-.8-.2m-14.9-3q0 2.4-.9 3.6c-.6.8-1.6 1.2-2.8 1.2s-2.2-.4-2.8-1.2q-.9-1.2-.9-3.6t.9-3.6c.6-.8 1.6-1.2 2.8-1.2s2.2.4 2.8 1.2q.9 1.05.9 3.6m-3.8-7.1c-4.3 0-6.4 2.4-6.4 7.1s2.1 7.1 6.4 7.1 6.4-2.4 6.4-7.1c.1-4.8-2.1-7.1-6.4-7.1m-18.2 7.5v-1.3c0-1.1.3-2.1 1-2.9s1.6-1.3 2.8-1.3c2.2 0 3.3 1.7 3.3 5s-1.1 5-3.3 5c-1.2 0-2.1-.5-2.8-1.4-.7-.8-1-1.9-1-3.1m-.2-6.4c0-.7-.4-1.1-1.2-1.1s-1.3.4-1.3 1.1v16.6c0 .7.4 1.1 1.3 1.1s1.3-.4 1.3-1.1v-5.1c1 1.2 2.3 1.7 3.9 1.7 1.1 0 2-.2 2.8-.6s1.4-.9 1.9-1.6.8-1.4 1-2.3.3-1.7.3-2.8q0-7.2-5.7-7.2c-1.8 0-3.2.7-4.3 2zm-7.6 6c0 .6-.1 1.2-.2 1.8s-.3 1.1-.5 1.6c-.3.5-.6.9-1.2 1.3-.5.3-1.1.5-1.9.5-2.5 0-3.7-1.7-3.7-5.1s1.2-5.1 3.7-5.1c.7 0 1.4.2 1.9.5s.9.7 1.2 1.3c.3.5.4 1.1.5 1.6.1.4.2 1 .2 1.6m-3.1-9.5.8-.3c1.8-.5 2.8-.9 3.2-1.2.8-.5 1-1 .7-1.7-.3-.5-.6-.7-1.1-.7-.3 0-.5.1-.7.3-.4.3-1.3.7-2.6 1.2-.5.2-.9.3-1.2.5q-1.95.75-3.3 2.1c-.9.9-1.5 1.8-1.9 2.9s-.7 2.1-.8 3.1-.2 2.1-.2 3.3c0 1 .1 1.8.3 2.7.2.8.6 1.6 1 2.3.5.7 1.1 1.3 2 1.7s1.9.6 3.1.6c4.3 0 6.4-2.4 6.4-7.1 0-2.3-.5-4-1.4-5.2q-1.35-1.8-4.8-1.8c-1.5 0-2.8.5-3.9 1.6.8-2.2 2.2-3.6 4.4-4.3m-10.3 3.5c0-.7-.4-1.1-1.3-1.1-.8 0-1.3.4-1.3 1.1v12c0 .7.4 1.1 1.3 1.1s1.3-.4 1.3-1.1zm-12.3 0c0-.7-.4-1.1-1.3-1.1s-1.3.4-1.3 1.1v11.200000000000001c0 .2.1.5.2.8s.4.5.7.6.8.2 1.3.2h4.1c1.4 0 2.5-.4 3.4-1.2s1.4-1.8 1.4-3.1-.4-2.3-1.3-3.1c-.8-.8-2-1.2-3.4-1.2h-3.9v-4.2zm0 6.3h3.6c1.5 0 2.3.8 2.3 2.3 0 .7-.2 1.3-.6 1.7s-1 .6-1.7.6h-2.9c-.2 0-.4 0-.5-.1s-.1-.2-.1-.4v-4.1zm-16.6-4.1v-4.9q0-.6.6-.6h4q1.5 0 2.4.6c.6.4 1 1.1 1 1.9 0 1.9-1.3 2.9-4 2.9h-4zm4.9 8.4h-4.4q-.6 0-.6-.6v-5.7h4.6c1.2 0 2.1.3 2.9.8.7.5 1.1 1.4 1.1 2.5 0 .9-.3 1.7-1 2.2-.7.6-1.6.8-2.6.8m-7.6-13.5v13.2c0 .8.2 1.4.5 1.9.4.5 1 .7 2 .7h5.2c1.9 0 3.4-.4 4.5-1.3s1.7-2.2 1.7-3.8c0-1.1-.3-2-.9-2.8s-1.4-1.4-2.5-1.8c1.9-.7 2.8-2 2.8-4.1 0-1.5-.5-2.6-1.6-3.4s-2.4-1.2-4.1-1.2h-5.2c-1 0-1.6.2-2 .7-.3.5-.4 1.1-.4 1.9M247.938 110.244c0-.7-.4-1.1-1.3-1.1-.5 0-.9.1-1.1.4l-5.5 8c-.6 1-.9 1.5-1 1.6v-8.9c0-.7-.4-1.1-1.3-1.1s-1.3.4-1.3 1.1v12c0 .7.4 1.1 1.3 1.1.5 0 .9-.2 1.2-.5l5.6-8.1.3-.5.6-.9v8.8c0 .7.4 1.1 1.3 1.1s1.3-.4 1.3-1.1v-11.9zm-23.5 0c0-.7-.4-1.1-1.3-1.1s-1.3.4-1.3 1.1v12c0 .7.4 1.1 1.3 1.1s1.3-.4 1.3-1.1v-5.4h5.9v5.4c0 .7.4 1.1 1.3 1.1s1.3-.4 1.3-1.1v-12c0-.7-.4-1.1-1.3-1.1s-1.3.4-1.3 1.1v4.7h-5.9zm-5.7.1q.3-.6 0-.9c-.2-.2-.6-.3-1.1-.3-.4 0-.7 0-.9.1q-.3.15-.6.6c-.3.5-.7 1.1-1.3 2s-1 1.6-1.3 2c-.3-.5-.8-1.2-1.4-2.1s-1-1.5-1.2-1.9q-.3-.45-.6-.6c-.2-.1-.5-.1-.9-.1-.5 0-.9.1-1.1.3s-.2.5.1.9l3.7 5.4c-.9 1.3-2.3 3.4-4.3 6.2-.3.4-.3.7-.1 1 .2.2.5.3 1.1.3.4 0 .7 0 .9-.1s.4-.3.7-.6c.4-.5.9-1.4 1.6-2.5s1.3-1.9 1.6-2.5l3.2 5c.2.3.5.6.7.6.2.1.5.1.9.1.5 0 .9-.1 1.1-.3q.3-.3 0-.9l-4.4-6.4zm-17.6 13.9 5.5-13.9c.2-.4.1-.7-.2-.8-.3-.2-.7-.3-1.1-.3-.8 0-1.2.3-1.5 1l-2.9 7.9c-.1.3-.3.6-.4 1-.1-.4-.2-.8-.3-.9l-3.2-7.9c-.3-.6-.7-1-1.5-1-.5 0-.8.1-1.1.3s-.3.5-.1.8q.75 2.1 2.4 6 1.65 4.05 2.4 6l-.6 1.8c-.2.5-.4.8-.7 1.1-.3.2-.6.3-1.1.2-.9-.2-1.3 0-1.4.8 0 .4 0 .7.2.9s.4.4.7.4c.3.1.7.1 1.1.1q.9 0 1.5-.3c.4-.2.8-.5 1.1-.9s.5-.7.7-1c.1-.4.3-.8.5-1.3m-16.2-14c0-.7-.4-1.1-1.3-1.1s-1.3.4-1.3 1.1v12c0 .7.4 1.1 1.3 1.1s1.3-.4 1.3-1.1v-5.6c1.3 0 2.3.2 2.8.7.6.5 1.1 1.4 1.6 2.6l.3.7c.5 1.2.9 2 1.3 2.4.3.3.7.4 1.4.3.8-.1 1-.5.7-1.1l-.4-.9c-.4-.8-.7-1.6-1.1-2.5-.7-1.9-1.8-3.1-3.1-3.5.9-.5 1.6-1.2 2.3-2.1.1-.1.2-.3.3-.4.1-.2.2-.3.3-.6.1-.2.2-.4.3-.5.2-.3.4-.7.8-1.3.5-.8.2-1.2-.8-1.3-.6-.1-1.1.1-1.5.5-.3.4-.6.9-1.1 1.6l-.7 1.1c-.4.7-.9 1.2-1.4 1.6s-1.2.6-2.1.7v-4.4zm-15.6 5.5c1.5-.7 2.3-1.7 2.3-3.1 0-.9-.3-1.6-.8-2.2s-1.2-1-1.9-1.2q-1.05-.3-2.4-.3c-1.3 0-2.5.3-3.5.8-1 .6-1.6 1.4-1.8 2.5 0 .2 0 .4.2.6.2.3.6.4 1.1.4.6 0 1-.3 1.1-.8.1-1.1 1.1-1.6 2.9-1.6.8 0 1.4.2 1.8.5.4.4.7.8.7 1.4 0 1.4-1 2.1-3.1 2.1q-1.2 0-1.2.9c0 .7.3 1 1 1h.5c.4 0 .9 0 1.3.1s.8.3 1.3.6c.4.4.6.8.6 1.4 0 .8-.3 1.4-.8 1.8s-1.2.7-2.1.7c-.2 0-.5 0-.8-.1s-.6-.1-.9-.3c-.3-.1-.6-.3-.8-.6s-.4-.6-.4-.9q-.15-.9-1.2-.9c-.5 0-.8.1-1.1.4-.2.2-.2.4-.2.7q.3 1.2 1.2 2.1c.6.6 1.3.9 2 1.1s1.5.3 2.3.3c1.7 0 3-.4 4-1.2s1.5-1.8 1.5-3.2c-.2-1.3-1-2.4-2.8-3m-11-5.5c0-.7-.4-1.1-1.3-1.1-.5 0-.9.1-1.1.4l-5.5 8c-.6 1-.9 1.5-1 1.6v-8.9c0-.7-.4-1.1-1.3-1.1s-1.3.4-1.3 1.1v12c0 .7.4 1.1 1.3 1.1.5 0 .9-.2 1.2-.5l5.6-8.1.3-.5.6-.9v8.8c0 .7.4 1.1 1.3 1.1s1.3-.4 1.3-1.1v-11.9zm-29.3-.8c-.4 0-.8.1-1.1.2s-.6.3-.7.4c-.2.2-.3.4-.4.7s-.2.5-.2.7 0 .5-.1.8c0 .3-.1.9-.2 2-.2 2.6-.3 4.2-.5 4.9v.2c-.1.6-.2 1.1-.4 1.4s-.5.4-1 .4c-.6 0-.9.4-.9 1.1 0 .3.1.5.3.7q.3.3.9.3c1.1.1 1.9-.2 2.5-.9s.9-1.6 1.1-2.9c.1-1 .3-3.1.5-6.1l.1-1.3c0-.4.3-.6.7-.6h2.7c.4 0 .6.2.6.5v10.4c0 .7.4 1.1 1.3 1.1s1.3-.4 1.3-1.1v-11.100000000000001c0-.2-.1-.4-.1-.7q-.15-.45-.3-.6c-.2-.1-.4-.3-.7-.4s-.7-.2-1.1-.2h-4.3zm-7.3.8c0-.7-.4-1.1-1.3-1.1-.5 0-.9.1-1.1.4l-5.5 8c-.6 1-.9 1.5-1 1.6v-8.9c0-.7-.4-1.1-1.3-1.1s-1.3.4-1.3 1.1v12c0 .7.4 1.1 1.3 1.1.5 0 .9-.2 1.2-.5l5.6-8.1.3-.5.6-.9v8.8c0 .7.4 1.1 1.3 1.1s1.3-.4 1.3-1.1v-11.9zm-22.1-.8c-1.5 0-2.2.8-2.3 2.5-.1.7-.1 1.3-.1 1.7-.1 2.3-.2 4-.4 4.9-.2 1.3-.6 2-1 2.2-.5.3-.8.5-1 .7q-.3.3-.3 1.2v2.4c0 .7.4 1.1 1.2 1.1s1.2-.4 1.2-1.1v-1.8c0-.1.1-.2.3-.2h8.6c.2 0 .3.1.3.2v1.8c0 .7.4 1.1 1.2 1.1s1.2-.4 1.2-1.1v-2.4c0-.4-.1-.8-.4-1.1s-.7-.4-1.2-.5v-9.9c0-.2-.1-.4-.1-.7-.1-.3-.2-.5-.4-.6s-.4-.2-.7-.4c-.3-.1-.7-.2-1.2-.2h-4.9zm-1.2 11.7c.4-.6.6-1.4.8-2.4.2-1.1.3-2.8.5-5.3l.1-1.4q.15-.6.6-.6h3.2c.2 0 .4 0 .5.1s.1.2.1.4v9.2zm-6.8-4.9q0 2.4-.9 3.6c-.6.8-1.6 1.2-2.8 1.2s-2.2-.4-2.8-1.2q-.9-1.2-.9-3.6t.9-3.6c.6-.8 1.6-1.2 2.8-1.2s2.2.4 2.8 1.2q.9 1.05.9 3.6m-3.7-7.1c-4.3 0-6.4 2.4-6.4 7.1s2.1 7.1 6.4 7.1 6.4-2.4 6.4-7.1c0-4.8-2.2-7.1-6.4-7.1m-8 1.2q.3-.6 0-.9c-.2-.2-.6-.3-1.1-.3-.4 0-.7 0-.9.1q-.3.15-.6.6c-.3.5-.7 1.1-1.3 2s-1 1.6-1.3 2c-.3-.5-.8-1.2-1.4-2.1s-1-1.5-1.2-1.9q-.3-.45-.6-.6c-.2-.1-.5-.1-.9-.1-.5 0-.9.1-1.1.3s-.2.5.1.9l3.7 5.4c-.9 1.3-2.3 3.4-4.3 6.2-.3.4-.3.7-.1 1 .2.2.5.3 1.1.3.4 0 .7 0 .9-.1s.4-.3.7-.6c.4-.5.9-1.4 1.6-2.5s1.3-1.9 1.6-2.5l3.2 5c.2.3.5.6.7.6.2.1.5.1.9.1.5 0 .9-.1 1.1-.3q.3-.3 0-.9l-4.4-6.4zm-13.4-.1c0-.7-.4-1.1-1.3-1.1-.8 0-1.3.4-1.3 1.1v12c0 .7.4 1.1 1.3 1.1s1.3-.4 1.3-1.1zm-12.4 0c0-.7-.4-1.1-1.3-1.1s-1.3.4-1.3 1.1v11.200000000000001c0 .2.1.5.2.8s.4.5.7.6.8.2 1.3.2h4.1c1.4 0 2.5-.4 3.4-1.2s1.4-1.8 1.4-3.1-.4-2.3-1.3-3.1c-.8-.8-2-1.2-3.4-1.2h-3.9v-4.2zm0 6.3h3.6c1.5 0 2.3.8 2.3 2.3 0 .7-.2 1.3-.6 1.7s-1 .6-1.7.6h-2.9c-.2 0-.4 0-.5-.1s-.1-.2-.1-.4v-4.1zm-16.6-4.1v-4.9q0-.6.6-.6h4q1.5 0 2.4.6c.6.4 1 1.1 1 1.9 0 1.9-1.3 2.9-4 2.9h-4zm4.9 8.4h-4.4q-.6 0-.6-.6v-5.7h4.6c1.2 0 2.1.3 2.9.8.7.5 1.1 1.4 1.1 2.5 0 .9-.3 1.7-1 2.2-.7.6-1.5.8-2.6.8m-7.6-13.5v13.2c0 .8.2 1.4.5 1.9.4.5 1 .7 2 .7h5.2c1.9 0 3.4-.4 4.5-1.3s1.7-2.2 1.7-3.8c0-1.1-.3-2-.9-2.8s-1.4-1.4-2.5-1.8c1.9-.7 2.8-2 2.8-4.1 0-1.5-.5-2.6-1.6-3.4s-2.4-1.2-4.1-1.2h-5.2c-1 0-1.6.2-2 .7-.2.5-.4 1.1-.4 1.9M206.838 174.543l5.5-13.9c.2-.4.1-.7-.2-.8-.3-.2-.7-.3-1.1-.3-.8 0-1.2.3-1.5 1l-2.9 7.9c-.1.3-.3.6-.4 1-.1-.4-.2-.8-.3-.9l-3.2-7.9c-.3-.6-.7-1-1.5-1-.5 0-.8.1-1.1.3s-.3.5-.1.8q.75 2.1 2.4 6 1.65 4.05 2.4 6l-.6 1.8c-.2.5-.4.8-.7 1.1-.3.2-.6.3-1.1.2-.9-.2-1.3 0-1.4.8 0 .4 0 .7.2.9s.4.4.7.4c.3.1.7.1 1.1.1q.9 0 1.5-.3c.4-.2.8-.5 1.1-.9s.5-.7.7-1c0-.4.2-.8.5-1.3m-16.2-14c0-.7-.4-1.1-1.3-1.1s-1.3.4-1.3 1.1v12c0 .7.4 1.1 1.3 1.1s1.3-.4 1.3-1.1v-5.6c1.3 0 2.3.2 2.8.7.6.5 1.1 1.4 1.6 2.6l.3.7c.5 1.2.9 2 1.3 2.4.3.3.7.4 1.4.3.8-.1 1-.5.7-1.1l-.4-.9c-.4-.8-.7-1.6-1.1-2.5-.7-1.9-1.8-3.1-3.1-3.5.9-.5 1.6-1.2 2.3-2.1.1-.1.2-.3.3-.4.1-.2.2-.3.3-.6.1-.2.2-.4.3-.5.2-.3.4-.7.8-1.3.5-.8.2-1.2-.8-1.3-.6-.1-1.1.1-1.5.5-.3.4-.6.9-1.1 1.6l-.7 1.1c-.4.7-.9 1.2-1.4 1.6s-1.2.6-2.1.7v-4.4zm-15.2 6.4v-1.3c0-1.1.3-2.1 1-2.9s1.6-1.3 2.8-1.3c2.2 0 3.3 1.7 3.3 5s-1.1 5-3.3 5c-1.2 0-2.1-.5-2.8-1.4s-1-1.9-1-3.1m-.2-6.4c0-.7-.4-1.1-1.2-1.1s-1.3.4-1.3 1.1v16.6c0 .7.4 1.1 1.3 1.1s1.3-.4 1.3-1.1v-5.1c1 1.2 2.3 1.7 3.9 1.7 1.1 0 2-.2 2.8-.6s1.4-.9 1.9-1.6.8-1.4 1-2.3c.2-.8.3-1.7.3-2.8q0-7.2-5.7-7.2c-1.8 0-3.2.7-4.3 2zm-7.9 6q0 2.4-.9 3.6c-.6.8-1.6 1.2-2.8 1.2-1.3 0-2.2-.4-2.8-1.2q-.9-1.2-.9-3.6t.9-3.6c.6-.8 1.6-1.2 2.8-1.2 1.3 0 2.2.4 2.8 1.2s.9 1.9.9 3.6m-3.7-7.2c-4.3 0-6.4 2.4-6.4 7.1s2.1 7.1 6.4 7.1 6.4-2.4 6.4-7.1-2.2-7.1-6.4-7.1m-10.9 7.2c0 .6-.1 1.2-.2 1.8s-.3 1.1-.5 1.6c-.3.5-.6.9-1.2 1.3-.5.3-1.1.5-1.9.5-2.5 0-3.7-1.7-3.7-5.1s1.2-5.1 3.7-5.1c.7 0 1.4.2 1.9.5s.9.7 1.2 1.3c.3.5.4 1.1.5 1.6.2.4.2 1 .2 1.6m-3-9.6.8-.3c1.8-.5 2.8-.9 3.2-1.2.8-.5 1-1 .7-1.7-.3-.5-.6-.7-1.1-.7-.3 0-.5.1-.7.3-.4.3-1.3.7-2.6 1.2-.5.2-.9.3-1.2.5q-1.95.75-3.3 2.1c-.9.9-1.5 1.8-1.9 2.9s-.7 2.1-.8 3.1-.2 2.1-.2 3.3c0 1 .1 1.8.3 2.7s.6 1.6 1 2.3c.5.7 1.1 1.3 2 1.7s1.9.6 3.1.6c4.3 0 6.4-2.4 6.4-7.1 0-2.3-.5-4-1.4-5.2q-1.35-1.8-4.8-1.8c-1.5 0-2.8.5-3.9 1.6.7-2.1 2.2-3.5 4.4-4.3m-13.9 17.6 5.5-13.9c.2-.4.1-.7-.2-.8-.3-.2-.7-.3-1.1-.3-.8 0-1.2.3-1.5 1l-2.9 7.9c-.1.3-.3.6-.4 1-.1-.4-.2-.8-.3-.9l-3.2-7.9c-.3-.6-.7-1-1.5-1-.5 0-.8.1-1.1.3s-.3.5-.1.8q.75 2.1 2.4 6 1.65 4.05 2.4 6l-.6 1.8c-.2.5-.4.8-.7 1.1-.3.2-.6.3-1.1.2-.9-.2-1.3 0-1.4.8 0 .4 0 .7.2.9s.4.4.7.4c.3.1.7.1 1.1.1q.9 0 1.5-.3c.4-.2.8-.5 1.1-.9s.5-.7.7-1c.1-.4.3-.8.5-1.3m-23.3-14.8c-.4 0-.8.1-1.1.2s-.6.3-.7.4c-.2.2-.3.4-.4.7s-.2.5-.2.7 0 .5-.1.8c0 .3-.1.9-.2 2-.2 2.6-.3 4.2-.5 4.9v.2c-.1.6-.2 1.1-.4 1.4s-.5.4-1 .4c-.6 0-.9.4-.9 1.1 0 .3.1.5.3.7q.3.3.9.3c1.1.1 1.9-.2 2.5-.9s.9-1.6 1.1-2.9c.1-1 .3-3.1.5-6.1l.1-1.3c0-.4.3-.6.7-.6h2.7c.4 0 .6.2.6.5v10.4c0 .7.4 1.1 1.3 1.1s1.3-.4 1.3-1.1v-11.100000000000001c0-.2-.1-.4-.1-.7q-.15-.45-.3-.6c-.2-.1-.4-.3-.7-.4s-.7-.2-1.1-.2h-4.3zm-10.9 10.7c-.8.9-1.9 1.3-3.2 1.3q-1.05 0-1.8-.6c-.5-.4-.7-.9-.7-1.6 0-.6.2-1.1.5-1.5q.45-.6 1.2-.9c.5-.2 1-.4 1.6-.4.5-.1 1.1-.1 1.7-.1.4 0 1.1 0 1.8.1.2 1.5-.2 2.8-1.1 3.7m1.4 2.1c.1.7.6 1 1.5.9q1.05-.15.9-1.2c-.1-.4-.1-1-.1-1.6v-5.6c0-1.9-.4-3.3-1.3-4.2s-2.3-1.4-4.3-1.4c-2.2 0-3.8.4-4.9 1.3q-.6.45-.6.9c0 .3.1.5.4.7q.45.3.9.3c.3 0 .6-.1.8-.3q1.2-.9 3-.9c1.7 0 2.8.5 3.2 1.4.2.5.2 1.2.2 2.1h-1.7c-5.2 0-7.9 1.6-7.9 4.8 0 1.3.4 2.4 1.3 3.1s2 1.1 3.4 1.1c2.1 0 3.7-.8 4.8-2.3.2-.1.3.2.4.9m-18.8-12.8c-.4 0-.8.1-1.1.2s-.6.3-.7.4c-.2.2-.3.4-.4.7s-.2.5-.2.7 0 .5-.1.8c0 .3-.1.9-.2 2-.2 2.6-.3 4.2-.5 4.9v.2c-.1.6-.2 1.1-.4 1.4s-.5.4-1 .4c-.6 0-.9.4-.9 1.1 0 .3.1.5.3.7q.3.3.9.3c1.1.1 1.9-.2 2.5-.9s.9-1.6 1.1-2.9c.1-1 .3-3.1.5-6.1l.1-1.3c0-.4.3-.6.7-.6h2.7c.4 0 .6.2.6.5v10.4c0 .7.4 1.1 1.3 1.1s1.3-.4 1.3-1.1v-11.100000000000001c0-.2-.1-.4-.1-.7q-.15-.45-.3-.6c-.2-.1-.4-.3-.7-.4s-.7-.2-1.1-.2h-4.3zm-16.3 5.2c.1-1 .5-1.9 1.2-2.6.7-.8 1.6-1.1 2.7-1.1q1.5 0 2.4.9c.6.6.9 1.4 1 2.4 0 .3-.1.4-.4.4zm9.7-.1q0-2.4-1.5-3.9c-1.1-1.1-2.6-1.7-4.5-1.7-1.2 0-2.2.2-3.1.6s-1.6 1-2.1 1.7-.9 1.5-1.1 2.3-.4 1.7-.4 2.6.1 1.7.4 2.5c.2.8.6 1.6 1.1 2.3s1.2 1.3 2.1 1.7 1.9.6 3.1.6 2.3-.2 3.3-.7 1.7-1.2 2-2.1c.1-.3.1-.5-.1-.8s-.5-.4-.9-.5c-.6-.1-1.1.2-1.5.7-.3.4-.7.8-1.3 1s-1.1.3-1.6.3c-.8 0-1.5-.2-2-.5s-1-.7-1.2-1.2-.5-1-.6-1.5-.2-1-.2-1.6h7.3c1 0 1.7-.2 2-.5.6-.2.8-.6.8-1.3m-22.4-5.1c-1.5 0-2.2.8-2.3 2.5-.1.7-.1 1.3-.1 1.7-.1 2.3-.2 4-.4 4.9-.2 1.3-.6 2-1 2.2-.5.3-.8.5-1 .7q-.3.3-.3 1.2v2.4c0 .7.4 1.1 1.2 1.1s1.2-.4 1.2-1.1v-1.8c0-.1.1-.2.3-.2h8.4c.2 0 .3.1.3.2v1.8c0 .7.4 1.1 1.2 1.1s1.2-.4 1.2-1.1v-2.4c0-.4-.1-.8-.4-1.1s-.7-.4-1.2-.5v-9.9c0-.2-.1-.4-.1-.7-.1-.3-.2-.5-.4-.6s-.4-.2-.7-.4c-.3-.1-.7-.2-1.2-.2h-4.7zm-1.2 11.7c.4-.6.6-1.4.8-2.4.2-1.1.3-2.8.5-5.3l.1-1.4q.15-.6.6-.6h3.2c.2 0 .4 0 .5.1s.1.2.1.4v9.2zm-6.1-4.1c-.4 0-.7.1-.9.2-.3.2-.4.4-.4.7-.5 1.9-1.9 2.8-4.3 2.8-.9 0-1.7-.1-2.4-.4s-1.2-.6-1.6-1-.7-.9-.9-1.6c-.2-.6-.4-1.3-.4-1.8-.1-.6-.1-1.3-.1-2s0-1.4.1-2 .2-1.2.4-1.8.5-1.2.9-1.6a5 5 0 0 1 1.6-1.1c.7-.3 1.5-.4 2.4-.4q.9 0 1.8.3c.6.2 1.1.5 1.6.9s.8 1 .9 1.7c.1.6.6.9 1.4.9.5-.1.8-.2 1.1-.4.2-.2.2-.4.2-.7-.2-1.7-1-2.9-2.4-3.8s-2.9-1.3-4.5-1.3c-2.7 0-4.8.8-6.2 2.4s-2.1 4-2.1 7.1.7 5.4 2.1 7 3.5 2.4 6.2 2.4c1.8 0 3.3-.5 4.6-1.5s2.1-2.2 2.3-3.7c0-.3 0-.5-.2-.7-.4-.5-.7-.6-1.2-.6M267.938 224.844l5.5-13.9c.2-.4.1-.7-.2-.8-.3-.2-.7-.3-1.1-.3-.8 0-1.2.3-1.5 1l-2.9 7.9c-.1.3-.3.6-.4 1-.1-.4-.2-.8-.3-.9l-3.2-7.9c-.3-.6-.7-1-1.5-1-.5 0-.8.1-1.1.3s-.3.5-.1.8q.75 2.1 2.4 6 1.65 4.05 2.4 6l-.6 1.8c-.2.5-.4.8-.7 1.1-.3.2-.6.3-1.1.2-.9-.2-1.3 0-1.4.8 0 .4 0 .7.2.9s.4.4.7.4c.3.1.7.1 1.1.1q.9 0 1.5-.3c.4-.2.8-.5 1.1-.9s.5-.7.7-1c0-.4.2-.8.5-1.3m-16.2-14.1c0-.7-.4-1.1-1.3-1.1s-1.3.4-1.3 1.1v12c0 .7.4 1.1 1.3 1.1s1.3-.4 1.3-1.1v-5.6c1.3 0 2.3.2 2.8.7.6.5 1.1 1.4 1.6 2.6l.3.7c.5 1.2.9 2 1.3 2.4.3.3.7.4 1.4.3.8-.1 1-.5.7-1.1l-.4-.9c-.4-.8-.7-1.6-1.1-2.5-.7-1.9-1.8-3.1-3.1-3.5.9-.5 1.6-1.2 2.3-2.1.1-.1.2-.3.3-.4.1-.2.2-.3.3-.6.1-.2.2-.4.3-.5.2-.3.4-.7.8-1.3.5-.8.2-1.2-.8-1.3-.6-.1-1.1.1-1.5.5-.3.4-.6.9-1.1 1.6l-.7 1.1c-.4.7-.9 1.2-1.4 1.6s-1.2.6-2.1.7v-4.4zm-6.9 9.1c-.6-.1-1.1.2-1.4.8-.5.9-1.3 1.3-2.4 1.3-2.5 0-3.7-1.7-3.7-5.2s1.2-5.2 3.7-5.2c1.2 0 2.1.5 2.5 1.5.2.5.6.8 1.3.8h.1c.4-.1.7-.2.8-.4.2-.2.2-.5.1-.9-.2-.8-.7-1.5-1.6-2.1q-1.35-.9-3.3-.9c-4.3 0-6.4 2.4-6.4 7.1s2.1 7.1 6.4 7.1q1.95 0 3.3-.9c.9-.6 1.4-1.2 1.6-1.9.1-.5 0-.8-.2-.9-.1-.1-.4-.2-.8-.2m-12.4.4c.1-.4 0-.6-.1-.9-.2-.2-.4-.4-.8-.4-.3 0-.6 0-.9.2q-.45.3-.6.6c-.2.7-.6 1.2-1.2 1.6s-1.3.6-2 .6c-1.4 0-2.4-.4-3-1.3s-.9-2-1-3.4h7.3c1 0 1.7-.2 2-.5s.5-.8.5-1.4c0-1.7-.5-3-1.6-4s-2.6-1.6-4.4-1.6c-2.2 0-3.9.7-5 2.1s-1.7 3.1-1.7 5.2c0 2 .6 3.7 1.7 5.1s2.8 2.1 5 2.1c1.4 0 2.6-.3 3.7-1q1.65-1.35 2.1-3m-2.4-5.4c0 .2 0 .3-.1.3-.1.1-.2.1-.3.1h-6.8c.1-1 .5-1.8 1.2-2.6s1.6-1.1 2.7-1.1c1 0 1.9.3 2.4.9q.9.9.9 2.4m-1.3-9.6c-.6 0-.9.1-1.2.4-.2.2-.3.6-.3 1.1s.1.9.3 1.1c.2.3.6.4 1.2.4s1-.1 1.2-.4.3-.6.3-1.1-.1-.8-.3-1.1-.6-.4-1.2-.4m-4.6 0c-.6 0-1 .1-1.2.4-.2.2-.3.6-.3 1.1s.1.9.3 1.1c.2.3.6.4 1.2.4s1-.1 1.2-.4.3-.6.3-1.1c0-1.1-.5-1.5-1.5-1.5m-7 5.5c0-.7-.4-1.1-1.3-1.1s-1.3.4-1.3 1.1v4.2c0 .6-.3 1.1-.8 1.6-.5.4-1.3.6-2.3.6q-1.35 0-1.8-.6c-.3-.4-.5-1.1-.5-2.1v-3.7c0-.7-.4-1.1-1.3-1.1s-1.3.4-1.3 1.1v4.3c0 2.6 1.5 4 4.6 4q2.1 0 3.3-.9v4.7c0 .7.4 1.1 1.3 1.1.8 0 1.3-.4 1.3-1.1v-12.1zm-13.3 0c0-.7-.4-1.1-1.3-1.1-.5 0-.9.1-1.1.4l-5.5 8c-.6 1-.9 1.5-1 1.6v-8.9c0-.7-.4-1.1-1.3-1.1s-1.3.4-1.3 1.1v12c0 .7.4 1.1 1.3 1.1.5 0 .9-.2 1.2-.5l5.6-8.1.3-.5.6-.9v8.8c0 .7.4 1.1 1.3 1.1s1.3-.4 1.3-1.1v-11.9zm-24.1 6.5v-1.3c0-1.1.3-2.1 1-2.9s1.6-1.3 2.8-1.3c2.2 0 3.3 1.7 3.3 5s-1.1 5-3.3 5c-1.2 0-2.1-.5-2.8-1.4s-1-1.9-1-3.1m-.1-6.5c0-.7-.4-1.1-1.2-1.1s-1.3.4-1.3 1.1v16.6c0 .7.4 1.1 1.3 1.1s1.3-.4 1.3-1.1v-5.1c1 1.2 2.3 1.7 3.9 1.7 1.1 0 2-.2 2.8-.6s1.4-.9 1.9-1.6.8-1.4 1-2.3c.2-.8.3-1.7.3-2.8q0-7.2-5.7-7.2c-1.8 0-3.2.7-4.3 2zm-8.5-.8h-6.4c-.5 0-1 .1-1.3.2s-.6.4-.7.6c-.1.3-.2.5-.2.8v11.200000000000001c0 .7.4 1.1 1.3 1.1.8 0 1.3-.4 1.3-1.1v-10.4c0-.2 0-.3.1-.4s.2-.1.4-.1h4.8c.4 0 .6.2.6.5v10.4c0 .7.4 1.1 1.3 1.1.8 0 1.3-.4 1.3-1.1v-11.3c0-.2-.1-.5-.2-.8s-.4-.5-.7-.6c-.6 0-1.1-.1-1.6-.1m-26.5 0c-.4 0-.8.1-1.1.2s-.6.3-.7.4c-.2.2-.3.4-.4.7s-.2.5-.2.7 0 .5-.1.8c0 .3-.1.9-.2 2-.2 2.6-.3 4.2-.5 4.9v.2c-.1.6-.2 1.1-.4 1.4s-.5.4-1 .4c-.6 0-.9.4-.9 1.1 0 .3.1.5.3.7q.3.3.9.3c1.1.1 1.9-.2 2.5-.9s.9-1.6 1.1-2.9c.1-1 .3-3.1.5-6.1l.1-1.3c0-.4.3-.6.7-.6h2.7c.4 0 .6.2.6.5v10.4c0 .7.4 1.1 1.3 1.1s1.3-.4 1.3-1.1v-11.100000000000001c0-.2-.1-.4-.1-.7q-.15-.45-.3-.6c-.2-.1-.4-.3-.7-.4s-.7-.2-1.1-.2h-4.3zm-7.3.8c0-.7-.4-1.1-1.3-1.1-.5 0-.9.1-1.1.4l-5.5 8c-.6 1-.9 1.5-1 1.6v-8.9c0-.7-.4-1.1-1.3-1.1s-1.3.4-1.3 1.1v12c0 .7.4 1.1 1.3 1.1.5 0 .9-.2 1.2-.5l5.6-8.1.3-.5.6-.9v8.8c0 .7.4 1.1 1.3 1.1s1.3-.4 1.3-1.1v-11.9zm-23.4 1.7c0-.2 0-.3.1-.4s.2-.1.4-.1h3.4c1.3 0 1.9.6 1.9 1.7 0 .6-.2 1.1-.6 1.4s-.8.5-1.4.5h-4v-3.1zm0 5h4c1.5 0 2.3.7 2.3 2.2 0 1.4-.8 2.1-2.3 2.1h-3.4c-.2 0-.4 0-.4-.1-.1-.1-.1-.2-.1-.4v-3.8zm-.2-7.5c-.5 0-.8.1-1.2.2-.3.1-.5.2-.7.4-.2.1-.3.3-.4.6s-.1.5-.1.7v10.100000000000001c0 .2.1.4.1.7.1.3.2.5.4.6s.4.2.7.4c.3.1.7.2 1.2.2h4.8c1.3 0 2.3-.4 3.2-1.1s1.3-1.7 1.3-2.8c0-.7-.2-1.4-.6-2s-1-1.1-1.7-1.4c1.2-.6 1.8-1.6 1.8-2.9 0-1.1-.4-1.9-1.2-2.5s-1.9-.9-3.4-.9h-4.2zm-9.6 10.8c-.8.9-1.9 1.3-3.2 1.3q-1.05 0-1.8-.6c-.5-.4-.7-.9-.7-1.6 0-.6.2-1.1.5-1.5q.45-.6 1.2-.9c.5-.2 1-.4 1.6-.4.5-.1 1.1-.1 1.7-.1.4 0 1.1 0 1.8.1.2 1.5-.2 2.7-1.1 3.7m1.4 2.1c.1.7.6 1 1.5.9q1.05-.15.9-1.2c-.1-.4-.1-1-.1-1.6v-5.6c0-1.9-.4-3.3-1.3-4.2s-2.3-1.4-4.3-1.4c-2.2 0-3.8.4-4.9 1.3q-.6.45-.6.9c0 .3.1.5.4.7q.45.3.9.3c.3 0 .6-.1.8-.3q1.2-.9 3-.9c1.7 0 2.8.5 3.2 1.4.2.5.2 1.2.2 2.1h-1.7c-5.2 0-7.9 1.6-7.9 4.8 0 1.3.4 2.4 1.3 3.1s2 1.1 3.4 1.1c2.1 0 3.7-.8 4.8-2.3.2-.2.3.2.4.9m-21.3-5.6v-1.3c0-1.1.3-2.1 1-2.9s1.6-1.3 2.8-1.3c2.2 0 3.3 1.7 3.3 5s-1.1 5-3.3 5c-1.2 0-2.1-.5-2.8-1.4-.6-.9-1-1.9-1-3.1m-.1-6.5c0-.7-.4-1.1-1.2-1.1s-1.3.4-1.3 1.1v16.6c0 .7.4 1.1 1.3 1.1s1.3-.4 1.3-1.1v-5.1c1 1.2 2.3 1.7 3.9 1.7 1.1 0 2-.2 2.8-.6s1.4-.9 1.9-1.6.8-1.4 1-2.3c.2-.8.3-1.7.3-2.8q0-7.2-5.7-7.2c-1.8 0-3.2.7-4.3 2zm-8.5-.8h-6.4c-.5 0-1 .1-1.3.2s-.6.4-.7.6c-.1.3-.2.5-.2.8v11.200000000000001c0 .7.4 1.1 1.3 1.1.8 0 1.3-.4 1.3-1.1v-10.4c0-.2 0-.3.1-.4s.2-.1.4-.1h4.8c.4 0 .6.2.6.5v10.4c0 .7.4 1.1 1.3 1.1.8 0 1.3-.4 1.3-1.1v-11.3c0-.2-.1-.5-.2-.8s-.4-.5-.7-.6c-.6 0-1-.1-1.6-.1m-14.1 6.8q0 2.4-.9 3.6c-.6.8-1.6 1.2-2.8 1.2-1.3 0-2.2-.4-2.8-1.2q-.9-1.2-.9-3.6t.9-3.6c.6-.8 1.6-1.2 2.8-1.2 1.3 0 2.2.4 2.8 1.2q.9 1.2.9 3.6m-3.8-7.1c-4.3 0-6.4 2.4-6.4 7.1s2.1 7.1 6.4 7.1 6.4-2.4 6.4-7.1-2.1-7.1-6.4-7.1m-9.2-1.8c0-.8-.2-1.4-.5-1.9-.4-.5-1-.7-2-.7h-8.6c-1 0-1.6.2-2 .7s-.5 1.1-.5 1.9v14.8c0 .8.5 1.2 1.4 1.2s1.4-.4 1.4-1.2v-14.5c0-.4.2-.5.6-.5h6.9c.4 0 .6.2.6.5v14.5c0 .8.5 1.2 1.4 1.2s1.4-.4 1.4-1.2v-14.8zM185.238 319.244c-.6-.1-1.1.2-1.4.8-.5.9-1.3 1.3-2.4 1.3-2.5 0-3.7-1.7-3.7-5.2s1.2-5.2 3.7-5.2c1.2 0 2.1.5 2.5 1.5.2.5.6.8 1.3.8h.1c.4-.1.7-.2.8-.4.2-.2.2-.5.1-.9-.2-.8-.7-1.5-1.6-2.1q-1.35-.9-3.3-.9c-4.3 0-6.4 2.4-6.4 7.1s2.1 7.1 6.4 7.1q1.95 0 3.3-.9c.9-.6 1.4-1.2 1.6-1.9.1-.5 0-.8-.2-.9-.1 0-.4-.1-.8-.2m-14.9-3q0 2.4-.9 3.6c-.6.8-1.6 1.2-2.8 1.2-1.3 0-2.2-.4-2.8-1.2q-.9-1.2-.9-3.6t.9-3.6c.6-.8 1.6-1.2 2.8-1.2 1.3 0 2.2.4 2.8 1.2q.9 1.05.9 3.6m-3.7-7.1c-4.3 0-6.4 2.4-6.4 7.1s2.1 7.1 6.4 7.1 6.4-2.4 6.4-7.1c0-4.8-2.2-7.1-6.4-7.1m-17.7 1.1c0-.7-.4-1.1-1.3-1.1s-1.3.4-1.3 1.1v12c0 .7.4 1.1 1.3 1.1s1.3-.4 1.3-1.1v-5.4h5.9v5.4c0 .7.4 1.1 1.3 1.1s1.3-.4 1.3-1.1v-12c0-.7-.4-1.1-1.3-1.1s-1.3.4-1.3 1.1v4.7h-5.9zm-20.4-.8c-.4 0-.8.1-1.1.2s-.6.3-.7.4c-.2.2-.3.4-.4.7s-.2.5-.2.7 0 .5-.1.8c0 .3-.1.9-.2 2-.2 2.6-.3 4.2-.5 4.9v.2c-.1.6-.2 1.1-.4 1.4s-.5.4-1 .4c-.6 0-.9.4-.9 1.1 0 .3.1.5.3.7q.3.3.9.3c1.1.1 1.9-.2 2.5-.9s.9-1.6 1.1-2.9c.1-1 .3-3.1.5-6.1l.1-1.3c0-.4.3-.6.7-.6h2.7c.4 0 .6.2.6.5v10.4c0 .7.4 1.1 1.3 1.1s1.3-.4 1.3-1.1v-11.100000000000001c0-.2-.1-.4-.1-.7q-.15-.45-.3-.6c-.1-.1-.4-.3-.7-.4s-.7-.2-1.1-.2h-4.3zm-10.9 10.7c-.8.9-1.9 1.3-3.2 1.3q-1.05 0-1.8-.6c-.5-.4-.7-.9-.7-1.6 0-.6.2-1.1.5-1.5q.45-.6 1.2-.9c.5-.2 1-.4 1.6-.4s1.1-.1 1.7-.1c.4 0 1.1 0 1.8.1.2 1.5-.2 2.8-1.1 3.7m1.4 2.1c.1.7.6 1 1.5.9q1.05-.15.9-1.2c-.1-.4-.1-1-.1-1.6v-5.6c0-1.9-.4-3.3-1.3-4.2s-2.3-1.4-4.3-1.4c-2.2 0-3.8.4-4.9 1.3q-.6.45-.6.9c0 .3.1.5.4.7q.45.3.9.3c.3 0 .6-.1.8-.3q1.2-.9 3-.9c1.7 0 2.8.5 3.2 1.4.2.5.2 1.2.2 2.1h-1.7c-5.2 0-7.9 1.6-7.9 4.8 0 1.3.4 2.4 1.3 3.1s2 1.1 3.4 1.1c2.1 0 3.7-.8 4.8-2.3.2-.1.2.3.4.9m-12.9-3c-.6-.1-1.1.2-1.4.8-.5.9-1.3 1.3-2.4 1.3-2.5 0-3.7-1.7-3.7-5.2s1.2-5.2 3.7-5.2c1.2 0 2.1.5 2.5 1.5.2.5.6.8 1.3.8h.1c.4-.1.7-.2.8-.4.2-.2.2-.5.1-.9-.2-.8-.7-1.5-1.6-2.1q-1.35-.9-3.3-.9c-4.3 0-6.4 2.4-6.4 7.1s2.1 7.1 6.4 7.1q1.95 0 3.3-.9c.9-.6 1.4-1.2 1.6-1.9.1-.5 0-.8-.2-.9-.2 0-.4-.1-.8-.2m-22.1-4.6c.1-1 .5-1.9 1.2-2.6.7-.8 1.6-1.1 2.7-1.1q1.5 0 2.4.9c.6.6.9 1.4 1 2.4 0 .3-.1.4-.4.4zm9.7 0q0-2.4-1.5-3.9c-1.1-1.1-2.6-1.7-4.5-1.7-1.2 0-2.2.2-3.1.6s-1.6 1-2.1 1.7-.9 1.5-1.1 2.3-.4 1.7-.4 2.6.1 1.7.4 2.5.6 1.6 1.1 2.3 1.2 1.3 2.1 1.7 1.9.6 3.1.6 2.3-.2 3.3-.7 1.7-1.2 2-2.1c.1-.3.1-.5-.1-.8s-.5-.4-.9-.5c-.6-.1-1.1.2-1.5.7-.3.4-.7.8-1.3 1s-1.1.3-1.6.3c-.8 0-1.5-.2-2-.5s-1-.7-1.2-1.2q-.45-.75-.6-1.5c-.1-.5-.2-1-.2-1.6h7.3c1 0 1.7-.2 2-.5.7-.2.8-.7.8-1.3m-15.4-4.4c0-.7-.4-1.1-1.3-1.1s-1.3.4-1.3 1.1v4.2c0 .6-.3 1.1-.8 1.6-.5.4-1.3.6-2.3.6q-1.35 0-1.8-.6c-.3-.4-.5-1.1-.5-2.1v-3.7c0-.7-.4-1.1-1.3-1.1s-1.3.4-1.3 1.1v4.3c0 2.6 1.5 4 4.6 4q2.1 0 3.3-.9v4.7c0 .7.4 1.1 1.3 1.1.8 0 1.3-.4 1.3-1.1v-12.1zm-15.1 6q0 2.4-.9 3.6c-.6.8-1.6 1.2-2.8 1.2-1.3 0-2.2-.4-2.8-1.2q-.9-1.2-.9-3.6t.9-3.6c.6-.8 1.6-1.2 2.8-1.2 1.3 0 2.2.4 2.8 1.2s.9 1.9.9 3.6m-3.7-7.1c-4.3 0-6.4 2.4-6.4 7.1s2.1 7.1 6.4 7.1 6.4-2.4 6.4-7.1c0-4.8-2.2-7.1-6.4-7.1m-9.3-1.8c0-.8-.2-1.4-.5-1.9s-1-.7-2-.7h-8.6c-1 0-1.6.2-2 .7s-.5 1.1-.5 1.9v14.8c0 .8.5 1.2 1.4 1.2s1.4-.4 1.4-1.2v-14.5c0-.4.2-.5.6-.5h6.9c.4 0 .6.2.6.5v14.5c0 .8.5 1.2 1.4 1.2s1.4-.4 1.4-1.2v-14.8zM245.838 260.543c0-.7-.4-1.1-1.3-1.1-.8 0-1.3.4-1.3 1.1v12c0 .7.4 1.1 1.3 1.1s1.3-.4 1.3-1.1zm-12.4 0c0-.7-.4-1.1-1.3-1.1s-1.3.4-1.3 1.1v11.200000000000001c0 .2.1.5.2.8s.4.5.7.6.8.2 1.3.2h4.1c1.4 0 2.5-.4 3.4-1.2s1.4-1.8 1.4-3.1-.4-2.3-1.3-3.1-2-1.2-3.4-1.2h-3.9v-4.2zm0 6.3h3.6c1.5 0 2.3.8 2.3 2.3 0 .7-.2 1.3-.6 1.7s-1 .6-1.7.6h-2.9c-.2 0-.4 0-.5-.1s-.1-.2-.1-.4v-4.1zm-13.2-7.1c-1.5 0-2.2.8-2.3 2.5-.1.7-.1 1.3-.1 1.7-.1 2.3-.2 4-.4 4.9-.2 1.3-.6 2-1 2.2-.5.3-.8.5-1 .7q-.3.3-.3 1.2v2.4c0 .7.4 1.1 1.2 1.1s1.2-.4 1.2-1.1v-1.8c0-.1.1-.2.3-.2h8.6c.2 0 .3.1.3.2v1.8c0 .7.4 1.1 1.2 1.1s1.2-.4 1.2-1.1v-2.4c0-.4-.1-.8-.4-1.1s-.7-.4-1.2-.5v-9.9c0-.2-.1-.4-.1-.7-.1-.3-.2-.5-.4-.6s-.4-.2-.7-.4c-.3-.1-.7-.2-1.2-.2h-4.9zm-1.2 11.7c.4-.6.6-1.4.8-2.4.2-1.1.3-2.8.5-5.3l.1-1.4q.15-.6.6-.6h3.2c.2 0 .4 0 .5.1s.1.2.1.4v9.2zm-12.1-10.9c0-.7-.4-1.1-1.3-1.1-.8 0-1.3.4-1.3 1.1v4.4c-1.3-.3-2.3-1.1-3.1-2.5l-.4-.7c-.4-.7-.7-1.3-1-1.7s-.8-.6-1.5-.5c-.5.1-.8.2-.9.4-.2.2-.1.5.2 1 0 0 .3.6.9 1.6l.4.8c.6 1.2 1.4 2 2.3 2.5-1.4.4-2.4 1.6-3.1 3.5-.4 1.5-.9 2.6-1.2 3.4-.3.6-.1 1 .7 1.1.7.1 1.2 0 1.4-.3q.6-.75 1.2-2.7l.1-.5c.3-1 .8-1.8 1.4-2.4s1.4-.9 2.6-.8v5.7c0 .7.4 1.1 1.3 1.1.8 0 1.3-.4 1.3-1.1v-5.7c1.2 0 2.1.2 2.6.7s1 1.4 1.3 2.5l.2.6c.3 1.2.7 2.1 1.1 2.6q.45.45 1.5.3c.7-.1 1-.5.7-1.1-.4-.9-.8-2-1.2-3.4-.6-1.9-1.6-3-3.1-3.5.9-.4 1.7-1.3 2.3-2.5l.5-1.1c.2-.5.5-.9.8-1.4.2-.4.3-.8.1-1s-.5-.4-.9-.4c-.7-.1-1.2.1-1.5.5s-.7 1-1.1 1.9c0 .1-.1.2-.1.3-.1.1-.1.2-.1.2-.8 1.4-1.9 2.3-3.1 2.5zm-21.6 4.4c.1-1 .5-1.9 1.2-2.6.7-.8 1.6-1.1 2.7-1.1q1.5 0 2.4.9c.6.6.9 1.4 1 2.4 0 .3-.1.4-.4.4zm9.8-.1q0-2.4-1.5-3.9c-1.1-1.1-2.6-1.7-4.5-1.7-1.2 0-2.2.2-3.1.6s-1.6 1-2.1 1.7-.9 1.5-1.1 2.3-.4 1.7-.4 2.6.1 1.7.4 2.5.6 1.6 1.1 2.3 1.2 1.3 2.1 1.7 1.9.6 3.1.6 2.3-.2 3.3-.7 1.7-1.2 2-2.1c.1-.3.1-.5-.1-.8s-.5-.4-.9-.5c-.6-.1-1.1.2-1.5.7-.3.4-.7.8-1.3 1s-1.1.3-1.6.3c-.8 0-1.5-.2-2-.5s-1-.7-1.2-1.2q-.45-.75-.6-1.5c-.1-.5-.2-1-.2-1.6h7.3c1 0 1.7-.2 2-.5.6-.2.8-.6.8-1.3m-22.4-5.1c-1.5 0-2.2.8-2.3 2.5-.1.7-.1 1.3-.1 1.7-.1 2.3-.2 4-.4 4.9-.2 1.3-.6 2-1 2.2-.5.3-.8.5-1 .7q-.3.3-.3 1.2v2.4c0 .7.4 1.1 1.2 1.1s1.2-.4 1.2-1.1v-1.8c0-.1.1-.2.3-.2h8.6c.2 0 .3.1.3.2v1.8c0 .7.4 1.1 1.2 1.1s1.2-.4 1.2-1.1v-2.4c0-.4-.1-.8-.4-1.1s-.7-.4-1.2-.5v-9.9c0-.2-.1-.4-.1-.7s-.2-.5-.4-.6-.4-.2-.7-.4c-.3-.1-.7-.2-1.2-.2h-4.9zm-1.3 11.7c.4-.6.6-1.4.8-2.4.2-1.1.3-2.8.5-5.3l.1-1.4q.15-.6.6-.6h3.2c.2 0 .4 0 .5.1s.1.2.1.4v9.2zm-6.7-4.9q0 2.4-.9 3.6c-.6.8-1.6 1.2-2.8 1.2-1.3 0-2.2-.4-2.8-1.2q-.9-1.2-.9-3.6t.9-3.6c.6-.8 1.6-1.2 2.8-1.2 1.3 0 2.2.4 2.8 1.2q.9 1.05.9 3.6m-3.8-7.2c-4.3 0-6.4 2.4-6.4 7.1s2.1 7.1 6.4 7.1 6.4-2.4 6.4-7.1-2.1-7.1-6.4-7.1m-22.8 2.3h2.8c.2 0 .4 0 .5.1s.1.2.1.4v3.8h-3.2c-.8 0-1.4-.2-1.9-.6s-.8-.9-.8-1.5c0-.7.2-1.3.7-1.7.4-.3 1-.5 1.8-.5m3.4 6.3v4.6c0 .7.4 1.1 1.3 1.1s1.3-.4 1.3-1.1v-10.4c0-.8-.2-1.5-.5-1.9s-.9-.6-1.9-.6h-3.8c-1.5 0-2.7.4-3.7 1.1s-1.4 1.8-1.4 3.1c0 .8.3 1.5.8 2.1s1.2 1.1 2.1 1.3c-.6.4-1.1 1.1-1.6 2.2-.6 1.2-1.1 2.1-1.6 2.8-.2.3-.2.5-.1.8s.4.4.8.5c.6.1 1.2-.1 1.6-.5.5-.5 1-1.4 1.5-2.8.6-1.6 1.7-2.4 3.4-2.4h1.8zm-12.4 1.6c-.6-.1-1.1.2-1.4.8-.5.9-1.3 1.3-2.4 1.3-2.5 0-3.7-1.7-3.7-5.2 0-3.4 1.2-5.2 3.7-5.2 1.2 0 2.1.5 2.5 1.5.2.5.6.8 1.3.8h.1c.4-.1.7-.2.8-.4.2-.2.2-.5.1-.9-.2-.8-.7-1.5-1.6-2.1q-1.35-.9-3.3-.9c-4.3 0-6.4 2.4-6.4 7.1s2.1 7.1 6.4 7.1q1.95 0 3.3-.9c.9-.6 1.4-1.2 1.6-1.9.1-.5 0-.8-.2-.9-.1 0-.4-.2-.8-.2m-19.6-9.8c-.4 0-.8.1-1.1.2s-.6.3-.7.4c-.2.2-.3.4-.4.7s-.2.5-.2.7 0 .5-.1.8c0 .3-.1.9-.2 2-.2 2.6-.3 4.2-.5 4.9v.2c-.1.6-.2 1.1-.4 1.4s-.5.4-1 .4c-.6 0-.9.4-.9 1.1 0 .3.1.5.3.7q.3.3.9.3c1.1.1 1.9-.2 2.5-.9s.9-1.6 1.1-2.9c.1-1 .3-3.1.5-6.1l.1-1.3c0-.4.3-.6.7-.6h2.7c.4 0 .6.2.6.5v10.4c0 .7.4 1.1 1.3 1.1s1.3-.4 1.3-1.1v-11.100000000000001c0-.2-.1-.4-.1-.7s-.2-.5-.3-.6c-.2-.1-.4-.3-.7-.4s-.7-.2-1.1-.2h-4.3zm-10.7 14.8 5.5-13.9c.2-.4.1-.7-.2-.8s-.7-.3-1.1-.3c-.8 0-1.2.3-1.5 1l-2.9 7.9c-.1.3-.3.6-.4 1-.1-.4-.2-.8-.3-.9l-3.2-7.9c-.3-.6-.7-1-1.5-1-.5 0-.8.1-1.1.3s-.3.5-.1.8q.75 2.1 2.4 6 1.65 4.05 2.4 6l-.6 1.8c-.2.5-.4.8-.7 1.1-.3.2-.6.3-1.1.2-.9-.2-1.3 0-1.4.8 0 .4 0 .7.2.9s.4.4.7.4c.3.1.7.1 1.1.1q.9 0 1.5-.3c.4-.2.8-.5 1.1-.9s.5-.7.7-1c.1-.4.3-.8.5-1.3m-17.6-14c0-.7-.4-1.1-1.3-1.1s-1.3.4-1.3 1.1v12c0 .7.4 1.1 1.3 1.1s1.3-.4 1.3-1.1v-5.4h5.9v5.4c0 .7.4 1.1 1.3 1.1s1.3-.4 1.3-1.1v-12c0-.7-.4-1.1-1.3-1.1s-1.3.4-1.3 1.1v4.7h-5.9zm-6.8 9c-.6-.1-1.1.2-1.4.8-.5.9-1.3 1.3-2.4 1.3-2.5 0-3.7-1.7-3.7-5.2 0-3.4 1.2-5.2 3.7-5.2 1.2 0 2.1.5 2.5 1.5.2.5.6.8 1.3.8h.1c.4-.1.7-.2.8-.4.2-.2.2-.5.1-.9-.2-.8-.7-1.5-1.6-2.1q-1.35-.9-3.3-.9c-4.3 0-6.4 2.4-6.4 7.1s2.1 7.1 6.4 7.1q1.95 0 3.3-.9c.9-.6 1.4-1.2 1.6-1.9.1-.5 0-.8-.2-.9-.2 0-.4-.2-.8-.2m-14.9-3q0 2.4-.9 3.6c-.6.8-1.6 1.2-2.8 1.2-1.3 0-2.2-.4-2.8-1.2q-.9-1.2-.9-3.6t.9-3.6c.6-.8 1.6-1.2 2.8-1.2 1.3 0 2.2.4 2.8 1.2q.9 1.05.9 3.6m-3.8-7.2c-4.3 0-6.4 2.4-6.4 7.1s2.1 7.1 6.4 7.1 6.4-2.4 6.4-7.1c.1-4.7-2.1-7.1-6.4-7.1m-18.1-3.2c0-.8-.5-1.2-1.4-1.2s-1.4.4-1.4 1.2v16.4c0 .8.5 1.1 1.4 1.1s1.4-.4 1.4-1.1v-8q1.2 0 2.1.3c.6.2 1.1.5 1.6 1 .4.5.8.9 1.1 1.4s.6 1.1.8 1.8l.3.9c.6 1.6 1.1 2.7 1.6 3.3.4.4.9.5 1.6.4.9-.2 1.2-.6.8-1.3-.5-.8-1.1-2.3-1.8-4.4-.9-2.5-2.4-4.1-4.4-4.6 1.3-.6 2.4-1.6 3.1-2.9l.3-.4c.9-1.5 1.5-2.6 2-3.2.2-.3.4-.6.4-.9 0-.4-.3-.7-.9-.8-.8-.1-1.4.1-1.9.7q-.6.6-1.5 2.4c-.3.5-.5.9-.7 1.3q-.9 1.35-1.8 2.1c-.7.5-1.5.8-2.6.9v-6.4z"></path><path fill="#FF6900" d="M292.538 449.143c-1.6 0-2.5-.8-2.5-2.4s.8-2.3 2.5-2.3h50.9c1.6 0 2.5.8 2.5 2.3 0 1.6-.8 2.4-2.5 2.4zM377.738 443.343h14.4v-11.5c0-1.7 1-2.6 3.1-2.6s3.1.9 3.1 2.6v29.5c0 1.8-1 2.6-3.1 2.6s-3.1-.9-3.1-2.6v-13.1h-14.4v13.1c0 1.8-1 2.6-3.1 2.6s-3.1-.9-3.1-2.6v-29.5c0-1.7 1-2.6 3.1-2.6s3.1.9 3.1 2.6zM428.138 458.643c-2.6 3.7-6.5 5.6-11.7 5.6q-5.1 0-8.4-2.7c-2.2-1.8-3.3-4.3-3.3-7.6 0-7.8 6.4-11.8 19.3-11.8 1 0 2 0 2.8.1h1.2999999999999998c0-2.1-.2-3.7-.6-5-.9-2.3-3.5-3.5-7.7-3.5-2.9 0-5.4.8-7.4 2.3-.6.5-1.2.7-1.9.7s-1.4-.3-2.2-.8c-.7-.5-1-1-1-1.8 0-.7.5-1.4 1.4-2.2 2.7-2.1 6.7-3.1 12-3.1 4.9 0 8.4 1.1 10.5 3.4 2.1 2.2 3.2 5.7 3.2 10.3v13.8c0 1.6.1 3 .3 4 .2 1.7-.5 2.7-2.3 3-2.1.2-3.4-.5-3.7-2.2-.5-1.4-.6-2.3-.6-2.5m0-11.7c-1.9-.1-3.4-.2-4.5-.2q-2.25 0-4.2.3c-1.3.2-2.6.6-3.9 1.1s-2.3 1.3-3.1 2.3-1.1 2.3-1.1 3.7c0 1.7.6 3 1.7 4 1.1.9 2.6 1.4 4.4 1.4 3.1 0 5.7-1.1 7.7-3.2 2.3-2.4 3.3-5.5 3-9.4M462.338 429.943c1.1 0 2.1.1 2.9.4q1.2.45 1.8.9t.9 1.5c.2.7.3 1.2.3 1.6v24.299999999999997c1.2.1 2.2.5 2.8 1.2s1 1.6 1 2.7v5.8c0 1.7-.9 2.6-2.8 2.6s-2.8-.9-2.8-2.6v-4.4c0-.3-.2-.5-.6-.5h-21c-.4 0-.6.2-.6.5v4.4c0 1.7-.9 2.6-2.8 2.6s-2.8-.9-2.8-2.6v-5.8c0-1.3.3-2.2.8-2.8s1.3-1.2 2.5-1.8c1-.5 1.9-2.4 2.5-5.5q.45-3.45.9-12 0-1.65.3-4.2c.3-4.2 2.2-6.2 5.7-6.2h11zm-.5 28.7v-22.6q0-.6-.3-.9c-.2-.2-.5-.3-1.1-.3h-7.7c-.8 0-1.3.5-1.5 1.4l-.2 3.5c-.3 6-.7 10.4-1.1 13-.3 2.5-1 4.5-1.9 5.9zM506.638 446.543c0 11.6-5.2 17.4-15.7 17.4s-15.8-5.8-15.8-17.4c0-11.7 5.3-17.5 15.8-17.5 10.5.1 15.7 5.9 15.7 17.5m-8.7-8.9c-1.5-1.9-3.8-2.9-7-2.9s-5.5 1-6.9 2.9c-1.5 1.9-2.2 4.9-2.2 8.9s.7 7 2.2 8.9 3.8 2.9 6.9 2.9 5.5-1 7-2.9 2.3-4.9 2.3-8.9c-.1-4-.8-7-2.3-8.9M556.838 430.343c.8.3 1.4.8 1.8 1.6.3.7.5 1.4.6 1.9s.1 1.3.1 2.4v25.2c0 1.8-1 2.6-3.1 2.6s-3.1-.9-3.1-2.6v-25.5c0-.8-.5-1.1-1.4-1.1h-11.7c-.5 0-.9.1-1.1.3q-.3.3-.3.9v25.5c0 1.8-1 2.6-3.1 2.6s-3.1-.9-3.1-2.6v-25.2c0-1 0-1.8.1-2.3s.3-1.2.6-1.9.9-1.2 1.7-1.6c.8-.3 1.9-.5 3.2-.5h15.6c1.3-.1 2.4 0 3.2.3M597.838 446.543c0 11.6-5.2 17.4-15.7 17.4s-15.8-5.8-15.8-17.4c0-11.7 5.3-17.5 15.8-17.5 10.4.1 15.7 5.9 15.7 17.5m-8.8-8.9c-1.5-1.9-3.8-2.9-7-2.9-3.1 0-5.5 1-7 2.9s-2.2 4.9-2.2 8.9.7 7 2.2 8.9 3.8 2.9 7 2.9c3.1 0 5.5-1 7-2.9s2.3-4.9 2.3-8.9-.8-7-2.3-8.9M617.838 452.443l-3.2-5.3-3.2-5.3v-.1c-.3-.5-.6-1.1-.9-1.7v21.3c0 1.8-1 2.6-3 2.6-1.9 0-2.9-.9-2.9-2.6v-29.4c0-1.7 1.2-2.6 3.5-2.6 1.5 0 2.8.8 3.8 2.3l9.3 15.6 9.3-15.6c1-1.6 2.2-2.3 3.8-2.3 2.2 0 3.3.9 3.3 2.6v29.4c0 1.8-1 2.6-2.9 2.6s-2.9-.9-2.9-2.6v-21.3l-.9 1.8-6.4 10.6c-1 1.6-2.1 2.3-3.3 2.3-1.3 0-2.5-.8-3.4-2.3M652.838 442.443h9.7c3.6 0 6.4 1 8.4 2.9 2.1 1.9 3.1 4.4 3.1 7.5s-1.1 5.6-3.3 7.6-5 3-8.3 3h-10.1c-1.3 0-2.4-.2-3.3-.5-.8-.3-1.4-.9-1.8-1.6-.3-.7-.5-1.3-.6-1.9-.1-.5-.1-1.3-.1-2.3v-25.2c0-1.8 1-2.6 3.1-2.6s3.1.9 3.1 2.6v10.5zm0 15q0 .75.3.9c.2.1.6.2 1.2.2h7.2c1.8 0 3.2-.5 4.2-1.4 1-1 1.4-2.3 1.4-4.1q0-5.7-5.7-5.7h-8.7v10.1zm30.4 4c0 1.7-1 2.6-3.1 2.6s-3.1-.9-3.1-2.6v-29.5c0-1.8 1-2.6 3.1-2.6s3.1.9 3.1 2.6zM712.238 429.943c1.6 0 2.3.8 2.3 2.4s-.8 2.5-2.3 2.5h-7.5v26.6c0 1.8-1 2.6-3.1 2.6s-3.1-.9-3.1-2.6v-26.6h-7.4c-1.6 0-2.4-.8-2.4-2.5q0-2.4 2.4-2.4zM726.338 442.443h9.7c3.5 0 6.3 1 8.4 2.9s3.1 4.4 3.1 7.5-1.1 5.6-3.3 7.6-5 3-8.3 3h-10.1c-1.1 0-2.1-.1-2.8-.4-.8-.3-1.3-.6-1.7-.9q-.6-.45-.9-1.5c-.2-.7-.3-1.2-.3-1.6v-27.099999999999998c0-1.7 1-2.6 3.1-2.6s3.1.9 3.1 2.6zm0 14.9c0 .8.5 1.2 1.4 1.2h7.2c3.8 0 5.7-1.8 5.7-5.5q0-5.7-5.7-5.7h-8.7v10zM778.138 434.043c2.7-3.3 6.2-5 10.6-5 9.3 0 13.9 5.9 13.9 17.5 0 2.5-.3 4.7-.8 6.8-.5 2-1.3 3.9-2.5 5.5-1.1 1.7-2.6 2.9-4.6 3.9-1.9.9-4.2 1.4-6.8 1.4-3.8 0-6.9-1.4-9.5-4.3v12.6c0 1.7-1.1 2.6-3.2 2.6s-3.1-.9-3.1-2.6v-40.6c0-1.7 1-2.6 3.1-2.6 2 0 3 .9 3 2.6v2.2zm2.7 21.4c1.6 2.3 3.9 3.5 6.8 3.5q8.1 0 8.1-12.3t-8.1-12.3c-2.9 0-5.2 1-6.8 3.1q-2.4 3.15-2.4 7.2v3.1c0 2.8.8 5.4 2.4 7.7M821.738 466.243c-.5 1.3-1 2.3-1.4 3s-.9 1.6-1.6 2.5q-1.05 1.5-2.7 2.1c-1 .4-2.3.7-3.6.7-.9 0-1.8-.1-2.6-.3-.6-.1-1.2-.5-1.6-1.1s-.6-1.3-.5-2.2c.2-1.8 1.4-2.5 3.5-1.9h-.1c1.2.2 2.1 0 2.8-.5.6-.5 1.2-1.4 1.6-2.6l1.6-4.3c-1.3-3.3-3.3-8.3-6-14.8-2.7-6.6-4.6-11.5-5.9-14.8h.1q-.6-1.35.3-2.1c.6-.5 1.5-.7 2.6-.7q2.7 0 3.6 2.4l7.7 19.5h-.1c.2.5.5 1.2.8 2.3.3-.9.5-1.7.9-2.4v.1l7.2-19.4c.6-1.6 1.8-2.5 3.6-2.5 1.1 0 2 .2 2.7.7s.9 1.2.5 2.1h.1zM847.138 442.844c2.1-.3 3.8-.8 5.1-1.7s2.4-2.2 3.5-3.8v.1l1.6-2.7c1-1.8 1.9-3.1 2.6-4 1-1 2.2-1.4 3.6-1.3 2.4.2 3 1.3 1.9 3.2-.9 1.4-1.6 2.5-2 3.2-.2.3-.4.6-.7 1.1s-.6 1-.8 1.4c-.3.4-.5.8-.8 1.1-1.6 2.2-3.4 3.9-5.5 5.2 3.3.9 5.8 3.8 7.6 8.6.8 2.2 1.7 4.2 2.6 6l1.1 2.2c.7 1.5.1 2.4-1.7 2.7-1.7.3-2.9 0-3.5-.8-.9-1-2-2.9-3.1-5.8l-.7-1.8c-1.1-2.9-2.4-5-3.8-6.3-1.4-1.2-3.7-1.8-7-1.7v13.8c0 1.8-1 2.6-3.1 2.6s-3.1-.9-3.1-2.6v-29.5c0-1.7 1-2.6 3.1-2.6s3.1.9 3.1 2.6zM901.538 461.343c0 1.8-1 2.6-3.1 2.6s-3.1-.9-3.1-2.6v-21.7c-.4.6-.8 1.3-1.4 2.1l-.8 1.2-13.7 19.8c-.6.8-1.6 1.2-2.8 1.2-2.1 0-3.1-.9-3.1-2.6v-29.5c0-1.7 1-2.6 3.1-2.6s3.2.9 3.2 2.6v22c.1-.2.9-1.4 2.4-3.8l13.5-19.6c.5-.7 1.4-1.1 2.7-1.1 2.1 0 3.1.9 3.1 2.6zM911.038 419.543c.8-.7 1.9-1.1 3.2-1.1 1.5 0 2.6.3 3.4 1s1.1 1.6 1 2.9l-2.2 28.9c-.1 1.1-.9 1.7-2.2 1.7s-1.9-.6-2.1-1.7c-.2-2.1-.4-5.1-.7-9-.3-4-.6-7.6-.8-10.9q-.45-4.95-.6-9c-.2-1.2.1-2.1 1-2.8m3.2 36.4c1.6 0 2.8.3 3.4 1q.9.9.9 3c0 1.4-.3 2.4-.9 3.1s-1.7 1-3.4 1q-4.2 0-4.2-4.2 0-3.9 4.2-3.9"></path></g><defs><clipPath id="9120cf84-367e-4e22-ae94-3bccb7f9adcca"><path fill="#fff" d="M.238.144h1000v555.9H.238z"></path></clipPath></defs></svg>