<svg xmlns="http://www.w3.org/2000/svg" width="1001" height="872" fill="none" viewBox="0 0 1001 872"><g clip-path="url(#740be79d-9bd2-4c49-adac-68f62783edcea)"><mask id="4bda53ec-6043-4a84-b0ca-44e120a4f42fb" width="1003" height="868" x="-1" y="0" maskUnits="userSpaceOnUse" style="mask-type:luminance"><path fill="#fff" d="M1001.04.617H-.762v866.4H1001.04z"></path></mask><g mask="url(#4bda53ec-6043-4a84-b0ca-44e120a4f42fb)"><path fill="#FDF2E8" d="M961.439 119.423v-8.943c.1-1.626.3-3.049.3-4.777V58.445s0-57.828-56.9-57.828h-521.8s-56.9 0-56.9 57.828V105.6s0 57.828 56.9 57.828h521.8s23.8-.101 40.6-15.752c9.8 9.654 23.3 15.752 37.2 15.752 5.7 0 11.1-1.118 16.2-2.947-18.7-1.626-38.1-21.546-37.4-41.059"></path></g><path fill="#FF6900" d="M384.238 66.017h-2.9q-2.85 0-4.5 1.2c-1.2.8-2.2 2.2-3.2 4.1l-.8 1.8q-1.95 4.2-3.3 5.7c-.3.3-.7.5-1.3.7-.6.1-1.2.2-1.7.1-1.5-.3-1.8-1-1-2.2s1.7-2.9 2.9-5.1c.3-.6.7-1.4 1.3-2.5 1.1-2.2 2.5-3.7 4-4.6-4.7-1.1-7-3.8-7-8 0-2.9 1-5.1 2.9-6.7s4.5-2.3 7.7-2.3h7.6c1.7 0 2.8.4 3.3 1.1s.9 1.8.9 3.2v25.1c0 1.3-.8 1.9-2.3 1.9-1.6 0-2.3-.6-2.3-1.9v-11.6zm0-13.2c0-.6-.3-1-1-1h-6.5c-1.7 0-3.1.5-4 1.4-1 1-1.5 2.2-1.5 3.8 0 1.8.7 3.1 2 3.9s3.1 1.2 5.2 1.2h5.8zM421.438 56.017c.8 0 1.4.1 2 .3q.75.3 1.2.6c.3.2.5.6.6 1s.2.8.2 1.1v16.8c.8.1 1.5.4 2 .8.5.5.7 1.1.7 1.8v4c0 1.2-.7 1.8-2 1.8s-2-.6-2-1.8v-3c0-.2-.1-.3-.4-.3h-14.5c-.3 0-.4.1-.4.3v3c0 1.2-.7 1.8-2 1.8s-2-.6-2-1.8v-4c0-.9.2-1.6.5-2s.9-.8 1.7-1.3c.7-.4 1.3-1.6 1.7-3.8.2-1.6.4-4.4.7-8.3 0-.8.1-1.8.2-2.9.2-2.9 1.5-4.3 4-4.3h7.8zm-.3 19.8v-15.7c0-.3-.1-.5-.2-.6s-.4-.2-.8-.2h-5.4c-.6 0-.9.3-1 1l-.1 2.4c-.2 4.2-.5 7.2-.8 9-.2 1.7-.7 3.1-1.3 4.1zM441.038 81.117q-.6 1.35-.9 2.1c-.2.5-.6 1.1-1.1 1.8q-.75 1.05-1.8 1.5c-.7.3-1.6.5-2.5.5-.6 0-1.2-.1-1.8-.2-.4-.1-.8-.3-1.1-.7s-.4-.9-.4-1.5c.1-1.3.9-1.7 2.4-1.3.8.1 1.5 0 1.9-.3.4-.4.8-1 1.1-1.8l1.1-3c-.9-2.3-2.3-5.7-4.2-10.3-1.8-4.6-3.2-8-4.1-10.3-.3-.6-.2-1.1.2-1.4s1-.5 1.8-.5c1.2 0 2 .6 2.5 1.7l5.3 13.5c.1.3.3.9.6 1.6.2-.6.4-1.2.6-1.7l5-13.4c.4-1.1 1.2-1.7 2.5-1.7.8 0 1.4.2 1.9.5s.6.8.3 1.4zM463.338 71.517l-2.2-3.7-2.2-3.7-.6-1.2v14.7c0 1.2-.7 1.8-2 1.8s-2-.6-2-1.8v-20.2q0-1.8 2.4-1.8c1 0 1.9.5 2.6 1.6l6.4 10.8 6.4-10.8c.7-1.1 1.6-1.6 2.7-1.6 1.5 0 2.3.6 2.3 1.8v20.4c0 1.2-.7 1.8-2 1.8s-2-.6-2-1.8v-14.8l-.7 1.3-4.4 7.3c-.7 1.1-1.4 1.6-2.3 1.6-.9-.1-1.7-.6-2.4-1.7M497.638 75.817q-2.7 3.9-8.1 3.9c-2.3 0-4.3-.6-5.8-1.9-1.5-1.2-2.3-3-2.3-5.3 0-5.4 4.5-8.1 13.4-8.1h2.9c0-1.4-.1-2.6-.4-3.5q-.9-2.4-5.4-2.4c-2 0-3.7.5-5.1 1.6-.4.3-.9.5-1.3.5-.5 0-1-.2-1.5-.5s-.7-.7-.7-1.2.3-1 1-1.5c1.9-1.4 4.6-2.1 8.3-2.1 3.4 0 5.8.8 7.2 2.3 1.5 1.6 2.2 3.9 2.2 7.2v9.6c0 1.1.1 2.1.2 2.8.1 1.2-.4 1.9-1.6 2-1.5.1-2.3-.4-2.6-1.5s-.4-1.7-.4-1.9m0-8c-1.3-.1-2.4-.1-3.1-.1-1 0-2 .1-2.9.2s-1.8.4-2.7.7-1.6.9-2.1 1.6-.8 1.6-.8 2.5q0 1.8 1.2 2.7c.8.6 1.8 1 3 1 2.2 0 4-.7 5.4-2.2 1.5-1.6 2.2-3.8 2-6.4M521.138 56.017c.8 0 1.4.1 1.9.3q.75.3 1.2.6c.3.2.5.6.6 1 .1.5.2.8.2 1.1v18.7c0 1.2-.7 1.8-2.2 1.8q-2.1 0-2.1-1.8v-17.6c0-.5-.3-.8-1-.8h-4.5c-.8 0-1.2.3-1.2 1l-.2 2.3c-.4 5.2-.7 8.6-.9 10.4-.3 2.2-.9 3.9-1.8 5s-2.4 1.6-4.2 1.5c-.7 0-1.3-.2-1.6-.5s-.5-.7-.5-1.2c.1-1.2.6-1.8 1.6-1.8.9 0 1.5-.3 1.7-.7.3-.5.5-1.2.6-2.3v-.4c.2-1.2.5-3.9.8-8.3.1-1.7.2-2.9.3-3.3 0-.6.1-1 .1-1.4 0-.3.2-.8.3-1.3.2-.5.4-.9.7-1.2s.7-.5 1.2-.8c.5-.2 1.2-.3 1.9-.3zM530.738 84.417c-.3-.3-.4-.7-.3-1.1l1.3-7.7q.45-1.95 3-1.8c.9.1 1.5.4 1.9.9s.4 1.2.1 2l-3 7c-.2.5-.4.8-.7 1s-.7.2-1.3.2c-.3 0-.7-.2-1-.5M577.738 75.117c1.3 0 2.2.3 2.8.8s.9 1.3.9 2.5v5.4c0 .7-.2 1.2-.5 1.5s-.9.4-1.6.4c-1.4 0-2.1-.6-2.1-1.9v-4.3c0-.3-.2-.4-.6-.4h-19.3c-.3 0-.5.1-.5.4v4.3c0 1.3-.7 1.9-2.2 1.9-1.4 0-2.1-.6-2.1-1.9v-5.4c0-1.6.7-2.7 2-3.1 1.7-.6 2.8-2.3 3.2-5.2.5-3 .9-8.3 1.3-16v-1.8c.1-1.4.5-2.4 1.1-3.2s1.8-1.1 3.4-1.1h9.7c1.7 0 2.8.4 3.4 1.1.6.8.9 1.8.9 3.2v22.8zm-4.6 0v-22.2c0-.6-.3-1-1-1h-7.1c-.7 0-1.1.3-1.1 1 0 .1 0 .4-.1.9s-.1 1-.1 1.3c-.6 7.7-1 12.8-1.3 15.2-.1 1.7-.6 3.3-1.4 4.8zM605.438 67.517c0 8-3.6 12-10.9 12s-10.9-4-10.9-12c0-8.1 3.6-12.1 10.9-12.1s10.9 4 10.9 12.1m-6-6.2c-1-1.3-2.7-2-4.8-2-2.2 0-3.8.7-4.8 2s-1.5 3.4-1.5 6.2.5 4.8 1.5 6.2 2.6 2 4.8 2 3.8-.7 4.8-2 1.6-3.4 1.6-6.2-.6-4.8-1.6-6.2M622.338 56.017c.8 0 1.4.1 2 .3q.75.3 1.2.6c.3.2.5.6.6 1 .1.5.2.8.2 1.1v16.8c.8.1 1.5.4 2 .8s.7 1.1.7 1.8v4c0 1.2-.7 1.8-2 1.8s-2-.6-2-1.8v-3c0-.2-.1-.3-.4-.3h-14.5c-.3 0-.4.1-.4.3v3c0 1.2-.7 1.8-2 1.8s-2-.6-2-1.8v-4c0-.9.2-1.6.5-2s.9-.8 1.7-1.3c.7-.4 1.3-1.6 1.7-3.8.2-1.6.4-4.4.7-8.3 0-.8.1-1.8.2-2.9.2-2.9 1.5-4.3 4-4.3h7.8zm-.3 19.8v-15.7c0-.3-.1-.5-.2-.6s-.4-.2-.8-.2h-5.4c-.6 0-.9.3-1 1l-.1 2.4c-.2 4.2-.5 7.2-.8 9-.2 1.7-.7 3.1-1.3 4.1zM653.038 67.517c0 8-3.6 12-10.9 12s-10.9-4-10.9-12c0-8.1 3.6-12.1 10.9-12.1 7.2 0 10.9 4 10.9 12.1m-6.1-6.2c-1-1.3-2.7-2-4.8-2-2.2 0-3.8.7-4.8 2s-1.5 3.4-1.5 6.2.5 4.8 1.5 6.2 2.6 2 4.8 2 3.8-.7 4.8-2 1.6-3.4 1.6-6.2-.5-4.8-1.6-6.2M689.738 67.217c-.6.6-1.7.9-3.4.9h-12.4c0 .9.1 1.8.3 2.6s.5 1.7 1 2.6q.6 1.35 2.1 2.1c.9.5 2.1.8 3.4.8.8 0 1.7-.2 2.7-.5.9-.3 1.7-.9 2.2-1.6.6-.9 1.4-1.3 2.5-1.2.8.1 1.3.4 1.5.8s.3.8.1 1.3c-.5 1.5-1.7 2.7-3.4 3.5q-2.7 1.2-5.7 1.2c-2 0-3.8-.4-5.3-1.1s-2.7-1.7-3.5-2.9c-.9-1.2-1.5-2.5-1.9-3.9s-.6-2.8-.6-4.3q0-2.4.6-4.5c.4-1.4 1-2.7 1.9-3.9s2-2.2 3.5-2.9 3.2-1.1 5.2-1.1c3.2 0 5.8 1 7.7 2.9 1.7 1.7 2.5 3.9 2.5 6.7-.1 1.1-.4 1.9-1 2.5m-4-2.4c.5 0 .7-.3.7-.7-.1-1.8-.6-3.1-1.6-4.1q-1.5-1.5-4.2-1.5c-1.8 0-3.3.6-4.5 1.9s-1.9 2.8-2 4.4zM712.938 73.217c.3.3.3.8.3 1.6-.3 1.1-1.1 2.2-2.6 3.2s-3.4 1.5-5.6 1.5c-7.3 0-10.9-4-10.9-12 0-8.1 3.6-12.1 10.9-12.1 2.1 0 4 .5 5.6 1.5s2.5 2.2 2.8 3.5c.1.7.1 1.2-.2 1.5-.2.3-.7.6-1.4.7h-.2c-1.2 0-2-.5-2.3-1.4-.7-1.7-2.1-2.5-4.3-2.5q-6.3 0-6.3 8.7t6.3 8.7c1.9 0 3.3-.7 4.1-2.2.6-1 1.4-1.5 2.4-1.3.7.1 1.1.3 1.4.6M732.738 56.017c1.1 0 1.6.6 1.6 1.7s-.5 1.7-1.6 1.7h-5.2v18.4q0 1.8-2.1 1.8c-1.4 0-2.2-.6-2.2-1.8v-18.5h-5.1c-1.1 0-1.7-.6-1.7-1.7s.6-1.7 1.7-1.7h14.6zM742.438 64.617h6.7c2.4 0 4.4.7 5.8 2s2.2 3.1 2.2 5.2-.8 3.9-2.3 5.2-3.5 2.1-5.7 2.1h-7c-.8 0-1.4-.1-2-.3q-.75-.3-1.2-.6c-.3-.2-.5-.6-.6-1-.1-.5-.2-.8-.2-1.1v-18.8c0-1.2.7-1.8 2.2-1.8s2.2.6 2.2 1.8v7.3zm0 10.3c0 .6.3.8 1 .8h5c2.6 0 3.9-1.3 3.9-3.8 0-2.6-1.3-4-3.9-4h-6zM787.938 56.017c1.1 0 1.6.6 1.6 1.7s-.5 1.7-1.6 1.7h-5.2v18.4q0 1.8-2.1 1.8c-1.5 0-2.2-.6-2.2-1.8v-18.5h-5.1c-1.1 0-1.7-.6-1.7-1.7s.6-1.7 1.7-1.7h14.6zM812.838 67.517c0 8-3.6 12-10.9 12s-10.9-4-10.9-12c0-8.1 3.6-12.1 10.9-12.1s10.9 4 10.9 12.1m-6-6.2c-1-1.3-2.7-2-4.8-2s-3.8.7-4.8 2-1.5 3.4-1.5 6.2.5 4.8 1.5 6.2c1 1.3 2.6 2 4.8 2s3.8-.7 4.8-2 1.6-3.4 1.6-6.2-.6-4.8-1.6-6.2M830.138 56.017c.8 0 1.4.1 1.9.3q.75.3 1.2.6c.3.2.5.6.6 1 .1.5.2.8.2 1.1v18.7c0 1.2-.7 1.8-2.2 1.8q-2.1 0-2.1-1.8v-17.6c0-.5-.3-.8-1-.8h-4.6c-.8 0-1.2.3-1.2 1l-.2 2.3c-.4 5.2-.7 8.6-.9 10.4-.3 2.2-.9 3.9-1.8 5s-2.4 1.6-4.2 1.5c-.7 0-1.3-.2-1.6-.5s-.5-.7-.5-1.2c.1-1.2.6-1.8 1.6-1.8.9 0 1.5-.3 1.7-.7.3-.5.5-1.2.6-2.3v-.4c.2-1.2.5-3.9.8-8.3.1-1.7.2-2.9.3-3.3 0-.6.1-1 .1-1.4 0-.3.2-.8.3-1.3.2-.5.4-.9.7-1.2s.7-.5 1.2-.8 1.2-.3 1.9-.3zM844.638 64.617h6.7c2.4 0 4.4.7 5.8 2s2.2 3.1 2.2 5.2-.8 3.9-2.3 5.2-3.5 2.1-5.7 2.1h-7c-.8 0-1.4-.1-2-.3q-.75-.3-1.2-.6c-.3-.2-.5-.6-.6-1-.1-.5-.2-.8-.2-1.1v-18.8c0-1.2.7-1.8 2.2-1.8s2.2.6 2.2 1.8v7.3zm0 10.3c0 .6.3.8 1 .8h5c2.6 0 3.9-1.3 3.9-3.8 0-2.6-1.3-4-3.9-4h-6zM867.738 64.917c1.5-.2 2.7-.6 3.5-1.2.9-.6 1.7-1.5 2.4-2.6l1.1-1.9c.7-1.2 1.3-2.2 1.8-2.8.7-.7 1.5-1 2.5-.9 1.7.1 2.1.9 1.3 2.2-.6 1-1.1 1.7-1.4 2.2-.1.2-.3.4-.5.8-.2.3-.4.7-.6.9s-.3.5-.5.8c-1.1 1.5-2.3 2.7-3.8 3.6 2.3.6 4 2.6 5.3 5.9.6 1.5 1.1 2.9 1.8 4.2l.7 1.5c.5 1 .1 1.6-1.2 1.9q-1.8.3-2.4-.6c-.6-.7-1.4-2-2.2-4l-.5-1.3c-.8-2-1.7-3.5-2.6-4.3q-1.5-1.35-4.8-1.2v9.6c0 1.2-.7 1.8-2.2 1.8s-2.2-.6-2.2-1.8v-20.4c0-1.2.7-1.8 2.2-1.8s2.2.6 2.2 1.8v7.6zM905.438 67.517c0 8-3.6 12-10.9 12s-10.9-4-10.9-12c0-8.1 3.6-12.1 10.9-12.1s10.9 4 10.9 12.1m-6-6.2c-1-1.3-2.7-2-4.8-2-2.2 0-3.8.7-4.8 2s-1.5 3.4-1.5 6.2.5 4.8 1.5 6.2c1 1.3 2.6 2 4.8 2s3.8-.7 4.8-2 1.6-3.4 1.6-6.2-.6-4.8-1.6-6.2M376.738 134.717q-.6 1.35-.899 2.1c-.2.5-.601 1.1-1.101 1.8q-.75 1.05-1.799 1.5c-.7.3-1.6.5-2.5.5-.6 0-1.201-.1-1.801-.2-.4-.1-.8-.3-1.1-.7s-.4-.9-.4-1.5c.1-1.3.9-1.7 2.4-1.3.8.1 1.501 0 1.901-.3.4-.4.799-1 1.099-1.8l1.1-3c-.9-2.3-2.299-5.7-4.199-10.3-1.8-4.6-3.2-8-4.1-10.3-.3-.6-.201-1.1.199-1.4s1.001-.5 1.801-.5c1.2 0 2 .6 2.5 1.7l5.399 13.5c.1.3.301.9.601 1.6.2-.6.4-1.2.6-1.7l5-13.4c.4-1.1 1.2-1.7 2.5-1.7.8 0 1.4.2 1.9.5s.599.8.299 1.4zM407.338 118.817h10v-8c0-1.2.7-1.8 2.2-1.8s2.2.6 2.2 1.8v20.4c0 1.2-.7 1.8-2.2 1.8-1.4 0-2.2-.6-2.2-1.8v-9.1h-10v9.1c0 1.2-.7 1.8-2.2 1.8-1.4 0-2.2-.6-2.2-1.8v-20.4c0-1.2.7-1.8 2.2-1.8s2.2.6 2.2 1.8zM442.138 129.417q-2.7 3.9-8.1 3.9c-2.3 0-4.3-.6-5.8-1.9-1.5-1.2-2.3-3-2.3-5.3 0-5.4 4.5-8.1 13.4-8.1h2.9c0-1.4-.1-2.6-.4-3.5q-.9-2.4-5.4-2.4c-2 0-3.7.5-5.1 1.6-.4.3-.9.5-1.3.5-.5 0-1-.2-1.5-.5s-.7-.7-.7-1.2.3-1 1-1.5c1.9-1.4 4.6-2.1 8.3-2.1 3.4 0 5.8.8 7.2 2.3 1.5 1.6 2.2 3.9 2.2 7.2v9.6c0 1.1.1 2.1.2 2.8.1 1.2-.4 1.9-1.6 2-1.5.1-2.3-.4-2.6-1.5s-.4-1.8-.4-1.9m0-8.1c-1.3-.1-2.4-.1-3.1-.1-1 0-2 .1-2.9.2s-1.8.4-2.7.7-1.6.9-2.1 1.6-.8 1.6-.8 2.5q0 1.8 1.2 2.7c.8.6 1.8 1 3 1 2.2 0 4-.7 5.4-2.2 1.5-1.6 2.2-3.7 2-6.4M469.738 126.817c.3.3.3.8.3 1.6-.3 1.1-1.1 2.2-2.6 3.2s-3.4 1.5-5.6 1.5c-7.2 0-10.9-4-10.9-12 0-8.1 3.6-12.1 10.9-12.1 2.1 0 4 .5 5.6 1.5s2.5 2.2 2.8 3.5c.1.7.1 1.2-.2 1.5-.2.3-.7.6-1.4.7h-.2c-1.2 0-2-.5-2.3-1.4-.7-1.7-2.1-2.5-4.3-2.5q-6.3 0-6.3 8.7t6.3 8.7c1.9 0 3.3-.7 4.1-2.2.6-1 1.4-1.5 2.4-1.3.7.1 1.2.3 1.4.6M475.039 138.017c-.3-.3-.4-.7-.3-1.1l1.3-7.7q.45-1.95 3-1.8c.9.1 1.5.4 1.9.9s.4 1.2.1 2l-3 7c-.2.5-.4.8-.7 1s-.7.2-1.3.2c-.4-.1-.7-.3-1-.5M511.139 109.517q3.75 0 5.7 1.5c1.3 1 2 2.4 2 4.2 0 2.3-1 4-3 5 1.3.6 2.3 1.3 3 2.4.7 1 1 2.2 1 3.4 0 1.9-.7 3.5-2.2 4.7-1.4 1.2-3.2 1.9-5.4 1.9h-8.2c-.8 0-1.4-.1-2-.3q-.75-.3-1.2-.6c-.3-.2-.5-.6-.6-1-.1-.5-.2-.8-.2-1.1v-17c0-.3.1-.7.2-1.1.1-.5.3-.8.6-1q.45-.3 1.2-.6c.5-.2 1.2-.3 2-.3h7.1zm-6.8 9.4h6.7c.9 0 1.7-.3 2.3-.8s.9-1.3.9-2.3c0-1.9-1.1-2.9-3.3-2.9h-5.8c-.4 0-.6.1-.8.2-.1.1-.2.3-.2.6v5.2zm0 9.6c0 .3.1.5.2.6s.4.2.8.2h5.8c2.6 0 3.9-1.2 3.9-3.5 0-2.4-1.3-3.7-3.9-3.7h-6.7v6.4zM547.338 119.717l.9 2.2.9-2.2 6.7-16.4c.2-.5.4-.8.5-1s.4-.4.8-.5c.4-.2 1-.3 1.7-.3s1.2.2 1.6.5c.3.3.3.9 0 1.6l-9.7 23.1c-1.1 2.6-2.2 4.3-3.4 5.2s-2.9 1.3-5.2 1.1c-1.4-.1-2-.8-2-2 0-.6.2-1.1.5-1.4s.8-.4 1.5-.4q1.8 0 2.7-.6c.6-.4 1.1-1 1.4-1.7l-11-23.3c-.3-.7-.3-1.3.2-1.6s1.1-.5 1.8-.5c.6 0 1 .1 1.4.2s.6.3.7.5.3.5.5.8l.1.1zM574.338 109.517c.8 0 1.4.1 1.9.3q.75.3 1.2.6c.3.2.5.6.6 1 .1.5.2.8.2 1.1v18.7c0 1.2-.7 1.8-2.2 1.8q-2.1 0-2.1-1.8v-17.6c0-.5-.3-.8-1-.8h-4.6c-.8 0-1.2.3-1.2 1l-.2 2.3c-.4 5.2-.7 8.6-.9 10.4-.3 2.2-.9 3.9-1.8 5s-2.4 1.6-4.2 1.5c-.7 0-1.3-.2-1.6-.5s-.5-.7-.5-1.2c.1-1.2.6-1.8 1.6-1.8.9 0 1.5-.3 1.7-.7.3-.5.5-1.2.6-2.3v-.4c.2-1.2.5-3.9.8-8.3.1-1.7.2-2.9.3-3.3 0-.6.1-1 .1-1.4 0-.3.2-.8.3-1.3.2-.5.4-.9.7-1.2s.7-.5 1.2-.8 1.2-.3 1.9-.3zM588.939 118.217h6.7c2.4 0 4.4.7 5.8 2s2.2 3.1 2.2 5.2-.8 3.9-2.3 5.2-3.5 2.1-5.7 2.1h-7c-.8 0-1.4-.1-2-.3q-.75-.3-1.2-.6c-.3-.2-.5-.6-.6-1-.1-.5-.2-.8-.2-1.1v-18.7c0-1.2.7-1.8 2.2-1.8s2.2.6 2.2 1.8v7.2zm0 10.3c0 .6.3.8 1 .8h5c2.6 0 3.9-1.3 3.9-3.8 0-2.6-1.3-4-3.9-4h-6zM618.338 123.517c-2.8 0-4.7 1.3-5.7 4-.9 2.3-1.8 3.8-2.6 4.7-.7.8-1.6 1-2.7.9-.7-.1-1.1-.4-1.4-.8s-.2-.9.1-1.3c.8-1.1 1.7-2.7 2.7-4.7.9-1.8 1.8-3.1 2.8-3.7-1.4-.4-2.6-1.1-3.5-2.2s-1.4-2.3-1.4-3.6c0-2.3.8-4 2.3-5.3 1.6-1.2 3.6-1.8 6.2-1.8h6.5c1.6 0 2.6.3 3.2 1s.8 1.7.8 3.2v17.6c0 1.2-.7 1.8-2.2 1.8s-2.2-.6-2.2-1.8v-7.7h-2.9zm-6-9.7c-.8.7-1.1 1.6-1.1 2.8 0 1.1.5 2 1.4 2.6q1.35.9 3.3.9h5.4v-6.5c0-.3-.1-.5-.2-.6s-.4-.2-.8-.2h-4.8c-1.4.1-2.4.4-3.2 1M636.138 118.817h10v-8c0-1.2.7-1.8 2.2-1.8s2.2.6 2.2 1.8v20.4c0 1.2-.7 1.8-2.2 1.8-1.4 0-2.2-.6-2.2-1.8v-9.1h-10v9.1c0 1.2-.7 1.8-2.2 1.8-1.4 0-2.2-.6-2.2-1.8v-20.4c0-1.2.7-1.8 2.2-1.8s2.2.6 2.2 1.8zM677.038 121.017c0 8-3.6 12-10.9 12s-10.9-4-10.9-12c0-8.1 3.6-12.1 10.9-12.1s10.9 4.1 10.9 12.1m-6-6.1c-1-1.3-2.7-2-4.8-2-2.2 0-3.8.7-4.8 2s-1.5 3.4-1.5 6.2.5 4.8 1.5 6.2c1 1.3 2.6 2 4.8 2s3.8-.7 4.8-2 1.6-3.4 1.6-6.2-.6-4.9-1.6-6.2M692.938 109.517q3.75 0 5.7 1.5c1.3 1 2 2.4 2 4.2 0 2.3-1 4-3 5 1.3.6 2.3 1.3 3 2.4.7 1 1 2.2 1 3.4 0 1.9-.7 3.5-2.2 4.7-1.4 1.2-3.2 1.9-5.4 1.9h-8.2c-.8 0-1.4-.1-2-.3q-.75-.3-1.2-.6c-.3-.2-.5-.6-.6-1-.1-.5-.2-.8-.2-1.1v-17c0-.3.1-.7.2-1.1.1-.5.3-.8.6-1q.45-.3 1.2-.6c.5-.2 1.2-.3 2-.3h7.1zm-6.7 9.4h6.7c.9 0 1.7-.3 2.3-.8s.9-1.3.9-2.3c0-1.9-1.1-2.9-3.3-2.9h-5.8c-.4 0-.6.1-.8.2-.1.1-.2.3-.2.6v5.2zm0 9.6c0 .3.1.5.2.6s.4.2.8.2h5.8c2.6 0 3.9-1.2 3.9-3.5 0-2.4-1.3-3.7-3.9-3.7h-6.8zM723.738 126.817c.3.3.3.8.3 1.6-.3 1.1-1.1 2.2-2.6 3.2s-3.4 1.5-5.6 1.5c-7.2 0-10.9-4-10.9-12 0-8.1 3.6-12.1 10.9-12.1 2.1 0 4 .5 5.6 1.5s2.5 2.2 2.8 3.5c.1.7.1 1.2-.2 1.5-.2.3-.7.6-1.4.7h-.2c-1.2 0-2-.5-2.3-1.4-.7-1.7-2.1-2.5-4.3-2.5q-6.3 0-6.3 8.7t6.3 8.7c1.9 0 3.3-.7 4.1-2.2.6-1 1.4-1.5 2.4-1.3.7.1 1.1.3 1.4.6M733.938 118.517c1.5-.2 2.7-.6 3.5-1.2s1.7-1.5 2.4-2.6l1.1-1.9c.7-1.2 1.3-2.2 1.8-2.8.7-.7 1.5-1 2.5-.9 1.7.1 2.1.9 1.3 2.2-.6 1-1.1 1.7-1.4 2.2-.1.2-.3.4-.5.8-.2.3-.4.7-.6.9-.2.3-.3.5-.5.8-1.1 1.5-2.3 2.7-3.8 3.6 2.3.6 4 2.6 5.3 5.9.6 1.5 1.1 2.9 1.8 4.2l.7 1.5c.5 1 .1 1.6-1.2 1.9q-1.8.3-2.4-.6c-.6-.7-1.4-2-2.2-4l-.5-1.3c-.8-2-1.7-3.5-2.6-4.3s-2.6-1.3-4.8-1.2v9.6c0 1.2-.7 1.8-2.2 1.8-1.4 0-2.2-.6-2.2-1.8v-20.4c0-1.2.7-1.8 2.2-1.8s2.2.6 2.2 1.8v7.6zM771.238 120.717c-.6.6-1.7.9-3.4.9h-12.4c0 .9.1 1.8.3 2.6s.5 1.7 1 2.6 1.1 1.6 2.1 2.1c.9.5 2.1.8 3.4.8.8 0 1.7-.2 2.7-.5.9-.3 1.7-.9 2.2-1.6.6-.9 1.4-1.3 2.5-1.2.8.1 1.3.4 1.5.8s.3.8.1 1.3c-.5 1.5-1.7 2.7-3.4 3.5q-2.7 1.2-5.7 1.2c-2 0-3.8-.4-5.3-1.1s-2.7-1.7-3.5-2.9c-.9-1.2-1.5-2.5-1.9-3.9s-.6-2.8-.6-4.3q0-2.4.6-4.5c.4-1.4 1-2.7 1.9-3.9s2-2.2 3.5-2.9 3.2-1.1 5.2-1.1c3.2 0 5.8 1 7.7 2.9 1.7 1.7 2.5 3.9 2.5 6.7-.1 1.1-.4 2-1 2.5m-4.1-2.3c.5 0 .7-.3.7-.7-.1-1.8-.6-3.1-1.6-4.1q-1.5-1.5-4.2-1.5c-1.8 0-3.3.6-4.5 1.9s-1.9 2.8-2 4.4zM782.539 127.917c.4.5.7 1.2.7 2.2s-.2 1.7-.7 2.2c-.4.5-1.2.8-2.4.8s-2-.3-2.4-.8-.6-1.3-.6-2.2c0-1 .2-1.7.7-2.2s1.2-.7 2.4-.7c1 0 1.8.3 2.3.7M794.838 127.917c.4.5.7 1.2.7 2.2s-.2 1.7-.7 2.2c-.4.5-1.2.8-2.4.8s-2-.3-2.4-.8-.6-1.3-.6-2.2c0-1 .2-1.7.7-2.2.4-.5 1.2-.7 2.4-.7 1 0 1.8.3 2.3.7M807.138 127.917c.4.5.7 1.2.7 2.2s-.2 1.7-.7 2.2c-.4.5-1.2.8-2.4.8s-2-.3-2.4-.8-.6-1.3-.6-2.2c0-1 .2-1.7.7-2.2s1.2-.7 2.4-.7c1 0 1.8.3 2.3.7"></path></g><defs><clipPath id="740be79d-9bd2-4c49-adac-68f62783edcea"><path fill="#fff" d="M.238.617h1000v871.2H.238z"></path></clipPath></defs></svg>