<svg xmlns="http://www.w3.org/2000/svg" width="1001" height="872" fill="none" viewBox="0 0 1001 872"><path fill="#FDF2E8" d="M801.438 296.511v-46.4s0-56.9-56.9-56.9h-365.5s-56.9 0-56.9 56.9v46.4s0 1.4.2 3.7v9.8c.7 19.2-18.7 38.8-37.3 40.5 5.1 1.8 10.5 2.9 16.2 2.9 13.9 0 27.4-6 37.2-15.5 8.4 8.8 21.1 15.5 40.6 15.5h365.5s56.9 0 56.9-56.9"></path><path fill="#FF6900" d="M390.638 246.111c0 5.1-1.2 9.1-3.7 11.9s-5.9 4.2-10.4 4.2-7.9-1.4-10.4-4.2-3.7-6.8-3.7-11.8c0-4.9 1.1-8.8 3.4-11.6 2.4-3 6-4.5 10.7-4.5s8.3 1.5 10.7 4.5c2.3 2.7 3.4 6.6 3.4 11.5m-7.1-8.9c-1.5-1.9-3.8-2.9-6.9-2.9s-5.4 1-6.9 2.9-2.2 4.9-2.2 8.9.7 6.9 2.2 8.8 3.8 2.9 6.9 2.9 5.4-1 6.9-2.9 2.2-4.9 2.2-8.8c0-4-.7-7-2.2-8.9M412.738 238.111c1.4 0 2.2.6 2.2 1.8v20.4c0 1.2-.7 1.8-2.2 1.8s-2.2-.6-2.2-1.8v-15.1c-.5.9-1 1.6-1.4 2.2l-9.6 13.9c-.4.6-1.1.8-2 .8-1.5 0-2.2-.6-2.2-1.8v-20.4c0-1.2.7-1.8 2.2-1.8 1.4 0 2.2.6 2.2 1.8v15.3c.6-1 4.3-6.5 11-16.3.4-.6 1-.8 2-.8m-1.7-7.6c.8.4 1 1 .6 1.9-.5 1-1.4 1.8-2.6 2.4s-2.5.8-3.8.8c-1.6 0-2.9-.3-4-1s-1.9-1.4-2.3-2.2q-.45-1.35.9-2.1c.7-.2 1.3 0 1.8.7 1 1 2.3 1.6 3.7 1.6 1.5 0 2.7-.5 3.6-1.6.5-.7 1.2-.8 2.1-.5M420.439 266.911c-.3-.3-.4-.7-.3-1.1l1.3-7.7q.45-1.95 3-1.8c.9.1 1.5.4 1.9.9s.4 1.2.1 2l-3 7c-.2.5-.4.8-.7 1s-.7.2-1.3.2c-.3 0-.7-.2-1-.5M462.839 255.811c.3.3.3.8.3 1.6-.3 1.1-1.1 2.2-2.6 3.2s-3.4 1.5-5.6 1.5c-7.3 0-10.9-4-10.9-12 0-8.1 3.6-12.1 10.9-12.1 2.1 0 4 .5 5.6 1.5s2.5 2.2 2.8 3.5c.1.7.1 1.2-.2 1.5-.2.3-.7.6-1.4.7h-.2c-1.2 0-2-.5-2.3-1.4-.7-1.7-2.1-2.5-4.3-2.5q-6.3 0-6.3 8.7t6.3 8.7c1.9 0 3.3-.7 4.1-2.2.6-1 1.4-1.5 2.4-1.3.6.1 1.1.2 1.4.6M477.738 254.111l-2.2-3.7-2.2-3.7-.6-1.2v14.7c0 1.2-.7 1.8-2 1.8s-2-.6-2-1.8v-20.4q0-1.8 2.4-1.8c1 0 1.9.5 2.6 1.6l6.4 10.8 6.4-10.8c.7-1.1 1.6-1.6 2.7-1.6 1.5 0 2.3.6 2.3 1.8v20.4c0 1.2-.7 1.8-2 1.8s-2-.6-2-1.8v-14.7l-.7 1.3-4.4 7.3c-.7 1.1-1.4 1.6-2.3 1.6s-1.7-.6-2.4-1.6M518.038 250.011c0 8-3.6 12-10.9 12s-10.9-4-10.9-12c0-8.1 3.6-12.1 10.9-12.1s10.9 4.1 10.9 12.1m-6-6.1c-1-1.3-2.7-2-4.8-2-2.2 0-3.8.7-4.8 2s-1.5 3.4-1.5 6.2.5 4.8 1.5 6.2 2.6 2 4.8 2 3.8-.7 4.8-2 1.6-3.4 1.6-6.2-.6-4.9-1.6-6.2M535.839 238.511c1.1 0 1.6.6 1.6 1.7s-.5 1.7-1.6 1.7h-5.2v18.4q0 1.8-2.1 1.8c-1.4 0-2.2-.6-2.2-1.8v-18.4h-5.1c-1.1 0-1.7-.6-1.7-1.7s.6-1.7 1.7-1.7zM545.438 241.411c1.9-2.3 4.3-3.4 7.3-3.4 6.4 0 9.6 4 9.6 12.1 0 1.7-.2 3.3-.5 4.7-.4 1.4-.9 2.7-1.7 3.8s-1.8 2-3.2 2.7c-1.3.6-2.9 1-4.7 1q-3.9 0-6.6-3v8.7c0 1.2-.7 1.8-2.2 1.8-1.4 0-2.2-.6-2.2-1.8v-28.1q0-1.8 2.1-1.8c1.4 0 2 .6 2 1.8v1.5zm1.8 14.8c1.1 1.6 2.7 2.4 4.7 2.4 3.7 0 5.6-2.8 5.6-8.5s-1.9-8.5-5.6-8.5c-2 0-3.6.7-4.7 2.2-1.1 1.4-1.7 3.1-1.7 5v2.1c.1 1.9.6 3.7 1.7 5.3M586.538 260.211c0 1.2-.7 1.8-2.2 1.8s-2.2-.6-2.2-1.8v-15c-.3.4-.6.9-1 1.5l-.5.8-9.5 13.7c-.4.6-1.1.8-2 .8-1.5 0-2.2-.6-2.2-1.8v-20.4c0-1.2.7-1.8 2.2-1.8s2.2.6 2.2 1.8v15.2c.1-.1.6-1 1.7-2.7l9.4-13.6c.3-.5 1-.7 1.9-.7 1.4 0 2.2.6 2.2 1.8zM592.138 266.911c-.3-.3-.4-.7-.3-1.1l1.3-7.7q.45-1.95 3-1.8c.9.1 1.5.4 1.9.9s.4 1.2.1 2l-3 7c-.2.5-.4.8-.7 1s-.7.2-1.3.2c-.4 0-.7-.2-1-.5M380.938 292.411c.6.2 1 .6 1.2 1.1s.4.9.4 1.3.1.9.1 1.6v17.4q0 1.8-2.1 1.8c-1.5 0-2.2-.6-2.2-1.8v-17.6c0-.5-.3-.8-1-.8h-8.1c-.4 0-.6.1-.8.2-.1.1-.2.3-.2.6v17.6q0 1.8-2.1 1.8c-1.5 0-2.2-.6-2.2-1.8v-17.4c0-.7 0-1.2.1-1.6 0-.4.2-.8.4-1.3s.6-.9 1.2-1.1 1.3-.3 2.2-.3h10.8c1-.1 1.7 0 2.3.3M393.038 294.911c1.9-2.3 4.3-3.4 7.3-3.4 6.4 0 9.6 4 9.6 12.1 0 1.7-.2 3.3-.5 4.7-.4 1.4-.9 2.7-1.7 3.8s-1.8 2-3.2 2.7c-1.3.6-2.9 1-4.7 1q-3.9 0-6.6-3v8.7c0 1.2-.7 1.8-2.2 1.8s-2.2-.6-2.2-1.8v-28.1q0-1.8 2.1-1.8c1.4 0 2 .6 2 1.8v1.5zm1.9 14.8c1.1 1.6 2.7 2.4 4.7 2.4 3.7 0 5.6-2.8 5.6-8.5s-1.9-8.5-5.6-8.5c-2 0-3.6.7-4.7 2.2-1.1 1.4-1.7 3.1-1.7 5v2.1c0 1.9.6 3.7 1.7 5.3M435.138 303.611c0 8-3.6 12-10.9 12s-10.9-4-10.9-12c0-8.1 3.6-12.1 10.9-12.1s10.9 4 10.9 12.1m-6.1-6.2c-1-1.3-2.7-2-4.8-2-2.2 0-3.8.7-4.8 2s-1.5 3.4-1.5 6.2.5 4.8 1.5 6.2c1 1.3 2.6 2 4.8 2s3.8-.7 4.8-2 1.6-3.4 1.6-6.2-.5-4.9-1.6-6.2M452.038 292.012c.8 0 1.4.1 2 .3q.75.3 1.2.6c.3.2.5.6.6 1 .1.5.2.8.2 1.1v16.8c.8.1 1.5.4 2 .8s.7 1.1.7 1.8v4c0 1.2-.7 1.8-2 1.8s-2-.6-2-1.8v-3c0-.2-.1-.3-.4-.3h-14.5c-.3 0-.4.1-.4.3v3c0 1.2-.7 1.8-2 1.8s-2-.6-2-1.8v-4c0-.9.2-1.6.5-2s.9-.8 1.7-1.3c.7-.4 1.3-1.6 1.7-3.8.2-1.6.4-4.4.7-8.3 0-.8.1-1.8.2-2.9.2-2.9 1.5-4.3 4-4.3h7.8zm-.3 19.9v-15.7c0-.3-.1-.5-.2-.6s-.4-.2-.8-.2h-5.4c-.6 0-.9.3-1 1l-.1 2.4c-.2 4.2-.5 7.2-.8 9-.2 1.7-.7 3.1-1.3 4.1zM482.738 303.611c0 8-3.6 12-10.9 12s-10.9-4-10.9-12c0-8.1 3.6-12.1 10.9-12.1s10.9 4 10.9 12.1m-6.1-6.2c-1-1.3-2.7-2-4.8-2s-3.8.7-4.8 2-1.5 3.4-1.5 6.2.5 4.8 1.5 6.2c1 1.3 2.6 2 4.8 2s3.8-.7 4.8-2 1.6-3.4 1.6-6.2-.5-4.9-1.6-6.2M499.939 292.011c.8 0 1.4.1 1.9.3q.75.3 1.2.6c.3.2.5.6.6 1 .1.5.2.8.2 1.1v18.7c0 1.2-.7 1.8-2.2 1.8q-2.1 0-2.1-1.8v-17.6c0-.5-.3-.8-1-.8h-4.6c-.8 0-1.2.3-1.2 1l-.2 2.3c-.4 5.2-.7 8.6-.9 10.4-.3 2.2-.9 3.9-1.8 5s-2.4 1.6-4.2 1.5c-.7 0-1.3-.2-1.6-.5s-.5-.7-.5-1.2c.1-1.2.6-1.8 1.6-1.8.9 0 1.5-.3 1.7-.7.3-.5.5-1.2.6-2.3v-.4c.2-1.2.5-3.9.8-8.3.1-1.7.2-2.9.3-3.3 0-.6.1-1 .1-1.4 0-.3.2-.8.3-1.3.2-.5.4-.9.7-1.2s.7-.5 1.2-.8 1.2-.3 1.9-.3zM525.238 300.911c2.1-.4 3.9-1.9 5.3-4.3l.2-.4c.1-.2.2-.4.2-.5.7-1.5 1.4-2.6 1.9-3.3.6-.7 1.4-1 2.5-.9.8.1 1.3.3 1.6.7s.2.9-.2 1.7c-.5.8-1 1.5-1.3 2.3l-.9 1.8c-1.1 2-2.4 3.4-4 4.2 2.4.8 4.1 2.7 5.2 5.9.7 2.3 1.3 4.2 2 5.7.5 1 .1 1.6-1.1 1.9-1.2.1-2 0-2.5-.5-.7-.8-1.3-2.3-1.9-4.4l-.3-1.1c-.6-1.9-1.4-3.4-2.3-4.3s-2.4-1.3-4.4-1.3v9.7q0 1.8-2.1 1.8t-2.1-1.8v-9.7c-1.9 0-3.4.4-4.4 1.4s-1.8 2.3-2.3 4.1l-.2.9c-.6 2.2-1.3 3.7-2 4.5-.4.6-1.2.7-2.4.6-1.3-.2-1.7-.9-1.2-1.9q.9-1.95 2.1-5.7c1-3.2 2.8-5.2 5.2-5.9-1.6-.8-2.9-2.2-4-4.2l-.7-1.4q-1.5-2.55-1.5-2.7c-.4-.7-.5-1.3-.3-1.6.3-.4.8-.6 1.6-.7 1.2-.1 2.1.2 2.6.9.6.8 1.1 1.8 1.7 3l.6 1.2c1.3 2.4 3 3.9 5.2 4.3v-7.5q0-1.8 2.1-1.8t2.1 1.8zM556.638 311.912q-2.7 3.9-8.1 3.9c-2.3 0-4.3-.6-5.8-1.9-1.5-1.2-2.3-3-2.3-5.3 0-5.4 4.5-8.1 13.4-8.1h2.9c0-1.4-.1-2.6-.4-3.5q-.9-2.4-5.4-2.4c-2 0-3.7.5-5.1 1.6-.4.3-.9.5-1.3.5-.5 0-1-.2-1.5-.5s-.7-.7-.7-1.2.3-1 1-1.5c1.9-1.4 4.6-2.1 8.3-2.1 3.4 0 5.8.8 7.2 2.3 1.5 1.6 2.2 3.9 2.2 7.2v9.6c0 1.1.1 2.1.2 2.8.1 1.2-.4 1.9-1.6 2-1.5.1-2.3-.4-2.6-1.5s-.4-1.7-.4-1.9m0-8.1c-1.3-.1-2.4-.1-3.1-.1-1 0-2 .1-2.9.2s-1.8.4-2.7.7-1.6.9-2.1 1.6-.8 1.6-.8 2.5q0 1.8 1.2 2.7c.8.6 1.8 1 3 1 2.2 0 4-.7 5.4-2.2 1.5-1.5 2.2-3.7 2-6.4M585.939 303.311c-.6.6-1.7.9-3.4.9h-12.4c0 .9.1 1.8.3 2.6s.5 1.7 1 2.6 1.1 1.6 2.1 2.1 2.1.8 3.4.8c.8 0 1.7-.2 2.7-.5.9-.3 1.7-.9 2.2-1.6.6-.9 1.4-1.3 2.5-1.2.8.1 1.3.4 1.5.8s.3.8.1 1.3c-.5 1.5-1.7 2.7-3.4 3.5q-2.7 1.2-5.7 1.2c-2 0-3.8-.4-5.3-1.1s-2.7-1.7-3.5-2.9-1.5-2.5-1.9-3.9-.6-2.8-.6-4.3q0-2.4.6-4.5c.4-1.4 1-2.7 1.9-3.9s2-2.2 3.5-2.9 3.2-1.1 5.2-1.1c3.2 0 5.8 1 7.7 2.9 1.7 1.7 2.5 3.9 2.5 6.7-.1 1.1-.4 1.9-1 2.5m-4-2.4c.5 0 .7-.3.7-.7-.1-1.8-.6-3.1-1.6-4.1q-1.5-1.5-4.2-1.5c-1.8 0-3.3.6-4.5 1.9s-1.9 2.8-2 4.4zM605.638 292.011c1.1 0 1.6.6 1.6 1.7s-.5 1.7-1.6 1.7h-5.2v18.4q0 1.8-2.1 1.8c-1.5 0-2.2-.6-2.2-1.8v-18.4h-5.1c-1.1 0-1.7-.6-1.7-1.7s.6-1.7 1.7-1.7zM628.038 294.911c1.9-2.3 4.3-3.4 7.3-3.4 6.4 0 9.6 4 9.6 12.1 0 1.7-.2 3.3-.5 4.7-.4 1.4-.9 2.7-1.7 3.8s-1.8 2-3.2 2.7c-1.3.6-2.9 1-4.7 1q-3.9 0-6.6-3v8.7c0 1.2-.7 1.8-2.2 1.8-1.4 0-2.2-.6-2.2-1.8v-28.1q0-1.8 2.1-1.8c1.4 0 2 .6 2 1.8v1.5zm1.9 14.8c1.1 1.6 2.7 2.4 4.7 2.4 3.7 0 5.6-2.8 5.6-8.5s-1.9-8.5-5.6-8.5c-2 0-3.6.7-4.7 2.2-1.1 1.4-1.7 3.1-1.7 5v2.1c.1 1.9.6 3.7 1.7 5.3M664.138 311.912q-2.7 3.9-8.1 3.9c-2.3 0-4.3-.6-5.8-1.9s-2.3-3-2.3-5.3c0-5.4 4.5-8.1 13.4-8.1h2.9c0-1.4-.1-2.6-.4-3.5q-.9-2.4-5.4-2.4c-2 0-3.7.5-5.1 1.6-.4.3-.9.5-1.3.5s-1-.2-1.5-.5-.7-.7-.7-1.2.3-1 1-1.5c1.9-1.4 4.6-2.1 8.3-2.1 3.4 0 5.8.8 7.2 2.3 1.5 1.6 2.2 3.9 2.2 7.2v9.6c0 1.1.1 2.1.2 2.8.1 1.2-.4 1.9-1.6 2-1.5.1-2.3-.4-2.6-1.5s-.4-1.7-.4-1.9m0-8.1c-1.3-.1-2.4-.1-3.1-.1-1 0-2 .1-2.9.2s-1.8.4-2.7.7-1.6.9-2.1 1.6-.8 1.6-.8 2.5q0 1.8 1.2 2.7c.8.6 1.8 1 3 1 2.2 0 4-.7 5.4-2.2 1.5-1.5 2.2-3.7 2-6.4M691.738 309.311c.3.3.3.8.3 1.6-.3 1.1-1.1 2.2-2.6 3.2s-3.4 1.5-5.6 1.5c-7.2 0-10.9-4-10.9-12 0-8.1 3.6-12.1 10.9-12.1 2.1 0 4 .5 5.6 1.5s2.5 2.2 2.8 3.5c.1.7.1 1.2-.2 1.5-.2.3-.7.6-1.4.7h-.4c-1.2 0-2-.5-2.3-1.4-.7-1.7-2.1-2.5-4.3-2.5q-6.3 0-6.3 8.7t6.3 8.7c1.9 0 3.3-.7 4.1-2.2.6-1 1.4-1.5 2.4-1.3.9.1 1.3.3 1.6.6M711.439 292.011c1.1 0 1.6.6 1.6 1.7s-.5 1.7-1.6 1.7h-5.2v18.4q0 1.8-2.1 1.8c-1.5 0-2.2-.6-2.2-1.8v-18.4h-5.1c-1.1 0-1.7-.6-1.7-1.7s.6-1.7 1.7-1.7zM736.338 313.812c0 1.2-.7 1.8-2.2 1.8s-2.2-.6-2.2-1.8v-15c-.3.4-.6.9-1 1.5l-.5.8-9.5 13.7c-.4.6-1.1.8-2 .8-1.5 0-2.2-.6-2.2-1.8v-20.4c0-1.2.7-1.8 2.2-1.8s2.2.6 2.2 1.8v15.2c.1-.1.6-1 1.7-2.7l9.4-13.6c.3-.5 1-.7 1.9-.7 1.5 0 2.2.6 2.2 1.8zM742.838 284.811c.6-.5 1.3-.8 2.2-.8 1 0 1.8.2 2.3.7s.8 1.1.7 2l-1.5 20q-.15 1.2-1.5 1.2c-.9 0-1.3-.4-1.4-1.2-.1-1.4-.3-3.5-.5-6.2s-.4-5.3-.6-7.5c-.2-2.3-.3-4.4-.4-6.2-.1-.8.1-1.5.7-2m2.2 25.2c1.1 0 1.9.2 2.3.7q.6.6.6 2.1c0 1-.2 1.7-.6 2.2s-1.2.7-2.3.7c-1.9 0-2.9-1-2.9-2.9s1-2.8 2.9-2.8"></path></svg>