<svg xmlns="http://www.w3.org/2000/svg" width="1001" height="772" fill="none" viewBox="0 0 1001 772"><path fill="#FDF2E8" d="M961.338 350.217c0-.3 1.2-59.9 1.2-59.9s0-56.8-56.8-56.8h-253.9s-56.8 0-56.8 56.8v46.4s0 56.8 56.8 56.8h253.8s23.3-.1 40.1-15.1c9.7 9.3 23 15.1 36.7 15.1 5.7 0 11.1-1 16.1-2.9-18.6-1.7-37.9-21.3-37.2-40.4"></path><path fill="#FF6900" d="M657.538 291.017q.45.45.3 1.2c-.3 2.5-1.6 4.6-3.8 6.3s-4.8 2.5-7.8 2.5c-4.6 0-8.1-1.4-10.5-4.1s-3.6-6.7-3.6-11.9q0-7.95 3.6-12c2.4-2.7 5.9-4.1 10.5-4.1 2.8 0 5.4.8 7.7 2.3s3.7 3.7 4 6.5q.15.75-.3 1.2c-.3.4-.9.7-1.8.7-1.4 0-2.2-.5-2.3-1.6-.2-1.1-.8-2.1-1.6-2.8-.8-.8-1.7-1.3-2.7-1.6s-2-.4-3-.4c-1.6 0-2.9.2-4.1.7q-1.65.75-2.7 1.8c-.6.7-1.1 1.7-1.5 2.8s-.6 2.1-.7 3.1-.2 2.1-.2 3.3c0 1.3.1 2.5.2 3.5s.4 2 .7 3.1q.6 1.65 1.5 2.7c.6.7 1.5 1.3 2.7 1.7s2.5.7 4.1.7c4.1 0 6.5-1.6 7.3-4.8.1-.5.3-.9.7-1.2s1-.4 1.6-.4c.7.1 1.3.3 1.7.8M676.338 277.417c1.1 0 1.6.6 1.6 1.7s-.5 1.7-1.6 1.7h-5.2v18.4q0 1.8-2.1 1.8c-1.4 0-2.2-.6-2.2-1.8v-18.4h-5.1c-1.1 0-1.7-.6-1.7-1.7s.6-1.7 1.7-1.7zM701.238 288.917c0 8-3.6 12-10.9 12s-10.9-4-10.9-12 3.6-12.1 10.9-12.1 10.9 4 10.9 12.1m-6.1-6.2c-1-1.3-2.6-2-4.8-2s-3.8.7-4.8 2-1.5 3.4-1.5 6.1.5 4.8 1.5 6.1 2.6 2 4.8 2 3.8-.7 4.8-2 1.6-3.4 1.6-6.1-.5-4.7-1.6-6.1M723.138 276.917c1.4 0 2.2.6 2.2 1.8v20.4c0 1.2-.7 1.8-2.2 1.8s-2.2-.6-2.2-1.8v-15.1c-.5.9-1 1.6-1.4 2.2l-9.6 13.9c-.4.6-1.1.8-2 .8-1.4 0-2.2-.6-2.2-1.8v-20.4c0-1.2.7-1.8 2.2-1.8 1.4 0 2.2.6 2.2 1.8v15.2c.6-1 4.3-6.4 11-16.3.5-.4 1.1-.7 2-.7m-1.6-7.5c.8.4 1 1 .6 1.9-.5 1-1.4 1.8-2.6 2.4s-2.5.8-3.8.8c-1.6 0-2.9-.3-4-1s-1.9-1.4-2.3-2.2q-.45-1.35.9-2.1c.7-.2 1.3 0 1.8.7 1 1 2.3 1.6 3.6 1.6 1.5 0 2.7-.5 3.6-1.6.6-.7 1.3-.8 2.2-.5M730.938 305.817c-.3-.3-.4-.7-.3-1.1l1.3-7.6q.45-1.95 3-1.8c.9.1 1.5.4 1.9.9s.4 1.2.1 2l-3 7c-.2.5-.4.8-.7 1s-.7.2-1.3.2c-.4-.2-.7-.3-1-.6M759.738 279.717c1.9-1.9 4.1-2.8 6.6-2.8 3.8 0 6.5 1 8.1 3.1s2.4 5 2.4 8.9c0 8-3.6 12-10.9 12-2 0-3.8-.3-5.2-1-1.5-.7-2.6-1.7-3.4-2.9s-1.4-2.5-1.7-3.9q-.6-2.1-.6-4.5c-.1-2 0-3.8.3-5.5.2-1.7.7-3.5 1.4-5.3s1.8-3.5 3.2-4.9 3.3-2.6 5.5-3.5c.6-.3 1.3-.5 2.1-.8 2.2-.7 3.7-1.4 4.4-2 .4-.3.8-.4 1.2-.4q1.05 0 1.8 1.2c.6 1.2.2 2.1-1.1 2.9-.7.4-2.5 1.1-5.5 2l-1.3.4c-3.7 1.3-6.2 3.7-7.3 7m12.2 6.2c-.2-.9-.5-1.9-.9-2.8s-1.1-1.6-2-2.1-1.9-.8-3.2-.8q-6.3 0-6.3 8.7t6.3 8.7c1.2 0 2.3-.3 3.2-.8s1.5-1.2 2-2.1c.4-.9.7-1.8.9-2.8q.3-1.35.3-3c0-1.1-.1-2-.3-3M800.138 288.617c-.6.6-1.7.9-3.4.9h-12.4c0 .9.1 1.8.3 2.6s.5 1.7 1 2.6q.6 1.35 2.1 2.1c.9.5 2.1.8 3.4.8.8 0 1.7-.2 2.7-.5s1.7-.9 2.1-1.6c.6-.9 1.4-1.3 2.5-1.2.8.1 1.3.4 1.5.8s.3.8.1 1.3c-.5 1.5-1.7 2.7-3.4 3.5-1.8.8-3.6 1.2-5.6 1.2s-3.7-.4-5.3-1.1c-1.5-.7-2.7-1.7-3.5-2.9-.9-1.2-1.5-2.5-1.9-3.9s-.6-2.8-.6-4.3c0-1.6.2-3 .6-4.5s1-2.7 1.9-3.9 2-2.2 3.5-2.9 3.2-1.1 5.2-1.1c3.2 0 5.8 1 7.6 2.9 1.7 1.7 2.5 3.9 2.5 6.6-.1 1.2-.4 2-.9 2.6m-4.1-2.4c.5 0 .7-.3.7-.7-.1-1.8-.6-3.1-1.6-4.1s-2.4-1.5-4.1-1.5c-1.8 0-3.3.6-4.5 1.9s-1.9 2.8-2 4.4zM822.838 293.717c0 2.2-.8 4-2.5 5.3s-3.9 2-6.7 2a16 16 0 0 1-3.9-.5c-1.2-.3-2.4-1-3.5-1.9s-1.7-2.1-2-3.5c-.1-.6.1-1 .3-1.3.3-.4.9-.7 1.8-.7 1.3 0 2 .5 2.1 1.6.1.6.3 1.1.7 1.5s.9.8 1.4 1 1.1.4 1.5.5c.5.1.9.1 1.3.1 1.5 0 2.7-.4 3.6-1.1.9-.8 1.3-1.8 1.3-3.1 0-1-.4-1.8-1.1-2.4s-1.4-1-2.1-1.1-1.4-.2-2.2-.2h-.6c-1.1 0-1.7-.6-1.7-1.7s.7-1.6 2-1.6c3.5 0 5.3-1.2 5.3-3.5 0-1-.4-1.8-1.1-2.4q-1.2-.9-3-.9c-3.1 0-4.7.9-5 2.8-.1.8-.7 1.3-1.8 1.3-.9 0-1.5-.2-1.9-.7-.2-.3-.3-.6-.3-1 .2-1.9 1.2-3.3 3-4.3 1.8-.9 3.7-1.4 6-1.4 1.4 0 2.8.2 4 .6s2.3 1.1 3.2 2.1 1.4 2.2 1.4 3.7c0 2.3-1.3 4-3.9 5.2 2.8 1 4.4 2.9 4.4 5.6M844.838 286.717h9.9v-7.9c0-1.2.7-1.8 2.2-1.8s2.2.6 2.2 1.8v20.4c0 1.2-.7 1.8-2.2 1.8s-2.2-.6-2.2-1.8v-9.1h-9.9v9.1c0 1.2-.7 1.8-2.2 1.8s-2.2-.6-2.2-1.8v-20.4c0-1.2.7-1.8 2.2-1.8s2.2.6 2.2 1.8zM879.538 297.217q-2.7 3.9-8.1 3.9c-2.3 0-4.3-.6-5.8-1.9-1.5-1.2-2.3-3-2.3-5.3 0-5.4 4.4-8.1 13.3-8.1h2.9c0-1.4-.1-2.6-.4-3.5-.6-1.6-2.4-2.4-5.3-2.4-2 0-3.7.5-5.1 1.6-.4.3-.9.5-1.3.5s-1-.2-1.5-.5-.7-.7-.7-1.2.3-1 1-1.5c1.9-1.4 4.6-2.1 8.3-2.1 3.4 0 5.8.8 7.2 2.3s2.2 3.9 2.2 7.1v9.6c0 1.1.1 2.1.2 2.8.1 1.2-.4 1.9-1.6 2-1.5.1-2.3-.4-2.6-1.5-.3-1-.4-1.6-.4-1.8m0-8.1c-1.3-.1-2.4-.1-3.1-.1-1 0-2 .1-2.9.2s-1.8.4-2.7.7-1.6.9-2.1 1.6-.8 1.6-.8 2.5q0 1.8 1.2 2.7c.8.6 1.8 1 3 1 2.2 0 4-.7 5.3-2.2 1.7-1.5 2.3-3.7 2.1-6.4M907.138 294.617c.3.3.3.8.3 1.6-.3 1.1-1.1 2.1-2.6 3.1s-3.4 1.5-5.6 1.5c-7.2 0-10.9-4-10.9-12s3.6-12.1 10.9-12.1c2.1 0 4 .5 5.6 1.5s2.5 2.2 2.8 3.5c.1.7.1 1.2-.2 1.5-.2.3-.7.6-1.4.7h-.2c-1.2 0-2-.5-2.3-1.4-.7-1.7-2.1-2.5-4.3-2.5q-6.3 0-6.3 8.7t6.3 8.7c1.9 0 3.3-.7 4.1-2.2.6-1 1.4-1.5 2.4-1.3.7.2 1.2.4 1.4.7M637.838 340.117h9.9v-7.9c0-1.2.7-1.8 2.2-1.8s2.2.6 2.2 1.8v20.4c0 1.2-.7 1.8-2.2 1.8s-2.2-.6-2.2-1.8v-9.1h-9.9v9.1c0 1.2-.7 1.8-2.2 1.8s-2.2-.6-2.2-1.8v-20.4c0-1.2.7-1.8 2.2-1.8s2.2.6 2.2 1.8zM677.439 342.017c-.6.6-1.7.9-3.4.9h-12.4c0 .9.1 1.8.3 2.6s.5 1.7 1 2.6q.6 1.35 2.1 2.1c.9.5 2.1.8 3.4.8.8 0 1.7-.2 2.7-.5s1.7-.9 2.1-1.6c.6-.9 1.4-1.3 2.5-1.2.8.1 1.3.4 1.5.8s.3.8.1 1.3c-.5 1.5-1.7 2.7-3.4 3.5-1.8.8-3.6 1.2-5.6 1.2s-3.7-.4-5.3-1.1c-1.5-.7-2.7-1.7-3.5-2.9-.9-1.2-1.5-2.5-1.9-3.9s-.6-2.8-.6-4.3c0-1.6.2-3 .6-4.5s1-2.7 1.9-3.9 2-2.2 3.5-2.9 3.2-1.1 5.2-1.1c3.2 0 5.8 1 7.6 2.9 1.7 1.7 2.5 3.9 2.5 6.6 0 1.2-.3 2.1-.9 2.6m-4.1-2.3c.5 0 .7-.3.7-.7-.1-1.8-.6-3.1-1.6-4.1s-2.4-1.5-4.1-1.5c-1.8 0-3.3.6-4.5 1.9s-1.9 2.8-2 4.4zM713.439 348.117c.3.3.3.8.3 1.6-.3 1.1-1.1 2.1-2.6 3.1s-3.4 1.5-5.6 1.5c-7.2 0-10.9-4-10.9-12s3.6-12.1 10.9-12.1c2.1 0 4 .5 5.6 1.5s2.5 2.2 2.8 3.5c.1.7.1 1.2-.2 1.5-.2.3-.7.6-1.4.7h-.2c-1.2 0-2-.5-2.3-1.4-.7-1.7-2.1-2.5-4.3-2.5q-6.3 0-6.3 8.7t6.3 8.7c1.9 0 3.3-.7 4.1-2.2.6-1 1.4-1.5 2.4-1.3.7.2 1.2.3 1.4.7M728.438 346.417l-2.2-3.6-2.2-3.6-.6-1.2v14.7c0 1.2-.7 1.8-2 1.8s-2-.6-2-1.8v-20.3q0-1.8 2.4-1.8c1 0 1.9.5 2.6 1.6l6.4 10.8 6.4-10.8c.7-1.1 1.5-1.6 2.6-1.6 1.5 0 2.3.6 2.3 1.8v20.3c0 1.2-.7 1.8-2 1.8s-2-.6-2-1.8v-14.7l-.7 1.3-4.4 7.3c-.7 1.1-1.4 1.6-2.3 1.6-.9-.2-1.7-.8-2.3-1.8M768.638 342.317c0 8-3.6 12-10.9 12s-10.9-4-10.9-12 3.6-12.1 10.9-12.1c7.3.1 10.9 4.1 10.9 12.1m-6-6.1c-1-1.3-2.6-2-4.8-2s-3.8.7-4.8 2-1.5 3.4-1.5 6.1.5 4.8 1.5 6.1 2.6 2 4.8 2 3.8-.7 4.8-2 1.6-3.4 1.6-6.1-.6-4.8-1.6-6.1M786.439 330.817c1.1 0 1.6.6 1.6 1.7s-.5 1.7-1.6 1.7h-5.2v18.4q0 1.8-2.1 1.8c-1.4 0-2.2-.6-2.2-1.8v-18.4h-5.1c-1.1 0-1.7-.6-1.7-1.7s.6-1.7 1.7-1.7zM795.938 333.717c1.9-2.3 4.3-3.4 7.3-3.4 6.4 0 9.6 4 9.6 12.1 0 1.7-.2 3.3-.5 4.7-.4 1.4-.9 2.7-1.7 3.8s-1.8 2-3.2 2.7c-1.3.6-2.9 1-4.7 1q-3.9 0-6.6-3v8.7c0 1.2-.7 1.8-2.2 1.8-1.4 0-2.2-.6-2.2-1.8v-28.1q0-1.8 2.1-1.8c1.4 0 2 .6 2 1.8v1.5zm1.9 14.8c1.1 1.6 2.7 2.4 4.7 2.4 3.7 0 5.6-2.8 5.6-8.5s-1.9-8.5-5.6-8.5c-2 0-3.6.7-4.7 2.1s-1.7 3.1-1.7 5v2.1c0 2 .6 3.8 1.7 5.4M837.038 352.517c0 1.2-.7 1.8-2.2 1.8s-2.2-.6-2.2-1.8v-15c-.3.4-.6.9-1 1.5l-.5.8-9.5 13.7c-.4.6-1.1.8-2 .8-1.4 0-2.2-.6-2.2-1.8v-20.4c0-1.2.7-1.8 2.2-1.8s2.2.6 2.2 1.8v15.2c.1-.1.6-1 1.7-2.6l9.3-13.5c.3-.5 1-.7 1.9-.7 1.4 0 2.2.6 2.2 1.8v20.2zM843.539 323.617c.6-.5 1.3-.8 2.2-.8 1 0 1.8.2 2.3.7s.8 1.1.7 2l-1.5 20q-.15 1.2-1.5 1.2c-.9 0-1.3-.4-1.4-1.2-.1-1.4-.3-3.5-.5-6.2q-.3-4.05-.6-7.5c-.2-2.3-.3-4.4-.4-6.2-.1-.8.1-1.5.7-2m2.2 25.2c1.1 0 1.9.2 2.3.7q.6.6.6 2.1t-.6 2.1c-.4.5-1.2.7-2.3.7-1.9 0-2.9-1-2.9-2.9 0-1.8 1-2.7 2.9-2.7"></path></svg>