<svg xmlns="http://www.w3.org/2000/svg" width="1001" height="928" fill="none" viewBox="0 0 1001 928"><path fill="#FDF2E8" d="M960.838 175.32v-97.2s0-56.8-56.8-56.8h-624.3s-56.8 0-56.8 56.8v97.2s0 1.3.2 3.4v25.8c.7 19.2-18.7 38.8-37.3 40.4 5 1.8 10.5 2.9 16.1 2.9 17.9 0 35.4-10 44.7-24.7 8 5.4 18.7 9 33 9h624.2c.2-.1 57-.1 57-56.8"></path><path fill="#FF6900" d="M282.538 59.02q3.6 4.05 3.6 12c0 5.2-1.2 9.2-3.6 11.9s-5.9 4.1-10.5 4.1c-3 0-5.7-.8-7.9-2.5s-3.5-3.7-3.8-6.3q-.15-.75.3-1.2c.4-.5 1-.7 1.7-.7.6 0 1.2.1 1.6.4s.7.7.7 1.2c.8 3.2 3.2 4.8 7.3 4.8 1.8 0 3.3-.3 4.5-.8 1.2-.6 2.2-1.3 2.8-2.4.6-1 1.1-2.1 1.3-3.3s.4-2.4.5-3.9h-11.5c-1.3 0-1.9-.7-1.9-2s.6-2 1.9-2h11.4c-.1-1.3-.3-2.4-.7-3.4s-.8-2-1.4-2.9q-.9-1.35-2.7-2.1c-1.2-.5-2.6-.7-4.2-.7-1 0-2 .1-3 .4s-1.9.8-2.7 1.6-1.4 1.7-1.6 2.8-1 1.6-2.3 1.6c-.8-.1-1.4-.3-1.8-.7-.3-.3-.3-.8-.3-1.2.4-2.8 1.7-5 4-6.5s4.9-2.3 7.7-2.3c4.8.1 8.3 1.4 10.6 4.1M304.638 63.52c1.1 0 1.6.6 1.6 1.7s-.5 1.7-1.6 1.7h-5.2v18.4q0 1.8-2.1 1.8c-1.4 0-2.2-.6-2.2-1.8v-18.4h-5.1c-1.1 0-1.7-.6-1.7-1.7s.6-1.7 1.7-1.7zM329.438 85.22c0 1.2-.7 1.8-2.2 1.8-1.4 0-2.2-.6-2.2-1.8v-15c-.3.4-.6.9-1 1.5l-.5.8-9.5 13.7c-.4.5-1.1.8-2 .8-1.4 0-2.2-.6-2.2-1.8v-20.3c0-1.2.7-1.8 2.2-1.8s2.2.6 2.2 1.8v15.2c.1-.1.6-1 1.7-2.6l9.3-13.5c.3-.5 1-.7 1.9-.7 1.4 0 2.2.6 2.2 1.8v20.1zM365.838 80.82c.3.3.3.8.3 1.6-.3 1.1-1.1 2.1-2.6 3.1s-3.4 1.5-5.6 1.5c-7.2 0-10.9-4-10.9-12s3.6-12.1 10.9-12.1c2.1 0 4 .5 5.6 1.5s2.5 2.2 2.8 3.5c.1.7.1 1.2-.2 1.5-.2.3-.7.6-1.4.7h-.2c-1.2 0-2-.5-2.3-1.4-.7-1.7-2.1-2.5-4.3-2.5q-6.3 0-6.3 8.7t6.3 8.7c1.9 0 3.3-.7 4.1-2.2.6-1 1.4-1.5 2.4-1.3.7.2 1.1.3 1.4.7M392.038 75.02c0 8-3.6 12-10.9 12s-10.9-4-10.9-12 3.6-12.1 10.9-12.1c7.3.1 10.9 4.1 10.9 12.1m-6-6.1c-1-1.3-2.6-2-4.8-2s-3.8.7-4.8 2-1.5 3.4-1.5 6.1.5 4.8 1.5 6.1 2.6 2 4.8 2 3.8-.7 4.8-2 1.6-3.4 1.6-6.1-.6-4.8-1.6-6.1M413.738 79.82c0 2.2-.8 4-2.5 5.3s-3.9 2-6.7 2a16 16 0 0 1-3.9-.5c-1.2-.4-2.4-1-3.5-1.9s-1.7-2.1-2-3.5c-.1-.6.1-1 .3-1.3.3-.4.9-.7 1.8-.7 1.3 0 2 .5 2.1 1.6.1.6.3 1.1.7 1.5s.9.8 1.4 1 1.1.4 1.5.5c.5.1.9.1 1.3.1 1.5 0 2.7-.4 3.6-1.1.9-.8 1.3-1.8 1.3-3.1 0-1-.4-1.8-1.1-2.4s-1.4-1-2.1-1.1-1.4-.2-2.2-.2h-.7c-1.1 0-1.7-.6-1.7-1.7s.7-1.6 2-1.6c3.5 0 5.3-1.2 5.3-3.5 0-1-.4-1.8-1.1-2.4q-1.2-.9-3-.9c-3.1 0-4.7.9-5 2.8-.1.8-.7 1.3-1.8 1.3-.9 0-1.5-.2-1.9-.7-.2-.3-.3-.6-.3-1 .2-1.9 1.2-3.3 3-4.3s3.7-1.4 5.9-1.4c1.4 0 2.8.2 4 .6s2.3 1.1 3.2 2.1 1.4 2.2 1.4 3.7c0 2.3-1.3 4-3.9 5.2 3.1 1 4.6 2.9 4.6 5.6M430.638 63.52c.8 0 1.4.1 2 .3q.75.3 1.2.6c.3.2.5.6.6 1 .1.5.2.8.2 1.1v16.8c.8.1 1.5.4 2 .8.5.5.7 1.1.7 1.8v4c0 1.2-.7 1.8-2 1.8s-2-.6-2-1.8v-3c0-.2-.1-.3-.4-.3h-14.5c-.3 0-.4.1-.4.3v3c0 1.2-.7 1.8-2 1.8s-2-.6-2-1.8v-4c0-.9.2-1.5.5-2s.9-.8 1.7-1.3c.7-.4 1.3-1.6 1.7-3.8.2-1.6.4-4.4.7-8.3 0-.8.1-1.8.2-2.9.2-2.9 1.5-4.3 4-4.3h7.8zm-.3 19.8v-15.6c0-.3-.1-.5-.2-.6s-.4-.2-.8-.2h-5.3c-.6 0-.9.3-1 1l-.1 2.4c-.2 4.2-.5 7.2-.8 9-.2 1.7-.7 3.1-1.3 4.1h9.5zM455.138 83.42q-2.7 3.9-8.1 3.9c-2.3 0-4.3-.6-5.8-1.9-1.5-1.2-2.3-3-2.3-5.3 0-5.4 4.4-8.1 13.3-8.1h2.9c0-1.4-.1-2.6-.4-3.5-.6-1.6-2.4-2.4-5.3-2.4-2 0-3.7.5-5.1 1.6-.4.3-.9.5-1.3.5s-1-.2-1.5-.5-.7-.7-.7-1.2.3-1 1-1.5c1.9-1.4 4.6-2.1 8.3-2.1 3.4 0 5.8.8 7.2 2.3 1.5 1.5 2.2 3.9 2.2 7.1v9.6c0 1.1.1 2.1.2 2.8.1 1.2-.4 1.9-1.6 2-1.5.1-2.3-.4-2.6-1.5s-.4-1.7-.4-1.8m0-8.1c-1.3-.1-2.4-.1-3.1-.1-1 0-2 .1-2.9.2s-1.8.4-2.7.7-1.6.9-2.1 1.6-.8 1.6-.8 2.5q0 1.8 1.2 2.7c.8.6 1.8 1 3 1 2.2 0 4-.7 5.3-2.2 1.6-1.6 2.3-3.7 2.1-6.4M469.738 72.82h9.9v-7.9c0-1.2.7-1.8 2.2-1.8 1.4 0 2.2.6 2.2 1.8v20.4c0 1.2-.7 1.8-2.2 1.8-1.4 0-2.2-.6-2.2-1.8v-9.1h-9.9v9.1c0 1.2-.7 1.8-2.2 1.8-1.4 0-2.2-.6-2.2-1.8v-20.4c0-1.2.7-1.8 2.2-1.8 1.4 0 2.2.6 2.2 1.8zM509.638 85.22c0 1.2-.7 1.8-2.2 1.8-1.4 0-2.2-.6-2.2-1.8v-15c-.3.4-.6.9-1 1.5l-.5.8-9.5 13.7c-.4.5-1.1.8-2 .8-1.4 0-2.2-.6-2.2-1.8v-20.3c0-1.2.7-1.8 2.2-1.8s2.2.6 2.2 1.8v15.2c.1-.1.6-1 1.7-2.6l9.3-13.5c.3-.5 1-.7 1.9-.7 1.4 0 2.2.6 2.2 1.8v20.1zM526.438 77.52c-2.8 0-4.7 1.3-5.7 4-.9 2.3-1.8 3.8-2.6 4.7-.7.8-1.6 1-2.7.9-.7-.1-1.1-.4-1.4-.8s-.2-.9.1-1.3c.8-1.1 1.7-2.7 2.7-4.7.9-1.8 1.8-3.1 2.8-3.7-1.4-.4-2.6-1.1-3.5-2.2s-1.4-2.3-1.4-3.6c0-2.3.8-4 2.3-5.3 1.6-1.2 3.6-1.8 6.2-1.8h6.5c1.6 0 2.6.3 3.2 1 .5.7.8 1.7.8 3.1v17.5c0 1.2-.7 1.8-2.2 1.8-1.4 0-2.2-.6-2.2-1.8v-7.7h-2.9zm-5.9-9.7c-.8.7-1.1 1.6-1.1 2.8 0 1.1.5 2 1.4 2.6q1.35.9 3.3.9h5.3v-6.5c0-.3-.1-.5-.2-.6s-.4-.2-.8-.2h-4.8c-1.3.1-2.3.4-3.1 1M563.938 63.52q3.75 0 5.7 1.5c1.3 1 2 2.4 2 4.2 0 2.3-1 4-3 5q1.95.75 3 2.4c.7 1 1 2.2 1 3.4 0 1.9-.7 3.4-2.2 4.7-1.4 1.2-3.2 1.9-5.4 1.9h-8.2c-.8 0-1.4-.1-2-.3q-.75-.3-1.2-.6c-.3-.2-.5-.6-.6-1-.1-.5-.2-.8-.2-1.1v-17c0-.3.1-.7.2-1.1.1-.5.3-.8.6-1q.45-.3 1.2-.6c.5-.2 1.2-.3 2-.3h7.1zm-6.8 9.4h6.7c.9 0 1.7-.3 2.3-.8s.9-1.3.9-2.3c0-1.9-1.1-2.9-3.3-2.9h-5.8c-.4 0-.6.1-.8.2-.1.1-.2.3-.2.6v5.2zm0 9.6c0 .3.1.5.2.6s.4.2.8.2h5.8c2.6 0 3.9-1.2 3.9-3.5q0-3.6-3.9-3.6h-6.7v6.3zM597.638 75.02c0 8-3.6 12-10.9 12s-10.9-4-10.9-12 3.6-12.1 10.9-12.1c7.3.1 10.9 4.1 10.9 12.1m-6-6.1c-1-1.3-2.6-2-4.8-2s-3.8.7-4.8 2-1.5 3.4-1.5 6.1.5 4.8 1.5 6.1 2.6 2 4.8 2 3.8-.7 4.8-2 1.6-3.4 1.6-6.1-.6-4.8-1.6-6.1M619.738 80.82c.3.3.3.8.3 1.6-.3 1.1-1.1 2.1-2.6 3.1s-3.4 1.5-5.6 1.5c-7.2 0-10.9-4-10.9-12s3.6-12.1 10.9-12.1c2.1 0 4 .5 5.6 1.5s2.5 2.2 2.8 3.5c.1.7.1 1.2-.2 1.5-.2.3-.7.6-1.4.7h-.2c-1.2 0-2-.5-2.3-1.4-.7-1.7-2.1-2.5-4.3-2.5q-6.3 0-6.3 8.7t6.3 8.7c1.9 0 3.3-.7 4.1-2.2.6-1 1.4-1.5 2.4-1.3.7.2 1.2.3 1.4.7M635.838 74.32l7.5 10.8c.4.7.4 1.2.1 1.5-.4.3-1 .4-1.8.4-.7 0-1.2-.1-1.5-.2s-.7-.5-1.1-1.1l-5.5-8.4c-.6 1-1.6 2.4-2.8 4.2q-1.8 2.85-2.7 4.2c-.4.6-.7.9-1.1 1.1s-.9.2-1.5.2q-1.35 0-1.8-.6c-.3-.4-.2-.9.2-1.6 3.3-4.9 5.8-8.4 7.3-10.6l-6.3-9.1c-.4-.7-.4-1.3-.1-1.6s.9-.5 1.8-.5c.7 0 1.2.1 1.6.2s.7.5 1.1 1q.6.9 2.1 3.3c1 1.5 1.8 2.7 2.3 3.6.5-.8 1.2-1.9 2.2-3.4s1.7-2.7 2.2-3.5c.3-.5.7-.9 1.1-1s.9-.2 1.6-.2c.8 0 1.4.1 1.8.4q.6.45 0 1.5zM666.838 85.22c0 1.2-.7 1.8-2.2 1.8s-2.2-.6-2.2-1.8v-15c-.3.4-.6.9-1 1.5l-.5.8-9.5 13.7c-.4.5-1.1.8-2 .8-1.4 0-2.2-.6-2.2-1.8v-20.3c0-1.2.7-1.8 2.2-1.8s2.2.6 2.2 1.8v15.2c.1-.1.6-1 1.7-2.6l9.3-13.5c.3-.5 1-.7 1.9-.7 1.4 0 2.2.6 2.2 1.8v20.1zM686.838 63.52c1.1 0 1.6.6 1.6 1.7s-.5 1.7-1.6 1.7h-5.2v18.4q0 1.8-2.1 1.8c-1.4 0-2.2-.6-2.2-1.8v-18.4h-5.1c-1.1 0-1.7-.6-1.7-1.7s.6-1.7 1.7-1.7zM711.638 85.22c0 1.2-.7 1.8-2.2 1.8s-2.2-.6-2.2-1.8v-15c-.3.4-.6.9-1 1.5l-.5.8-9.5 13.7c-.4.5-1.1.8-2 .8-1.4 0-2.2-.6-2.2-1.8v-20.3c0-1.2.7-1.8 2.2-1.8s2.2.6 2.2 1.8v15.2c.1-.1.6-1 1.7-2.6l9.3-13.5c.3-.5 1-.7 1.9-.7 1.4 0 2.2.6 2.2 1.8v20.1zM731.638 63.52c1.1 0 1.6.6 1.6 1.7s-.5 1.7-1.6 1.7h-5.2v18.4q0 1.8-2.1 1.8c-1.4 0-2.2-.6-2.2-1.8v-18.4h-5.1c-1.1 0-1.7-.6-1.7-1.7s.5-1.7 1.7-1.7zM756.138 74.72c-.6.6-1.7.9-3.4.9h-12.4c0 .9.1 1.8.3 2.6s.5 1.7 1 2.6q.6 1.35 2.1 2.1c.9.5 2.1.8 3.4.8.8 0 1.7-.2 2.7-.5.9-.3 1.7-.9 2.1-1.6.6-.9 1.4-1.3 2.5-1.2.8.1 1.3.4 1.5.8s.3.8.1 1.3c-.5 1.5-1.7 2.7-3.4 3.5s-3.6 1.2-5.6 1.2-3.7-.4-5.3-1.1c-1.5-.7-2.7-1.7-3.5-2.9-.9-1.2-1.5-2.5-1.9-3.9s-.6-2.8-.6-4.3c0-1.6.2-3 .6-4.5.4-1.4 1-2.7 1.9-3.9s2-2.2 3.5-2.9 3.2-1.1 5.2-1.1c3.2 0 5.8 1 7.6 2.9 1.7 1.7 2.5 3.9 2.5 6.6-.1 1.2-.4 2-.9 2.6m-4.1-2.3c.5 0 .7-.3.7-.7-.1-1.8-.6-3.1-1.6-4.1s-2.4-1.5-4.1-1.5c-1.8 0-3.3.6-4.5 1.9s-1.9 2.8-2 4.4zM775.238 63.52c.8 0 1.4.1 1.9.3q.75.3 1.2.6c.3.2.5.6.6 1 .1.5.2.8.2 1.1v18.7c0 1.2-.7 1.8-2.2 1.8q-2.1 0-2.1-1.8v-17.5c0-.5-.3-.8-1-.8h-4.6c-.8 0-1.2.3-1.2 1l-.2 2.3c-.4 5.2-.7 8.6-.9 10.3-.3 2.2-.9 3.9-1.8 5s-2.4 1.6-4.2 1.5c-.7 0-1.3-.2-1.6-.5s-.5-.7-.5-1.2c.1-1.2.6-1.8 1.6-1.8.9 0 1.5-.3 1.7-.7.3-.5.5-1.2.6-2.3v-.4c.2-1.2.5-3.9.8-8.3.1-1.7.2-2.9.3-3.3 0-.6.1-1 .1-1.4 0-.3.2-.8.3-1.3.2-.5.4-.9.7-1.2s.7-.5 1.2-.8c.5-.2 1.2-.3 1.9-.3zM789.738 72.22h6.7c2.4 0 4.4.7 5.8 2s2.2 3 2.2 5.2c0 2.1-.8 3.9-2.3 5.2q-2.25 2.1-5.7 2.1h-6.9c-.8 0-1.4-.1-2-.3q-.75-.3-1.2-.6c-.3-.2-.5-.6-.6-1-.1-.5-.2-.8-.2-1.1v-18.8c0-1.2.7-1.8 2.2-1.8s2.2.6 2.2 1.8v7.3zm0 10.3c0 .6.3.8 1 .8h5c2.6 0 3.9-1.3 3.9-3.8 0-2.6-1.3-4-3.9-4h-6zM812.738 72.82h9.9v-7.9c0-1.2.7-1.8 2.2-1.8 1.4 0 2.2.6 2.2 1.8v20.4c0 1.2-.7 1.8-2.2 1.8-1.4 0-2.2-.6-2.2-1.8v-9.1h-9.9v9.1c0 1.2-.7 1.8-2.2 1.8-1.4 0-2.2-.6-2.2-1.8v-20.4c0-1.2.7-1.8 2.2-1.8 1.4 0 2.2.6 2.2 1.8zM837.538 72.22h6.7c2.5 0 4.4.7 5.8 2s2.1 3 2.1 5.2c0 2.1-.8 3.9-2.3 5.2q-2.25 2.1-5.7 2.1h-6.9c-.9 0-1.7-.1-2.3-.3s-1-.6-1.2-1.1-.4-.9-.4-1.3-.1-.9-.1-1.6v-17.5c0-1.2.7-1.8 2.2-1.8q2.1 0 2.1 1.8zm0 10.3c0 .3.1.6.2.7.2.1.4.1.8.1h5c1.3 0 2.2-.3 2.9-1s1-1.6 1-2.8q0-3.9-3.9-3.9h-6zm20.9 2.8c0 1.2-.7 1.8-2.2 1.8q-2.1 0-2.1-1.8v-20.4q0-1.8 2.1-1.8c1.4 0 2.2.6 2.2 1.8zM864.138 91.92c-.3-.3-.4-.7-.3-1.1l1.3-7.6q.45-1.95 3-1.8c.9.1 1.5.4 1.9.9s.4 1.2.1 2l-3 7c-.2.5-.4.8-.7 1s-.7.2-1.3.2c-.4-.1-.8-.3-1-.6M266.138 125.92c1.5-.2 2.7-.6 3.5-1.2.9-.6 1.7-1.5 2.4-2.6l1.1-1.9c.7-1.2 1.3-2.2 1.8-2.8.7-.7 1.5-1 2.5-.9 1.7.1 2.1.9 1.3 2.2-.6 1-1.1 1.7-1.4 2.2-.1.2-.3.4-.5.8-.2.3-.4.7-.6.9-.2.3-.3.5-.5.8-1.1 1.5-2.3 2.7-3.8 3.6 2.3.6 4 2.6 5.3 5.9.6 1.5 1.1 2.9 1.8 4.2l.7 1.5c.5 1 .1 1.6-1.2 1.9q-1.8.3-2.4-.6c-.6-.7-1.4-2-2.2-4l-.5-1.3c-.8-2-1.7-3.5-2.6-4.3q-1.5-1.35-4.8-1.2v9.6c0 1.2-.7 1.8-2.2 1.8-1.4 0-2.2-.6-2.2-1.8v-20.4c0-1.2.7-1.8 2.2-1.8 1.4 0 2.2.6 2.2 1.8v7.6zM298.238 136.82q-2.7 3.9-8.1 3.9c-2.3 0-4.3-.6-5.8-1.9-1.5-1.2-2.3-3-2.3-5.3 0-5.4 4.4-8.1 13.3-8.1h2.9c0-1.4-.1-2.6-.4-3.5-.6-1.6-2.4-2.4-5.3-2.4-2 0-3.7.5-5.1 1.6-.4.3-.9.5-1.3.5s-1-.2-1.5-.5-.7-.7-.7-1.2.3-1 1-1.5c1.9-1.4 4.6-2.1 8.3-2.1 3.4 0 5.8.8 7.2 2.3 1.5 1.5 2.2 3.9 2.2 7.1v9.6c0 1.1.1 2.1.2 2.8.1 1.2-.4 1.9-1.6 2-1.5.1-2.3-.4-2.6-1.5-.3-1-.4-1.6-.4-1.8m0-8.1c-1.3-.1-2.4-.1-3.1-.1-1 0-2 .1-2.9.2s-1.8.4-2.7.7-1.6.9-2.1 1.6-.8 1.6-.8 2.5q0 1.8 1.2 2.7c.8.6 1.8 1 3 1 2.2 0 4-.7 5.3-2.2 1.6-1.5 2.3-3.7 2.1-6.4M312.738 125.92c1.5-.2 2.7-.6 3.5-1.2.9-.6 1.7-1.5 2.4-2.6l1.1-1.9c.7-1.2 1.3-2.2 1.8-2.8.7-.7 1.5-1 2.5-.9 1.7.1 2.1.9 1.3 2.2-.6 1-1.1 1.7-1.4 2.2-.1.2-.3.4-.5.8-.2.3-.4.7-.6.9-.2.3-.3.5-.5.8-1.1 1.5-2.3 2.7-3.8 3.6 2.3.6 4 2.6 5.3 5.9q.75 2.25 1.8 4.2l.7 1.5c.5 1 .1 1.6-1.2 1.9q-1.8.3-2.4-.6c-.6-.7-1.4-2-2.2-4l-.5-1.3c-.8-2-1.7-3.5-2.6-4.3q-1.5-1.35-4.8-1.2v9.6c0 1.2-.7 1.8-2.2 1.8s-2.2-.6-2.2-1.8v-20.4c0-1.2.7-1.8 2.2-1.8s2.2.6 2.2 1.8v7.6zM350.338 138.72c0 1.2-.7 1.8-2.2 1.8-1.4 0-2.2-.6-2.2-1.8v-15c-.3.4-.6.9-1 1.5l-.5.8-9.5 13.7c-.4.5-1.1.8-2 .8-1.4 0-2.2-.6-2.2-1.8v-20.4c0-1.2.7-1.8 2.2-1.8s2.2.6 2.2 1.8v15.2c.1-.1.6-1 1.7-2.6l9.3-13.5c.3-.5 1-.7 1.9-.7 1.4 0 2.2.6 2.2 1.8v20.2zM375.538 128.22c-.6.6-1.7.9-3.4.9h-12.4c0 .9.1 1.8.3 2.6s.5 1.7 1 2.6 1.1 1.6 2.1 2.1c.9.5 2.1.8 3.4.8.8 0 1.7-.2 2.7-.5.9-.3 1.7-.9 2.1-1.6.6-.9 1.4-1.3 2.5-1.2.8.1 1.3.4 1.5.8s.3.8.1 1.3c-.5 1.5-1.7 2.7-3.4 3.5s-3.6 1.2-5.6 1.2-3.7-.4-5.3-1.1c-1.5-.7-2.7-1.7-3.5-2.9-.9-1.2-1.5-2.5-1.9-3.9s-.6-2.8-.6-4.3c0-1.6.2-3 .6-4.5.4-1.4 1-2.7 1.9-3.9s2-2.2 3.5-2.9 3.2-1.1 5.2-1.1c3.2 0 5.8 1 7.6 2.9 1.7 1.7 2.5 3.9 2.5 6.6 0 1.2-.3 2-.9 2.6m-4-2.4c.5 0 .7-.3.7-.7-.1-1.8-.6-3.1-1.6-4.1s-2.4-1.5-4.1-1.5c-1.8 0-3.3.6-4.5 1.9s-1.9 2.8-2 4.4zM403.438 142.12q-.6 1.35-.9 2.1c-.2.5-.6 1.1-1.1 1.8q-.75 1.05-1.8 1.5c-.7.3-1.6.5-2.5.5-.6 0-1.2-.1-1.8-.2-.4-.1-.8-.3-1.1-.7s-.4-.9-.4-1.5c.1-1.3.9-1.7 2.4-1.3.8.1 1.5 0 1.9-.3s.8-1 1.1-1.8l1.1-3c-.9-2.3-2.3-5.7-4.1-10.2s-3.2-8-4.1-10.2c-.3-.6-.2-1.1.2-1.4s1-.5 1.8-.5c1.2 0 2 .5 2.5 1.7l5.3 13.5c.1.3.3.9.6 1.6.2-.6.4-1.2.6-1.7l5-13.4c.4-1.1 1.2-1.7 2.5-1.7.8 0 1.4.2 1.9.5s.6.8.3 1.4zM430.538 117.02c1.1 0 1.6.6 1.6 1.7s-.5 1.7-1.6 1.7h-5.2v18.4q0 1.8-2.1 1.8c-1.4 0-2.2-.6-2.2-1.8v-18.4h-5.1c-1.1 0-1.7-.6-1.7-1.7s.6-1.7 1.7-1.7zM455.438 128.52c0 8-3.6 12-10.9 12s-10.9-4-10.9-12 3.6-12.1 10.9-12.1 10.9 4 10.9 12.1m-6-6.2c-1-1.3-2.6-2-4.8-2s-3.8.7-4.8 2-1.5 3.4-1.5 6.1c0 2.8.5 4.8 1.5 6.1s2.6 2 4.8 2 3.8-.7 4.8-2 1.6-3.4 1.6-6.1c-.1-2.7-.6-4.7-1.6-6.1M464.538 126.32h9.9v-7.9c0-1.2.7-1.8 2.2-1.8s2.2.6 2.2 1.8v20.4c0 1.2-.7 1.8-2.2 1.8s-2.2-.6-2.2-1.8v-9.1h-9.9v9.1c0 1.2-.7 1.8-2.2 1.8s-2.2-.6-2.2-1.8v-20.4c0-1.2.7-1.8 2.2-1.8s2.2.6 2.2 1.8zM501.338 138.72q0 1.8-2.1 1.8c-1.4 0-2.2-.6-2.2-1.8v-7.9c-1.4 1-3.2 1.6-5.6 1.6-5.2 0-7.9-2.2-7.9-6.7v-7.3c0-1.2.7-1.8 2.2-1.8s2.2.6 2.2 1.8v6.3c0 1.7.3 2.9.8 3.6.6.7 1.6 1 3 1 1.7 0 3-.4 3.9-1.1s1.3-1.6 1.3-2.6v-7.1c0-1.2.7-1.8 2.2-1.8q2.1 0 2.1 1.8v20.2zM523.638 139.02c-1.8 1.1-3.9 1.7-6.3 1.7-3.7 0-6.5-1.2-8.4-3.5s-2.9-5.2-2.9-8.6c0-3.5.9-6.4 2.8-8.7s4.7-3.5 8.4-3.5c3.1 0 5.6.9 7.5 2.6 1.9 1.8 2.8 4 2.7 6.8 0 1-.3 1.9-.8 2.4-.5.6-1.7.9-3.4.9h-12.4c.1 2.3.6 4.3 1.6 5.8s2.7 2.3 5.1 2.3c1.3 0 2.4-.3 3.4-1q1.5-.9 2.1-2.7c.2-.4.5-.8 1-1q.75-.45 1.5-.3c.6.1 1.1.3 1.4.7s.4.9.2 1.5c-.4 1.9-1.6 3.5-3.5 4.6m-7.9-27.7c0 .8-.2 1.5-.5 1.9s-1 .7-2 .7-1.7-.2-2-.7c-.3-.4-.5-1.1-.5-1.9q0-1.2.6-1.8c.4-.4 1-.6 2-.6q2.4 0 2.4 2.4m7.5 13.9c-.1-1.7-.6-3.1-1.6-4.1s-2.4-1.5-4.1-1.5c-1.8 0-3.3.6-4.5 1.9s-1.9 2.7-2 4.4h11.6c.3 0 .5-.1.6-.2 0 0 .1-.2 0-.5m-.1-15.7q.6.6.6 1.8c0 .8-.2 1.4-.5 1.9s-1 .7-2 .7-1.6-.2-2-.7c-.3-.4-.5-1.1-.5-1.9s.2-1.4.5-1.8 1-.6 2-.6c.8 0 1.5.2 1.9.6M536.738 126.32h9.9v-7.9c0-1.2.7-1.8 2.2-1.8 1.4 0 2.2.6 2.2 1.8v20.4c0 1.2-.7 1.8-2.2 1.8-1.4 0-2.2-.6-2.2-1.8v-9.1h-9.9v9.1c0 1.2-.7 1.8-2.2 1.8-1.4 0-2.2-.6-2.2-1.8v-20.4c0-1.2.7-1.8 2.2-1.8 1.4 0 2.2.6 2.2 1.8zM561.538 126.32h9.9v-7.9c0-1.2.7-1.8 2.2-1.8s2.2.6 2.2 1.8v20.4c0 1.2-.7 1.8-2.2 1.8s-2.2-.6-2.2-1.8v-9.1h-9.9v9.1c0 1.2-.7 1.8-2.2 1.8s-2.2-.6-2.2-1.8v-20.4c0-1.2.7-1.8 2.2-1.8s2.2.6 2.2 1.8zM586.338 125.62h6.7c2.5 0 4.4.7 5.8 2s2.1 3 2.1 5.2c0 2.1-.8 3.9-2.3 5.2q-2.25 2.1-5.7 2.1h-6.9c-.9 0-1.7-.1-2.3-.3s-1-.6-1.2-1.1-.4-.9-.4-1.3-.1-.9-.1-1.6v-17.4c0-1.2.7-1.8 2.2-1.8q2.1 0 2.1 1.8zm0 10.3c0 .3.1.6.2.7.2.1.4.1.8.1h5c1.3 0 2.2-.3 2.9-1s1-1.6 1-2.8q0-3.9-3.9-3.9h-6zm21 2.8c0 1.2-.7 1.8-2.2 1.8q-2.1 0-2.1-1.8v-20.4q0-1.8 2.1-1.8c1.4 0 2.2.6 2.2 1.8zM632.538 128.22c-.6.6-1.7.9-3.4.9h-12.4c0 .9.1 1.8.3 2.6s.5 1.7 1 2.6q.6 1.35 2.1 2.1c.9.5 2.1.8 3.4.8.8 0 1.7-.2 2.7-.5.9-.3 1.7-.9 2.2-1.6.6-.9 1.4-1.3 2.5-1.2.8.1 1.3.4 1.5.8s.3.8.1 1.3c-.5 1.5-1.7 2.7-3.4 3.5-1.8.8-3.6 1.2-5.6 1.2s-3.8-.4-5.3-1.1-2.7-1.7-3.5-2.9c-.9-1.2-1.5-2.5-1.9-3.9s-.6-2.8-.6-4.3c0-1.6.2-3 .6-4.5.4-1.4 1-2.7 1.9-3.9s2-2.2 3.5-2.9 3.2-1.1 5.2-1.1c3.2 0 5.8 1 7.6 2.9 1.7 1.7 2.5 3.9 2.5 6.6-.1 1.2-.4 2-1 2.6m-4-2.4c.5 0 .7-.3.7-.7-.1-1.8-.6-3.1-1.6-4.1s-2.4-1.5-4.1-1.5c-1.8 0-3.3.6-4.5 1.9s-1.9 2.8-2 4.4zM664.538 117.02c.8 0 1.4.1 1.9.3q.75.3 1.2.6c.3.2.5.6.6 1 .1.5.2.8.2 1.1v18.7c0 1.2-.7 1.8-2.2 1.8q-2.1 0-2.1-1.8v-17.6c0-.5-.3-.8-1-.8h-4.6c-.8 0-1.2.3-1.2 1l-.2 2.3c-.4 5.2-.7 8.6-.9 10.3-.3 2.2-.9 3.9-1.8 5s-2.4 1.6-4.2 1.5c-.7 0-1.3-.2-1.6-.5s-.5-.7-.5-1.2c.1-1.2.6-1.8 1.6-1.8.9 0 1.5-.3 1.7-.7.3-.5.5-1.2.6-2.3v-.4c.2-1.2.5-3.9.8-8.3.1-1.7.2-2.9.3-3.3 0-.6.1-1 .1-1.4 0-.3.2-.8.3-1.3.2-.5.4-.9.7-1.2s.7-.5 1.2-.8c.5-.2 1.2-.3 1.9-.3h7.2zM694.138 138.72c0 1.2-.7 1.8-2.2 1.8-1.4 0-2.2-.6-2.2-1.8v-15c-.3.4-.6.9-1 1.5l-.5.8-9.5 13.7c-.4.5-1.1.8-2 .8-1.4 0-2.2-.6-2.2-1.8v-20.4c0-1.2.7-1.8 2.2-1.8s2.2.6 2.2 1.8v15.2c.1-.1.6-1 1.7-2.6l9.3-13.5c.3-.5 1-.7 1.9-.7 1.4 0 2.2.6 2.2 1.8v20.2zM704.638 126.32h9.9v-7.9c0-1.2.7-1.8 2.2-1.8 1.4 0 2.2.6 2.2 1.8v20.4c0 1.2-.7 1.8-2.2 1.8-1.4 0-2.2-.6-2.2-1.8v-9.1h-9.9v9.1c0 1.2-.7 1.8-2.2 1.8-1.4 0-2.2-.6-2.2-1.8v-20.4c0-1.2.7-1.8 2.2-1.8 1.4 0 2.2.6 2.2 1.8zM744.538 138.72c0 1.2-.7 1.8-2.2 1.8-1.4 0-2.2-.6-2.2-1.8v-15c-.3.4-.6.9-1 1.5l-.5.8-9.5 13.7c-.4.5-1.1.8-2 .8-1.4 0-2.2-.6-2.2-1.8v-20.4c0-1.2.7-1.8 2.2-1.8s2.2.6 2.2 1.8v15.2c.1-.1.6-1 1.7-2.6l9.3-13.5c.3-.5 1-.7 1.9-.7 1.4 0 2.2.6 2.2 1.8v20.2zM770.138 138.72c0 1.2-.7 1.8-2.2 1.8s-2.2-.6-2.2-1.8v-15c-.3.4-.6.9-1 1.5l-.5.8-9.5 13.7c-.4.5-1.1.8-2 .8-1.4 0-2.2-.6-2.2-1.8v-20.4c0-1.2.7-1.8 2.2-1.8s2.2.6 2.2 1.8v15.2c.1-.1.6-1 1.7-2.6l9.3-13.5c.3-.5 1-.7 1.9-.7 1.4 0 2.2.6 2.2 1.8v20.2zM775.738 145.42c-.3-.3-.4-.7-.3-1.1l1.3-7.6q.45-1.95 3-1.8c.9.1 1.5.4 1.9.9s.4 1.2.1 2l-3 7c-.2.5-.4.8-.7 1s-.7.2-1.3.2c-.4-.2-.8-.3-1-.6M804.938 125.92c1.5-.2 2.7-.6 3.5-1.2.9-.6 1.7-1.5 2.4-2.6l1.1-1.9c.7-1.2 1.3-2.2 1.8-2.8.7-.7 1.5-1 2.5-.9 1.7.1 2.1.9 1.3 2.2-.6 1-1.1 1.7-1.4 2.2-.1.2-.3.4-.5.8-.2.3-.4.7-.6.9-.2.3-.3.5-.5.8-1.1 1.5-2.3 2.7-3.8 3.6 2.3.6 4 2.6 5.3 5.9q.75 2.25 1.8 4.2l.7 1.5c.5 1 .1 1.6-1.2 1.9q-1.8.3-2.4-.6c-.6-.7-1.4-2-2.2-4l-.5-1.3c-.8-2-1.7-3.5-2.6-4.3q-1.5-1.35-4.8-1.2v9.6c0 1.2-.7 1.8-2.2 1.8s-2.2-.6-2.2-1.8v-20.4c0-1.2.7-1.8 2.2-1.8s2.2.6 2.2 1.8v7.6zM836.938 136.82q-2.7 3.9-8.1 3.9c-2.3 0-4.3-.6-5.8-1.9-1.5-1.2-2.3-3-2.3-5.3 0-5.4 4.4-8.1 13.3-8.1h2.9c0-1.4-.1-2.6-.4-3.5-.6-1.6-2.4-2.4-5.3-2.4-2 0-3.7.5-5.1 1.6-.4.3-.9.5-1.3.5s-1-.2-1.5-.5-.7-.7-.7-1.2.3-1 1-1.5c1.9-1.4 4.6-2.1 8.3-2.1 3.4 0 5.8.8 7.2 2.3s2.2 3.9 2.2 7.1v9.6c0 1.1.1 2.1.2 2.8.1 1.2-.4 1.9-1.6 2-1.5.1-2.3-.4-2.6-1.5-.3-1-.4-1.6-.4-1.8m0-8.1c-1.3-.1-2.4-.1-3.1-.1-1 0-2 .1-2.9.2s-1.8.4-2.7.7-1.6.9-2.1 1.6-.8 1.6-.8 2.5q0 1.8 1.2 2.7c.8.6 1.8 1 3 1 2.2 0 4-.7 5.3-2.2 1.6-1.5 2.3-3.7 2.1-6.4M851.438 125.92c1.5-.2 2.7-.6 3.5-1.2.9-.6 1.7-1.5 2.4-2.6l1.1-1.9c.7-1.2 1.3-2.2 1.8-2.8.7-.7 1.5-1 2.5-.9 1.7.1 2.1.9 1.3 2.2-.6 1-1.1 1.7-1.4 2.2-.1.2-.3.4-.5.8-.2.3-.4.7-.6.9-.2.3-.3.5-.5.8-1.1 1.5-2.3 2.7-3.8 3.6 2.3.6 4 2.6 5.3 5.9.6 1.5 1.1 2.9 1.8 4.2l.7 1.5c.5 1 .1 1.6-1.2 1.9q-1.8.3-2.4-.6c-.6-.7-1.4-2-2.2-4l-.5-1.3c-.8-2-1.7-3.5-2.6-4.3q-1.5-1.35-4.8-1.2v9.6c0 1.2-.7 1.8-2.2 1.8s-2.2-.6-2.2-1.8v-20.4c0-1.2.7-1.8 2.2-1.8s2.2.6 2.2 1.8v7.6zM883.538 136.82q-2.7 3.9-8.1 3.9c-2.3 0-4.3-.6-5.8-1.9-1.5-1.2-2.3-3-2.3-5.3 0-5.4 4.4-8.1 13.3-8.1h2.9c0-1.4-.1-2.6-.4-3.5-.6-1.6-2.4-2.4-5.3-2.4-2 0-3.7.5-5.1 1.6-.4.3-.9.5-1.3.5s-1-.2-1.5-.5-.7-.7-.7-1.2.3-1 1-1.5c1.9-1.4 4.6-2.1 8.3-2.1 3.4 0 5.8.8 7.2 2.3 1.5 1.5 2.2 3.9 2.2 7.1v9.6c0 1.1.1 2.1.2 2.8.1 1.2-.4 1.9-1.6 2-1.5.1-2.3-.4-2.6-1.5-.3-1-.4-1.6-.4-1.8m0-8.1c-1.3-.1-2.4-.1-3.1-.1-1 0-2 .1-2.9.2s-1.8.4-2.7.7-1.6.9-2.1 1.6-.8 1.6-.8 2.5q0 1.8 1.2 2.7c.8.6 1.8 1 3 1 2.2 0 4-.7 5.3-2.2 1.6-1.5 2.3-3.7 2.1-6.4M904.438 131.02c-2.8 0-4.7 1.3-5.7 4-.9 2.3-1.8 3.8-2.6 4.7-.7.8-1.6 1-2.7.9-.7-.1-1.1-.4-1.4-.8s-.2-.9.1-1.3c.8-1.1 1.7-2.7 2.7-4.7.9-1.8 1.8-3.1 2.8-3.7-1.4-.4-2.6-1.1-3.5-2.2s-1.4-2.3-1.4-3.6c0-2.3.8-4 2.3-5.3 1.6-1.2 3.6-1.8 6.2-1.8h6.5c1.6 0 2.6.3 3.2 1s.8 1.7.8 3.1v17.5c0 1.2-.7 1.8-2.2 1.8s-2.2-.6-2.2-1.8v-7.7h-2.9zm-5.9-9.7c-.8.7-1.1 1.6-1.1 2.8 0 1.1.5 2 1.4 2.6q1.35.9 3.3.9h5.3v-6.5c0-.3-.1-.5-.2-.6s-.4-.2-.8-.2h-4.8c-1.4 0-2.4.3-3.1 1M274.938 170.42c1.1 0 1.6.6 1.6 1.7s-.5 1.7-1.6 1.7h-7.8c-.6 0-1 .3-1 .8v17.6c0 1.2-.7 1.8-2.2 1.8-1.4 0-2.2-.6-2.2-1.8v-18.7c0-.3.1-.7.2-1.1.1-.5.3-.8.6-1q.45-.3 1.2-.6c.5-.2 1.2-.3 2-.3h9.2zM284.338 173.32c1.9-2.3 4.3-3.4 7.3-3.4 6.4 0 9.6 4 9.6 12.1 0 1.7-.2 3.3-.5 4.7-.4 1.4-.9 2.7-1.7 3.8s-1.8 2-3.2 2.7c-1.3.6-2.9 1-4.7 1q-3.9 0-6.6-3v8.7c0 1.2-.7 1.8-2.2 1.8-1.4 0-2.2-.6-2.2-1.8v-28.1q0-1.8 2.1-1.8c1.4 0 2 .6 2 1.8v1.5zm1.9 14.8c1.1 1.6 2.7 2.4 4.7 2.4 3.7 0 5.6-2.8 5.6-8.5s-1.9-8.5-5.6-8.5c-2 0-3.6.7-4.7 2.1s-1.7 3.1-1.7 5v2.1c0 2 .6 3.8 1.7 5.4M320.338 190.32q-2.7 3.9-8.1 3.9c-2.3 0-4.3-.6-5.8-1.9-1.5-1.2-2.3-3-2.3-5.3 0-5.4 4.4-8.1 13.3-8.1h2.9c0-1.4-.1-2.6-.4-3.5-.6-1.6-2.4-2.4-5.3-2.4-2 0-3.7.5-5.1 1.6-.4.3-.9.5-1.3.5s-1-.2-1.5-.5-.7-.7-.7-1.2.3-1 1-1.5c1.9-1.4 4.6-2.1 8.3-2.1 3.4 0 5.8.8 7.2 2.3s2.2 3.9 2.2 7.1v9.6c0 1.1.1 2.1.2 2.8.1 1.2-.4 1.9-1.6 2-1.5.1-2.3-.4-2.6-1.5s-.4-1.7-.4-1.8m0-8.1c-1.3-.1-2.4-.1-3.1-.1-1 0-2 .1-2.9.2s-1.8.4-2.7.7-1.6.9-2.1 1.6-.8 1.6-.8 2.5q0 1.8 1.2 2.7c.8.6 1.8 1 3 1 2.2 0 4-.7 5.3-2.2 1.6-1.6 2.3-3.7 2.1-6.4M332.238 193.22c-.6-.2-1-.6-1.2-1.1s-.4-.9-.4-1.3-.1-.9-.1-1.6v-17.4c0-1.2.7-1.8 2.2-1.8q2.1 0 2.1 1.8v17.6c0 .3.1.5.2.6s.4.2.8.2h8.9v-18.4c0-1.2.7-1.8 2.2-1.8s2.2.6 2.2 1.8v18.4h.9c1.1 0 1.8.2 2.3.7.4.4.7 1.1.7 2.1v4c0 1.2-.7 1.8-2 1.8-1.2 0-1.9-.6-1.9-1.8v-3c0-.2-.1-.3-.4-.3h-14.1c-1.1-.2-1.8-.3-2.4-.5M376.138 192.12c0 1.2-.7 1.8-2.2 1.8-1.4 0-2.2-.6-2.2-1.8v-15c-.3.4-.6.9-1 1.5l-.5.8-9.5 13.7c-.4.5-1.1.8-2 .8-1.4 0-2.2-.6-2.2-1.8v-20.3c0-1.2.7-1.8 2.2-1.8s2.2.6 2.2 1.8v15.2c.1-.1.6-1 1.7-2.6l9.3-13.5c.3-.5 1-.7 1.9-.7 1.4 0 2.2.6 2.2 1.8v20.1zM392.938 184.42c-2.8 0-4.7 1.3-5.7 4-.9 2.3-1.8 3.8-2.6 4.7-.7.8-1.6 1-2.7.9-.7-.1-1.1-.4-1.4-.8s-.2-.9.1-1.3c.8-1.1 1.7-2.7 2.7-4.7.9-1.8 1.8-3.1 2.8-3.7-1.4-.4-2.6-1.1-3.5-2.2s-1.4-2.3-1.4-3.6c0-2.3.8-4 2.3-5.3 1.6-1.2 3.6-1.8 6.2-1.8h6.5c1.6 0 2.6.3 3.2 1 .5.7.8 1.7.8 3.1v17.5c0 1.2-.7 1.8-2.2 1.8-1.4 0-2.2-.6-2.2-1.8v-7.7h-2.9zm-5.9-9.7c-.8.7-1.1 1.6-1.1 2.8 0 1.1.5 2 1.4 2.6q1.35.9 3.3.9h5.3v-6.5c0-.3-.1-.5-.2-.6s-.4-.2-.8-.2h-4.8c-1.3.1-2.3.4-3.1 1M406.738 163.22c.6-.5 1.3-.8 2.2-.8 1 0 1.8.2 2.3.7s.8 1.1.7 2l-1.5 20q-.15 1.2-1.5 1.2c-.9 0-1.3-.4-1.4-1.2-.1-1.4-.3-3.5-.5-6.2q-.3-4.05-.6-7.5c-.2-2.3-.3-4.4-.4-6.2-.1-.8.2-1.5.7-2m2.3 25.2c1.1 0 1.9.2 2.3.7s.6 1.1.6 2.1q0 1.5-.6 2.1c-.4.4-1.2.7-2.3.7-1.9 0-2.9-1-2.9-2.9-.1-1.8.9-2.7 2.9-2.7"></path></svg>