<svg xmlns="http://www.w3.org/2000/svg" width="1001" height="928" fill="none" viewBox="0 0 1001 928"><path fill="#FDF2E8" d="M512.238 244.414s-56.7 0-56.7 56.7v45s0 56.7 56.7 56.7h391.6s56.7 0 56.7-56.7v-45s0-56.7-56.7-56.7z"></path><path fill="#FDF2E8" d="M961.038 359.514c-.3-10.5-.3-10.5-3.2-10.5 0-8.8 0-8.8-27.2 6.2.3 26.3 25.4 47.5 51.5 47.5 5.7 0 11.1-1 16.1-2.9-18.6-1.6-37.9-21.2-37.2-40.3"></path><path fill="#FF6900" d="M516.638 306.414c0 1.3-.8 1.9-2.3 1.9-1.6 0-2.3-.6-2.3-1.9v-11.2c-1.8 1.5-4.5 2.3-8.1 2.3-1.1 0-2.2-.1-3.3-.4s-2.1-.7-3.1-1.3-1.7-1.4-2.3-2.5-.9-2.4-.9-3.8v-10.6c0-1.3.8-1.9 2.3-1.9 1.6 0 2.3.6 2.3 1.9v10.6c0 1.3.5 2.4 1.4 3.2s2.2 1.2 3.8 1.2c5.2 0 7.8-1.6 7.8-4.9v-10.1c0-1.3.8-1.9 2.3-1.9s2.3.6 2.3 1.9v27.5zM536.638 284.914c1.1 0 1.6.5 1.6 1.6s-.5 1.7-1.6 1.7h-5.2v18.3q0 1.8-2.1 1.8c-1.4 0-2.2-.6-2.2-1.8v-18.3h-5.1c-1.1 0-1.6-.6-1.6-1.7s.5-1.6 1.6-1.6zM561.438 296.414q0 12-10.8 12c-7.2 0-10.9-4-10.9-12s3.6-12 10.9-12q10.8-.15 10.8 12m-6-6.2c-1-1.3-2.6-2-4.8-2s-3.8.7-4.8 2-1.5 3.4-1.5 6.1.5 4.8 1.5 6.1 2.6 2 4.8 2 3.8-.7 4.8-2 1.6-3.4 1.6-6.1-.5-4.7-1.6-6.1M565.638 313.214c-.3-.3-.4-.7-.3-1.1l1.3-7.6q.45-1.95 3-1.8c.9.1 1.5.4 1.9.9s.4 1.2.1 1.9l-3 7c-.2.5-.4.8-.7 1s-.7.2-1.3.2c-.4 0-.7-.2-1-.5M607.739 302.113c.3.3.3.8.3 1.6-.3 1.1-1.1 2.1-2.6 3.1s-3.3 1.5-5.6 1.5q-10.8 0-10.8-12t10.8-12c2.1 0 4 .5 5.5 1.5 1.6 1 2.5 2.2 2.8 3.5.1.7.1 1.2-.2 1.5-.2.3-.7.6-1.4.6h-.2c-1.2 0-2-.5-2.3-1.4-.7-1.7-2.1-2.5-4.2-2.5q-6.3 0-6.3 8.7t6.3 8.7c1.9 0 3.2-.7 4.1-2.2.6-1 1.4-1.5 2.4-1.3.7.2 1.2.4 1.4.7M627.038 284.914c.8 0 1.4.1 2 .3q.75.3 1.2.6c.3.2.5.6.6 1 .1.5.2.8.2 1.1v16.7c.8.1 1.5.4 1.9.8.5.5.7 1.1.7 1.8v4c0 1.2-.6 1.8-1.9 1.8s-1.9-.6-1.9-1.8v-3c0-.2-.1-.3-.4-.3h-14.5c-.3 0-.4.1-.4.3v3c0 1.2-.6 1.8-2 1.8-1.3 0-1.9-.6-1.9-1.8v-4c0-.9.2-1.5.5-1.9s.9-.8 1.7-1.3c.7-.4 1.3-1.6 1.7-3.8.2-1.6.4-4.3.6-8.3 0-.8.1-1.7.2-2.9.2-2.9 1.5-4.3 3.9-4.3h7.8zm-.3 19.7v-15.6c0-.3-.1-.5-.2-.6s-.4-.2-.8-.2h-5.3c-.6 0-.9.3-1 1l-.1 2.4c-.2 4.2-.5 7.1-.8 9-.2 1.7-.7 3.1-1.3 4.1h9.5zM656.238 296.113c-.6.6-1.7.9-3.4.9h-12.4c0 .9.1 1.8.3 2.6s.5 1.7 1 2.6q.6 1.35 2.1 2.1c.9.5 2.1.8 3.4.8.8 0 1.7-.2 2.7-.5.9-.3 1.7-.9 2.1-1.6.6-.9 1.4-1.3 2.5-1.2.8.1 1.3.4 1.5.8s.3.8.1 1.3c-.5 1.5-1.7 2.7-3.4 3.5s-3.6 1.2-5.6 1.2-3.7-.4-5.2-1.1-2.7-1.7-3.5-2.9c-.9-1.2-1.5-2.5-1.9-3.9s-.6-2.8-.6-4.3c0-1.6.2-3 .6-4.4s1-2.7 1.9-3.9 2-2.2 3.5-2.9 3.2-1.1 5.2-1.1c3.2 0 5.8 1 7.6 2.9 1.7 1.7 2.5 3.9 2.5 6.6-.1 1.1-.4 1.9-1 2.5m-4-2.4c.5 0 .7-.3.7-.7-.1-1.8-.6-3.1-1.6-4.1s-2.4-1.5-4.1-1.5c-1.8 0-3.3.6-4.5 1.9s-1.9 2.7-2 4.4zM675.338 284.914c.8 0 1.4.1 1.9.3q.75.3 1.2.6c.3.2.5.6.6 1 .1.5.2.8.2 1.1v18.7c0 1.2-.7 1.8-2.2 1.8q-2.1 0-2.1-1.8v-17.5c0-.5-.3-.8-1-.8h-4.6c-.8 0-1.2.3-1.2 1l-.2 2.3c-.4 5.1-.7 8.6-.9 10.3-.3 2.2-.9 3.8-1.8 5q-1.35 1.65-4.2 1.5c-.7 0-1.2-.2-1.6-.5s-.5-.7-.5-1.1c.1-1.2.6-1.8 1.6-1.8.9 0 1.5-.3 1.7-.7.3-.5.5-1.2.6-2.3v-.4c.2-1.2.5-3.9.8-8.2q.15-2.55.3-3.3c0-.6.1-1 .1-1.4s.2-.8.3-1.3.4-.9.7-1.2.7-.5 1.2-.8c.5-.2 1.2-.3 1.9-.3h7.2zM699.739 304.713q-2.7 3.9-8.1 3.9c-2.3 0-4.3-.6-5.8-1.9s-2.3-3-2.3-5.2c0-5.4 4.4-8.1 13.3-8.1h2.8c0-1.4-.1-2.6-.4-3.5-.6-1.6-2.4-2.4-5.3-2.4-2 0-3.7.5-5.1 1.6-.4.3-.9.5-1.3.5-.5 0-1-.2-1.5-.5s-.7-.7-.7-1.2.3-1 1-1.5c1.8-1.4 4.6-2.1 8.3-2.1 3.3 0 5.8.8 7.2 2.3s2.2 3.9 2.2 7.1v9.5c0 1.1.1 2.1.2 2.8.1 1.2-.4 1.9-1.6 2-1.5.1-2.3-.4-2.6-1.5q-.3-1.65-.3-1.8m0-8.1c-1.3-.1-2.4-.1-3.1-.1-1 0-2 .1-2.9.2s-1.8.4-2.7.7-1.6.9-2.1 1.6-.8 1.6-.8 2.5q0 1.8 1.2 2.7c.8.6 1.8 1 3 1 2.2 0 3.9-.7 5.3-2.2 1.6-1.6 2.3-3.7 2.1-6.4M722.438 284.914c1.1 0 1.6.5 1.6 1.6s-.5 1.7-1.6 1.7h-5.2v18.3q0 1.8-2.1 1.8c-1.4 0-2.2-.6-2.2-1.8v-18.3h-5.1c-1.1 0-1.6-.6-1.6-1.7s.5-1.6 1.6-1.6zM732.138 293.514h6.7c2.4 0 4.4.7 5.8 2s2.1 3 2.1 5.2c0 2.1-.8 3.8-2.3 5.2q-2.25 2.1-5.7 2.1h-6.9c-.8 0-1.4-.1-1.9-.3q-.75-.3-1.2-.6c-.3-.2-.5-.6-.6-1-.1-.5-.2-.8-.2-1.1v-18.7c0-1.2.7-1.8 2.2-1.8 1.4 0 2.2.6 2.2 1.8v7.2zm0 10.3c0 .5.3.8 1 .8h5c2.6 0 3.9-1.3 3.9-3.8q0-3.9-3.9-3.9h-6zM777.438 284.914c1.1 0 1.6.5 1.6 1.6s-.5 1.7-1.6 1.7h-5.2v18.3q0 1.8-2.1 1.8c-1.4 0-2.2-.6-2.2-1.8v-18.3h-5.1c-1.1 0-1.6-.6-1.6-1.7s.5-1.6 1.6-1.6zM796.638 304.713q-2.7 3.9-8.1 3.9c-2.3 0-4.3-.6-5.8-1.9s-2.3-3-2.3-5.2c0-5.4 4.4-8.1 13.3-8.1h2.8c0-1.4-.1-2.6-.4-3.5-.6-1.6-2.4-2.4-5.3-2.4-2 0-3.7.5-5.1 1.6-.4.3-.9.5-1.3.5s-1-.2-1.5-.5-.7-.7-.7-1.2.3-1 1-1.5c1.8-1.4 4.6-2.1 8.3-2.1 3.4 0 5.8.8 7.2 2.3s2.2 3.9 2.2 7.1v9.5c0 1.1.1 2.1.2 2.8.1 1.2-.4 1.9-1.6 2-1.5.1-2.3-.4-2.6-1.5q-.3-1.65-.3-1.8m0-8.1c-1.3-.1-2.4-.1-3.1-.1-1 0-2 .1-2.9.2s-1.8.4-2.7.7-1.6.9-2.1 1.6-.8 1.6-.8 2.5q0 1.8 1.2 2.7c.8.6 1.8 1 3 1 2.2 0 3.9-.7 5.3-2.2 1.7-1.6 2.3-3.7 2.1-6.4M811.139 293.813c1.5-.2 2.7-.6 3.5-1.2.9-.6 1.7-1.5 2.4-2.6l1.1-1.9c.7-1.2 1.3-2.2 1.8-2.8.7-.7 1.5-1 2.5-.9 1.6.1 2.1.9 1.3 2.2-.6 1-1.1 1.7-1.4 2.2-.1.2-.3.4-.5.8-.2.3-.4.7-.6.9s-.3.5-.5.8c-1.1 1.5-2.3 2.7-3.8 3.6 2.3.6 4 2.6 5.2 5.9q.75 2.25 1.8 4.2l.7 1.5c.5 1 .1 1.6-1.2 1.9q-1.8.3-2.4-.6c-.6-.7-1.4-2-2.2-4l-.5-1.3c-.8-2-1.7-3.5-2.6-4.3-1-.9-2.6-1.2-4.8-1.2v9.5c0 1.2-.7 1.8-2.2 1.8s-2.2-.6-2.2-1.8v-20.3c0-1.2.7-1.8 2.2-1.8s2.2.6 2.2 1.8v7.6zM857.238 293.713c2.1-.4 3.9-1.9 5.2-4.3l.2-.4c.1-.2.2-.4.2-.5.7-1.5 1.4-2.6 1.9-3.2.5-.7 1.4-1 2.5-.9.8.1 1.3.3 1.6.6.3.4.2.9-.2 1.6-.5.8-1 1.5-1.3 2.3l-.9 1.8q-1.65 3-3.9 4.2c2.4.8 4.1 2.7 5.2 5.9.7 2.3 1.3 4.2 2 5.7.5 1 .1 1.6-1.1 1.9-1.2.1-2 0-2.5-.5-.7-.8-1.3-2.3-1.9-4.3l-.3-1.1c-.6-1.9-1.4-3.4-2.3-4.2-.9-.9-2.4-1.3-4.4-1.3v9.6q0 1.8-2.1 1.8t-2.1-1.8v-9.6c-1.9 0-3.4.4-4.4 1.4s-1.7 2.3-2.3 4.1l-.2.9c-.6 2.2-1.3 3.7-2 4.5q-.6.75-2.4.6c-1.3-.2-1.7-.9-1.2-1.9q.9-1.95 2.1-5.7c1-3.2 2.8-5.1 5.2-5.9q-2.4-1.2-3.9-4.2l-.7-1.4q-1.5-2.55-1.5-2.7c-.4-.7-.5-1.3-.3-1.6s.8-.6 1.6-.7c1.2-.1 2 .2 2.6.9.5.8 1.1 1.8 1.7 2.9l.6 1.2c1.3 2.4 3 3.9 5.2 4.3v-7.5q0-1.8 2.1-1.8t2.1 1.8v7.5zM893.238 296.113c-.6.6-1.7.9-3.4.9h-12.4c0 .9.1 1.8.3 2.6s.5 1.7 1 2.6q.6 1.35 2.1 2.1c.9.5 2.1.8 3.4.8.8 0 1.7-.2 2.7-.5.9-.3 1.7-.9 2.1-1.6.6-.9 1.4-1.3 2.5-1.2.8.1 1.3.4 1.5.8s.3.8.1 1.3c-.5 1.5-1.7 2.7-3.4 3.5s-3.6 1.2-5.6 1.2-3.7-.4-5.2-1.1-2.7-1.7-3.5-2.9c-.9-1.2-1.5-2.5-1.9-3.9s-.6-2.8-.6-4.3c0-1.6.2-3 .6-4.4s1-2.7 1.9-3.9 2-2.2 3.5-2.9 3.2-1.1 5.2-1.1c3.2 0 5.8 1 7.6 2.9 1.7 1.7 2.5 3.9 2.5 6.6-.2 1.1-.5 1.9-1 2.5m-4.1-2.4c.5 0 .7-.3.7-.7-.1-1.8-.6-3.1-1.6-4.1s-2.4-1.5-4.1-1.5c-1.8 0-3.3.6-4.5 1.9s-1.9 2.7-2 4.4zM913.138 279.014c2 1.7 2.9 3.7 2.9 6.2 0 1.3-.5 2.7-1.4 4.1-1 1.4-2.1 2.5-3.3 3.5-1.2.9-2 1.7-2.3 2.5-.3.7-.5 2-.7 3.9 0 .3-.2.6-.5.8s-.7.3-1.1.3c-.5 0-.9-.1-1.3-.3s-.5-.5-.5-1c-.1-2.3.1-4 .6-5.2s1.6-2.6 3.3-4.3q.9-.9 1.5-2.1t.6-2.1c0-1.5-.4-2.8-1.2-3.7-.8-1-1.9-1.5-3.2-1.5-1.2 0-2.3.4-3.2 1.1s-1.3 1.6-1.4 2.5c0 .6-.2 1.1-.6 1.6s-.9.8-1.8.8h-.1c-.7 0-1.2-.2-1.6-.7q-.6-.6-.6-1.8c0-1.8.9-3.5 2.7-4.9 1.8-1.5 4-2.2 6.7-2.2 2.4 0 4.6.9 6.5 2.5m-4.2 24.4c.4.5.6 1.1.6 2 0 .4 0 .8-.1 1-.1.3-.2.6-.4.9s-.5.5-.9.7-.9.2-1.5.2c-1.2 0-1.9-.3-2.3-.8q-.6-.75-.6-2.1c0-1.8 1-2.7 2.9-2.7 1.2.1 2 .4 2.3.8M518.838 359.714c.5 1.3-.1 2-1.8 2q-2.4 0-3-1.8l-2.6-7.4h-11.2c-.3.8-.7 2-1.3 3.7s-1 2.9-1.3 3.7c-.2.7-.6 1.2-1.1 1.4-.5.3-1.1.4-2 .4-1.6 0-2.2-.7-1.7-2l10.1-27.6c.5-1.2 1.5-1.9 2.9-1.9s2.4.6 2.9 1.9zm-8.7-10.7-3.1-8.8c-.3-.7-.7-2.2-1.3-4.4-.4 1.8-.9 3.2-1.3 4.3-.7 2.1-1.8 5-3.1 8.8h8.8zm47.8.7q0 12-10.8 12c-2.2 0-4.1-.5-5.6-1.5s-2.3-2-2.6-3.1c-.1-.7 0-1.3.2-1.6.3-.3.7-.5 1.4-.6 1-.1 1.8.3 2.4 1.3.9 1.5 2.3 2.2 4.1 2.2 3.8 0 5.9-2.5 6.3-7.4h-7.8c-1.1 0-1.6-.5-1.6-1.6s.5-1.7 1.6-1.7h7.7c-.5-4.4-2.6-6.7-6.2-6.7-2.1 0-3.5.8-4.2 2.5-.3.9-1 1.4-2.3 1.4h-.2c-.7-.1-1.2-.3-1.4-.6-.3-.3-.3-.9-.2-1.5.3-1.3 1.2-2.5 2.8-3.5s3.4-1.5 5.5-1.5c7.3-.1 10.9 3.9 10.9 11.9m17.7-11.5c1.1 0 1.6.5 1.6 1.6s-.5 1.7-1.6 1.7h-5.2v18.3q0 1.8-2.1 1.8c-1.4 0-2.2-.6-2.2-1.8v-18.3h-5.1c-1.1 0-1.6-.6-1.6-1.7s.5-1.6 1.6-1.6zm24.8 11.5q0 12-10.8 12c-7.2 0-10.9-4-10.9-12s3.6-12 10.9-12q10.8 0 10.8 12m-6-6.1c-1-1.3-2.6-2-4.8-2s-3.8.7-4.8 2-1.5 3.4-1.5 6.1c0 2.8.5 4.8 1.5 6.1s2.6 2 4.8 2 3.8-.7 4.8-2 1.6-3.4 1.6-6.1c-.1-2.8-.6-4.8-1.6-6.1m42.9 16.3c0 1.2-.7 1.8-2.2 1.8s-2.2-.6-2.2-1.8v-14.9c-.3.4-.6.9-1 1.5l-.5.8-9.4 13.6c-.4.5-1.1.8-1.9.8-1.4 0-2.2-.6-2.2-1.8v-20.3c0-1.2.7-1.8 2.2-1.8s2.2.6 2.2 1.8v15.1c.1-.1.6-1 1.6-2.6l9.3-13.5c.3-.5 1-.7 1.9-.7 1.4 0 2.2.6 2.2 1.8zm19.6-21.7c.8 0 1.4.1 2 .3q.75.3 1.2.6c.3.2.5.6.6 1 .1.5.2.8.2 1.1v16.7c.8.1 1.5.4 1.9.8.5.5.7 1.1.7 1.8v4c0 1.2-.6 1.8-1.9 1.8s-1.9-.6-1.9-1.8v-3c0-.2-.1-.3-.4-.3h-14.5c-.3 0-.4.1-.4.3v3c0 1.2-.6 1.8-1.9 1.8s-1.9-.6-1.9-1.8v-4c0-.9.2-1.5.5-1.9s.9-.8 1.7-1.3c.7-.4 1.3-1.6 1.7-3.8.2-1.6.4-4.3.6-8.3 0-.8.1-1.7.2-2.9.2-2.9 1.5-4.3 3.9-4.3h7.7zm-.3 19.8v-15.6c0-.3-.1-.5-.2-.6s-.4-.2-.8-.2h-5.3c-.6 0-.9.3-1 1l-.1 2.4c-.2 4.2-.5 7.1-.8 9-.2 1.7-.7 3.1-1.3 4.1h9.5zm29.5-8.6c-.6.6-1.7.9-3.4.9h-12.4c0 .9.1 1.8.3 2.6s.5 1.7 1 2.6q.6 1.35 2.1 2.1c1 .5 2.1.8 3.4.8.8 0 1.7-.2 2.7-.5.9-.3 1.7-.9 2.1-1.6.6-.9 1.4-1.3 2.5-1.2.8.1 1.3.4 1.5.8s.3.8.1 1.3c-.5 1.5-1.7 2.7-3.4 3.5-1.8.8-3.6 1.2-5.6 1.2s-3.7-.4-5.2-1.1-2.7-1.7-3.5-2.9c-.9-1.2-1.5-2.5-1.9-3.9s-.6-2.8-.6-4.3c0-1.6.2-3 .6-4.4s1-2.7 1.9-3.9 2-2.2 3.5-2.9 3.2-1.1 5.2-1.1c3.2 0 5.8 1 7.6 2.9 1.7 1.7 2.5 3.9 2.5 6.6-.1 1.1-.4 1.9-1 2.5m-4-2.3c.5 0 .7-.3.7-.7-.1-1.8-.6-3.1-1.6-4.1s-2.4-1.5-4.1-1.5c-1.8 0-3.3.6-4.5 1.9s-1.9 2.7-2 4.4zm20.4 5.1c-2.8 0-4.7 1.3-5.7 4-.9 2.3-1.8 3.8-2.6 4.7-.7.8-1.6 1-2.7.9-.7-.1-1.1-.4-1.4-.8s-.2-.9.1-1.3c.8-1.1 1.7-2.7 2.7-4.7.9-1.8 1.8-3.1 2.8-3.7-1.4-.4-2.6-1.1-3.5-2.2s-1.4-2.3-1.4-3.6c0-2.3.8-4 2.3-5.2 1.6-1.2 3.6-1.8 6.2-1.8h6.5c1.6 0 2.6.3 3.2 1 .5.7.8 1.7.8 3.1v17.5c0 1.2-.7 1.8-2.2 1.8s-2.2-.6-2.2-1.8v-7.7h-2.9zm-5.9-9.7c-.8.6-1.1 1.6-1.1 2.8 0 1.1.5 2 1.4 2.6q1.35.9 3.3.9h5.3v-6.5c0-.3-.1-.5-.2-.6s-.4-.2-.8-.2h-4.8c-1.3.1-2.3.4-3.1 1m18.8 24c-.3-.3-.4-.7-.3-1.1l1.3-7.6q.45-1.95 3-1.8c.9.1 1.5.4 1.9.9s.4 1.2.1 1.9l-3 7c-.2.5-.4.8-.7 1s-.7.2-1.3.2c-.4 0-.7-.2-1-.5m38.2-28.3c.8 0 1.4.1 2 .3q.75.3 1.2.6c.3.2.5.6.6 1 .1.5.2.8.2 1.1v16.7c.8.1 1.5.4 1.9.8.5.5.7 1.1.7 1.8v4c0 1.2-.6 1.8-1.9 1.8s-1.9-.6-1.9-1.8v-3c0-.2-.1-.3-.4-.3h-14.5c-.3 0-.4.1-.4.3v3c0 1.2-.6 1.8-1.9 1.8s-1.9-.6-1.9-1.8v-4c0-.9.2-1.5.5-1.9s.9-.8 1.7-1.3c.7-.4 1.3-1.6 1.7-3.8.2-1.6.4-4.3.6-8.3 0-.8.1-1.7.2-2.9.2-2.9 1.5-4.3 3.9-4.3h7.7zm-.3 19.8v-15.6c0-.3-.1-.5-.2-.6s-.4-.2-.8-.2h-5.3c-.6 0-.9.3-1 1l-.1 2.4c-.2 4.2-.5 7.1-.8 9-.2 1.7-.7 3.1-1.3 4.1h9.5zm24.8 0q-2.7 3.9-8.1 3.9c-2.3 0-4.3-.6-5.8-1.9s-2.3-3-2.3-5.2c0-5.4 4.4-8.1 13.3-8.1h2.8c0-1.4-.1-2.6-.4-3.5-.6-1.6-2.4-2.4-5.3-2.4-2 0-3.7.5-5.1 1.6-.4.3-.9.5-1.3.5s-1-.2-1.5-.5-.7-.7-.7-1.2.3-1 1-1.5c1.8-1.4 4.6-2.1 8.3-2.1 3.4 0 5.8.8 7.2 2.3 1.5 1.5 2.2 3.9 2.2 7.1v9.5c0 1.1.1 2.1.2 2.8.1 1.2-.4 1.9-1.6 2-1.5.1-2.3-.4-2.6-1.5q-.3-1.5-.3-1.8m0-8c-1.3-.1-2.4-.1-3.1-.1-1 0-2 .1-2.9.2s-1.8.4-2.7.7-1.6.9-2.1 1.6-.8 1.6-.8 2.5q0 1.8 1.2 2.7c.8.6 1.8 1 3 1 2.2 0 3.9-.7 5.3-2.2 1.6-1.6 2.3-3.8 2.1-6.4m21.3-11.8q3.75 0 5.7 1.5c1.3 1 1.9 2.4 1.9 4.2 0 2.3-1 4-3 5 1.3.5 2.3 1.3 2.9 2.4s1 2.2 1 3.4c0 1.9-.7 3.4-2.2 4.7-1.4 1.2-3.2 1.9-5.4 1.9h-8.2c-.8 0-1.4-.1-1.9-.3q-.75-.3-1.2-.6c-.3-.2-.5-.6-.6-1s-.2-.8-.2-1.1v-17c0-.3.1-.7.2-1.1s.3-.8.6-1 .6-.4 1.2-.6c.5-.2 1.2-.3 1.9-.3h7.3zm-6.7 9.3h6.7c.9 0 1.7-.3 2.3-.8s.9-1.3.9-2.3c0-1.9-1.1-2.9-3.2-2.9h-5.8c-.4 0-.6.1-.8.2-.1.1-.2.3-.2.6v5.2zm0 9.6c0 .3.1.5.2.6s.4.2.8.2h5.8c2.6 0 3.9-1.2 3.9-3.5q0-3.6-3.9-3.6h-6.7v6.3zm34.3.9q-2.7 3.9-8.1 3.9c-2.3 0-4.3-.6-5.8-1.9-1.5-1.2-2.3-3-2.3-5.2 0-5.4 4.4-8.1 13.3-8.1h2.8c0-1.4-.1-2.6-.4-3.5-.6-1.6-2.4-2.4-5.3-2.4-2 0-3.7.5-5.1 1.6-.4.3-.9.5-1.3.5s-1-.2-1.5-.5-.7-.7-.7-1.2.3-1 1-1.5c1.8-1.4 4.6-2.1 8.3-2.1 3.4 0 5.8.8 7.2 2.3 1.5 1.5 2.2 3.9 2.2 7.1v9.5c0 1.1.1 2.1.2 2.8.1 1.2-.4 1.9-1.6 2-1.5.1-2.3-.4-2.6-1.5q-.3-1.5-.3-1.8m0-8c-1.3-.1-2.4-.1-3.1-.1-1 0-2 .1-2.9.2s-1.8.4-2.7.7-1.6.9-2.1 1.6-.8 1.6-.8 2.5q0 1.8 1.2 2.7c.8.6 1.8 1 3 1 2.2 0 3.9-.7 5.3-2.2 1.6-1.6 2.3-3.8 2.1-6.4m27.3-12.2c1.4 0 2.2.6 2.2 1.8v20.3c0 1.2-.7 1.8-2.2 1.8-1.4 0-2.2-.6-2.2-1.8v-15c-.5.9-1 1.6-1.4 2.2l-9.5 13.8c-.4.5-1.1.8-1.9.8-1.4 0-2.2-.6-2.2-1.8v-20.3c0-1.2.7-1.8 2.2-1.8s2.2.6 2.2 1.8v15.2c.6-1 4.3-6.4 11-16.2.3-.6.9-.8 1.8-.8m-1.6-7.6c.8.4 1 1 .6 1.9-.5 1-1.4 1.8-2.6 2.4s-2.5.8-3.8.8c-1.6 0-2.9-.3-4-1-1.1-.6-1.9-1.4-2.3-2.2q-.45-1.35.9-2.1 1.05-.3 1.8.6c1 1 2.3 1.6 3.6 1.6 1.5 0 2.7-.5 3.6-1.6.6-.5 1.3-.7 2.2-.4m15.4 26.4q.6.75.6 2.1c0 1-.2 1.7-.6 2.2s-1.2.8-2.4.8-2-.3-2.4-.8-.6-1.2-.6-2.2q0-1.5.6-2.1c.4-.5 1.2-.7 2.4-.7 1.2-.1 2 .2 2.4.7"></path></svg>