<svg xmlns="http://www.w3.org/2000/svg" xmlns:xlink="http://www.w3.org/1999/xlink" xml:space="preserve" viewBox="0 0 1000 871.2"><defs><path id="2336d9cb-ccc9-489a-9f31-4258d7761179a" d="M1000.8 13.9H-1v852.6h1001.8"></path></defs><clipPath id="0b3b14b3-5091-46ab-9e87-43e3f2d008deb"><use xlink:href="#2336d9cb-ccc9-489a-9f31-4258d7761179a" style="overflow:visible"></use></clipPath><path d="M284.8 349.8c5.1 1.8 10.5 2.9 16.2 2.9" style="clip-path:url(#0b3b14b3-5091-46ab-9e87-43e3f2d008deb);fill:#fdf2e8"></path><defs><path id="8c192266-328b-4db7-97b8-cee3bcda0830c" d="M-1 13.9h1001.8v852.5H-1z"></path></defs><clipPath id="2fa413cd-08d8-4292-a548-95bc795549b5d"><use xlink:href="#8c192266-328b-4db7-97b8-cee3bcda0830c" style="overflow:visible"></use></clipPath><path d="m.7 863.3 2.1.1M59.9 863.4l71.8.1M11 863.3l30.8.2M996.5 864.7l2.6.1M966 864.6l16.9.2M138.2 863.5l858.8 1.2" style="clip-path:url(#2fa413cd-08d8-4292-a548-95bc795549b5d);fill:none;stroke:#231f20;stroke-width:3.3459;stroke-linecap:round;stroke-linejoin:round"></path><path d="M853.6 595.1c22.2 4.1 54 19.7 76.8 38.7 23 19.2 86 118.2 64.3 225.5m-389.4 4s52.4-212.7 89-232.6c20.6-11.2 36.1-26.5 90.9-32.8" style="clip-path:url(#2fa413cd-08d8-4292-a548-95bc795549b5d);fill:none;stroke:#211f1f;stroke-width:3.3459;stroke-linecap:round;stroke-linejoin:round;stroke-miterlimit:10"></path><path d="M426.1 511.6c-9.6-9.3 25.3-72.5 48.5-80 23.1-7.6 17.9-26.3 53.4-26.3 35.5-.1 65 16.1 73.8 52S574.5 543 523.2 557c0 0-19.6 27.3-22 35.8 0 0-40.8-.5-68.2-17.3 0 0 26.2-29 26.1-34.1 0-5-25.9-23-33-29.8" style="clip-path:url(#2fa413cd-08d8-4292-a548-95bc795549b5d);fill:#fff"></path><path d="M426.6 511.5c-9.5-9.2 25.2-72.1 48.2-79.6s17.8-26.1 53.1-26.2 64.6 16 73.4 51.7-27.2 85.2-78.1 99.2c0 0-19.5 27.1-21.9 35.6 0 0-40.6-.5-67.8-17.2 0 0 26.1-28.9 26-33.9-.1-4.9-25.8-22.8-32.9-29.6" style="clip-path:url(#2fa413cd-08d8-4292-a548-95bc795549b5d);fill:none;stroke:#211f1f;stroke-width:3.3459;stroke-linecap:round;stroke-linejoin:round;stroke-miterlimit:10"></path><path d="M552.3 401.2c-24.3 4.1-41.3 9.1-48.6 39.6 0 0-48.9 8.2-90.5 35.8l4.3 2.8 25.6-7.8s-16.6 11.9-17.5 16.6c0 0 51.5 68.7 119.2 81l6.3-13.6 1.3 15s60.4 4.9 91.7-9.8c0 0 2.5-45.6-18.7-74.6 0 0 .5-57.4-45.3-69.2-.1 0-9.1-14.5-27.8-15.8" style="clip-path:url(#2fa413cd-08d8-4292-a548-95bc795549b5d);fill:#211f1f"></path><path d="M589.3 643.3c-4.3-22-39.4-46-114.5-62-75.1-15.9-83.5-25.5-112-20.2S149.5 705.2 192.4 768.9c19.4 28.7 64.7 5.1 64.7 5.1s-28.7 36.3-44 87.5H517s-1.5-28.2-3.8-36.3c0 0 14.5 32.7 26.3 38.6h69.7c-.1 0 13.3-49.8-19.9-220.5" style="clip-path:url(#2fa413cd-08d8-4292-a548-95bc795549b5d);fill:#ff6900"></path><path d="M507.2 861s-1.5-28.1-3.8-36.2c0 0 14.4 32.6 26 38.5m69.1 0s13.3-49.7-19.7-219.7c-4.3-22-39.1-45.9-113.5-61.7-74.4-15.9-82.7-25.4-111-20.1-28.3 5.2-211.4 143.4-168.9 207 19.2 28.6 64.1 5 64.1 5S221.1 810 206 861" style="clip-path:url(#2fa413cd-08d8-4292-a548-95bc795549b5d);fill:none;stroke:#211f1f;stroke-width:3.3459;stroke-linecap:round;stroke-linejoin:round;stroke-miterlimit:10"></path><path d="M516.9 582s-34.8-21.7-78.5-24.7l-15 18.1s45.5 16.4 87.6 19.3z" style="clip-path:url(#2fa413cd-08d8-4292-a548-95bc795549b5d);fill:#ff6900"></path><path d="M516.4 581.8s-34.5-21.1-77.7-24.1l-14.8 17.6s45 16 86.6 18.8z" style="clip-path:url(#2fa413cd-08d8-4292-a548-95bc795549b5d);fill:none;stroke:#211f1f;stroke-width:3.3459;stroke-linecap:round;stroke-linejoin:round;stroke-miterlimit:10"></path><path d="M564.2 610.5c8.7-2.2-19.3-17.6-26.8-13.7s-44.6 24.7-58 80.9-4.2 44-4.2 44l6.7 28.7c0-.1 30.1-127 82.3-139.9M385.2 552.5c-12.5-1.1-38.1 4.4-52 121.5l-2.5 33.7 22.8-5s8-115.8 41.1-139l10.1 2.7c0 .1-2.7-12.5-19.5-13.9" style="clip-path:url(#2fa413cd-08d8-4292-a548-95bc795549b5d);fill:#211f1f"></path><path d="M459.2 702.8s3.9-20.5-17.4-25.9-42.7-10.8-50.1-11.1c-18-.8-24 16.5-24 16.5s-36.4-13.1-67.3 43.6-49.9 104.2-42.6 135.6h221.6s28.7-139.5-20.2-158.7" style="clip-path:url(#2fa413cd-08d8-4292-a548-95bc795549b5d);fill:#211f1f"></path><path d="M853.5 594.1s-11.3-28.7-6.4-33.7 61.1-32.2 52.9-74.6c-8.3-42.4-45.1-64.7-62.7-69.5-19-5.2-71.2.2-85.3 39.5-14.2 39.3-29.5-4-32.7 90.1-1.1 31.8 41.5 32.5 49.2 31 1.7 8.7 3.8 13.5 8.1 21" style="clip-path:url(#2fa413cd-08d8-4292-a548-95bc795549b5d);fill:none;stroke:#211f1f;stroke-width:3.3459;stroke-linecap:round;stroke-linejoin:round;stroke-miterlimit:10"></path><path d="M862.6 419.7s-68.4-36.3-63.1-2.6c6.7 42.3-4.3 54.9-4.3 54.9l-23.5 25.4-2.5 7.9s19.3-11.2 27-2.6c7.6 8.7-3.5 24.9-17.6 26.1 0 0 20.7 35.7 32.3 41 17.3 7.9 26.4 5.5 54.6-5 84.4-31.5 42.7-124-2.9-145.1M858.9 596.1c4 11.3-70 20.6-87.6 5.7-10.5-5.2-21.2 5.2-21.2 5.2s24.1 19.8 74.1 13.1c50-6.6 53.9-21.9 53.9-21.9s-11.1-7.1-19.2-2.1" style="clip-path:url(#2fa413cd-08d8-4292-a548-95bc795549b5d);fill:#211f1f"></path><path d="M694.4 630.8c19.8-2.1 30.6 36.9 39.2 65.1 22.8 74.9-35.3 156.1-46.7 167.5" style="clip-path:url(#2fa413cd-08d8-4292-a548-95bc795549b5d);fill:none;stroke:#211f1f;stroke-width:3.3459;stroke-linecap:round;stroke-linejoin:round;stroke-miterlimit:10"></path><path d="M914.2 680.4c-21.5 7.8-142.4 12.9-144.9 10.4s2.5 96.6 0 111.9c27.6 4.3 135.4-.9 153.4-7.7 2.6-58.7-8.5-114.6-8.5-114.6" style="clip-path:url(#2fa413cd-08d8-4292-a548-95bc795549b5d);fill:#211f1f"></path><path d="M950.1 759.5c1.6 51.8 0 100.2 0 100.2" style="clip-path:url(#2fa413cd-08d8-4292-a548-95bc795549b5d);fill:none;stroke:#211f1f;stroke-width:3.3459;stroke-linecap:round;stroke-linejoin:round;stroke-miterlimit:10"></path></svg>