<svg xmlns="http://www.w3.org/2000/svg" width="1801" height="1064" fill="none" viewBox="0 0 1801 1064"><g clip-path="url(#1d1201ea-20dd-4e41-a9f9-d4a21f5022eba)"><mask id="cd63235d-c6fa-4e41-8519-8dc1e213f501b" width="1801" height="1064" x="0" y="-10" maskUnits="userSpaceOnUse" style="mask-type:luminance"><path fill="#fff" d="M1800.24-9.383H.238V1053.29H1800.24z"></path></mask><g mask="url(#cd63235d-c6fa-4e41-8519-8dc1e213f501b)"><path fill="#FDF2E8" d="M1821.26-45.383H-22.762V1065.47H1821.26z"></path><path fill="bisque" d="m1772.83-114.313-162.71 272.22-.5.82.33 199.81 41.93-52.37 199.07-328.46v-89.3z"></path><path fill="bisque" d="m1609.62 158.727.33 199.81-122.41 152.78-68.53-81.54z"></path><path fill="bisque" d="m1419.01 429.777 68.53 81.54-68.15 78.36z"></path><path fill="bisque" d="m1419.01 429.777.38 159.9-93.3 107.29-54.67-26.11-40.3-19.44zM1303.34 686.257l22.75 10.71-95.98 55.81-.46-100.39.77-.48z"></path><path fill="bisque" d="m1229.65 652.387.46 100.39-70.35 40.9-117.48-24.74zM1159.76 793.677l-117.48 51.2v-75.94zM1042.28 768.937v75.94l-68.992 30.07-123.98-11.92zM849.308 863.027l120.15 12.87-120.15 29.56zM849.308 863.027v42.43l-58.78 14.46-127.77-4.69zM772.328 920.957l-109.66 6.23.09-11.96z"></path><path fill="bisque" d="m662.758 915.227-.09 11.96-48.49 2.75-76.92-5.5zM614.178 929.937l-144.57 7.05v-7.62l1.32-.05z"></path><path fill="bisque" d="m614.178 929.937-143.25-.62.12-.01 66.21-4.87zM469.608 929.367v7.62l-55.53 2.71-71.11-4.71zM414.078 939.697l-134.51 8.39.03-1.4z"></path><path fill="bisque" d="m414.078 939.697-134.48 6.99.11-8.89z"></path><path fill="bisque" d="m414.078 939.697-134.37-1.9 63.261-2.81z"></path><path fill="bisque" d="m279.708 937.797-.11 8.89-84.59 4.38h-71.69zM279.598 946.687l-.03 1.4-47.8 2.98h-36.76zM123.318 951.067h-36.3l1.61-.17z"></path><path fill="#000" d="M1270.04 1001.42c-.3.04-.61 0-.89-.14-.28-.13-.52-.34-.68-.6-.11-.27-.13-.58-.06-.873.07-.28.23-.54.46-.73l6.45-7.46a31 31 0 0 0 2.14-2.67c.46-.631.86-1.301 1.2-2 .25-.485.44-.999.56-1.53.09-.451.14-.91.14-1.37.01-.395-.07-.786-.22-1.151a2.8 2.8 0 0 0-.66-.969 3.3 3.3 0 0 0-1.13-.694c-.42-.153-.86-.22-1.31-.196a4.3 4.3 0 0 0-2.94.94 4.53 4.53 0 0 0-1.39 2.26c-.05.2-.14.386-.27.544-.13.157-.3.283-.49.366a1.76 1.76 0 0 1-1.09.1 1.64 1.64 0 0 1-.91-.59c-.12-.162-.2-.352-.23-.552s-.01-.406.05-.598a8 8 0 0 1 2.39-3.73 7.01 7.01 0 0 1 4.88-1.61c.84-.036 1.67.1 2.46.399.78.3 1.49.756 2.09 1.341.56.534 1 1.178 1.3 1.89s.45 1.478.44 2.25c0 .698-.07 1.395-.2 2.08a8.8 8.8 0 0 1-.75 2.11c-.41.816-.9 1.596-1.45 2.33-.61.84-1.37 1.79-2.28 2.86l-4.42 5.09h8.31a1.397 1.397 0 0 1 1.14.46c.26.27.4.63.4 1 0 .373-.14.733-.4 1.003-.14.16-.32.29-.51.37-.2.07-.41.11-.63.09zM1289.2 981.207a6.532 6.532 0 0 1 11.05 0c1.39 2 2.09 4.913 2.09 8.74.01 3.83-.69 6.75-2.1 8.77a6.6 6.6 0 0 1-2.37 2.183 6.58 6.58 0 0 1-6.25 0 6.65 6.65 0 0 1-2.38-2.183c-1.38-2-2.08-4.92-2.09-8.77-.03-3.8.68-6.71 2.05-8.74m1.38 13.22c.21.97.6 1.89 1.14 2.72.37.57.89 1.03 1.5 1.33.47.23.98.35 1.5.35s1.04-.12 1.5-.35c.62-.3 1.13-.76 1.5-1.33.54-.83.93-1.75 1.14-2.72.33-1.47.48-2.97.44-4.48.04-1.493-.11-2.984-.44-4.44a8.2 8.2 0 0 0-1.14-2.72 3.9 3.9 0 0 0-1.5-1.38c-.46-.249-.97-.38-1.5-.38-.52 0-1.04.131-1.5.38-.61.321-1.12.797-1.49 1.38a9 9 0 0 0-1.13 2.72c-.34 1.454-.5 2.946-.46 4.44-.04 1.51.11 3.01.44 4.48M1312.83 982.197l-4.55 2.72c-.17.119-.37.196-.57.226-.21.029-.42.01-.62-.056a1.6 1.6 0 0 1-.85-.66 1.54 1.54 0 0 1-.24-1c.03-.198.11-.386.24-.545.12-.159.28-.285.46-.365l6.82-4.08c.23-.178.5-.29.79-.324.28-.033.57.013.83.134.24.143.43.349.55.595s.17.522.14.795v20.16a1.243 1.243 0 0 1-.47 1.083c-.29.23-.66.35-1.03.35s-.73-.12-1.03-.35c-.16-.13-.28-.29-.37-.48-.08-.19-.11-.403-.1-.603zm6 16.34a1.397 1.397 0 0 1 1.14.46c.26.27.4.63.4 1 0 .373-.14.733-.4 1.003-.14.16-.32.29-.51.37-.2.07-.42.11-.63.09h-11a1.397 1.397 0 0 1-1.13-.46c-.25-.27-.4-.63-.4-1.003 0-.37.15-.73.4-1 .14-.16.32-.28.51-.36.2-.08.41-.11.62-.1zM1325.9 986.677a5.13 5.13 0 0 1-.59-2.49c-.04-.82.1-1.64.4-2.402s.77-1.452 1.36-2.018a6 6 0 0 1 4.25-1.61 1.36 1.36 0 0 1 1.13.46c.25.273.39.631.38 1 0 .369-.13.725-.38 1-.14.156-.32.277-.51.355-.2.078-.41.111-.62.095a3.18 3.18 0 0 0-2.14.78c-.31.306-.56.679-.71 1.09a3 3 0 0 0-.19 1.29c0 .4.07.798.22 1.167.16.37.38.705.67.983.29.291.64.521 1.02.674s.78.226 1.19.216c.21-.005.43.034.62.115.2.081.38.202.52.355.25.275.38.631.38 1a1.43 1.43 0 0 1-.9 1.358c-.19.082-.41.12-.62.112a4.76 4.76 0 0 0-3.24 1.22c-.43.37-.78.83-1.02 1.35s-.36 1.08-.35 1.65c-.03.61.07 1.23.3 1.79.24.57.59 1.08 1.04 1.5.96.82 2.2 1.25 3.46 1.2 1.15.02 2.27-.41 3.11-1.19.45-.42.8-.93 1.02-1.5.23-.57.33-1.19.29-1.8.01-.57-.11-1.13-.34-1.65s-.58-.98-1.01-1.35a4.8 4.8 0 0 0-3.26-1.19 1.504 1.504 0 0 1-1.14-.47 1.48 1.48 0 0 1-.38-1c0-.369.14-.725.38-1 .15-.153.33-.274.52-.355.2-.081.41-.12.62-.115.41.01.82-.063 1.2-.216s.72-.383 1.01-.674c.58-.61.91-1.421.91-2.265s-.33-1.655-.91-2.265a3.18 3.18 0 0 0-2.12-.78c-.21.016-.42-.017-.61-.095-.2-.078-.38-.199-.52-.355a1.53 1.53 0 0 1-.38-1 1.48 1.48 0 0 1 .89-1.363c.2-.08.41-.113.62-.097a6 6 0 0 1 4.24 1.61c.6.565 1.07 1.252 1.37 2.016.31.763.44 1.583.4 2.404.02.854-.18 1.697-.59 2.45-.38.696-.9 1.305-1.53 1.79a6.83 6.83 0 0 1 2.7 2.45 6.3 6.3 0 0 1 1 3.46c.04 1-.13 1.99-.51 2.92-.37.92-.94 1.75-1.67 2.44a7.5 7.5 0 0 1-5.25 2.003c-2.03.05-4.01-.67-5.55-2.003a6.8 6.8 0 0 1-1.73-2.44 6.8 6.8 0 0 1-.53-2.95c0-1.2.35-2.37 1-3.38a7.2 7.2 0 0 1 2.7-2.5 5.7 5.7 0 0 1-1.62-1.78M1136.61 1001.42c-.31.04-.62-.01-.89-.14-.28-.13-.52-.34-.68-.6-.11-.27-.13-.58-.06-.873.07-.28.23-.54.46-.73l6.45-7.46c.9-1 1.62-1.92 2.15-2.67q.675-.956 1.2-2c.25-.485.43-.999.55-1.53.1-.45.14-.91.14-1.37.01-.395-.07-.786-.22-1.151a2.9 2.9 0 0 0-.66-.969 3.25 3.25 0 0 0-1.13-.696 3.3 3.3 0 0 0-1.31-.194 4.3 4.3 0 0 0-2.94.94 4.45 4.45 0 0 0-1.38 2.26c-.05.199-.14.384-.28.541-.13.158-.29.284-.48.369-.34.146-.73.181-1.09.1a1.6 1.6 0 0 1-.92-.59c-.11-.16-.18-.344-.21-.537-.02-.193 0-.389.06-.573a7.9 7.9 0 0 1 2.38-3.73 7 7 0 0 1 4.88-1.61c.84-.036 1.67.099 2.46.399.78.299 1.49.755 2.09 1.341a5.64 5.64 0 0 1 1.74 4.14c0 .698-.07 1.395-.2 2.08a9.3 9.3 0 0 1-.74 2.11c-.42.816-.91 1.596-1.46 2.33-.61.84-1.37 1.79-2.27 2.86l-4.43 5.09h8.31c.21-.02.43.02.62.1.2.08.38.2.52.36.26.27.4.63.4 1.003 0 .37-.14.73-.4 1-.14.16-.32.29-.52.37-.19.07-.41.11-.62.09zM1155.78 981.207a6.515 6.515 0 0 1 5.5-3.019 6.52 6.52 0 0 1 5.5 3.019c1.39 2 2.08 4.913 2.09 8.74.01 3.83-.69 6.75-2.1 8.77-.6.91-1.41 1.663-2.38 2.183-.96.52-2.03.79-3.12.79s-2.16-.27-3.12-.79a6.65 6.65 0 0 1-2.38-2.183c-1.39-2-2.09-4.92-2.08-8.77.01-3.847.7-6.76 2.09-8.74m1.37 13.22c.22.97.6 1.89 1.14 2.72.37.57.89 1.03 1.5 1.33.47.22.98.34 1.5.35.52-.01 1.03-.13 1.5-.35.61-.3 1.13-.76 1.5-1.33.55-.83.93-1.75 1.14-2.72.33-1.47.48-2.97.44-4.48.04-1.493-.11-2.984-.44-4.44-.21-.968-.6-1.89-1.14-2.72a3.95 3.95 0 0 0-1.5-1.38 3.55 3.55 0 0 0-1.5-.38c-.52.017-1.03.146-1.5.38-.61.319-1.12.795-1.48 1.38a8.7 8.7 0 0 0-1.14 2.72c-.34 1.454-.5 2.946-.46 4.44-.03 1.51.12 3.01.44 4.48M1179.37 982.197l-4.55 2.72c-.17.119-.37.196-.57.226-.21.029-.42.01-.62-.056a1.64 1.64 0 0 1-.85-.66 1.54 1.54 0 0 1-.24-1c.03-.198.11-.385.24-.543a1.2 1.2 0 0 1 .46-.367l6.83-4.08a1.538 1.538 0 0 1 1.61-.19c.23.143.42.349.55.595.12.246.17.522.14.795v20.16a1.243 1.243 0 0 1-.47 1.083 1.69 1.69 0 0 1-2.06 0 1.24 1.24 0 0 1-.47-1.083zm6 16.34c.21-.01.42.02.62.1.19.08.37.2.51.36.26.27.4.63.4 1 0 .373-.14.733-.4 1.003q-.21.24-.51.36c-.2.08-.41.12-.62.1h-11c-.21.02-.43-.02-.62-.09-.2-.08-.38-.21-.52-.37-.26-.27-.4-.63-.4-1.003 0-.37.14-.73.4-1 .14-.16.32-.28.52-.36.19-.08.41-.12.62-.1zM1201.14 981.347h-8.88a1.4 1.4 0 0 1-.62-.097 1.475 1.475 0 0 1-.89-1.363c0-.369.13-.726.38-1 .14-.157.32-.28.51-.36.2-.079.41-.114.62-.1h11.11c.25-.021.51.023.74.126.24.103.44.262.6.464.14.204.22.445.23.693s-.05.493-.18.707l-8.63 20.073c-.07.19-.18.37-.32.51-.15.15-.33.25-.53.31-.35.12-.74.12-1.09 0-.34-.14-.63-.39-.81-.71a1.3 1.3 0 0 1 0-1.173zM1008.56 1001.42c-.3.04-.61 0-.89-.13-.28-.14-.51-.35-.67-.61a1.422 1.422 0 0 1 .39-1.603l6.45-7.46c.76-.85 1.48-1.742 2.15-2.67.46-.631.86-1.301 1.2-2 .25-.485.44-.999.56-1.53.09-.451.14-.91.14-1.37 0-.395-.07-.787-.23-1.152a2.9 2.9 0 0 0-.66-.968 3.3 3.3 0 0 0-1.12-.694c-.42-.153-.87-.22-1.31-.196a4.26 4.26 0 0 0-2.94.94 4.44 4.44 0 0 0-1.39 2.26c-.05.2-.14.386-.27.544-.14.157-.3.283-.49.366a1.78 1.78 0 0 1-1.09.1 1.63 1.63 0 0 1-.92-.59c-.12-.163-.2-.353-.23-.554-.03-.2-.01-.405.06-.596a7.8 7.8 0 0 1 2.39-3.73 7 7 0 0 1 4.88-1.61c.84-.035 1.67.102 2.45.401.79.299 1.5.755 2.1 1.339.56.534 1 1.178 1.3 1.89s.45 1.478.44 2.25c0 .699-.07 1.396-.21 2.08-.15.733-.4 1.443-.74 2.11-.42.816-.9 1.596-1.45 2.33a53 53 0 0 1-2.28 2.86l-4.42 5.09h8.31c.21-.01.42.02.62.1.19.08.37.2.51.36.26.27.4.63.4 1 0 .373-.14.733-.4 1.003q-.21.24-.51.36c-.2.08-.41.12-.62.1zM1027.73 981.207a6.523 6.523 0 0 1 8.68-2.236 6.5 6.5 0 0 1 2.37 2.236c1.39 2 2.08 4.913 2.08 8.74 0 3.83-.7 6.75-2.1 8.77a6.591 6.591 0 0 1-5.5 2.983 6.59 6.59 0 0 1-5.5-2.983c-1.39-2-2.09-4.92-2.09-8.77 0-3.847.69-6.76 2.06-8.74m1.38 13.22c.21.97.59 1.89 1.13 2.72.32.51.77.92 1.29 1.22.52.29 1.11.45 1.71.46.52-.01 1.03-.13 1.5-.35.61-.3 1.13-.76 1.5-1.33.54-.83.92-1.75 1.14-2.72.32-1.47.47-2.97.44-4.48.03-1.479-.12-2.957-.45-4.4a8.7 8.7 0 0 0-1.14-2.72 3.95 3.95 0 0 0-1.5-1.38 3.6 3.6 0 0 0-1.5-.38c-.52.015-1.03.144-1.5.38-.61.318-1.13.795-1.49 1.38a9 9 0 0 0-1.14 2.72 18 18 0 0 0-.46 4.44c-.03 1.49.13 2.98.47 4.44M1051.37 982.197l-4.56 2.72q-.255.18-.57.226c-.2.029-.41.01-.61-.056a1.6 1.6 0 0 1-.85-.66 1.54 1.54 0 0 1-.24-1c.03-.198.11-.386.23-.545s.28-.285.46-.365l6.83-4.08a1.538 1.538 0 0 1 1.61-.19c.24.139.43.345.56.591.12.247.17.524.14.799v20.16c.02.213-.02.413-.1.603-.09.19-.22.35-.38.48-.29.22-.64.34-1 .35-.36-.01-.71-.13-1-.35a1.24 1.24 0 0 1-.47-1.083zm6 16.34c.21-.02.43.02.62.1.2.08.38.2.52.36.26.27.4.63.4 1 0 .373-.14.733-.4 1.003-.14.16-.32.29-.52.37-.19.07-.41.11-.62.09h-11c-.21.02-.43-.02-.62-.1-.2-.08-.38-.2-.52-.36-.26-.27-.4-.63-.4-1.003 0-.37.14-.73.4-1 .14-.16.32-.28.52-.36s.41-.11.62-.1zM1066.57 988.257a6.17 6.17 0 0 1 4.32-1.6c.87 0 1.74.146 2.56.43.83.279 1.6.725 2.26 1.31a6.64 6.64 0 0 1 1.61 2.27c.43 1.05.64 2.18.61 3.32.08 2.03-.64 4.02-2 5.53a6.75 6.75 0 0 1-2.43 1.673c-.92.38-1.92.55-2.91.51-2 .01-3.93-.73-5.4-2.083q-2.37-2.085-2.37-6.39c-.06-3.232.75-6.422 2.33-9.24a13 13 0 0 1 6.74-5.74 1.35 1.35 0 0 1 1.21 0c.33.167.58.444.73.783.14.338.16.716.05 1.067-.07.195-.18.372-.33.513s-.33.243-.53.297a10.2 10.2 0 0 0-3.33 2.11c-.91.869-1.66 1.883-2.23 3-.57 1.129-.99 2.33-1.25 3.57s-.39 2.5-.39 3.76c0 2 .56 3.47 1.55 4.27.9.77 2.04 1.19 3.22 1.2.58.01 1.15-.09 1.68-.3.54-.22 1.02-.54 1.43-.95.44-.48.78-1.05.99-1.67.22-.61.31-1.27.26-1.92 0-1.68-.43-2.85-1.28-3.49a4.68 4.68 0 0 0-2.89-1 5.45 5.45 0 0 0-3.08 1c-.98.67-1.66 1.7-1.88 2.86 0 .11-.11.24-.32.41-.19.16-.42.28-.66.35-.1.03-.2.04-.3.02-.1-.03-.2-.08-.27-.15-.15-.15-.17-.48-.06-1a8.4 8.4 0 0 1 2.36-4.72M815.918 1001.42c-.304.04-.613 0-.891-.13a1.65 1.65 0 0 1-.669-.61 1.4 1.4 0 0 1-.063-.863c.07-.29.228-.55.453-.74l6.451-7.46q1.156-1.276 2.169-2.67c.456-.631.857-1.301 1.2-2 .251-.483.436-.998.55-1.53q.15-.677.151-1.37a2.9 2.9 0 0 0-.891-2.12 3.29 3.29 0 0 0-2.429-.89 4.25 4.25 0 0 0-2.94.94 4.44 4.44 0 0 0-1.391 2.26 1.33 1.33 0 0 1-.76.91 1.78 1.78 0 0 1-1.089.1 1.64 1.64 0 0 1-.921-.59 1.2 1.2 0 0 1-.229-.554c-.03-.2-.01-.405.059-.596a7.84 7.84 0 0 1 2.39-3.73 7 7 0 0 1 4.881-1.61 6.15 6.15 0 0 1 4.549 1.74 5.64 5.64 0 0 1 1.74 4.14 10.2 10.2 0 0 1-.21 2.08 8.7 8.7 0 0 1-.74 2.11 16 16 0 0 1-1.45 2.33 53 53 0 0 1-2.28 2.86l-4.419 5.09h8.31c.212-.01.424.02.621.1s.374.2.518.36c.25.27.389.63.389 1 0 .373-.139.733-.389 1.003a1.4 1.4 0 0 1-.517.36c-.197.08-.41.12-.622.1zM835.089 981.207a6.532 6.532 0 0 1 11 0q2.09 3 2.08 8.74c-.007 3.83-.707 6.75-2.1 8.77a6.6 6.6 0 0 1-5.5 2.983 6.604 6.604 0 0 1-5.5-2.983c-1.393-2-2.09-4.92-2.09-8.77q0-5.77 2.11-8.74m1.38 13.22c.209.97.592 1.89 1.13 2.72.373.57.89 1.03 1.5 1.33a3.4 3.4 0 0 0 3 0c.609-.3 1.127-.76 1.5-1.33.538-.83.924-1.75 1.14-2.72.325-1.47.473-2.97.44-4.48a18.5 18.5 0 0 0-.44-4.44 8.6 8.6 0 0 0-1.14-2.72 4.1 4.1 0 0 0-1.5-1.38 3.17 3.17 0 0 0-3 0 3.9 3.9 0 0 0-1.48 1.38 9 9 0 0 0-1.14 2.72 18 18 0 0 0-.46 4.44c-.035 1.51.116 3.01.45 4.48M858.708 982.197l-4.55 2.72a1.33 1.33 0 0 1-1.18.17 1.6 1.6 0 0 1-.85-.66 1.47 1.47 0 0 1-.24-1 1.176 1.176 0 0 1 .69-.91l6.83-4.08a1.55 1.55 0 0 1 1.61-.19 1.433 1.433 0 0 1 .7 1.39v20.16a1.24 1.24 0 0 1-.48 1.083c-.288.22-.638.34-1 .35a1.72 1.72 0 0 1-1-.35 1.237 1.237 0 0 1-.48-1.083zm6 16.34c.212-.01.425.02.622.1.198.08.374.2.518.36a1.454 1.454 0 0 1 0 2.003c-.142.16-.319.28-.516.36-.198.08-.411.12-.624.1h-11c-.213.02-.426-.02-.624-.1-.197-.08-.374-.2-.516-.36a1.456 1.456 0 0 1 0-2.003c.143-.16.32-.28.518-.36.197-.08.41-.11.622-.1zM873.988 997.987c.743.56 1.651.85 2.58.84a4.5 4.5 0 0 0 3.64-1.43c.822-1 1.249-2.27 1.2-3.57a4.88 4.88 0 0 0-1.17-3.46 5.25 5.25 0 0 0-4-1.25c-.36 0-.75 0-1.17.07a10 10 0 0 0-1.33.22 1.45 1.45 0 0 1-1.36-.27 1.4 1.4 0 0 1-.47-1.28l.85-8.09c.052-.355.238-.677.52-.9.274-.25.629-.392 1-.4h7.52a1.36 1.36 0 0 1 1.1.46c.247.274.382.631.38 1a1.46 1.46 0 0 1-.38 1 1.33 1.33 0 0 1-1.1.46h-6.16l-.51 5h1.11c2.71 0 4.75.7 6.1 2.12a7.62 7.62 0 0 1 2 5.46c.003 1-.159 1.99-.48 2.93-.31.93-.803 1.78-1.45 2.51a7.1 7.1 0 0 1-2.45 1.773 8.4 8.4 0 0 1-3.46.66 7.4 7.4 0 0 1-4.232-1.27 7.46 7.46 0 0 1-2.768-3.443 1.27 1.27 0 0 1 .11-1.17c.204-.3.503-.53.85-.64.353-.12.736-.12 1.09 0 .198.07.376.19.519.34.143.16.246.35.301.55.358.74.92 1.35 1.62 1.78M629.148 1001.42c-.304.04-.614 0-.892-.13-.277-.14-.51-.35-.668-.61a1.4 1.4 0 0 1-.072-.873c.07-.28.232-.54.462-.73l6.45-7.46c.9-1 1.62-1.92 2.15-2.67q.674-.956 1.2-2a6.5 6.5 0 0 0 .55-1.53c.097-.45.143-.91.14-1.37a2.9 2.9 0 0 0-.88-2.12 3.3 3.3 0 0 0-2.44-.89 4.24 4.24 0 0 0-2.93.94 4.43 4.43 0 0 0-1.39 2.26 1.37 1.37 0 0 1-.76.91 1.8 1.8 0 0 1-1.09.1 1.6 1.6 0 0 1-.92-.59 1.2 1.2 0 0 1-.229-.554c-.03-.2-.01-.405.059-.596a7.9 7.9 0 0 1 2.38-3.73 7 7 0 0 1 4.88-1.61 6.18 6.18 0 0 1 4.56 1.74 5.67 5.67 0 0 1 1.73 4.14c.005.698-.062 1.395-.2 2.08a9.2 9.2 0 0 1-.74 2.11 16.4 16.4 0 0 1-1.46 2.33c-.61.84-1.37 1.79-2.27 2.86l-4.4 5.12h8.31c.212-.02.426.02.623.1.198.08.375.2.517.36a1.456 1.456 0 0 1 0 2.003c-.141.16-.318.29-.516.37-.197.07-.411.11-.624.09zM648.368 981.207a6.52 6.52 0 0 1 8.637-2.214 6.5 6.5 0 0 1 2.363 2.214q2.09 3 2.09 8.74c0 3.83-.7 6.75-2.1 8.77a6.6 6.6 0 0 1-2.375 2.183c-.96.52-2.034.79-3.125.79a6.56 6.56 0 0 1-3.125-.79 6.6 6.6 0 0 1-2.375-2.183c-1.393-2-2.087-4.92-2.08-8.77q.01-5.77 2.09-8.74m1.37 13.22c.216.97.602 1.89 1.14 2.72.368.57.887 1.03 1.5 1.33.471.22.982.34 1.5.35a3.7 3.7 0 0 0 1.5-.35c.613-.3 1.132-.76 1.5-1.33.545-.83.932-1.75 1.14-2.72.334-1.47.485-2.97.45-4.48a18 18 0 0 0-.45-4.44 8.2 8.2 0 0 0-1.14-2.72 3.9 3.9 0 0 0-1.5-1.38 3.5 3.5 0 0 0-1.5-.38 3.6 3.6 0 0 0-1.5.38 3.8 3.8 0 0 0-1.48 1.38 8.6 8.6 0 0 0-1.14 2.72 17.4 17.4 0 0 0-.46 4.44c-.049 1.5.082 3.01.39 4.48zM671.938 982.197l-4.57 2.72a1.33 1.33 0 0 1-1.18.17 1.64 1.64 0 0 1-.86-.66 1.47 1.47 0 0 1-.23-1 1.176 1.176 0 0 1 .69-.91l6.83-4.08a1.54 1.54 0 0 1 1.61-.19 1.456 1.456 0 0 1 .69 1.39v20.16c.018.2-.015.413-.097.603a1.25 1.25 0 0 1-.373.48c-.289.22-.638.34-1 .35a1.72 1.72 0 0 1-1-.35 1.237 1.237 0 0 1-.48-1.083zm6 16.34c.211-.01.422.02.618.1.195.08.371.2.512.36a1.454 1.454 0 0 1 0 2.003c-.14.16-.315.28-.511.36s-.408.12-.619.1h-11c-.213.02-.427-.02-.625-.09a1.4 1.4 0 0 1-.515-.37 1.456 1.456 0 0 1 0-2.003c.142-.16.319-.28.517-.36.197-.08.41-.12.623-.1zM692.518 982.737l-5.84 9.64h10.49c.207-.01.415.02.608.1a1.432 1.432 0 0 1 .912 1.34c-.002.19-.044.39-.123.56-.078.18-.192.34-.334.47-.142.14-.309.24-.492.31-.183.06-.377.09-.571.08h-13c-.278.03-.561-.01-.818-.12a1.5 1.5 0 0 1-.642-.52 1.43 1.43 0 0 1 .19-1.54l8.44-13.62a3 3 0 0 1 1-1 2.4 2.4 0 0 1 1.14-.27h.38a1.86 1.86 0 0 1 1.3.44 1.63 1.63 0 0 1 .47 1.23v20.393q.02.315-.103.6c-.082.19-.208.36-.367.49-.3.23-.67.36-1.05.36a1.66 1.66 0 0 1-1-.36 1.28 1.28 0 0 1-.47-1.09zM442.368 1001.42c-.305.04-.616-.01-.895-.14a1.6 1.6 0 0 1-.675-.6 1.42 1.42 0 0 1-.061-.873c.072-.28.233-.54.461-.73l6.45-7.46c.9-1 1.62-1.92 2.15-2.67q.674-.956 1.2-2c.463-.896.7-1.892.69-2.9a2.88 2.88 0 0 0-.88-2.12 3.32 3.32 0 0 0-2.44-.89 4.3 4.3 0 0 0-2.94.94 4.5 4.5 0 0 0-1.39 2.26 1.32 1.32 0 0 1-.76.91 1.77 1.77 0 0 1-1.09.1 1.62 1.62 0 0 1-.91-.59 1.25 1.25 0 0 1-.18-1.15 7.9 7.9 0 0 1 2.39-3.73 7 7 0 0 1 4.88-1.61 6.14 6.14 0 0 1 4.55 1.74 5.64 5.64 0 0 1 1.74 4.14 11 11 0 0 1-.2 2.08 8.8 8.8 0 0 1-.75 2.11 15.4 15.4 0 0 1-1.45 2.33c-.61.84-1.37 1.79-2.28 2.86l-4.41 5.12h8.31c.212-.02.426.02.623.1.198.08.374.2.517.36a1.456 1.456 0 0 1 0 2.003c-.141.16-.318.29-.516.37-.197.07-.411.11-.624.09zM461.548 981.207a6.52 6.52 0 0 1 8.637-2.214 6.5 6.5 0 0 1 2.363 2.214q2.08 3 2.09 8.74c.007 3.83-.693 6.75-2.1 8.77a6.6 6.6 0 0 1-2.375 2.183c-.96.52-2.034.79-3.125.79a6.56 6.56 0 0 1-3.125-.79 6.6 6.6 0 0 1-2.375-2.183c-1.387-2-2.08-4.92-2.08-8.77q0-5.77 2.09-8.74m1.37 13.22c.212.97.599 1.89 1.141 2.72.368.57.887 1.03 1.5 1.33a3.4 3.4 0 0 0 3 0c.613-.3 1.132-.76 1.5-1.33.545-.83.931-1.75 1.139-2.72.33-1.47.478-2.97.44-4.48a18 18 0 0 0-.44-4.44 8.2 8.2 0 0 0-1.139-2.72 3.9 3.9 0 0 0-1.5-1.38 3.16 3.16 0 0 0-3 0 3.9 3.9 0 0 0-1.491 1.38 8.8 8.8 0 0 0-1.129 2.72 17.4 17.4 0 0 0-.461 4.44 18.8 18.8 0 0 0 .44 4.48M485.168 982.197l-4.55 2.72a1.34 1.34 0 0 1-1.19.17 1.6 1.6 0 0 1-.85-.66 1.53 1.53 0 0 1-.24-1 1.2 1.2 0 0 1 .7-.91l6.82-4.08a1.56 1.56 0 0 1 1.62-.19 1.456 1.456 0 0 1 .69 1.39v20.16a1.26 1.26 0 0 1-.47 1.083 1.67 1.67 0 0 1-1.03.35 1.67 1.67 0 0 1-1.03-.35 1.26 1.26 0 0 1-.47-1.083zm6 16.34c.212-.02.426.02.623.1.198.08.374.2.517.36a1.454 1.454 0 0 1 0 2.003c-.141.16-.318.29-.516.37-.197.07-.411.11-.624.09h-11c-.211.02-.423-.02-.619-.1s-.371-.2-.511-.36a1.456 1.456 0 0 1 0-2.003c.141-.16.317-.28.512-.36.196-.08.407-.11.618-.1zM500.558 998.017a5.4 5.4 0 0 0 3.1.81 4.9 4.9 0 0 0 3.47-1.19 4.13 4.13 0 0 0 1.27-3.17 3.7 3.7 0 0 0-.366-1.63 3.7 3.7 0 0 0-1.044-1.31 6.35 6.35 0 0 0-4.22-1.2 1.68 1.68 0 0 1-.95-.51 1 1 0 0 1-.25-.81 1.16 1.16 0 0 1 .52-.75 2.35 2.35 0 0 1 1.41-.34c.889.01 1.774.117 2.64.32a7.9 7.9 0 0 1 2.57 1.07 6.06 6.06 0 0 1 1.93 2c.537.95.8 2.04.76 3.13a6.9 6.9 0 0 1-.51 2.85c-.371.9-.93 1.71-1.64 2.38a7.86 7.86 0 0 1-5.59 2.003 8.76 8.76 0 0 1-4.71-1.23 7.03 7.03 0 0 1-2.85-3.253 1.31 1.31 0 0 1 0-1.17c.183-.32.473-.57.82-.7.353-.12.737-.12 1.09 0 .198.06.379.16.528.31.15.14.263.32.332.51.357.78.947 1.44 1.69 1.88m-.76-18.74a7 7 0 0 1 4-1.12c1.551-.02 3.06.5 4.27 1.47a5.23 5.23 0 0 1 1.87 4.37 5.4 5.4 0 0 1-.45 2.17 5.1 5.1 0 0 1-1.34 1.83 8.5 8.5 0 0 1-2.23 1.41 13.5 13.5 0 0 1-3.13.92h-.34a1.36 1.36 0 0 1-1.11-.46 1.55 1.55 0 0 1-.38-1c0-.369.136-.724.38-1a1.335 1.335 0 0 1 1.11-.46h.34a4.55 4.55 0 0 0 2.89-1 3 3 0 0 0 1.25-2.47 2.73 2.73 0 0 0-.88-2.24 3.46 3.46 0 0 0-2.25-.73 4.13 4.13 0 0 0-2.35.65c-.55.328-.994.807-1.28 1.38a1.34 1.34 0 0 1-.9.77c-.362.1-.747.072-1.09-.08a1.56 1.56 0 0 1-.78-.74 1.3 1.3 0 0 1-.121-.601 1.3 1.3 0 0 1 .171-.589 6.65 6.65 0 0 1 2.35-2.48M255.598 1001.42c-.304.04-.614 0-.892-.13-.277-.14-.51-.35-.668-.61a1.41 1.41 0 0 1 .39-1.603l6.45-7.46a32 32 0 0 0 2.15-2.67c.456-.631.857-1.301 1.2-2 .251-.483.436-.998.55-1.53q.15-.677.15-1.37a2.9 2.9 0 0 0-.89-2.12 3.29 3.29 0 0 0-2.43-.89 4.25 4.25 0 0 0-2.94.94 4.43 4.43 0 0 0-1.39 2.26 1.33 1.33 0 0 1-.76.91 1.78 1.78 0 0 1-1.09.1 1.64 1.64 0 0 1-.92-.59 1.236 1.236 0 0 1-.14-1.11 7.9 7.9 0 0 1 2.39-3.73 7 7 0 0 1 4.88-1.61 6.15 6.15 0 0 1 4.55 1.74 5.65 5.65 0 0 1 1.74 4.14 10.2 10.2 0 0 1-.21 2.08 8.4 8.4 0 0 1-.74 2.11 16 16 0 0 1-1.45 2.33 53 53 0 0 1-2.28 2.86l-4.42 5.09h8.31c.212-.01.425.02.622.1s.374.2.518.36c.25.27.389.63.389 1.003 0 .37-.139.73-.389 1-.142.16-.319.28-.517.36-.197.08-.411.12-.623.1zM274.768 981.207a6.5 6.5 0 0 1 2.37-2.236 6.52 6.52 0 0 1 6.31 0 6.5 6.5 0 0 1 2.37 2.236q2.08 3 2.08 8.74c0 3.83-.7 6.75-2.1 8.77a6.6 6.6 0 0 1-5.5 2.983 6.607 6.607 0 0 1-5.5-2.983c-1.393-2-2.09-4.92-2.09-8.77q0-5.77 2.06-8.74m1.38 13.22c.209.97.593 1.89 1.131 2.72.323.51.766.92 1.289 1.22.523.29 1.111.45 1.711.46a3.7 3.7 0 0 0 1.5-.35 3.77 3.77 0 0 0 1.5-1.33c.538-.83.923-1.75 1.139-2.72.325-1.47.473-2.97.44-4.48a18.5 18.5 0 0 0-.44-4.44 8.6 8.6 0 0 0-1.139-2.72 4 4 0 0 0-1.5-1.38 3.6 3.6 0 0 0-1.5-.38 3.5 3.5 0 0 0-1.5.38 3.84 3.84 0 0 0-1.491 1.38 9 9 0 0 0-1.14 2.72 18 18 0 0 0-.459 4.44c-.032 1.51.122 3.01.459 4.48M298.369 982.197l-4.551 2.72a1.32 1.32 0 0 1-1.179.17 1.6 1.6 0 0 1-.851-.66 1.47 1.47 0 0 1-.239-1 1.176 1.176 0 0 1 .69-.91l6.829-4.08a1.55 1.55 0 0 1 1.611-.19 1.433 1.433 0 0 1 .7 1.39v20.16q.023.319-.104.603-.128.285-.376.48c-.288.22-.638.34-1 .35a1.72 1.72 0 0 1-1-.35 1.237 1.237 0 0 1-.481-1.083zm6 16.34c.212-.02.425.02.622.1.198.08.374.2.517.36a1.455 1.455 0 0 1 0 2.003c-.141.16-.317.29-.515.37-.197.07-.411.11-.624.09h-11c-.213.02-.426-.02-.624-.1a1.4 1.4 0 0 1-.517-.36 1.455 1.455 0 0 1 0-2.003c.144-.16.323-.28.52-.35.197-.08.409-.11.621-.1zM310.588 1001.42c-.304.04-.614 0-.892-.13-.277-.14-.51-.35-.668-.61a1.41 1.41 0 0 1 .39-1.603l6.45-7.46a32 32 0 0 0 2.15-2.67c.456-.631.857-1.301 1.2-2 .251-.483.436-.998.55-1.53q.15-.677.15-1.37a2.9 2.9 0 0 0-.89-2.12 3.29 3.29 0 0 0-2.43-.89 4.25 4.25 0 0 0-2.94.94 4.43 4.43 0 0 0-1.39 2.26 1.33 1.33 0 0 1-.76.91 1.78 1.78 0 0 1-1.09.1 1.64 1.64 0 0 1-.92-.59 1.2 1.2 0 0 1-.198-.539 1.2 1.2 0 0 1 .068-.571 7.9 7.9 0 0 1 2.39-3.73 7 7 0 0 1 4.88-1.61 6.15 6.15 0 0 1 4.55 1.74 5.65 5.65 0 0 1 1.74 4.14 10.2 10.2 0 0 1-.21 2.08 8.4 8.4 0 0 1-.74 2.11 16 16 0 0 1-1.45 2.33 53 53 0 0 1-2.28 2.86l-4.42 5.09h8.31c.212-.01.425.02.622.1s.374.2.518.36a1.456 1.456 0 0 1 0 2.003 1.4 1.4 0 0 1-.517.36c-.197.08-.411.12-.623.1zM68.828 1001.42c-.304.04-.614 0-.892-.13-.277-.14-.51-.35-.668-.61a1.391 1.391 0 0 1 .39-1.603l6.45-7.46c.9-1 1.62-1.92 2.15-2.67q.674-.956 1.2-2c.247-.485.432-.999.55-1.53.097-.45.144-.91.14-1.37a2.9 2.9 0 0 0-.88-2.12 3.3 3.3 0 0 0-2.43-.89 4.25 4.25 0 0 0-2.94.94 4.43 4.43 0 0 0-1.39 2.26 1.34 1.34 0 0 1-.76.91 1.78 1.78 0 0 1-1.09.1 1.6 1.6 0 0 1-.92-.59 1.23 1.23 0 0 1-.17-1.11 7.9 7.9 0 0 1 2.38-3.73 7 7 0 0 1 4.89-1.61 6.16 6.16 0 0 1 4.53 1.72 5.63 5.63 0 0 1 1.73 4.14c.005.698-.062 1.395-.2 2.08a9.2 9.2 0 0 1-.74 2.11 16.4 16.4 0 0 1-1.46 2.33c-.61.84-1.37 1.79-2.27 2.86l-4.41 5.1h8.35c.213-.02.426.02.623.1.198.08.375.2.517.36a1.457 1.457 0 0 1 0 2.003c-.141.16-.317.29-.515.37-.198.07-.412.11-.625.09zM87.998 981.207a6.52 6.52 0 0 1 5.5-3.019 6.52 6.52 0 0 1 5.5 3.019q2.08 3 2.09 8.74c.007 3.83-.693 6.75-2.1 8.77a6.6 6.6 0 0 1-2.375 2.183c-.96.52-2.034.79-3.125.79a6.56 6.56 0 0 1-3.125-.79 6.6 6.6 0 0 1-2.375-2.183c-1.386-2-2.08-4.92-2.08-8.77q0-5.77 2.09-8.74m1.37 13.22c.217.97.603 1.89 1.14 2.72a3.74 3.74 0 0 0 1.5 1.33c.472.22.982.34 1.5.35a3.66 3.66 0 0 0 1.711-.46c.523-.3.966-.71 1.29-1.22.537-.83.92-1.75 1.13-2.72.333-1.47.484-2.97.45-4.48a18 18 0 0 0-.45-4.44 8.4 8.4 0 0 0-1.13-2.72 4 4 0 0 0-1.51-1.38 3.5 3.5 0 0 0-1.5-.38 3.6 3.6 0 0 0-1.5.38 3.8 3.8 0 0 0-1.48 1.38 8.6 8.6 0 0 0-1.15 2.76 17.4 17.4 0 0 0-.46 4.44c-.024 1.49.13 2.98.46 4.44M111.618 982.197l-4.55 2.72a1.33 1.33 0 0 1-1.18.17 1.64 1.64 0 0 1-.86-.66 1.47 1.47 0 0 1-.23-1 1.176 1.176 0 0 1 .69-.91l6.83-4.08a1.55 1.55 0 0 1 1.61-.19 1.456 1.456 0 0 1 .69 1.39v20.16c.018.2-.015.413-.097.603a1.25 1.25 0 0 1-.373.48c-.289.22-.638.34-1 .35a1.72 1.72 0 0 1-1-.35 1.237 1.237 0 0 1-.48-1.083zm6 16.34c.211-.01.422.02.618.1.195.08.371.2.512.36a1.454 1.454 0 0 1 0 2.003c-.14.16-.315.28-.511.36s-.408.12-.619.1h-11c-.213.02-.427-.02-.625-.09a1.4 1.4 0 0 1-.515-.37 1.456 1.456 0 0 1 0-2.003c.142-.16.319-.28.517-.36.197-.08.41-.12.623-.1zM129.948 982.197l-4.58 2.72a1.33 1.33 0 0 1-1.18.17 1.64 1.64 0 0 1-.86-.66 1.47 1.47 0 0 1-.23-1 1.176 1.176 0 0 1 .69-.91l6.83-4.08a1.55 1.55 0 0 1 1.61-.19 1.456 1.456 0 0 1 .69 1.39v20.16c.018.2-.015.413-.097.603a1.25 1.25 0 0 1-.373.48c-.289.22-.638.34-1 .35a1.72 1.72 0 0 1-1-.35 1.237 1.237 0 0 1-.48-1.083zm6 16.34c.211-.01.422.02.618.1.195.08.371.2.512.36a1.454 1.454 0 0 1 0 2.003c-.14.16-.315.28-.511.36s-.408.12-.619.1h-11c-.213.02-.427-.02-.625-.09a1.4 1.4 0 0 1-.515-.37 1.456 1.456 0 0 1 0-2.003c.142-.16.319-.28.517-.36.197-.08.41-.12.623-.1zM1418.04 1001.22c-.31.04-.62 0-.9-.14-.28-.13-.51-.34-.66-.61-.12-.27-.14-.573-.07-.863s.23-.54.46-.73l6.45-7.46c.9-1 1.62-1.92 2.15-2.67q.675-.953 1.2-2c.24-.486.42-1 .55-1.53.09-.45.14-.91.14-1.37 0-.395-.07-.787-.22-1.151a3.1 3.1 0 0 0-.66-.969 3.4 3.4 0 0 0-1.13-.694 3.3 3.3 0 0 0-1.3-.196 4.2 4.2 0 0 0-2.94.94 4.42 4.42 0 0 0-1.39 2.25 1.396 1.396 0 0 1-.76.92c-.35.147-.73.182-1.09.1-.37-.083-.7-.292-.92-.59-.13-.163-.2-.353-.23-.554-.03-.2-.01-.405.06-.596a7.74 7.74 0 0 1 2.38-3.73 6.98 6.98 0 0 1 4.89-1.61 6.2 6.2 0 0 1 4.55 1.73c.55.537.99 1.182 1.29 1.896.3.713.45 1.481.44 2.254 0 .698-.07 1.395-.2 2.08a9.2 9.2 0 0 1-.74 2.1c-.42.821-.91 1.604-1.46 2.34-.61.83-1.37 1.79-2.27 2.86l-4.43 5.09h8.31c.21-.02.42.02.62.09.2.08.37.21.52.37.24.27.38.63.38 1 0 .373-.14.733-.38 1.003a1.43 1.43 0 0 1-1.14.46zM1437.24 981.007a6.515 6.515 0 0 1 8.63-2.214 6.55 6.55 0 0 1 2.37 2.214c1.4 2 2.09 4.94 2.09 8.73s-.7 6.78-2.1 8.77a6.65 6.65 0 0 1-2.38 2.183c-.96.52-2.03.8-3.12.8-1.1 0-2.17-.28-3.13-.8a6.54 6.54 0 0 1-2.37-2.183c-1.4-2-2.09-4.92-2.08-8.77 0-3.847.7-6.757 2.09-8.73m1.37 13.22c.21.97.6 1.89 1.14 2.72.37.57.88 1.03 1.5 1.33.47.21.98.33 1.5.34.6-.01 1.18-.16 1.71-.45.52-.3.96-.71 1.29-1.22.53-.83.92-1.75 1.13-2.72.33-1.47.48-2.98.45-4.49.03-1.493-.12-2.984-.45-4.44-.22-.963-.6-1.88-1.13-2.71a4.03 4.03 0 0 0-1.51-1.38 3.6 3.6 0 0 0-1.5-.38 3.55 3.55 0 0 0-1.5.38c-.61.319-1.12.795-1.48 1.38a8.4 8.4 0 0 0-1.14 2.71c-.35 1.454-.5 2.946-.46 4.44-.04 1.51.1 3.02.42 4.49zM1460.83 981.997l-4.55 2.72a1.315 1.315 0 0 1-1.18.17c-.36-.12-.66-.352-.86-.66a1.42 1.42 0 0 1-.23-1 1.14 1.14 0 0 1 .69-.91l6.83-4.08c.22-.178.49-.29.77-.324.29-.034.58.013.84.134.23.142.42.348.54.594.13.246.18.523.15.796v20.11c.01.2-.02.41-.1.603-.08.19-.21.35-.37.48-.29.22-.64.33-1 .34-.37 0-.72-.12-1-.34-.17-.13-.3-.29-.38-.48a1.25 1.25 0 0 1-.1-.603zm6 16.34a1.433 1.433 0 0 1 1.14.46c.24.28.37.63.37 1 0 .373-.13.723-.37 1.003a1.43 1.43 0 0 1-1.14.46h-11a1.397 1.397 0 0 1-1.14-.46c-.25-.28-.38-.63-.38-1.003 0-.37.13-.72.38-1 .14-.16.31-.29.51-.37.2-.07.41-.11.63-.09zM1483.63 991.397c-.57.54-1.24.96-1.97 1.23s-1.5.4-2.28.37c-.9 0-1.79-.14-2.64-.43-.84-.27-1.62-.72-2.27-1.31a6.3 6.3 0 0 1-1.6-2.27 8.1 8.1 0 0 1-.6-3.29 7.87 7.87 0 0 1 2-5.55 6.85 6.85 0 0 1 2.44-1.683 7 7 0 0 1 2.93-.507 7.96 7.96 0 0 1 5.39 2.07c1.57 1.38 2.35 3.5 2.35 6.36.06 3.241-.74 6.44-2.34 9.26a13.03 13.03 0 0 1-6.73 5.723 1.357 1.357 0 0 1-1.2 0 1.54 1.54 0 0 1-.76-.77c-.15-.34-.17-.713-.05-1.063.07-.2.19-.38.35-.52s.35-.24.56-.29c1.22-.49 2.34-1.22 3.3-2.13.89-.88 1.65-1.89 2.24-3 .58-1.12 1-2.32 1.25-3.56.25-1.238.37-2.497.38-3.76 0-2.07-.53-3.49-1.52-4.28a5.07 5.07 0 0 0-3.22-1.19 4.26 4.26 0 0 0-3.15 1.25 4.893 4.893 0 0 0-1.24 3.62c0 1.66.42 2.82 1.28 3.46a4.7 4.7 0 0 0 2.92 1 5.4 5.4 0 0 0 3.06-1 4.57 4.57 0 0 0 1.87-2.86c0-.11.1-.25.3-.43.17-.168.39-.291.63-.36a.522.522 0 0 1 .54.12c.14.15.15.51 0 1.08a8.87 8.87 0 0 1-2.22 4.71M1557.04 1001.22c-.31.04-.62 0-.9-.14-.28-.13-.51-.34-.66-.61-.12-.27-.14-.573-.07-.863s.23-.54.46-.73l6.45-7.46c.9-1 1.62-1.92 2.15-2.67q.675-.953 1.2-2c.24-.486.42-1 .55-1.53.09-.45.14-.91.14-1.37 0-.395-.07-.787-.22-1.152a3.1 3.1 0 0 0-.66-.968 3.4 3.4 0 0 0-1.13-.694 3.3 3.3 0 0 0-1.3-.196 4.2 4.2 0 0 0-2.94.94 4.42 4.42 0 0 0-1.39 2.25 1.408 1.408 0 0 1-.76.92c-.35.147-.73.182-1.09.1-.37-.083-.7-.292-.92-.59-.13-.163-.2-.353-.23-.554-.03-.2-.01-.405.06-.596a7.74 7.74 0 0 1 2.38-3.73 6.98 6.98 0 0 1 4.89-1.61 6.2 6.2 0 0 1 4.55 1.73c.55.536.99 1.182 1.29 1.895s.45 1.482.44 2.255c0 .698-.07 1.395-.2 2.08a9.2 9.2 0 0 1-.74 2.1c-.42.821-.91 1.604-1.46 2.34-.61.83-1.37 1.79-2.27 2.86l-4.43 5.09h8.31c.21-.02.42.01.62.09s.37.21.52.37c.24.27.38.63.38 1 0 .373-.14.733-.38 1.003a1.43 1.43 0 0 1-1.14.46zM1594.9 1001.22c-.3.04-.61 0-.89-.14a1.5 1.5 0 0 1-.67-.61 1.41 1.41 0 0 1 .39-1.593l6.45-7.46c.9-1 1.62-1.92 2.15-2.67.45-.634.86-1.303 1.2-2 .25-.486.43-1 .55-1.53.1-.45.15-.91.14-1.37a2.8 2.8 0 0 0-.22-1.151 2.8 2.8 0 0 0-.66-.969c-.32-.305-.7-.541-1.12-.694s-.86-.22-1.31-.196a4.22 4.22 0 0 0-2.94.94 4.5 4.5 0 0 0-1.39 2.25 1.4 1.4 0 0 1-.27.548c-.13.159-.3.287-.49.372-.34.147-.72.182-1.09.1a1.63 1.63 0 0 1-.92-.59c-.12-.163-.2-.353-.23-.554-.03-.2-.01-.405.06-.596a7.9 7.9 0 0 1 2.38-3.73 7.02 7.02 0 0 1 4.89-1.61 6.2 6.2 0 0 1 2.45.399c.79.297 1.5.75 2.1 1.331a5.618 5.618 0 0 1 1.73 4.15c.01.698-.06 1.395-.2 2.08a9.2 9.2 0 0 1-.74 2.1c-.42.821-.9 1.604-1.46 2.34-.61.83-1.37 1.79-2.27 2.86l-4.43 5.09h8.31c.21-.02.43.02.63.09.19.08.37.21.51.37.25.27.39.63.38 1 0 .373-.13.733-.38 1.003a1.4 1.4 0 0 1-1.14.46zM1576.24 981.007a6.515 6.515 0 0 1 8.63-2.214 6.55 6.55 0 0 1 2.37 2.214c1.4 2 2.09 4.94 2.09 8.73s-.7 6.78-2.1 8.77a6.65 6.65 0 0 1-2.38 2.183c-.96.52-2.03.8-3.12.8-1.1 0-2.17-.28-3.13-.8a6.54 6.54 0 0 1-2.37-2.183c-1.4-2-2.09-4.92-2.08-8.77 0-3.847.7-6.757 2.09-8.73m1.37 13.22c.21.97.6 1.89 1.14 2.72.37.57.88 1.03 1.5 1.33.47.21.98.33 1.5.34.6-.01 1.18-.16 1.71-.45.52-.3.96-.71 1.29-1.22.53-.83.92-1.75 1.13-2.72.33-1.47.48-2.98.45-4.49.03-1.493-.12-2.984-.45-4.44-.22-.963-.6-1.88-1.13-2.71a4.03 4.03 0 0 0-1.51-1.38 3.55 3.55 0 0 0-1.5-.38 3.55 3.55 0 0 0-1.5.38 3.8 3.8 0 0 0-1.48 1.38 8.4 8.4 0 0 0-1.14 2.71c-.35 1.454-.5 2.946-.46 4.44-.04 1.51.1 3.02.42 4.49zM1614.1 981.007a6.5 6.5 0 0 1 2.37-2.214 6.5 6.5 0 0 1 6.27 0 6.5 6.5 0 0 1 2.36 2.214c1.4 2 2.09 4.94 2.09 8.73s-.7 6.78-2.1 8.77a6.591 6.591 0 0 1-5.5 2.983c-1.09 0-2.16-.28-3.12-.8a6.6 6.6 0 0 1-2.38-2.183c-1.39-2-2.08-4.92-2.08-8.77.01-3.847.71-6.757 2.09-8.73m1.37 13.22c.22.97.6 1.89 1.14 2.72.37.57.89 1.03 1.5 1.33.47.21.98.33 1.5.34.6-.01 1.19-.16 1.71-.45.53-.3.97-.71 1.29-1.22.54-.83.92-1.75 1.13-2.72.34-1.47.49-2.98.45-4.49.04-1.493-.12-2.984-.45-4.44-.21-.963-.6-1.88-1.13-2.71a3.9 3.9 0 0 0-1.51-1.38 3.5 3.5 0 0 0-1.5-.38c-.52.017-1.03.146-1.5.38-.61.319-1.12.795-1.48 1.38a8.6 8.6 0 0 0-1.14 2.71 18 18 0 0 0-.46 4.44c-.04 1.51.1 3.02.42 4.49zM1672.04 1001.22c-.31.04-.62 0-.9-.14-.28-.13-.51-.34-.66-.61-.12-.27-.14-.573-.07-.863s.23-.54.46-.73l6.45-7.46c.9-1 1.62-1.92 2.15-2.67q.675-.953 1.2-2c.24-.486.42-1 .55-1.53.09-.45.14-.91.14-1.37 0-.395-.07-.787-.22-1.152a3.1 3.1 0 0 0-.66-.968 3.4 3.4 0 0 0-1.13-.694 3.3 3.3 0 0 0-1.3-.196 4.2 4.2 0 0 0-2.94.94 4.42 4.42 0 0 0-1.39 2.25 1.408 1.408 0 0 1-.76.92c-.35.147-.73.182-1.09.1-.37-.083-.7-.292-.92-.59-.13-.163-.2-.353-.23-.554-.03-.2-.01-.405.06-.596a7.74 7.74 0 0 1 2.38-3.73 6.98 6.98 0 0 1 4.89-1.61 6.2 6.2 0 0 1 4.55 1.73c.55.536.99 1.182 1.29 1.895s.45 1.482.44 2.255c0 .698-.07 1.395-.2 2.08a9.2 9.2 0 0 1-.74 2.1c-.42.821-.91 1.604-1.46 2.34-.61.83-1.37 1.79-2.27 2.86l-4.43 5.09h8.31c.21-.02.42.01.62.09s.37.21.52.37c.24.27.38.63.38 1 0 .373-.14.733-.38 1.003a1.43 1.43 0 0 1-1.14.46zM1709.9 1001.22c-.3.04-.61 0-.89-.14a1.5 1.5 0 0 1-.67-.61 1.41 1.41 0 0 1 .39-1.593l6.45-7.46c.9-1 1.62-1.92 2.15-2.67.45-.634.86-1.303 1.2-2 .25-.486.43-1 .55-1.53.1-.45.15-.91.14-1.37a2.8 2.8 0 0 0-.22-1.151 2.8 2.8 0 0 0-.66-.969c-.32-.305-.7-.541-1.12-.694s-.86-.22-1.31-.196a4.22 4.22 0 0 0-2.94.94 4.5 4.5 0 0 0-1.39 2.25 1.4 1.4 0 0 1-.27.548c-.13.159-.3.287-.49.372-.34.147-.72.182-1.09.1a1.63 1.63 0 0 1-.92-.59c-.12-.163-.2-.353-.23-.554-.03-.2-.01-.405.06-.596a7.9 7.9 0 0 1 2.38-3.73 7.02 7.02 0 0 1 4.89-1.61 6.2 6.2 0 0 1 2.45.399c.79.297 1.5.75 2.1 1.331a5.618 5.618 0 0 1 1.73 4.15c.01.698-.06 1.395-.2 2.08a9.2 9.2 0 0 1-.74 2.1c-.42.821-.9 1.604-1.46 2.34-.61.83-1.37 1.79-2.27 2.86l-4.43 5.09h8.31c.21-.02.43.02.63.09.19.08.37.21.51.37.25.27.39.63.38 1 0 .373-.13.733-.38 1.003a1.4 1.4 0 0 1-1.14.46zM1728.9 1001.22c-.3.04-.61 0-.89-.14a1.5 1.5 0 0 1-.67-.61 1.41 1.41 0 0 1 .39-1.593l6.45-7.46c.9-1 1.62-1.92 2.15-2.67.45-.634.86-1.303 1.2-2 .25-.486.43-1 .55-1.53.1-.45.15-.91.14-1.37a2.8 2.8 0 0 0-.22-1.151 2.8 2.8 0 0 0-.66-.969c-.32-.305-.7-.541-1.12-.694s-.86-.22-1.31-.196a4.22 4.22 0 0 0-2.94.94 4.5 4.5 0 0 0-1.39 2.25 1.4 1.4 0 0 1-.27.548c-.13.159-.3.287-.49.372-.34.147-.72.182-1.09.1a1.63 1.63 0 0 1-.92-.59c-.12-.163-.2-.353-.23-.554-.03-.2-.01-.405.06-.596a7.9 7.9 0 0 1 2.38-3.73 7.02 7.02 0 0 1 4.89-1.61 6.2 6.2 0 0 1 2.45.399c.79.297 1.5.75 2.1 1.331a5.618 5.618 0 0 1 1.73 4.15c.01.698-.06 1.395-.2 2.08a9.2 9.2 0 0 1-.74 2.1c-.42.821-.9 1.604-1.46 2.34-.61.83-1.37 1.79-2.27 2.86l-4.43 5.09h8.31c.21-.02.43.02.63.09.19.08.37.21.51.37.25.27.39.63.38 1 0 .373-.13.733-.38 1.003a1.4 1.4 0 0 1-1.14.46zM1691.24 981.007a6.515 6.515 0 0 1 8.63-2.214 6.55 6.55 0 0 1 2.37 2.214c1.4 2 2.09 4.94 2.09 8.73s-.7 6.78-2.1 8.77a6.65 6.65 0 0 1-2.38 2.183c-.96.52-2.03.8-3.12.8-1.1 0-2.17-.28-3.13-.8a6.54 6.54 0 0 1-2.37-2.183c-1.4-2-2.09-4.92-2.08-8.77 0-3.847.7-6.757 2.09-8.73m1.37 13.22c.21.97.6 1.89 1.14 2.72.37.57.88 1.03 1.5 1.33.47.21.98.33 1.5.34.6-.01 1.18-.16 1.71-.45.52-.3.96-.71 1.29-1.22.53-.83.92-1.75 1.13-2.72.33-1.47.48-2.98.45-4.49.03-1.493-.12-2.984-.45-4.44-.22-.963-.6-1.88-1.13-2.71a4.03 4.03 0 0 0-1.51-1.38 3.55 3.55 0 0 0-1.5-.38 3.55 3.55 0 0 0-1.5.38 3.8 3.8 0 0 0-1.48 1.38 8.4 8.4 0 0 0-1.14 2.71c-.35 1.454-.5 2.946-.46 4.44-.04 1.51.1 3.02.42 4.49z"></path><path fill="#FF6900" d="m457.278 845.287-8.82 5.19a3.23 3.23 0 0 1-2.76.43 3.64 3.64 0 0 1-2-1.48 3.3 3.3 0 0 1-.5-2.37 3.1 3.1 0 0 1 1.65-2.17l14-8.36a3.73 3.73 0 0 1 3.72-.33 3.26 3.26 0 0 1 1.61 3.16v41.6a2.9 2.9 0 0 1-1.09 2.47 3.82 3.82 0 0 1-4.73 0 2.905 2.905 0 0 1-1.09-2.47zm12.7 32.57a3.25 3.25 0 0 1 2.6 1 3.35 3.35 0 0 1 0 4.55 3.27 3.27 0 0 1-2.6 1h-22.77a3.16 3.16 0 0 1-2.53-1 3.35 3.35 0 0 1 0-4.55 3.16 3.16 0 0 1 2.53-1zM483.138 884.447c-1.8 0-3-.56-3.55-1.68s-.29-2.36.86-3.72l13.36-15.34q2.69-3.15 4.31-5.39a32 32 0 0 0 2.5-4c.523-.983.901-2.038 1.12-3.13.151-.916.228-1.842.23-2.77a5.7 5.7 0 0 0-1.71-4.11 6.37 6.37 0 0 0-4.74-1.74 8.48 8.48 0 0 0-5.83 1.84 9.1 9.1 0 0 0-2.79 4.48 2.999 2.999 0 0 1-1.68 2.13 3.7 3.7 0 0 1-2.54.23 3.77 3.77 0 0 1-2.07-1.38 2.8 2.8 0 0 1-.516-1.269 2.8 2.8 0 0 1 .156-1.361 15.9 15.9 0 0 1 5-7.8q3.78-3.39 10.3-3.39a13.19 13.19 0 0 1 9.64 3.65 11.824 11.824 0 0 1 3.72 8.72c0 1.462-.154 2.92-.46 4.35a20 20 0 0 1-1.58 4.38 35.7 35.7 0 0 1-3 4.87q-1.87 2.6-4.77 5.89l-8.55 9.93h16.38a3.17 3.17 0 0 1 2.57 1 3.44 3.44 0 0 1 0 4.55 3.17 3.17 0 0 1-2.57 1zM636.458 869.107c-1.8 0-3-.56-3.55-1.68s-.29-2.35.85-3.71l13.36-15.34c1.8-2.11 3.24-3.9 4.31-5.4a30 30 0 0 0 2.5-4c.533-.975.911-2.028 1.12-3.12.156-.915.233-1.842.23-2.77a5.67 5.67 0 0 0-1.71-4.11 6.34 6.34 0 0 0-4.74-1.75 8.45 8.45 0 0 0-5.82 1.85 9.13 9.13 0 0 0-2.8 4.47 2.91 2.91 0 0 1-1.68 2.14 3.78 3.78 0 0 1-4.6-1.15 2.8 2.8 0 0 1-.37-2.63 16 16 0 0 1 5-7.8q3.8-3.39 10.3-3.39a13.177 13.177 0 0 1 9.64 3.65 11.8 11.8 0 0 1 3.72 8.72 20.2 20.2 0 0 1-.46 4.35 18.7 18.7 0 0 1-1.58 4.37 33.5 33.5 0 0 1-3 4.87q-1.87 2.61-4.77 5.89l-8.58 9.98h16.39a3.18 3.18 0 0 1 2.57 1 3.46 3.46 0 0 1 0 4.54 3.18 3.18 0 0 1-2.57 1zM675.978 838.407a10.3 10.3 0 0 1-1.15-5 12.08 12.08 0 0 1 3.72-9.35 12.88 12.88 0 0 1 9.05-3.42 3.27 3.27 0 0 1 2.6 1 3.34 3.34 0 0 1 0 4.54 3.25 3.25 0 0 1-2.6 1 6 6 0 0 0-4.15 1.52 5.93 5.93 0 0 0-1.71 4.67 5.79 5.79 0 0 0 6 5.86 3.49 3.49 0 0 1 2.6 1 3.26 3.26 0 0 1 0 4.48 3.52 3.52 0 0 1-2.6 1.05 9.45 9.45 0 0 0-6.45 2.37 7.63 7.63 0 0 0-2.7 6 8.26 8.26 0 0 0 2.67 6.51 10 10 0 0 0 6.87 2.37 8.9 8.9 0 0 0 6.19-2.33 8.43 8.43 0 0 0 2.57-6.55 7.62 7.62 0 0 0-2.67-6 9.5 9.5 0 0 0-6.48-2.34 3.52 3.52 0 0 1-2.6-1.05 3.26 3.26 0 0 1 0-4.48 3.485 3.485 0 0 1 2.6-1 5.73 5.73 0 0 0 4.28-1.75 5.67 5.67 0 0 0 1.71-4.11 5.85 5.85 0 0 0-1.75-4.67 6.06 6.06 0 0 0-4.11-1.52 3.23 3.23 0 0 1-2.6-1 3.34 3.34 0 0 1 0-4.54 3.27 3.27 0 0 1 2.6-1 12.92 12.92 0 0 1 9 3.42 12 12 0 0 1 2.904 4.262 12 12 0 0 1 .846 5.088 10.34 10.34 0 0 1-1.12 4.94 10.9 10.9 0 0 1-3.16 3.62 15.15 15.15 0 0 1 5.5 5.2 13.2 13.2 0 0 1 1.94 7 14.53 14.53 0 0 1-4.61 11.22 15.76 15.76 0 0 1-11.06 4.25 17.2 17.2 0 0 1-11.64-4.12 14.22 14.22 0 0 1-4.8-11.29 13.1 13.1 0 0 1 1.91-6.91 15.2 15.2 0 0 1 5.53-5.27 11.3 11.3 0 0 1-3.13-3.67M815.868 777.997h-17.9a3.188 3.188 0 0 1-2.54-1 3.26 3.26 0 0 1 1.158-5.266 3.2 3.2 0 0 1 1.382-.214h23a3.5 3.5 0 0 1 3.06 1.32 3.12 3.12 0 0 1 .17 3.22l-17.83 41.16a3.13 3.13 0 0 1-2 1.91 3.7 3.7 0 0 1-4.37-1.74 2.85 2.85 0 0 1 0-2.67zM851.798 781.287h-.06l-11.52 19h21.32a3.188 3.188 0 0 1 2.63 1 3.35 3.35 0 0 1 0 4.48 3.19 3.19 0 0 1-2.63 1h-26.79c-1.66 0-2.77-.5-3.32-1.51a3.49 3.49 0 0 1 .36-3.55l17.58-28.26a4.9 4.9 0 0 1 2-2 5.6 5.6 0 0 1 2.5-.56h.79a4.1 4.1 0 0 1 2.93 1 3.74 3.74 0 0 1 1.09 2.86v41.8a2.92 2.92 0 0 1-1.09 2.47 3.73 3.73 0 0 1-4.67 0 2.89 2.89 0 0 1-1.09-2.47zM939.504 703.976l-8.82 5.2a3.31 3.31 0 0 1-2.77.43 3.7 3.7 0 0 1-2-1.48 3.3 3.3 0 0 1-.5-2.37c.09-.465.285-.902.571-1.279a3.1 3.1 0 0 1 1.079-.891l14-8.36a3.74 3.74 0 0 1 3.72-.33 3.245 3.245 0 0 1 1.61 3.16v41.59a2.89 2.89 0 0 1-1.09 2.47 3.8 3.8 0 0 1-2.37.82 3.85 3.85 0 0 1-2.37-.82 2.91 2.91 0 0 1-1.08-2.47zm12.7 32.58a3.26 3.26 0 0 1 2.6 1 3.34 3.34 0 0 1 0 4.54 3.26 3.26 0 0 1-2.6 1h-22.77a3.17 3.17 0 0 1-2.53-1 3.343 3.343 0 0 1 0-4.54 3.15 3.15 0 0 1 2.53-1zM1607.2 16.976l-8.82 5.2c-.4.27-.86.447-1.33.522-.48.074-.97.043-1.44-.092a3.74 3.74 0 0 1-2-1.48 3.3 3.3 0 0 1-.5-2.37c.09-.465.29-.902.57-1.278a3.14 3.14 0 0 1 1.08-.892l14-8.36a3.77 3.77 0 0 1 1.82-.664c.65-.058 1.31.057 1.9.334.55.314.99.78 1.28 1.34.28.562.4 1.194.33 1.82v41.59c.04.47-.05.94-.24 1.37s-.48.808-.85 1.1a3.8 3.8 0 0 1-2.37.82 3.86 3.86 0 0 1-2.37-.82 3 3 0 0 1-.84-1.103c-.19-.43-.27-.899-.24-1.367zm12.7 32.58c.48-.036.97.035 1.42.208s.85.444 1.18.792c.58.617.89 1.428.89 2.27s-.31 1.652-.89 2.27c-.33.348-.73.619-1.18.792-.45.172-.94.244-1.42.208h-22.77c-.47.032-.94-.04-1.37-.214a3.2 3.2 0 0 1-1.16-.786 3.35 3.35 0 0 1-.89-2.27c0-.842.32-1.653.89-2.27.32-.345.72-.613 1.16-.786.43-.173.9-.246 1.37-.214zM971.944 735.506a8.53 8.53 0 0 0 5.14 1.64q4.8 0 7.21-2.8a10.46 10.46 0 0 0 2.4-7.07c0-3-.78-5.29-2.34-6.91s-4.18-2.44-7.86-2.44a23 23 0 0 0-2.44.14c-.83.08-1.71.22-2.63.39a3.7 3.7 0 0 1-3.19-.59 3.126 3.126 0 0 1-1-3l1.77-16.59a3.098 3.098 0 0 1 1.19-2.07 3.43 3.43 0 0 1 2.24-.89h15.46a3.23 3.23 0 0 1 2.63 1c.548.618.854 1.414.86 2.24a3.38 3.38 0 0 1-.86 2.23 3.2 3.2 0 0 1-2.63 1h-12.39l-1 9.54a7.5 7.5 0 0 1 1-.07h1q8.55 0 12.8 4.45a15.93 15.93 0 0 1 4.24 11.48 18.4 18.4 0 0 1-1 6 15.45 15.45 0 0 1-3.06 5.27 15.1 15.1 0 0 1-5.13 3.72 17.4 17.4 0 0 1-7.24 1.41 15.34 15.34 0 0 1-9.25-2.89 14.74 14.74 0 0 1-5.43-7 2.74 2.74 0 0 1 .17-2.66 3.7 3.7 0 0 1 2-1.48 4 4 0 0 1 2.54 0 2.864 2.864 0 0 1 1.81 1.94 8.26 8.26 0 0 0 2.99 4.01M1020.53 705.166h-.07l-11.52 19h21.33c.48-.045.97.022 1.43.195.45.173.86.449 1.2.805.54.618.85 1.414.85 2.24 0 .825-.31 1.622-.85 2.24-.34.356-.75.631-1.2.804-.46.173-.95.24-1.43.196h-26.79c-1.67 0-2.78-.5-3.33-1.51a3.55 3.55 0 0 1-.305-1.83 3.46 3.46 0 0 1 .675-1.73l17.57-28.3a4.96 4.96 0 0 1 2-2 5.4 5.4 0 0 1 2.51-.56h.79a4.1 4.1 0 0 1 2.92 1c.37.371.66.819.85 1.312s.27 1.021.24 1.548v41.79c.03.469-.05.939-.24 1.37-.19.43-.48.808-.85 1.1-.67.531-1.49.821-2.34.821s-1.67-.29-2.33-.821a2.9 2.9 0 0 1-.85-1.103 2.9 2.9 0 0 1-.23-1.367zM1044.2 659.987c-1.8 0-3-.56-3.55-1.68s-.29-2.35.85-3.71l13.36-15.38c1.8-2.1 3.23-3.9 4.31-5.4a31 31 0 0 0 2.5-4c.53-.975.91-2.028 1.12-3.12.15-.915.23-1.841.23-2.77a5.722 5.722 0 0 0-1.71-4.11 6.4 6.4 0 0 0-2.19-1.362 6.4 6.4 0 0 0-2.55-.378 8.45 8.45 0 0 0-5.82 1.84 9.06 9.06 0 0 0-2.8 4.47 2.9 2.9 0 0 1-.58 1.279c-.29.373-.67.668-1.1.861a3.72 3.72 0 0 1-2.53.23c-.83-.214-1.56-.7-2.07-1.38a2.7 2.7 0 0 1-.52-1.269 2.75 2.75 0 0 1 .16-1.361 15.8 15.8 0 0 1 5-7.8c2.53-2.26 5.96-3.39 10.3-3.39 1.77-.07 3.54.217 5.19.844a13.2 13.2 0 0 1 4.46 2.806 11.8 11.8 0 0 1 2.76 3.973c.64 1.5.96 3.117.95 4.747 0 1.463-.15 2.921-.46 4.35a19.3 19.3 0 0 1-1.58 4.37 34 34 0 0 1-3 4.87q-1.875 2.61-4.77 5.89l-8.56 9.94h16.39c.47-.037.95.033 1.4.206.44.173.84.445 1.17.794.54.63.85 1.436.85 2.27s-.31 1.641-.85 2.27c-.33.35-.73.621-1.17.794-.45.174-.93.244-1.4.206zM1086.72 632.443a13.3 13.3 0 0 1 9-3.32c1.78.006 3.55.296 5.24.86a12.8 12.8 0 0 1 4.67 2.76 14.9 14.9 0 0 1 3.39 4.77 18.35 18.35 0 0 1 1.08 9.669 18.3 18.3 0 0 1-4.01 8.861c-2.83 3.074-6.61 4.61-11.35 4.61a16.7 16.7 0 0 1-11.36-4.38c-3.34-2.92-5-7.363-5-13.33a37.34 37.34 0 0 1 4.87-19.18 27.17 27.17 0 0 1 14.09-11.88 3.01 3.01 0 0 1 2.76 0c.74.388 1.33 1.01 1.68 1.77.33.75.36 1.596.1 2.37-.17.45-.44.855-.78 1.186a3.2 3.2 0 0 1-1.22.724 19.6 19.6 0 0 0-6.75 4.25 23.5 23.5 0 0 0-4.54 6.12 27.4 27.4 0 0 0-2.53 7.24 38 38 0 0 0-.79 7.73q.12 6.12 3.09 8.46a10.07 10.07 0 0 0 6.39 2.33 8.5 8.5 0 0 0 3.36-.579 8.6 8.6 0 0 0 2.86-1.851c1.64-1.62 2.46-4 2.46-7.17 0-3.34-.83-5.64-2.5-6.92a9.3 9.3 0 0 0-5.79-1.9c-2.19-.003-4.33.675-6.12 1.94a9.24 9.24 0 0 0-3.75 5.69c0 .13-.24.4-.73.79-.44.378-.96.657-1.51.82-.23.084-.47.106-.71.066s-.46-.142-.64-.296c-.37-.3-.4-1.09-.1-2.37.9-4.34 2.62-7.62 5.14-9.84M1121.71 629.326a10.46 10.46 0 0 1-1.15-5q0-5.93 3.72-9.34a12.9 12.9 0 0 1 9-3.43c.48-.036.97.035 1.42.208s.85.444 1.18.792c.58.619.89 1.432.89 2.275s-.31 1.656-.89 2.275c-.33.348-.73.619-1.18.792s-.94.244-1.42.208a6.02 6.02 0 0 0-4.15 1.51 5.9 5.9 0 0 0-1.36 2.147c-.3.806-.42 1.667-.35 2.523-.01.769.13 1.534.42 2.247a5.8 5.8 0 0 0 3.24 3.208c.74.295 1.54.432 2.33.405.48-.021.96.057 1.41.229s.85.435 1.19.771a3.234 3.234 0 0 1 0 4.48c-.34.336-.74.599-1.19.771s-.93.25-1.41.229a9.46 9.46 0 0 0-6.45 2.37 7.65 7.65 0 0 0-2.03 2.694 7.8 7.8 0 0 0-.67 3.306 8.3 8.3 0 0 0 .61 3.558 8.35 8.35 0 0 0 2.06 2.962 10.02 10.02 0 0 0 6.88 2.36c2.29.051 4.5-.784 6.18-2.33a8.5 8.5 0 0 0 2.01-2.994c.44-1.13.63-2.343.56-3.556a7.65 7.65 0 0 0-.65-3.302 7.55 7.55 0 0 0-2.02-2.698 9.43 9.43 0 0 0-6.48-2.34 3.5 3.5 0 0 1-2.6-1 3.27 3.27 0 0 1-.89-2.24c0-.833.32-1.635.89-2.24a3.5 3.5 0 0 1 2.6-1c.8.022 1.59-.123 2.33-.424a5.65 5.65 0 0 0 1.95-1.326 5.6 5.6 0 0 0 1.28-1.88 5.7 5.7 0 0 0 .43-2.23 5.9 5.9 0 0 0-.35-2.529 5.8 5.8 0 0 0-1.39-2.141 6.07 6.07 0 0 0-4.12-1.51 3.26 3.26 0 0 1-2.6-1 3.4 3.4 0 0 1-.88-2.275c0-.841.32-1.653.88-2.275a3.262 3.262 0 0 1 2.6-1c3.33-.058 6.56 1.17 9 3.43a12 12 0 0 1 2.91 4.258c.64 1.612.93 3.346.84 5.082.05 1.714-.34 3.411-1.12 4.94a10.6 10.6 0 0 1-3.16 3.62 15.07 15.07 0 0 1 5.5 5.2 13.1 13.1 0 0 1 1.94 7c.09 2.092-.28 4.177-1.08 6.114-.79 1.936-2 3.678-3.53 5.106a15.72 15.72 0 0 1-11 4.25 17.17 17.17 0 0 1-11.65-4.18 14.2 14.2 0 0 1-3.68-5.098 14.15 14.15 0 0 1-1.13-6.192 13.24 13.24 0 0 1 1.91-6.91 15.3 15.3 0 0 1 5.53-5.27 11.3 11.3 0 0 1-3.11-3.61M1490.89 175.353a10.34 10.34 0 0 1-1.15-5q0-5.93 3.72-9.34a12.9 12.9 0 0 1 9-3.43 3.26 3.26 0 0 1 2.6 1c.57.619.89 1.432.89 2.275 0 .844-.32 1.656-.89 2.275-.34.349-.74.619-1.19.792s-.93.244-1.41.208a6 6 0 0 0-4.15 1.51 5.8 5.8 0 0 0-1.37 2.147 5.9 5.9 0 0 0-.34 2.523c-.02.77.12 1.534.41 2.247s.72 1.361 1.27 1.903a5.77 5.77 0 0 0 4.31 1.71c.48-.02.95.058 1.4.23s.86.434 1.2.77c.57.606.89 1.407.89 2.24a3.27 3.27 0 0 1-.89 2.24c-.34.337-.75.599-1.2.771s-.92.25-1.4.229a9.45 9.45 0 0 0-6.45 2.37 7.54 7.54 0 0 0-2.03 2.694 7.5 7.5 0 0 0-.67 3.306 8.3 8.3 0 0 0 .6 3.558 8.4 8.4 0 0 0 2.07 2.962 9.98 9.98 0 0 0 6.88 2.36c2.28.051 4.5-.784 6.18-2.33a8.44 8.44 0 0 0 2.57-6.55 7.66 7.66 0 0 0-2.67-6 9.47 9.47 0 0 0-6.48-2.34 3.5 3.5 0 0 1-1.41-.229 3.5 3.5 0 0 1-1.19-.771 3.22 3.22 0 0 1-.89-2.24c0-.833.31-1.634.89-2.24.34-.336.75-.598 1.19-.77a3.5 3.5 0 0 1 1.41-.23 5.74 5.74 0 0 0 4.28-1.75 5.7 5.7 0 0 0 1.71-4.11 5.9 5.9 0 0 0-.35-2.529 5.9 5.9 0 0 0-1.39-2.141 6.1 6.1 0 0 0-4.12-1.51c-.48.035-.97-.036-1.42-.209a3.3 3.3 0 0 1-1.18-.791 3.36 3.36 0 0 1-.88-2.275c0-.841.31-1.652.88-2.275a3.3 3.3 0 0 1 1.18-.79c.45-.173.94-.245 1.42-.21a12.94 12.94 0 0 1 9 3.43 12.1 12.1 0 0 1 2.9 4.258c.65 1.613.94 3.347.85 5.082.04 1.714-.35 3.412-1.12 4.94a10.8 10.8 0 0 1-3.16 3.62 15.2 15.2 0 0 1 5.5 5.2 13.2 13.2 0 0 1 1.94 7c.08 2.092-.29 4.178-1.08 6.114-.8 1.936-2 3.678-3.53 5.106a15.73 15.73 0 0 1-11 4.25 17.13 17.13 0 0 1-11.65-4.18 14.1 14.1 0 0 1-3.69-5.098 14.14 14.14 0 0 1-1.12-6.192c-.02-2.436.64-4.828 1.91-6.91a15.2 15.2 0 0 1 5.53-5.27 11.1 11.1 0 0 1-3.11-3.61"></path><path fill="#FF6900" d="M1490.89 175.353a10.34 10.34 0 0 1-1.15-5q0-5.93 3.72-9.34a12.9 12.9 0 0 1 9-3.43 3.26 3.26 0 0 1 2.6 1c.57.619.89 1.432.89 2.275 0 .844-.32 1.656-.89 2.275-.34.349-.74.619-1.19.792s-.93.244-1.41.208a6 6 0 0 0-4.15 1.51 5.8 5.8 0 0 0-1.37 2.147 5.9 5.9 0 0 0-.34 2.523c-.02.77.12 1.534.41 2.247s.72 1.361 1.27 1.903a5.77 5.77 0 0 0 4.31 1.71c.48-.02.95.058 1.4.23s.86.434 1.2.77c.57.606.89 1.407.89 2.24a3.27 3.27 0 0 1-.89 2.24c-.34.337-.75.599-1.2.771s-.92.25-1.4.229a9.45 9.45 0 0 0-6.45 2.37 7.54 7.54 0 0 0-2.03 2.694 7.5 7.5 0 0 0-.67 3.306 8.3 8.3 0 0 0 .6 3.558 8.4 8.4 0 0 0 2.07 2.962 9.98 9.98 0 0 0 6.88 2.36c2.28.051 4.5-.784 6.18-2.33a8.44 8.44 0 0 0 2.57-6.55 7.66 7.66 0 0 0-2.67-6 9.47 9.47 0 0 0-6.48-2.34 3.5 3.5 0 0 1-1.41-.229 3.5 3.5 0 0 1-1.19-.771 3.22 3.22 0 0 1-.89-2.24c0-.833.31-1.634.89-2.24.34-.336.75-.598 1.19-.77a3.5 3.5 0 0 1 1.41-.23 5.74 5.74 0 0 0 4.28-1.75 5.7 5.7 0 0 0 1.71-4.11 5.9 5.9 0 0 0-.35-2.529 5.9 5.9 0 0 0-1.39-2.141 6.1 6.1 0 0 0-4.12-1.51c-.48.035-.97-.036-1.42-.209a3.3 3.3 0 0 1-1.18-.791 3.36 3.36 0 0 1-.88-2.275c0-.841.31-1.652.88-2.275a3.3 3.3 0 0 1 1.18-.79c.45-.173.94-.245 1.42-.21a12.94 12.94 0 0 1 9 3.43 12.1 12.1 0 0 1 2.9 4.258c.65 1.613.94 3.347.85 5.082.04 1.714-.35 3.412-1.12 4.94a10.8 10.8 0 0 1-3.16 3.62 15.2 15.2 0 0 1 5.5 5.2 13.2 13.2 0 0 1 1.94 7c.08 2.092-.29 4.178-1.08 6.114-.8 1.936-2 3.678-3.53 5.106a15.73 15.73 0 0 1-11 4.25 17.13 17.13 0 0 1-11.65-4.18 14.1 14.1 0 0 1-3.69-5.098 14.14 14.14 0 0 1-1.12-6.192c-.02-2.436.64-4.828 1.91-6.91a15.2 15.2 0 0 1 5.53-5.27 11.1 11.1 0 0 1-3.11-3.61"></path><path fill="#FF6900" d="M1490.89 175.353a10.34 10.34 0 0 1-1.15-5q0-5.93 3.72-9.34a12.9 12.9 0 0 1 9-3.43 3.26 3.26 0 0 1 2.6 1c.57.619.89 1.432.89 2.275 0 .844-.32 1.656-.89 2.275-.34.349-.74.619-1.19.792s-.93.244-1.41.208a6 6 0 0 0-4.15 1.51 5.8 5.8 0 0 0-1.37 2.147 5.9 5.9 0 0 0-.34 2.523c-.02.77.12 1.534.41 2.247s.72 1.361 1.27 1.903a5.77 5.77 0 0 0 4.31 1.71c.48-.02.95.058 1.4.23s.86.434 1.2.77c.57.606.89 1.407.89 2.24a3.27 3.27 0 0 1-.89 2.24c-.34.337-.75.599-1.2.771s-.92.25-1.4.229a9.45 9.45 0 0 0-6.45 2.37 7.54 7.54 0 0 0-2.03 2.694 7.5 7.5 0 0 0-.67 3.306 8.3 8.3 0 0 0 .6 3.558 8.4 8.4 0 0 0 2.07 2.962 9.98 9.98 0 0 0 6.88 2.36c2.28.051 4.5-.784 6.18-2.33a8.44 8.44 0 0 0 2.57-6.55 7.66 7.66 0 0 0-2.67-6 9.47 9.47 0 0 0-6.48-2.34 3.5 3.5 0 0 1-1.41-.229 3.5 3.5 0 0 1-1.19-.771 3.22 3.22 0 0 1-.89-2.24c0-.833.31-1.634.89-2.24.34-.336.75-.598 1.19-.77a3.5 3.5 0 0 1 1.41-.23 5.74 5.74 0 0 0 4.28-1.75 5.7 5.7 0 0 0 1.71-4.11 5.9 5.9 0 0 0-.35-2.529 5.9 5.9 0 0 0-1.39-2.141 6.1 6.1 0 0 0-4.12-1.51c-.48.035-.97-.036-1.42-.209a3.3 3.3 0 0 1-1.18-.791 3.36 3.36 0 0 1-.88-2.275c0-.841.31-1.652.88-2.275a3.3 3.3 0 0 1 1.18-.79c.45-.173.94-.245 1.42-.21a12.94 12.94 0 0 1 9 3.43 12.1 12.1 0 0 1 2.9 4.258c.65 1.613.94 3.347.85 5.082.04 1.714-.35 3.412-1.12 4.94a10.8 10.8 0 0 1-3.16 3.62 15.2 15.2 0 0 1 5.5 5.2 13.2 13.2 0 0 1 1.94 7c.08 2.092-.29 4.178-1.08 6.114-.8 1.936-2 3.678-3.53 5.106a15.73 15.73 0 0 1-11 4.25 17.13 17.13 0 0 1-11.65-4.18 14.1 14.1 0 0 1-3.69-5.098 14.14 14.14 0 0 1-1.12-6.192c-.02-2.436.64-4.828 1.91-6.91a15.2 15.2 0 0 1 5.53-5.27 11.1 11.1 0 0 1-3.11-3.61M1522.58 26.354a10.46 10.46 0 0 1-1.15-5q0-5.93 3.72-9.34a12.9 12.9 0 0 1 9-3.43c.48-.036.97.035 1.42.208s.85.443 1.18.791c.58.62.89 1.432.89 2.275 0 .844-.31 1.656-.89 2.275-.33.349-.73.62-1.18.792s-.94.244-1.42.208c-1.52-.042-3 .498-4.15 1.51-.6.609-1.07 1.341-1.36 2.148-.3.806-.42 1.667-.35 2.523a5.76 5.76 0 0 0 1.68 4.15 5.792 5.792 0 0 0 4.31 1.71c.48-.021.96.057 1.41.229s.85.434 1.19.77a3.234 3.234 0 0 1 0 4.48c-.34.337-.74.6-1.19.771s-.93.25-1.41.23a9.46 9.46 0 0 0-6.45 2.37 7.65 7.65 0 0 0-2.03 2.694 7.8 7.8 0 0 0-.67 3.305 8.3 8.3 0 0 0 .61 3.558 8.35 8.35 0 0 0 2.06 2.962 10.02 10.02 0 0 0 6.88 2.36c2.29.051 4.5-.784 6.18-2.33a8.5 8.5 0 0 0 2.01-2.993 8.5 8.5 0 0 0 .56-3.556 7.65 7.65 0 0 0-.65-3.303 7.55 7.55 0 0 0-2.02-2.697 9.43 9.43 0 0 0-6.48-2.34 3.5 3.5 0 0 1-2.6-1 3.27 3.27 0 0 1-.89-2.24c0-.834.32-1.635.89-2.24a3.503 3.503 0 0 1 2.6-1c.8.021 1.59-.123 2.33-.425.74-.3 1.4-.753 1.95-1.326a5.6 5.6 0 0 0 1.28-1.88 5.7 5.7 0 0 0 .43-2.23 5.9 5.9 0 0 0-.35-2.528 5.8 5.8 0 0 0-1.39-2.142 6.07 6.07 0 0 0-4.12-1.51 3.26 3.26 0 0 1-2.6-1 3.4 3.4 0 0 1-.88-2.274c0-.842.32-1.653.88-2.276.34-.347.74-.617 1.19-.79s.93-.245 1.41-.21c3.33-.058 6.56 1.17 9 3.43a12 12 0 0 1 2.91 4.258c.64 1.613.93 3.347.84 5.083.05 1.713-.34 3.411-1.12 4.94a10.6 10.6 0 0 1-3.16 3.62c2.25 1.24 4.14 3.029 5.5 5.2a13.1 13.1 0 0 1 1.94 7 14.4 14.4 0 0 1-1.08 6.113c-.79 1.937-2 3.678-3.53 5.107a15.72 15.72 0 0 1-11 4.25 17.17 17.17 0 0 1-11.65-4.18 14.2 14.2 0 0 1-3.68-5.099 14.15 14.15 0 0 1-1.13-6.191 13.24 13.24 0 0 1 1.91-6.91 15.3 15.3 0 0 1 5.53-5.27 11.3 11.3 0 0 1-3.11-3.61M1527.71 175.353a10.46 10.46 0 0 1-1.15-5q0-5.93 3.72-9.34a12.91 12.91 0 0 1 9-3.43c.48-.035.97.036 1.42.209.45.172.85.443 1.18.791.58.619.89 1.432.89 2.275 0 .844-.31 1.656-.89 2.275a3.2 3.2 0 0 1-1.18.792c-.45.173-.94.244-1.42.208a6 6 0 0 0-4.15 1.51 5.9 5.9 0 0 0-1.36 2.147c-.3.807-.42 1.668-.35 2.523a5.76 5.76 0 0 0 1.68 4.15 5.9 5.9 0 0 0 1.98 1.306c.74.294 1.54.432 2.33.404.48-.02.96.058 1.41.23s.85.434 1.19.77a3.236 3.236 0 0 1 0 4.48c-.34.337-.74.599-1.19.771s-.93.25-1.41.229a9.46 9.46 0 0 0-6.45 2.37 7.7 7.7 0 0 0-2.03 2.694 7.8 7.8 0 0 0-.67 3.306 8.3 8.3 0 0 0 .61 3.558 8.35 8.35 0 0 0 2.06 2.962 10.02 10.02 0 0 0 6.88 2.36c2.29.051 4.5-.784 6.18-2.33a8.5 8.5 0 0 0 2.01-2.993c.44-1.131.63-2.344.56-3.557a7.65 7.65 0 0 0-.65-3.302 7.55 7.55 0 0 0-2.02-2.698 9.44 9.44 0 0 0-6.48-2.34 3.5 3.5 0 0 1-2.6-1 3.27 3.27 0 0 1-.89-2.24c0-.833.32-1.634.89-2.24a3.5 3.5 0 0 1 2.6-1c.8.022 1.59-.123 2.33-.424a5.65 5.65 0 0 0 1.95-1.326 5.6 5.6 0 0 0 1.28-1.88 5.7 5.7 0 0 0 .43-2.23 5.9 5.9 0 0 0-.35-2.529 5.8 5.8 0 0 0-1.39-2.141 6.07 6.07 0 0 0-4.12-1.51 3.26 3.26 0 0 1-2.6-1 3.4 3.4 0 0 1-.88-2.275c0-.841.32-1.652.88-2.275.34-.348.74-.618 1.19-.79s.93-.245 1.41-.21a12.92 12.92 0 0 1 9 3.43 12 12 0 0 1 2.91 4.258c.64 1.613.93 3.347.84 5.082.05 1.714-.34 3.412-1.12 4.94a10.6 10.6 0 0 1-3.16 3.62 15.07 15.07 0 0 1 5.5 5.2 13.1 13.1 0 0 1 1.94 7 14.4 14.4 0 0 1-1.08 6.114c-.79 1.936-2 3.678-3.53 5.106a15.7 15.7 0 0 1-11 4.25 17.17 17.17 0 0 1-11.65-4.18 14.2 14.2 0 0 1-3.68-5.098 14.15 14.15 0 0 1-1.13-6.192c-.01-2.436.65-4.828 1.91-6.91a15.3 15.3 0 0 1 5.53-5.27 11.3 11.3 0 0 1-3.11-3.61"></path><path fill="#FF6900" d="M1527.71 175.353a10.46 10.46 0 0 1-1.15-5q0-5.93 3.72-9.34a12.91 12.91 0 0 1 9-3.43c.48-.035.97.036 1.42.209.45.172.85.443 1.18.791.58.619.89 1.432.89 2.275 0 .844-.31 1.656-.89 2.275a3.2 3.2 0 0 1-1.18.792c-.45.173-.94.244-1.42.208a6 6 0 0 0-4.15 1.51 5.9 5.9 0 0 0-1.36 2.147c-.3.807-.42 1.668-.35 2.523a5.76 5.76 0 0 0 1.68 4.15 5.9 5.9 0 0 0 1.98 1.306c.74.294 1.54.432 2.33.404.48-.02.96.058 1.41.23s.85.434 1.19.77a3.236 3.236 0 0 1 0 4.48c-.34.337-.74.599-1.19.771s-.93.25-1.41.229a9.46 9.46 0 0 0-6.45 2.37 7.7 7.7 0 0 0-2.03 2.694 7.8 7.8 0 0 0-.67 3.306 8.3 8.3 0 0 0 .61 3.558 8.35 8.35 0 0 0 2.06 2.962 10.02 10.02 0 0 0 6.88 2.36c2.29.051 4.5-.784 6.18-2.33a8.5 8.5 0 0 0 2.01-2.993c.44-1.131.63-2.344.56-3.557a7.65 7.65 0 0 0-.65-3.302 7.55 7.55 0 0 0-2.02-2.698 9.44 9.44 0 0 0-6.48-2.34 3.5 3.5 0 0 1-2.6-1 3.27 3.27 0 0 1-.89-2.24c0-.833.32-1.634.89-2.24a3.5 3.5 0 0 1 2.6-1c.8.022 1.59-.123 2.33-.424a5.65 5.65 0 0 0 1.95-1.326 5.6 5.6 0 0 0 1.28-1.88 5.7 5.7 0 0 0 .43-2.23 5.9 5.9 0 0 0-.35-2.529 5.8 5.8 0 0 0-1.39-2.141 6.07 6.07 0 0 0-4.12-1.51 3.26 3.26 0 0 1-2.6-1 3.4 3.4 0 0 1-.88-2.275c0-.841.32-1.652.88-2.275.34-.348.74-.618 1.19-.79s.93-.245 1.41-.21a12.92 12.92 0 0 1 9 3.43 12 12 0 0 1 2.91 4.258c.64 1.613.93 3.347.84 5.082.05 1.714-.34 3.412-1.12 4.94a10.6 10.6 0 0 1-3.16 3.62 15.07 15.07 0 0 1 5.5 5.2 13.1 13.1 0 0 1 1.94 7 14.4 14.4 0 0 1-1.08 6.114c-.79 1.936-2 3.678-3.53 5.106a15.7 15.7 0 0 1-11 4.25 17.17 17.17 0 0 1-11.65-4.18 14.2 14.2 0 0 1-3.68-5.098 14.15 14.15 0 0 1-1.13-6.192c-.01-2.436.65-4.828 1.91-6.91a15.3 15.3 0 0 1 5.53-5.27 11.3 11.3 0 0 1-3.11-3.61"></path><path fill="#FF6900" d="M1527.71 175.353a10.46 10.46 0 0 1-1.15-5q0-5.93 3.72-9.34a12.91 12.91 0 0 1 9-3.43c.48-.035.97.036 1.42.209.45.172.85.443 1.18.791.58.619.89 1.432.89 2.275 0 .844-.31 1.656-.89 2.275a3.2 3.2 0 0 1-1.18.792c-.45.173-.94.244-1.42.208a6 6 0 0 0-4.15 1.51 5.9 5.9 0 0 0-1.36 2.147c-.3.807-.42 1.668-.35 2.523a5.76 5.76 0 0 0 1.68 4.15 5.9 5.9 0 0 0 1.98 1.306c.74.294 1.54.432 2.33.404.48-.02.96.058 1.41.23s.85.434 1.19.77a3.236 3.236 0 0 1 0 4.48c-.34.337-.74.599-1.19.771s-.93.25-1.41.229a9.46 9.46 0 0 0-6.45 2.37 7.7 7.7 0 0 0-2.03 2.694 7.8 7.8 0 0 0-.67 3.306 8.3 8.3 0 0 0 .61 3.558 8.35 8.35 0 0 0 2.06 2.962 10.02 10.02 0 0 0 6.88 2.36c2.29.051 4.5-.784 6.18-2.33a8.5 8.5 0 0 0 2.01-2.993c.44-1.131.63-2.344.56-3.557a7.65 7.65 0 0 0-.65-3.302 7.55 7.55 0 0 0-2.02-2.698 9.44 9.44 0 0 0-6.48-2.34 3.5 3.5 0 0 1-2.6-1 3.27 3.27 0 0 1-.89-2.24c0-.833.32-1.634.89-2.24a3.5 3.5 0 0 1 2.6-1c.8.022 1.59-.123 2.33-.424a5.65 5.65 0 0 0 1.95-1.326 5.6 5.6 0 0 0 1.28-1.88 5.7 5.7 0 0 0 .43-2.23 5.9 5.9 0 0 0-.35-2.529 5.8 5.8 0 0 0-1.39-2.141 6.07 6.07 0 0 0-4.12-1.51 3.26 3.26 0 0 1-2.6-1 3.4 3.4 0 0 1-.88-2.275c0-.841.32-1.652.88-2.275.34-.348.74-.618 1.19-.79s.93-.245 1.41-.21a12.92 12.92 0 0 1 9 3.43 12 12 0 0 1 2.91 4.258c.64 1.613.93 3.347.84 5.082.05 1.714-.34 3.412-1.12 4.94a10.6 10.6 0 0 1-3.16 3.62 15.07 15.07 0 0 1 5.5 5.2 13.1 13.1 0 0 1 1.94 7 14.4 14.4 0 0 1-1.08 6.114c-.79 1.936-2 3.678-3.53 5.106a15.7 15.7 0 0 1-11 4.25 17.17 17.17 0 0 1-11.65-4.18 14.2 14.2 0 0 1-3.68-5.098 14.15 14.15 0 0 1-1.13-6.192c-.01-2.436.65-4.828 1.91-6.91a15.3 15.3 0 0 1 5.53-5.27 11.3 11.3 0 0 1-3.11-3.61M1192.07 507.004h-.06l-11.52 18.95h21.32c.49-.037.98.039 1.44.223.46.183.87.47 1.2.837.55.615.85 1.411.85 2.235s-.3 1.619-.85 2.235a3.2 3.2 0 0 1-1.2.837c-.46.184-.95.26-1.44.223h-26.78c-1.67 0-2.78-.51-3.33-1.52a3.4 3.4 0 0 1-.31-1.825 3.4 3.4 0 0 1 .67-1.725l17.58-28.3a4.86 4.86 0 0 1 2-2c.78-.378 1.63-.57 2.5-.56h.79a4.1 4.1 0 0 1 2.93 1c.37.374.66.821.85 1.314.18.493.27 1.019.24 1.546v41.8a2.961 2.961 0 0 1-1.09 2.46c-.66.537-1.49.83-2.34.83s-1.67-.293-2.33-.83c-.37-.29-.66-.666-.85-1.094a2.8 2.8 0 0 1-.24-1.366zM1230.24 507.004h-.06l-11.52 18.95h21.32a3.21 3.21 0 0 1 2.64 1.06c.55.615.85 1.411.85 2.235s-.3 1.619-.85 2.235c-.33.368-.74.654-1.2.838s-.95.26-1.44.222h-26.78c-1.67 0-2.78-.51-3.33-1.52a3.5 3.5 0 0 1-.31-1.826c.07-.625.3-1.22.68-1.724l17.57-28.3a4.97 4.97 0 0 1 2-2c.78-.378 1.63-.57 2.5-.56h.79a4.1 4.1 0 0 1 2.93 1c.37.372.66.819.85 1.313.19.493.27 1.02.24 1.547v41.8c.03.468-.05.937-.24 1.366-.19.428-.48.804-.85 1.094-.66.537-1.49.83-2.34.83s-1.67-.293-2.33-.83a2.89 2.89 0 0 1-1.09-2.46zM1252.85 502.954a13.8 13.8 0 0 1 5.02-4.7 13.84 13.84 0 0 1 13.32 0 13.85 13.85 0 0 1 5.02 4.7q4.32 6.42 4.32 18.13 0 11.93-4.35 18.2a14 14 0 0 1-5.03 4.619 13.917 13.917 0 0 1-13.24 0 13.8 13.8 0 0 1-5.03-4.619c-2.9-4.187-4.34-10.253-4.34-18.2 0-7.807 1.43-13.85 4.31-18.13m3.49 27.25a17.5 17.5 0 0 0 2.3 5.46 7.15 7.15 0 0 0 3 2.63 6.48 6.48 0 0 0 5.86 0 7.1 7.1 0 0 0 3-2.63 17.8 17.8 0 0 0 2.31-5.46 44.1 44.1 0 0 0 0-18.17 18.6 18.6 0 0 0-2.31-5.49 7.13 7.13 0 0 0-5.89-3.42c-1.01.03-1.99.275-2.89.72a7.6 7.6 0 0 0-3 2.7 17.7 17.7 0 0 0-2.33 5.49 43.5 43.5 0 0 0 0 18.17zM115.248 877.817l-8.82 5.2a3.32 3.32 0 0 1-2.77.43 3.7 3.7 0 0 1-2-1.48 3.3 3.3 0 0 1-.5-2.37 3 3 0 0 1 1.65-2.17l14-8.36a3.73 3.73 0 0 1 3.72-.33 3.25 3.25 0 0 1 1.61 3.16v41.59a2.89 2.89 0 0 1-1.09 2.47 3.8 3.8 0 0 1-2.37.82 3.85 3.85 0 0 1-2.37-.82 2.903 2.903 0 0 1-1.08-2.47zm12.7 32.58a3.25 3.25 0 0 1 2.6 1 3.34 3.34 0 0 1 0 4.54 3.27 3.27 0 0 1-2.6 1h-22.77a3.2 3.2 0 0 1-2.54-1 3.37 3.37 0 0 1 0-4.54 3.2 3.2 0 0 1 2.54-1zM270.708 867.217a10.3 10.3 0 0 1-1.15-5 12.1 12.1 0 0 1 3.71-9.35 12.9 12.9 0 0 1 9.05-3.42 3.25 3.25 0 0 1 2.6 1 3.34 3.34 0 0 1 0 4.54 3.27 3.27 0 0 1-2.6 1 6 6 0 0 0-4.14 1.51 5.94 5.94 0 0 0-1.71 4.68 5.72 5.72 0 0 0 1.67 4.14 5.78 5.78 0 0 0 4.32 1.71 3.56 3.56 0 0 1 2.6 1.06 3.28 3.28 0 0 1 0 4.47 3.56 3.56 0 0 1-2.6 1.06 9.4 9.4 0 0 0-6.45 2.36 7.63 7.63 0 0 0-2.7 6 8.29 8.29 0 0 0 2.66 6.57 10 10 0 0 0 6.88 2.37 8.87 8.87 0 0 0 6.19-2.34 8.4 8.4 0 0 0 2.56-6.55 7.65 7.65 0 0 0-2.66-6 9.53 9.53 0 0 0-6.48-2.33 3.5 3.5 0 0 1-2.6-1.06 3.25 3.25 0 0 1 0-4.47 3.5 3.5 0 0 1 2.6-1.06 5.75 5.75 0 0 0 4.27-1.74 5.7 5.7 0 0 0 1.72-4.11 5.9 5.9 0 0 0-1.75-4.68 6.05 6.05 0 0 0-4.11-1.51 3.25 3.25 0 0 1-2.6-1 3.34 3.34 0 0 1 0-4.54 3.27 3.27 0 0 1 2.6-1 12.9 12.9 0 0 1 9 3.42 12 12 0 0 1 2.909 4.236c.653 1.605.95 3.333.871 5.064a10.4 10.4 0 0 1-1.12 4.93 10.8 10.8 0 0 1-3.16 3.62 15.1 15.1 0 0 1 5.49 5.2 13.16 13.16 0 0 1 1.94 7 14.54 14.54 0 0 1-4.6 11.23 15.75 15.75 0 0 1-11.07 4.32 17.12 17.12 0 0 1-11.65-4.18q-4.8-4.17-4.8-11.29c-.02-2.436.641-4.83 1.91-6.91a15.2 15.2 0 0 1 5.52-5.26 11.36 11.36 0 0 1-3.12-3.69M1323.13 359.418a8.44 8.44 0 0 0 5.14 1.65c3.2 0 5.6-.933 7.21-2.8a10.5 10.5 0 0 0 2.4-7.07q0-4.49-2.34-6.91t-7.86-2.44c-.82 0-1.63.043-2.44.13-.83.09-1.71.22-2.63.4a3.675 3.675 0 0 1-3.19-.6 3.05 3.05 0 0 1-.91-1.363 3.04 3.04 0 0 1-.09-1.637l1.77-16.58a3.15 3.15 0 0 1 1.19-2.08 3.4 3.4 0 0 1 2.24-.88h15.46a3.28 3.28 0 0 1 2.64 1c.55.616.85 1.411.85 2.235 0 .825-.3 1.62-.85 2.235a3.27 3.27 0 0 1-2.64 1h-12.37l-1 9.54c.33-.042.66-.062 1-.06h1c5.7 0 9.96 1.48 12.8 4.44a15.8 15.8 0 0 1 3.26 5.322c.73 1.972 1.06 4.068.98 6.168 0 2.059-.33 4.104-1 6.05a15.4 15.4 0 0 1-3.06 5.27 15.2 15.2 0 0 1-5.13 3.71 17.2 17.2 0 0 1-7.24 1.42c-3.32.064-6.57-.954-9.25-2.9a14.63 14.63 0 0 1-5.43-7c-.2-.422-.29-.889-.26-1.357s.17-.919.43-1.313a3.74 3.74 0 0 1 2-1.48 4.1 4.1 0 0 1 2.54 0c.43.158.82.417 1.14.756.31.34.54.749.67 1.194a8.2 8.2 0 0 0 2.97 3.95M1373.91 325.788h-17.9c-.47.033-.94-.04-1.38-.213a3.1 3.1 0 0 1-1.15-.787 3.256 3.256 0 0 1 1.15-5.256c.44-.173.91-.246 1.38-.214h23a3.547 3.547 0 0 1 3.06 1.31c.31.474.5 1.023.53 1.592s-.1 1.135-.36 1.638l-17.77 41.2c-.17.45-.44.855-.78 1.186-.35.331-.77.578-1.22.724-.82.264-1.71.233-2.51-.086a3.68 3.68 0 0 1-1.87-1.664 2.8 2.8 0 0 1-.33-1.33c0-.463.11-.92.33-1.33zM1399.25 339.478a13.23 13.23 0 0 1 9.05-3.33c1.78.006 3.54.296 5.23.86 1.73.574 3.33 1.515 4.67 2.76a15.1 15.1 0 0 1 3.39 4.78 18.24 18.24 0 0 1 1.09 9.666 18.17 18.17 0 0 1-4.02 8.854c-2.83 3.067-6.61 4.604-11.35 4.61-4.2.023-8.26-1.541-11.35-4.38-3.34-2.906-5-7.35-5-13.33a37.14 37.14 0 0 1 4.87-19.18 27.15 27.15 0 0 1 14.08-11.91 3.06 3.06 0 0 1 2.77 0 3.8 3.8 0 0 1 1.68 1.78c.32.751.35 1.597.09 2.37-.17.449-.44.854-.78 1.185-.35.331-.77.579-1.22.725a19.4 19.4 0 0 0-6.74 4.24 23.4 23.4 0 0 0-4.54 6.12 27.8 27.8 0 0 0-2.54 7.24 38.6 38.6 0 0 0-.79 7.73c.09 4.09 1.12 6.9 3.1 8.46a10.06 10.06 0 0 0 6.38 2.34 8.5 8.5 0 0 0 3.36-.581 8.5 8.5 0 0 0 2.86-1.859c1.65-1.62 2.47-4.01 2.47-7.17 0-3.33-.84-5.64-2.5-6.91a9.3 9.3 0 0 0-5.79-1.91c-2.2.001-4.34.678-6.13 1.94a9.36 9.36 0 0 0-3.75 5.69c0 .14-.24.4-.72.79-.45.375-.96.657-1.51.83-.23.08-.47.101-.71.06-.23-.04-.46-.14-.64-.29-.38-.31-.41-1.1-.1-2.37.87-4.35 2.56-7.63 5.09-9.81M1457.67 178.478a13.23 13.23 0 0 1 9.05-3.33c1.78.006 3.54.296 5.23.86 1.73.574 3.33 1.515 4.67 2.76a15.1 15.1 0 0 1 3.39 4.78 18.24 18.24 0 0 1 1.09 9.666 18.17 18.17 0 0 1-4.02 8.854c-2.83 3.067-6.61 4.604-11.35 4.61-4.2.023-8.26-1.541-11.35-4.38-3.34-2.906-5-7.35-5-13.33a37.14 37.14 0 0 1 4.87-19.18 27.15 27.15 0 0 1 14.08-11.91 3.06 3.06 0 0 1 2.77 0 3.8 3.8 0 0 1 1.68 1.78c.32.751.36 1.597.09 2.37-.17.449-.44.854-.78 1.185-.35.331-.77.579-1.22.725a19.4 19.4 0 0 0-6.74 4.24 23.4 23.4 0 0 0-4.54 6.12 27.8 27.8 0 0 0-2.54 7.24 38.6 38.6 0 0 0-.79 7.73c.09 4.09 1.12 6.9 3.1 8.46a10.06 10.06 0 0 0 6.38 2.34 8.48 8.48 0 0 0 6.22-2.44c1.65-1.62 2.47-4.01 2.47-7.17 0-3.33-.84-5.64-2.5-6.91a9.3 9.3 0 0 0-5.79-1.91c-2.2.001-4.34.678-6.13 1.94a9.36 9.36 0 0 0-3.75 5.69c0 .14-.24.4-.72.79-.45.375-.96.657-1.51.83-.23.08-.47.101-.71.06-.23-.04-.46-.14-.64-.29-.38-.31-.41-1.1-.1-2.37.87-4.35 2.56-7.63 5.09-9.81"></path><path fill="#FF6900" d="M1457.67 178.478a13.23 13.23 0 0 1 9.05-3.33c1.78.006 3.54.296 5.23.86 1.73.574 3.33 1.515 4.67 2.76a15.1 15.1 0 0 1 3.39 4.78 18.24 18.24 0 0 1 1.09 9.666 18.17 18.17 0 0 1-4.02 8.854c-2.83 3.067-6.61 4.604-11.35 4.61-4.2.023-8.26-1.541-11.35-4.38-3.34-2.906-5-7.35-5-13.33a37.14 37.14 0 0 1 4.87-19.18 27.15 27.15 0 0 1 14.08-11.91 3.06 3.06 0 0 1 2.77 0 3.8 3.8 0 0 1 1.68 1.78c.32.751.36 1.597.09 2.37-.17.449-.44.854-.78 1.185-.35.331-.77.579-1.22.725a19.4 19.4 0 0 0-6.74 4.24 23.4 23.4 0 0 0-4.54 6.12 27.8 27.8 0 0 0-2.54 7.24 38.6 38.6 0 0 0-.79 7.73c.09 4.09 1.12 6.9 3.1 8.46a10.06 10.06 0 0 0 6.38 2.34 8.48 8.48 0 0 0 6.22-2.44c1.65-1.62 2.47-4.01 2.47-7.17 0-3.33-.84-5.64-2.5-6.91a9.3 9.3 0 0 0-5.79-1.91c-2.2.001-4.34.678-6.13 1.94a9.36 9.36 0 0 0-3.75 5.69c0 .14-.24.4-.72.79-.45.375-.96.657-1.51.83-.23.08-.47.101-.71.06-.23-.04-.46-.14-.64-.29-.38-.31-.41-1.1-.1-2.37.87-4.35 2.56-7.63 5.09-9.81"></path><path fill="#FF6900" d="M1457.67 178.478a13.23 13.23 0 0 1 9.05-3.33c1.78.006 3.54.296 5.23.86 1.73.574 3.33 1.515 4.67 2.76a15.1 15.1 0 0 1 3.39 4.78 18.24 18.24 0 0 1 1.09 9.666 18.17 18.17 0 0 1-4.02 8.854c-2.83 3.067-6.61 4.604-11.35 4.61-4.2.023-8.26-1.541-11.35-4.38-3.34-2.906-5-7.35-5-13.33a37.14 37.14 0 0 1 4.87-19.18 27.15 27.15 0 0 1 14.08-11.91 3.06 3.06 0 0 1 2.77 0 3.8 3.8 0 0 1 1.68 1.78c.32.751.36 1.597.09 2.37-.17.449-.44.854-.78 1.185-.35.331-.77.579-1.22.725a19.4 19.4 0 0 0-6.74 4.24 23.4 23.4 0 0 0-4.54 6.12 27.8 27.8 0 0 0-2.54 7.24 38.6 38.6 0 0 0-.79 7.73c.09 4.09 1.12 6.9 3.1 8.46a10.06 10.06 0 0 0 6.38 2.34 8.48 8.48 0 0 0 6.22-2.44c1.65-1.62 2.47-4.01 2.47-7.17 0-3.33-.84-5.64-2.5-6.91a9.3 9.3 0 0 0-5.79-1.91c-2.2.001-4.34.678-6.13 1.94a9.36 9.36 0 0 0-3.75 5.69c0 .14-.24.4-.72.79-.45.375-.96.657-1.51.83-.23.08-.47.101-.71.06-.23-.04-.46-.14-.64-.29-.38-.31-.41-1.1-.1-2.37.87-4.35 2.56-7.63 5.09-9.81"></path><path stroke="#333" stroke-linecap="round" stroke-linejoin="round" stroke-width="1.13" d="M49.218 951.087H1948.43"></path><path stroke="bisque" stroke-miterlimit="10" stroke-width="0.9" d="m1231.13 651.567 95.09 45.42 161.45-185.65-68.53-81.54zM1229.78 651.567l96.44 45.42-166.33 96.71-117.48-24.74z"></path><path stroke="bisque" stroke-miterlimit="10" stroke-width="0.9" d="m1159.89 793.697-186.472 82.62-123.98-13.27 192.972-94.09zM973.418 876.317l-182.76 45.61-127.77-6.69 186.55-52.19zM790.658 921.927l-176.35 8.03-144.03-10.29 192.61-4.43z"></path><path fill="bisque" d="m614.308 929.957-200.1 9.75-135.18-8.93 191.25-11.11z"></path><path fill="bisque" d="M87.148 951.087h144.75l182.31-11.38-135.18-8.93z"></path><path stroke="#989898" stroke-miterlimit="10" stroke-width="0.76" d="m414.208 939.707 200.101-9.75 176.349-10.02 182.76-44.97 186.472-81.27 166.33-96.71 161.45-185.65M414.208 939.707l-219.07 11.38M414.118 951.087l.09-11.38M614.308 929.957v21.13M790.658 919.937l-.09 31.15M1120.37 951.547v-141M1236.37 748.547l-1 203M973.418 874.967l-.09 76.12"></path><path fill="#FF6900" d="m86.788 950.907-13.82.18 203.26-24.02 189.45-12.91 196.94-16.52 186.82-52.47 192.972-100.05 174.73-116.57 202-242.91v44.16l-188.01 221.77-188.72 117.39-192.972 94.09-186.55 52.19-191.71 14.09-191.34 8.49-156.39 13.27"></path><path stroke="#333" stroke-miterlimit="10" stroke-width="0.96" d="m1169.37 689.547 2 262M1042.41 768.957v182.13M849.438 863.047v88.04M662.888 915.237l-.27 35.85M469.738 929.327v21.76M279.838 937.817l-.18 13.27"></path><path stroke="#333" stroke-linecap="round" stroke-linejoin="round" stroke-width="0.96" d="M1381.39 951.087H46.238"></path><path stroke="url(#10b92afb-8f33-44a0-b126-34baa2f6332ac)" stroke-miterlimit="10" stroke-width="0.76" d="m1042.37 768.547 78 42"></path><path stroke="url(#9cc99a8c-a596-4358-b0ad-f03ecf4c8f0ed)" stroke-miterlimit="10" stroke-width="0.76" d="m849.438 863.047 123.98 11.92"></path><path stroke="url(#ebfc4925-26a9-4b76-a085-8a136aa638c5e)" stroke-miterlimit="10" stroke-width="0.76" d="m1169.37 689.547 67 59"></path><path stroke="url(#f0b8819b-a130-409a-8b67-9324a2d4f68df)" stroke-miterlimit="10" stroke-width="0.76" d="m662.888 915.237 127.77 4.7"></path><path stroke="url(#fa989f7f-8e62-4c8b-946d-f9bc40f760cdg)" stroke-miterlimit="10" stroke-width="0.76" d="m469.738 929.327 144.57.63"></path><path stroke="url(#aa274044-7fcc-4700-aed3-dc18bb1ef3d4h)" stroke-miterlimit="10" stroke-width="0.76" d="m279.838 937.817 134.37 1.89"></path><path stroke="#989898" stroke-miterlimit="10" stroke-width="0.76" d="M1381.37 633.547v318M1522.37 467.547v484M1645.37 314.547v637M1755.37 135.547v816"></path><path stroke="#333" stroke-miterlimit="10" stroke-width="0.96" d="m1304.37 563.547.78 387.54M1452.37 385.547v566M1591.37 219.547v732M1706.37 8.547v943"></path><path fill="#FF6900" d="M1419.14 429.797v-44.16l178.75-228.11 12.42 43.19z"></path><path stroke="#989898" stroke-miterlimit="10" stroke-width="0.76" d="m1487.67 511.337 164.34-205.24"></path><path stroke="url(#6d3a0f28-8b38-4a9b-840d-845a7139cf51i)" stroke-miterlimit="10" stroke-width="0.76" d="m1304.37 563.547 77 70"></path><path stroke="#989898" stroke-miterlimit="10" stroke-width="0.76" d="m1652.01 306.097 199.06-328.37"></path><path stroke="url(#d2e7141e-0b24-47b2-8916-24d9cbd120b4j)" stroke-miterlimit="10" stroke-width="0.76" d="m1452.37 389.547 70 78"></path><path stroke="url(#64b7c83a-0b70-44c8-8514-976f2613d9ddk)" stroke-miterlimit="10" stroke-width="0.76" d="m1591.37 223.547 54 91"></path><path stroke="url(#587b0fd2-8f4f-4ab4-a7cf-e45b063bed84l)" stroke-miterlimit="10" stroke-width="0.76" d="m1705.37 9.547 50 128"></path><path fill="#FF6900" d="M1597.89 157.527 1715-106.583l57.96-7.8-163.21 315.1zM59.239 62.327a3.1 3.1 0 0 1 1-2.34 3.43 3.43 0 0 1 2.41-1h7.7q9.6 0 14.25 4a13.67 13.67 0 0 1 4.64 10.92q0 7.83-4.91 11.95t-14.09 4.11h-6.83a3.12 3.12 0 0 1-2.57-1 3.53 3.53 0 0 1-.85-2.35 3.4 3.4 0 0 1 .85-2.24 3.17 3.17 0 0 1 2.57-1h6.83c1.959.042 3.915-.17 5.82-.63a9.4 9.4 0 0 0 3.76-1.84 7 7 0 0 0 2-3c.429-1.289.638-2.641.62-4a10.3 10.3 0 0 0-.49-3.22 6.07 6.07 0 0 0-1.81-2.67 9.35 9.35 0 0 0-3.66-1.81 23 23 0 0 0-6.08-.66h-4.29v38.64a2.87 2.87 0 0 1-1.09 2.43 3.7 3.7 0 0 1-4.67 0 2.9 2.9 0 0 1-1.11-2.43zM98.318 74.997q4.52-5.38 12.61-5.38t12.54 5.43a20.38 20.38 0 0 1 4.5 13.46 20.4 20.4 0 0 1-4.5 13.42q-4.52 5.47-12.54 5.47t-12.61-5.47a20.4 20.4 0 0 1-4.5-13.42 20.38 20.38 0 0 1 4.5-13.51m5.3 22.67a10.14 10.14 0 0 0 11.249 2.287 10.1 10.1 0 0 0 3.331-2.287q2.92-3.09 2.93-9.21t-2.89-9.25a10.213 10.213 0 0 0-14.58 0q-2.89 3.06-2.89 9.25t2.85 9.21M157.558 105.307a15.34 15.34 0 0 1-8.06 2q-8.37 0-12.9-5.47a20.4 20.4 0 0 1-4.55-13.49 20.37 20.37 0 0 1 4.48-13.39q4.47-5.34 12.44-5.34c2.826-.04 5.618.616 8.13 1.91a13.6 13.6 0 0 1 5.62 5.33 2.838 2.838 0 0 1 .33 2.66 3.55 3.55 0 0 1-1.64 1.81 3.92 3.92 0 0 1-2.47.4 3.06 3.06 0 0 1-2.21-1.65 7.34 7.34 0 0 0-3-2.79 9.76 9.76 0 0 0-4.8-1.09 9.4 9.4 0 0 0-7.11 3.06q-2.9 3.06-2.9 9.18t2.93 9.28a9.997 9.997 0 0 0 7.61 3.09 8.7 8.7 0 0 0 4.47-1.08 8.3 8.3 0 0 0 3-3.26 3.2 3.2 0 0 1 2.2-1.68 3.94 3.94 0 0 1 2.5.36 3.6 3.6 0 0 1 1.68 1.78 2.87 2.87 0 0 1-.26 2.63 15.9 15.9 0 0 1-5.49 5.75M193.718 70.087a3.17 3.17 0 0 1 2.57 1 3.4 3.4 0 0 1 .85 2.24 3.54 3.54 0 0 1-.85 2.27 3.1 3.1 0 0 1-2.57 1.06h-24.42a3.2 3.2 0 0 1-2.6-1.06 3.46 3.46 0 0 1-.88-2.27c.005-.83.318-1.628.88-2.24a3.27 3.27 0 0 1 2.6-1zm-8.75 34.1a2.87 2.87 0 0 1-1.09 2.46 3.82 3.82 0 0 1-2.37.83 3.88 3.88 0 0 1-2.37-.83 2.88 2.88 0 0 1-1.08-2.46v-30.57a2.92 2.92 0 0 1 1.08-2.47 3.92 3.92 0 0 1 2.37-.82 3.87 3.87 0 0 1 2.37.82 2.9 2.9 0 0 1 1.09 2.47zM244.888 105.307a15.34 15.34 0 0 1-8.06 2q-8.35 0-12.9-5.47a20.38 20.38 0 0 1-4.54-13.49 20.37 20.37 0 0 1 4.47-13.39q4.49-5.34 12.44-5.34a17.2 17.2 0 0 1 8.13 1.91 13.6 13.6 0 0 1 5.63 5.33 2.83 2.83 0 0 1 .33 2.66 3.53 3.53 0 0 1-1.65 1.81 3.92 3.92 0 0 1-2.47.4 3 3 0 0 1-2.2-1.65 7.47 7.47 0 0 0-3-2.79 9.8 9.8 0 0 0-4.81-1.09 9.4 9.4 0 0 0-7.02 3.01q-2.89 3.06-2.89 9.18t2.93 9.28a10 10 0 0 0 3.469 2.36 10 10 0 0 0 4.131.73 8.7 8.7 0 0 0 4.47-1.08 8.3 8.3 0 0 0 3-3.26c.22-.427.532-.8.915-1.09a3.2 3.2 0 0 1 1.295-.59 4 4 0 0 1 2.5.36 3.67 3.67 0 0 1 1.68 1.78 2.86 2.86 0 0 1-.27 2.63 15.9 15.9 0 0 1-5.58 5.8M280.298 105.367a17 17 0 0 1-8.66 2q-7.95 0-12.43-5.53a20.7 20.7 0 0 1-4.48-13.49 20.32 20.32 0 0 1 4.51-13.35q4.44-5.38 12.4-5.38c5.23 0 9.16 1.74 11.82 5.23a20.56 20.56 0 0 1 4 12.8 3.188 3.188 0 0 1-1 2.37 3.34 3.34 0 0 1-2.4 1h-25.45a3.2 3.2 0 0 1-2.6-1.06 3.45 3.45 0 0 1-.89-2.27 3.33 3.33 0 0 1 .89-2.23 3.27 3.27 0 0 1 2.6-1h21.72c-.44-2.86-1.44-4.94-3-6.26a8.57 8.57 0 0 0-5.7-2c-3.64 0-6.21 1.29-7.73 3.88a16.3 16.3 0 0 0-2.27 8.36c.004 1.509.182 3.012.53 4.48a11.8 11.8 0 0 0 1.71 4 9.15 9.15 0 0 0 3.12 2.83 9.4 9.4 0 0 0 4.64 1.08 10 10 0 0 0 5.14-1.11 8.9 8.9 0 0 0 3.09-3.36c.213-.429.525-.802.909-1.088a3.05 3.05 0 0 1 1.301-.562c.842-.14 1.706 0 2.46.4a3.7 3.7 0 0 1 1.68 1.81 2.76 2.76 0 0 1-.29 2.66 14.93 14.93 0 0 1-5.62 5.79M318.108 70.087a3.18 3.18 0 0 1 2.57 1 3.4 3.4 0 0 1 .85 2.24 3.54 3.54 0 0 1-.85 2.27 3.11 3.11 0 0 1-2.57 1.06h-24.42a3.19 3.19 0 0 1-2.6-1.06 3.47 3.47 0 0 1-.89-2.27c.009-.83.326-1.629.89-2.24a3.26 3.26 0 0 1 2.6-1zm-8.75 34.1a2.9 2.9 0 0 1-1.12 2.43 3.8 3.8 0 0 1-4.74 0 2.9 2.9 0 0 1-1.09-2.46v-30.54a2.92 2.92 0 0 1 1.09-2.47 3.83 3.83 0 0 1 4.74 0 2.93 2.93 0 0 1 1.12 2.47zM350.548 82.727l-18.31 23.3q-1.84 2.37-4 1.68c-1.44-.46-2.17-1.68-2.17-3.66v-31.19a2.89 2.89 0 0 1 1.09-2.47 3.8 3.8 0 0 1 2.37-.82 3.85 3.85 0 0 1 2.37.82 2.91 2.91 0 0 1 1.08 2.47v21.32l18.26-23.3c1.28-1.58 2.64-2.13 4.08-1.67s2.18 1.67 2.18 3.65v31.19a2.926 2.926 0 0 1-1.09 2.47 3.8 3.8 0 0 1-4.74 0 2.93 2.93 0 0 1-1.09-2.47zM385.368 73.317a3.06 3.06 0 0 1 1-2.24 3.34 3.34 0 0 1 2.4-1h10.07c3.305-.135 6.584.64 9.48 2.24a7.58 7.58 0 0 1 3.68 7 7.8 7.8 0 0 1-1.18 4.37 7.7 7.7 0 0 1-3.36 2.8 8.9 8.9 0 0 1 5.4 3.06 9 9 0 0 1 1.84 5.76q0 5.67-3.72 8.62t-11.74 3h-10.45a3.37 3.37 0 0 1-2.4-1 3.079 3.079 0 0 1-1-2.34zm6.91 27h7a23 23 0 0 0 4.77-.39 6.4 6.4 0 0 0 2.6-1.09c.53-.395.903-.966 1.05-1.61.133-.628.2-1.268.2-1.91a6.6 6.6 0 0 0-.23-1.74 2.87 2.87 0 0 0-1.12-1.48 7.2 7.2 0 0 0-2.7-1.06 25 25 0 0 0-5-.39h-7.51a3.34 3.34 0 0 1-2.56-.92 3 3 0 0 1-.86-2c.018-.752.326-1.469.86-2a3.3 3.3 0 0 1 2.56-.93h7.11c2.9-.08 4.73-.61 5.5-1.57a4.8 4.8 0 0 0 1.15-3 3.3 3.3 0 0 0-1.05-2.5c-.71-.66-2.42-1-5.14-1h-6.67zM442.498 106.877c-1.8 0-3-.55-3.56-1.67s-.28-2.36.86-3.72l13.36-15.34c1.8-2.1 3.23-3.9 4.31-5.39a31 31 0 0 0 2.5-4c.527-.985.904-2.044 1.12-3.14.151-.915.228-1.842.23-2.77a5.67 5.67 0 0 0-1.71-4.11 6.35 6.35 0 0 0-4.74-1.74 8.5 8.5 0 0 0-5.83 1.84 9.1 9.1 0 0 0-2.8 4.5 3 3 0 0 1-1.68 2.14 3.79 3.79 0 0 1-4.61-1.15 2.78 2.78 0 0 1-.36-2.63 16 16 0 0 1 5-7.8q3.78-3.39 10.3-3.39a13.19 13.19 0 0 1 9.64 3.65 11.8 11.8 0 0 1 2.767 3.972c.639 1.5.96 3.117.943 4.748 0 1.462-.154 2.92-.46 4.35a19.7 19.7 0 0 1-1.54 4.39 33.6 33.6 0 0 1-3 4.87c-1.25 1.74-2.84 3.7-4.77 5.9l-8.55 9.93h16.32a3.15 3.15 0 0 1 2.56 1 3.43 3.43 0 0 1 0 4.54 3.15 3.15 0 0 1-2.56 1zM718.077 106.877c-1.8 0-3-.55-3.56-1.67s-.28-2.36.86-3.72l13.36-15.34c1.8-2.1 3.23-3.9 4.31-5.39a31 31 0 0 0 2.5-4c.527-.985.904-2.044 1.12-3.14.152-.915.229-1.842.23-2.77a5.67 5.67 0 0 0-1.71-4.11 6.35 6.35 0 0 0-4.74-1.74 8.5 8.5 0 0 0-5.83 1.84 9.1 9.1 0 0 0-2.8 4.5 2.99 2.99 0 0 1-1.68 2.14 3.79 3.79 0 0 1-4.61-1.15 2.78 2.78 0 0 1-.36-2.63 16 16 0 0 1 5-7.8q3.78-3.39 10.3-3.39a13.2 13.2 0 0 1 9.64 3.65 11.8 11.8 0 0 1 2.767 3.972c.639 1.5.96 3.117.943 4.748 0 1.462-.154 2.92-.46 4.35a19.6 19.6 0 0 1-1.54 4.39 33.6 33.6 0 0 1-3 4.87c-1.25 1.74-2.84 3.7-4.77 5.9l-8.55 9.93h16.32a3.15 3.15 0 0 1 2.56 1 3.427 3.427 0 0 1 0 4.54 3.15 3.15 0 0 1-2.56 1zM757.077 106.877c-1.8 0-3-.55-3.56-1.67s-.28-2.36.86-3.72l13.36-15.34c1.8-2.1 3.23-3.9 4.31-5.39a31 31 0 0 0 2.5-4c.527-.985.904-2.044 1.12-3.14.152-.915.229-1.842.23-2.77a5.67 5.67 0 0 0-1.71-4.11 6.35 6.35 0 0 0-4.74-1.74 8.5 8.5 0 0 0-5.83 1.84 9.1 9.1 0 0 0-2.8 4.5 2.99 2.99 0 0 1-1.68 2.14 3.79 3.79 0 0 1-4.61-1.15 2.78 2.78 0 0 1-.36-2.63 16 16 0 0 1 5-7.8q3.78-3.39 10.3-3.39a13.2 13.2 0 0 1 9.64 3.65 11.8 11.8 0 0 1 2.767 3.972c.639 1.5.96 3.117.943 4.748 0 1.462-.154 2.92-.46 4.35a19.6 19.6 0 0 1-1.54 4.39 33.6 33.6 0 0 1-3 4.87c-1.25 1.74-2.84 3.7-4.77 5.9l-8.55 9.93h16.32a3.15 3.15 0 0 1 2.56 1 3.427 3.427 0 0 1 0 4.54 3.15 3.15 0 0 1-2.56 1zM482.078 64.857a13.87 13.87 0 0 1 11.685-6.406 13.86 13.86 0 0 1 11.685 6.406q4.31 6.42 4.31 18.13 0 11.92-4.35 18.2a13.93 13.93 0 0 1-11.645 6.294 13.93 13.93 0 0 1-11.645-6.294q-4.35-6.28-4.35-18.2 0-11.71 4.31-18.13m3.49 27.25a17.9 17.9 0 0 0 2.3 5.46 7.1 7.1 0 0 0 3 2.63 6.46 6.46 0 0 0 5.85 0 7.1 7.1 0 0 0 3-2.63 18.1 18.1 0 0 0 2.3-5.46 36 36 0 0 0 .95-9.12 35.8 35.8 0 0 0-.95-9.05 18.8 18.8 0 0 0-2.3-5.49 7.33 7.33 0 0 0-3-2.7 7.25 7.25 0 0 0-2.93-.72 7 7 0 0 0-2.89.72 7.64 7.64 0 0 0-3 2.7 18 18 0 0 0-2.34 5.49 35.4 35.4 0 0 0-.95 9.05 35.7 35.7 0 0 0 .96 9.12M531.148 67.717l-8.82 5.2a3.25 3.25 0 0 1-2.77.43 3.62 3.62 0 0 1-2-1.48 3.25 3.25 0 0 1-.5-2.37 3 3 0 0 1 1.65-2.17l14-8.36a3.71 3.71 0 0 1 3.73-.35 3.25 3.25 0 0 1 1.62 3.16v41.6a2.87 2.87 0 0 1-1.09 2.46 3.82 3.82 0 0 1-2.37.83 3.88 3.88 0 0 1-2.37-.83 2.88 2.88 0 0 1-1.08-2.46zm12.7 32.58a3.25 3.25 0 0 1 2.6 1 3.34 3.34 0 0 1 0 4.54 3.27 3.27 0 0 1-2.6 1h-22.77a3.2 3.2 0 0 1-2.54-1 3.34 3.34 0 0 1 0-4.54 3.197 3.197 0 0 1 2.54-1zM569.318 67.717l-8.82 5.2a3.25 3.25 0 0 1-2.77.43 3.66 3.66 0 0 1-2-1.48 3.3 3.3 0 0 1-.5-2.37 3.07 3.07 0 0 1 1.65-2.17l14-8.36a3.73 3.73 0 0 1 3.72-.33 3.26 3.26 0 0 1 1.64 3.16v41.6a2.87 2.87 0 0 1-1.09 2.46 3.82 3.82 0 0 1-2.37.83 3.88 3.88 0 0 1-2.37-.83 2.88 2.88 0 0 1-1.08-2.46zm12.7 32.58a3.25 3.25 0 0 1 2.6 1 3.34 3.34 0 0 1 0 4.54 3.27 3.27 0 0 1-2.6 1h-22.78a3.2 3.2 0 0 1-2.54-1 3.37 3.37 0 0 1 0-4.54 3.197 3.197 0 0 1 2.54-1zM625.388 78.617a3.13 3.13 0 0 1 2.57 1 3.36 3.36 0 0 1 0 4.47 3.1 3.1 0 0 1-2.57 1.06h-27.64a3.1 3.1 0 0 1-2.51-1.04 3.25 3.25 0 0 1 0-4.49 3.13 3.13 0 0 1 2.51-1zM639.938 106.877c-1.8 0-3-.55-3.56-1.67s-.28-2.36.86-3.72l13.36-15.34c1.8-2.1 3.23-3.9 4.31-5.39a31 31 0 0 0 2.5-4c.526-.985.904-2.044 1.12-3.14.151-.915.228-1.842.23-2.77a5.67 5.67 0 0 0-1.71-4.11 6.35 6.35 0 0 0-4.74-1.74 8.5 8.5 0 0 0-5.83 1.84 9.1 9.1 0 0 0-2.79 4.47 3 3 0 0 1-1.68 2.14 3.79 3.79 0 0 1-4.61-1.15 2.78 2.78 0 0 1-.36-2.63 16 16 0 0 1 5-7.8q3.78-3.39 10.3-3.39a13.19 13.19 0 0 1 9.64 3.65 11.82 11.82 0 0 1 3.72 8.72 20 20 0 0 1-.46 4.35 19.2 19.2 0 0 1-1.61 4.42 34.3 34.3 0 0 1-3 4.87c-1.26 1.74-2.85 3.7-4.78 5.9l-8.55 9.93h16.39a3.15 3.15 0 0 1 2.56 1 3.43 3.43 0 0 1 0 4.54 3.15 3.15 0 0 1-2.56 1zM679.518 64.857a13.87 13.87 0 0 1 11.685-6.406 13.86 13.86 0 0 1 11.685 6.406q4.35 6.42 4.35 18.13 0 11.92-4.35 18.2a13.93 13.93 0 0 1-11.645 6.294 13.93 13.93 0 0 1-11.645-6.294q-4.36-6.28-4.36-18.2 0-11.71 4.28-18.13m3.49 27.25a17.9 17.9 0 0 0 2.3 5.46 7.1 7.1 0 0 0 3 2.63 6.46 6.46 0 0 0 5.85 0 7.1 7.1 0 0 0 3-2.63 18.1 18.1 0 0 0 2.3-5.46 36.2 36.2 0 0 0 1-9.12 35.8 35.8 0 0 0-1-9.05 18.8 18.8 0 0 0-2.3-5.49 7.33 7.33 0 0 0-3-2.7 7.25 7.25 0 0 0-2.92-.72 7.05 7.05 0 0 0-2.9.72 7.63 7.63 0 0 0-3 2.7 18 18 0 0 0-2.34 5.49 35.4 35.4 0 0 0-.95 9.05 35.7 35.7 0 0 0 .96 9.12M810.458 73.317a2.996 2.996 0 0 1 1-2.24 3.46 3.46 0 0 1 2.44-1h17.11a3.24 3.24 0 0 1 2.63 1 3.42 3.42 0 0 1 .86 2.24 3.54 3.54 0 0 1-.86 2.27 3.17 3.17 0 0 1-2.63 1.06h-13.64v27.51a2.87 2.87 0 0 1-1.13 2.46 3.82 3.82 0 0 1-2.37.83 3.88 3.88 0 0 1-2.37-.83 2.88 2.88 0 0 1-1.08-2.46zM841.748 74.997q4.49-5.38 12.61-5.38t12.53 5.43a20.33 20.33 0 0 1 4.51 13.46 20.35 20.35 0 0 1-4.51 13.42q-4.5 5.47-12.53 5.47t-12.61-5.47a20.4 20.4 0 0 1-4.51-13.47 20.38 20.38 0 0 1 4.51-13.46m5.3 22.67a10.14 10.14 0 0 0 11.249 2.287 10.1 10.1 0 0 0 3.331-2.287q2.93-3.09 2.93-9.21t-2.93-9.25a10.2 10.2 0 0 0-7.29-3.061 10.2 10.2 0 0 0-7.29 3.061q-2.89 3.06-2.9 9.25t2.9 9.21M873.968 103.617a3.08 3.08 0 0 1 1-2.3 3.46 3.46 0 0 1 2.44-1h30.86a3.33 3.33 0 0 1 2.41 1 3.1 3.1 0 0 1 1 2.3v9.28a2.994 2.994 0 0 1-1.09 2.5 3.6 3.6 0 0 1-4.67 0 3 3 0 0 1-1.09-2.5v-6h-24v6a2.994 2.994 0 0 1-1.09 2.5 3.74 3.74 0 0 1-2.37.86 3.78 3.78 0 0 1-2.37-.86 3 3 0 0 1-1.08-2.5zm5-4.24c.493-1.57.858-3.18 1.09-4.81.35-2.12.66-4.91.92-8.35s.4-7.74.4-12.87a2.996 2.996 0 0 1 1-2.24 3.34 3.34 0 0 1 2.4-1h18.56a3.33 3.33 0 0 1 2.4 1 3.04 3.04 0 0 1 1 2.24l.07 30.27a2.93 2.93 0 0 1-1.09 2.47 3.8 3.8 0 0 1-2.37.82 3.85 3.85 0 0 1-2.37-.82 2.9 2.9 0 0 1-1.08-2.47v-26.94h-11.66q-.06 6.78-.49 11.58t-1 8.09a36 36 0 0 1-1.29 5.27 14.7 14.7 0 0 1-1.41 3.09 3 3 0 0 1-2.14 1.68 3.83 3.83 0 0 1-2.5-.39 3.6 3.6 0 0 1-1.65-1.81 2.86 2.86 0 0 1-.143-1.366c.065-.46.241-.897.513-1.274q.51-1.07.87-2.2zM939.238 96.117a18.4 18.4 0 0 1-2.31 5.86 11.8 11.8 0 0 1-4.11 4 12.1 12.1 0 0 1-6.15 1.48q-5.93 0-9-3.23a11.7 11.7 0 0 1-3-8.36c0-3.07.86-5.41 2.6-7a14.8 14.8 0 0 1 6.58-3.45 34 34 0 0 1 8.69-1q4.7 0 8.85.29c-.05.49-.12 1.43-.23 2.84s-.21 2.36-.3 2.89a57 57 0 0 0-13.95.2c-3.6.61-5.4 2.37-5.4 5.26a4.9 4.9 0 0 0 1.42 3.52q1.41 1.48 4.9 1.49a8.75 8.75 0 0 0 7.17-3.36 12.8 12.8 0 0 0 2.7-8.29c0-.79.38-1.16 1.12-1.09s1.12.43 1.12 1.09a32.3 32.3 0 0 1-.7 6.86m-1.5-11.74q0-4.61-1.71-6.42t-5.79-1.81a8.44 8.44 0 0 0-4.31 1 8 8 0 0 0-2.86 2.77 2.9 2.9 0 0 1-2.14 1.7 4.1 4.1 0 0 1-2.5-.39 3.44 3.44 0 0 1-1.65-1.81 2.93 2.93 0 0 1 .36-2.67 13.3 13.3 0 0 1 5.56-5.26 16.9 16.9 0 0 1 8-1.91q7.57 0 10.73 4.11t3.16 10.7v19.67a2.89 2.89 0 0 1-1.09 2.47 3.7 3.7 0 0 1-4.67 0 2.89 2.89 0 0 1-1.09-2.47zM955.838 105.957a3 3 0 0 1-1.003.976 3 3 0 0 1-1.337.414 3.93 3.93 0 0 1-2.46-.66 3.5 3.5 0 0 1-1.42-2 2.77 2.77 0 0 1 .69-2.56l23.37-31.2a3.09 3.09 0 0 1 2.4-1.41 3.85 3.85 0 0 1 2.4.69 3.5 3.5 0 0 1 1.42 1.94 3.01 3.01 0 0 1-.63 2.6zm-4.93-31.19a2.86 2.86 0 0 1-.7-2.6 3.47 3.47 0 0 1 1.45-1.94 4.07 4.07 0 0 1 2.47-.69 3 3 0 0 1 2.37 1.41l23.36 31.2a2.75 2.75 0 0 1 .7 2.56 3.54 3.54 0 0 1-1.45 2 4 4 0 0 1-2.44.66 3.282 3.282 0 0 1-2.4-1.39zM1562.31 45.49c.6 1.388 1.69 2.603 3.25 3.644q2.415 1.562 6.12 1.562c2.95 0 5.23-.781 6.83-2.343 1.65-1.562 2.47-3.622 2.47-6.182q0-3.383-2.73-5.726c-1.82-1.562-4.6-2.343-8.33-2.343h-.71q-1.695 0-2.61-.976-.84-1.041-.84-2.277t.84-2.213q.915-1.04 2.61-1.04h.71c1.04 0 2.04-.174 2.99-.521q1.5-.52 2.61-1.367a7 7 0 0 0 1.75-2.147 5.6 5.6 0 0 0 .65-2.668c0-1.952-.56-3.384-1.69-4.295q-1.62-1.366-4.29-1.366c-1.69 0-3.02.303-3.97.91-.96.608-1.76 1.28-2.41 2.018-.61.694-1.17 1.345-1.69 1.952q-.72.91-1.95.91c-.91 0-1.76-.281-2.54-.845q-1.11-.91-1.11-2.343 0-.65.39-1.431c.48-.998 1.13-1.952 1.96-2.863.86-.911 1.86-1.714 2.99-2.408a16.2 16.2 0 0 1 3.84-1.757c1.39-.434 2.88-.65 4.49-.65 1.65 0 3.23.26 4.75.78 1.56.52 2.93 1.302 4.1 2.343 1.21.998 2.17 2.256 2.86 3.774q1.11 2.277 1.11 5.27c0 1.953-.44 3.732-1.3 5.337a13 13 0 0 1-3.52 4.034 14.55 14.55 0 0 1 5.6 4.49c1.47 1.909 2.21 4.382 2.21 7.418q0 3.32-1.17 6.117a14 14 0 0 1-3.32 4.75c-1.43 1.302-3.14 2.321-5.14 3.059-1.95.737-4.1 1.106-6.44 1.106-3.73 0-6.99-.846-9.76-2.538-2.78-1.735-4.75-3.991-5.92-6.767-.18-.39-.26-.825-.26-1.302 0-.954.36-1.713 1.1-2.277.74-.608 1.56-.911 2.47-.911.61 0 1.18.173 1.7.52.56.304.99.824 1.3 1.562"></path></g></g><defs><linearGradient id="10b92afb-8f33-44a0-b126-34baa2f6332ac" x1="1042.32" x2="1120.42" y1="789.564" y2="789.564" gradientUnits="userSpaceOnUse"><stop stop-color="#454141"></stop><stop offset="1" stop-color="#C3BEC1"></stop></linearGradient><linearGradient id="9cc99a8c-a596-4358-b0ad-f03ecf4c8f0ed" x1="106113" x2="121493" y1="-44284.2" y2="-44284.2" gradientUnits="userSpaceOnUse"><stop stop-color="#454141"></stop><stop offset="1" stop-color="#C3BEC1"></stop></linearGradient><linearGradient id="ebfc4925-26a9-4b76-a085-8a136aa638c5e" x1="83571.3" x2="89975.8" y1="-211269" y2="-211269" gradientUnits="userSpaceOnUse"><stop stop-color="#454141"></stop><stop offset="1" stop-color="#C3BEC1"></stop></linearGradient><linearGradient id="f0b8819b-a130-409a-8b67-9324a2d4f68df" x1="85310.4" x2="101639" y1="-17114.5" y2="-17114.5" gradientUnits="userSpaceOnUse"><stop stop-color="#454141"></stop><stop offset="1" stop-color="#C3BEC1"></stop></linearGradient><linearGradient id="fa989f7f-8e62-4c8b-946d-f9bc40f760cdg" x1="68326.5" x2="89227" y1="-1494.81" y2="-1494.81" gradientUnits="userSpaceOnUse"><stop stop-color="#454141"></stop><stop offset="1" stop-color="#C3BEC1"></stop></linearGradient><linearGradient id="aa274044-7fcc-4700-aed3-dc18bb1ef3d4h" x1="37832.2" x2="55887.5" y1="-6352.32" y2="-6352.32" gradientUnits="userSpaceOnUse"><stop stop-color="#454141"></stop><stop offset="1" stop-color="#C3BEC1"></stop></linearGradient><linearGradient id="6d3a0f28-8b38-4a9b-840d-845a7139cf51i" x1="112208" x2="117613" y1="-238304" y2="-238304" gradientUnits="userSpaceOnUse"><stop stop-color="#454141"></stop><stop offset="1" stop-color="#C3BEC1"></stop></linearGradient><linearGradient id="d2e7141e-0b24-47b2-8916-24d9cbd120b4j" x1="117207" x2="120298" y1="20061.9" y2="20061.9" gradientUnits="userSpaceOnUse"><stop stop-color="#454141"></stop><stop offset="1" stop-color="#C3BEC1"></stop></linearGradient><linearGradient id="64b7c83a-0b70-44c8-8514-976f2613d9ddk" x1="53681.4" x2="55072.3" y1="31693" y2="31693" gradientUnits="userSpaceOnUse"><stop stop-color="#454141"></stop><stop offset="1" stop-color="#C3BEC1"></stop></linearGradient><linearGradient id="587b0fd2-8f4f-4ab4-a7cf-e45b063bed84l" x1="49936.9" x2="51224.8" y1="44274.2" y2="44274.2" gradientUnits="userSpaceOnUse"><stop stop-color="#454141"></stop><stop offset="1" stop-color="#C3BEC1"></stop></linearGradient><clipPath id="1d1201ea-20dd-4e41-a9f9-d4a21f5022eba"><path fill="#fff" d="M.238.617h1800v1063H.238z"></path></clipPath></defs></svg>